<svg xmlns="http://www.w3.org/2000/svg" viewBox="0 0 512 330.95"><defs><style>.cls-1{fill:#dbd4b8;}</style></defs><title>Ресур2</title><g id="Слой_2" data-name="Слой 2"><g id="Capa_1" data-name="Capa 1"><path class="cls-1" d="M502,0H448a20,20,0,0,0-19,13.89H288.25l-.31-.16A141.71,141.71,0,0,0,201.69,3.6L120.91,19.36H84A20,20,0,0,0,64,0H10A10,10,0,0,0,0,10V74.29a10,10,0,0,0,20,0V20H64V209.59H20v-53.3a10,10,0,0,0-20,0v63.3a10,10,0,0,0,10,10H64a20,20,0,0,0,20-20v-.11a37.21,37.21,0,0,1,12.72,6.38l4.67,3.62a31.74,31.74,0,0,0,31.56,28.26c.72,0,1.43,0,2.15-.08a31.76,31.76,0,0,0,31.52,27.81c.72,0,1.43,0,2.14-.08A31.58,31.58,0,0,0,180.09,296h0a31.58,31.58,0,0,0,20.17,7.26c.73,0,1.46,0,2.19-.08a31.77,31.77,0,0,0,31.48,27.82q1.55,0,3.12-.15a31.6,31.6,0,0,0,21.49-11.44l8.13-9.87A31.64,31.64,0,0,0,272,300a32.91,32.91,0,0,0,15.54,3.87h.49a33.09,33.09,0,0,0,30.48-21.35l3.45,3.35a33.1,33.1,0,0,0,54.6-13.63,33.11,33.11,0,0,0,37.82-53.4l-6.95-6.77L428,201v8.57a20,20,0,0,0,20,20h54a10,10,0,0,0,10-10v-66.3a10,10,0,0,0-20,0v56.3H448V20h44V75.82a10,10,0,0,0,20,0V10A10,10,0,0,0,502,0ZM125.47,225.05a11.82,11.82,0,0,1-1.61-16.62l8.13-9.87a11.73,11.73,0,0,1,8-4.25q.58-.06,1.16-.06a11.81,11.81,0,0,1,9.09,19.32l-8.13,9.87A11.82,11.82,0,0,1,125.47,225.05Zm33.66,27.73h0a11.81,11.81,0,0,1-1.61-16.62l8.13-9.87a11.72,11.72,0,0,1,8-4.24q.58-.06,1.16-.06a11.81,11.81,0,0,1,9.09,19.32l-8.13,9.87A11.82,11.82,0,0,1,159.13,252.78Zm33.67,27.73h0a11.81,11.81,0,0,1-1.61-16.62l8.13-9.87a11.81,11.81,0,0,1,18.23,15l-8.13,9.87a11.81,11.81,0,0,1-16.62,1.61Zm58.42,16.25-8.13,9.87a11.81,11.81,0,0,1-18.23-15l8.13-9.87a11.73,11.73,0,0,1,8-4.24q.58-.06,1.16-.06a11.81,11.81,0,0,1,9.09,19.32Zm149.51-45a13.13,13.13,0,0,1-18.55.27L349,219.79l-.11-.1-32.66-31.74a10,10,0,1,0-13.94,14.34l51.9,50.44a13.12,13.12,0,0,1-18.28,18.82L284,221.1c-.1-.1-.22-.19-.33-.29l-24.94-24.23a10,10,0,1,0-13.94,14.34l51.9,50.44a13.12,13.12,0,1,1-18.28,18.81l-14.54-14.13a10,10,0,0,0-1-.86l-.56-.48A31.69,31.69,0,0,0,240,257.55a31.72,31.72,0,0,0-33.65-27.73,31.78,31.78,0,0,0-33.68-27.75,31.79,31.79,0,0,0-56.08-16.23l-8.13,9.87q-1,1.24-1.9,2.56A57.48,57.48,0,0,0,84,189V39.36h37.88a10,10,0,0,0,1.92-.19l81.73-15.95a122.19,122.19,0,0,1,41.57-.94,96,96,0,0,0-28.18,19.38l-75.71,74.91a35.44,35.44,0,0,0,42.36,56l79.34-44.83h27.39L400.47,233.2a13.12,13.12,0,0,1,.27,18.55Zm-8.28-54.28-71.51-69.68h7a10,10,0,0,0,0-20h-65.7a10,10,0,0,0-4.92,1.29l-81.63,46.12a15.44,15.44,0,0,1-18.45-24.41L233,55.88a75.6,75.6,0,0,1,53.5-22H428v144.4Z"/><path class="cls-1" d="M502,104.8a10,10,0,1,0,7.07,2.93A10,10,0,0,0,502,104.8Z"/><path class="cls-1" d="M10,124.8a10,10,0,1,0-10-10,10,10,0,0,0,10,10Z"/></g></g></svg>