<svg xmlns="http://www.w3.org/2000/svg" viewBox="0 0 404 512"><defs><style>.cls-1{fill:#dbd4b8;}</style></defs><title>Ресурс 1</title><g id="Слой_2" data-name="Слой 2"><g id="Capa_1" data-name="Capa 1"><path class="cls-1" d="M354,40H286.22a27.21,27.21,0,0,0-21.47-10.5H248.48A50.12,50.12,0,0,0,202.88,0h-1.76a50.12,50.12,0,0,0-45.61,29.5H139.25A27.21,27.21,0,0,0,117.78,40H50A50.06,50.06,0,0,0,0,90V462a50.06,50.06,0,0,0,50,50H354a50.06,50.06,0,0,0,50-50V331.94a10,10,0,0,0-20,0V462a30,30,0,0,1-30,30H50a30,30,0,0,1-30-30V90A30,30,0,0,1,50,60h62V80H60a20,20,0,0,0-20,20V452a20,20,0,0,0,20,20H344a20,20,0,0,0,20-20V100a20,20,0,0,0-20-20H292V60h62a30,30,0,0,1,30,30V248.1a10,10,0,0,0,20,0V90A50.06,50.06,0,0,0,354,40ZM344,452H60V100H344ZM132,80V56.75a7.26,7.26,0,0,1,7.25-7.25h23.27a10,10,0,0,0,9.65-7.38A30,30,0,0,1,201.12,20h1.75a30,30,0,0,1,28.95,22.12,10,10,0,0,0,9.65,7.38h23.27A7.26,7.26,0,0,1,272,56.75V80Z"/><path class="cls-1" d="M394,280.9a10,10,0,1,0,7.07,2.93A10.08,10.08,0,0,0,394,280.9Z"/><path class="cls-1" d="M209,196a10,10,0,1,0-7.07-2.93A10.08,10.08,0,0,0,209,196Z"/><path class="cls-1" d="M243,186a10,10,0,0,0,10,10h59.48a10,10,0,0,0,0-20H253A10,10,0,0,0,243,186Z"/><path class="cls-1" d="M312.48,284H209a10,10,0,0,0,0,20H312.48a10,10,0,1,0,0-20Z"/><path class="cls-1" d="M312.48,392H209a10,10,0,0,0,0,20H312.48a10,10,0,1,0,0-20Z"/><path class="cls-1" d="M98,196h48a10,10,0,0,0,0-20H108V138a10,10,0,0,0-20,0v48A10,10,0,0,0,98,196Z"/><path class="cls-1" d="M152.88,127.71,139.1,141.5l-1.17-1.17a10,10,0,0,0-14.14,14.14l8.24,8.24a10,10,0,0,0,14.14,0L167,141.86a10,10,0,0,0-14.14-14.14Z"/><path class="cls-1" d="M98,303.71h48a10,10,0,0,0,0-20H108v-38a10,10,0,0,0-20,0v48A10,10,0,0,0,98,303.71Z"/><path class="cls-1" d="M152.88,235.42,139.1,249.21,137.93,248a10,10,0,1,0-14.14,14.14l8.24,8.24a10,10,0,0,0,14.14,0L167,249.57a10,10,0,1,0-14.14-14.14Z"/><path class="cls-1" d="M146,392H108V354a10,10,0,0,0-20,0v48a10,10,0,0,0,10,10h48a10,10,0,0,0,0-20Z"/><path class="cls-1" d="M152.88,343.71,139.1,357.5l-1.17-1.17a10,10,0,0,0-14.14,14.14l8.24,8.24a10,10,0,0,0,14.14,0L167,357.86a10,10,0,1,0-14.14-14.14Z"/></g></g></svg>