<svg xmlns="http://www.w3.org/2000/svg" viewBox="0 0 512 403.98"><defs><style>.cls-1{fill:#dbd4b8;}</style></defs><title>Ресурс 3</title><g id="Слой_2" data-name="Слой 2"><g id="Capa_1" data-name="Capa 1"><path class="cls-1" d="M402.18,5.46a30,30,0,0,0-27.39-3.7L244.08,48.64a10,10,0,1,0,6.75,18.83L381.54,20.58A10,10,0,0,1,394.92,30V318.42a10,10,0,0,1-13.38,9.41l-7.21-2.58V222.54a10,10,0,1,0-20,0v95.53l-214.4-76.9V107.24l43.31-15.54a10,10,0,1,0-6.75-18.83L128.2,90.21H50a50.06,50.06,0,0,0-50,50v68a50.06,50.06,0,0,0,50,50h1l48.89,132A21.18,21.18,0,0,0,119.65,404h50.11a21.1,21.1,0,0,0,19.78-28.42L148.83,265.61l226,81.05a30,30,0,0,0,40.13-28.24V30A30,30,0,0,0,402.18,5.46ZM20,208.21v-68a30,30,0,0,1,30-30h69.94v128H50A30,30,0,0,1,20,208.21Zm150.66,175.3a1,1,0,0,1-.9.47H119.65a1.1,1.1,0,0,1-1-.72L72.31,258.21h52.45l46,124.3A1,1,0,0,1,170.66,383.51Z"/><path class="cls-1" d="M212.63,80.55a10,10,0,1,0-7.07-2.93A10.08,10.08,0,0,0,212.63,80.55Z"/><path class="cls-1" d="M453.95,130.59a10,10,0,0,0-14.14,14.14,41.69,41.69,0,0,1,0,59,10,10,0,1,0,14.14,14.14,61.69,61.69,0,0,0,0-87.24Z"/><path class="cls-1" d="M482.22,102.31a10,10,0,0,0-14.14,14.14,81.67,81.67,0,0,1,0,115.5,10,10,0,1,0,14.14,14.14,101.67,101.67,0,0,0,0-143.79Z"/><path class="cls-1" d="M163.2,197.08a10,10,0,1,0,14.14,14.14l51.14-51.14,34.32,34.32a10,10,0,0,0,14.14,0l78.14-78.14A10,10,0,0,0,375,114.67V92.26a10,10,0,0,0-10-10H342.55a10,10,0,0,0-1.6,19.86l-71.06,71.06-34.32-34.32a10,10,0,0,0-14.14,0Z"/><path class="cls-1" d="M364.33,171.12A10,10,0,1,0,371.4,174,10.08,10.08,0,0,0,364.33,171.12Z"/></g></g></svg>