<svg xmlns="http://www.w3.org/2000/svg" viewBox="0 0 512 504.2"><defs><style>.cls-1{fill:#dbd4b8;}</style></defs><title>Ресурс 1</title><g id="Слой_2" data-name="Слой 2"><g id="Capa_1" data-name="Capa 1"><path class="cls-1" d="M457.35,400.23a45.82,45.82,0,0,0,8.73-26.95V313.2a10,10,0,0,0-10-10H411.39a37.51,37.51,0,0,0-37.47,37.47v32.62a45.82,45.82,0,0,0,8.72,26.93,64.39,64.39,0,0,0-19.55,6.51,85.08,85.08,0,0,0-62.82-37.44l-.31-.08A58.79,58.79,0,0,0,315,329.87V248.2a10,10,0,0,0-10-10H244.3A47.39,47.39,0,0,0,197,285.53v44.34A58.79,58.79,0,0,0,212,369.21l-.31.08a85.08,85.08,0,0,0-62.82,37.45,64.46,64.46,0,0,0-19.55-6.51,45.82,45.82,0,0,0,8.73-26.93V313.2a10,10,0,0,0-10-10H83.39a37.51,37.51,0,0,0-37.47,37.47v32.62a45.81,45.81,0,0,0,8.74,26.95A65.3,65.3,0,0,0,0,464.57V494.2a10,10,0,0,0,10,10H502a10,10,0,0,0,10-10V464.57A65.3,65.3,0,0,0,457.35,400.23Zm-11.27-26.95a26.08,26.08,0,0,1-52.16,0v-7.08h41.33a30.65,30.65,0,0,0,10.83-2v9.05Zm-19.63,46.08L420,425.81l-6.45-6.45Zm-32.53-78.7a17.49,17.49,0,0,1,17.47-17.47h34.69v12.18a10.84,10.84,0,0,1-10.83,10.83H393.92Zm-177-24h59.76A38.08,38.08,0,0,0,295,312v17.88a39,39,0,0,1-78.07,0V316.65Zm56.47,72.25L256,406.34,238.57,388.9ZM217,285.53a27.36,27.36,0,0,1,27.33-27.33H295v20.14a18.33,18.33,0,0,1-18.31,18.31H217V285.53Zm-98.88,87.76a26.08,26.08,0,0,1-52.16,0v-7.08h41.33a30.65,30.65,0,0,0,10.83-2ZM98.45,419.37,92,425.81l-6.45-6.45Zm-32.53-78.7A17.49,17.49,0,0,1,83.39,323.2h34.69v12.18a10.84,10.84,0,0,1-10.83,10.83H65.92ZM20,464.57A45.27,45.27,0,0,1,57.87,420L84.93,447a10,10,0,0,0,14.14,0L126.13,420a44.72,44.72,0,0,1,13.66,4.57,84.63,84.63,0,0,0-5.24,29.4V484.2H20ZM338,484.2H154.55v-20h65.11a10,10,0,0,0,0-20H155.28a65.17,65.17,0,0,1,55.6-54.7l38,38a10,10,0,0,0,14.14,0l38-38a65.12,65.12,0,0,1,56.33,64.43V484.2Zm154,0H377.45V453.93a84.61,84.61,0,0,0-5.24-29.4A44.6,44.6,0,0,1,385.86,420L412.93,447a10,10,0,0,0,14.14,0L454.13,420A45.27,45.27,0,0,1,492,464.57V484.2Z"/><path class="cls-1" d="M206.72,85.39a10,10,0,0,0,0,14.14L235,127.82a10,10,0,0,0,14.14,0l56.14-56.14a10,10,0,1,0-14.14-14.14l-49.07,49.07L220.86,85.39A10,10,0,0,0,206.72,85.39Z"/><path class="cls-1" d="M256,193.16A100.49,100.49,0,0,0,296.89.87a10,10,0,0,0-8.15,18.27,80.48,80.48,0,1,1-65.83.15,10,10,0,0,0-8.23-18.23A100.49,100.49,0,0,0,256,193.16Z"/><path class="cls-1" d="M256,444.2a10,10,0,1,0,7.07,2.93A10.08,10.08,0,0,0,256,444.2Z"/></g></g></svg>