<svg xmlns="http://www.w3.org/2000/svg" viewBox="0 0 513 513"><defs><style>.cls-1{fill:#fff;stroke:#fff;stroke-miterlimit:10;}</style></defs><title>Ресурс 1</title><g id="Слой_2" data-name="Слой 2"><g id="Layer_1" data-name="Layer 1"><path class="cls-1" d="M470.28.5H111.13a8,8,0,0,0,0,16H470.28a26.22,26.22,0,0,1,26.19,26.19V470.28a26.22,26.22,0,0,1-26.19,26.19H324.37V393.32a8,8,0,0,0-16,0V496.47H256V307.81a8,8,0,0,0-8-8H213.21V247.41h34.74a8,8,0,0,0,8-8V188.09a94.7,94.7,0,0,1,94.6-94.6H411v52.38H350.56a42.27,42.27,0,0,0-42.22,42.22V239.4a8,8,0,0,0,8,8H411v52.38h-94.6a8,8,0,0,0-8,8v51.31a8,8,0,1,0,16,0V315.82H419a8,8,0,0,0,8-8V239.4a8,8,0,0,0-8-8h-94.6V188.09a26.22,26.22,0,0,1,26.19-26.19H419a8,8,0,0,0,8-8V85.48a8,8,0,0,0-8-8H350.56A110.76,110.76,0,0,0,239.93,188.09v43.29H205.19a8,8,0,0,0-8,8v68.41a8,8,0,0,0,8,8h34.74V496.47H42.72a26.22,26.22,0,0,1-26.19-26.19V42.72A26.22,26.22,0,0,1,42.72,16.53h34.2a8,8,0,0,0,0-16H42.72A42.27,42.27,0,0,0,.5,42.72V470.28A42.27,42.27,0,0,0,42.72,512.5H470.28a42.27,42.27,0,0,0,42.22-42.22V42.72A42.27,42.27,0,0,0,470.28.5Z"/></g></g></svg>