<svg xmlns="http://www.w3.org/2000/svg" viewBox="0 0 512 335.07"><defs><style>.cls-1{fill:#fff;}</style></defs><title>Ресурс 1</title><g id="Слой_2" data-name="Слой 2"><g id="Layer_1" data-name="Layer 1"><path class="cls-1" d="M63.13,58.52A151,151,0,0,1,267.92,54.8L241.37,80.09a114.44,114.44,0,1,0,37,116.05,8.38,8.38,0,0,0-8-10.36H184.67V149.29h89a8.29,8.29,0,1,0,0-16.59H176.38a8.29,8.29,0,0,0-8.29,8.29v53.08a8.29,8.29,0,0,0,8.29,8.29H259a97.91,97.91,0,1,1-23.3-105,8.29,8.29,0,0,0,11.5.06l38.46-36.63a8.38,8.38,0,0,0,.14-11.88A167.53,167.53,0,0,0,51.66,46.54a8.29,8.29,0,0,0,11.48,12Z"/><path class="cls-1" d="M324.56,132.7H309.08a8.29,8.29,0,0,0,0,16.59h8.3a152.38,152.38,0,0,1,1.1,18.25c0,83.23-67.71,150.95-150.95,150.95S16.59,250.76,16.59,167.53A150.23,150.23,0,0,1,42,83.68a8.29,8.29,0,1,0-13.78-9.23A166.75,166.75,0,0,0,0,167.53c0,92.38,75.16,167.53,167.53,167.53s167.53-75.15,167.53-167.53a169.21,169.21,0,0,0-2.33-27.91A8.29,8.29,0,0,0,324.56,132.7Z"/><path class="cls-1" d="M503.71,132.7H476.61V105.61a8.29,8.29,0,0,0-8.29-8.29H415.24a8.29,8.29,0,0,0-8.29,8.29V132.7H379.85a8.29,8.29,0,0,0-8.29,8.29v53.08a8.29,8.29,0,0,0,8.29,8.29h27.09v27.09a8.29,8.29,0,0,0,8.29,8.29h53.08a8.29,8.29,0,0,0,8.29-8.29V202.37h27.09a8.29,8.29,0,0,0,8.29-8.29V141A8.29,8.29,0,0,0,503.71,132.7Zm-8.29,53.08H468.32a8.29,8.29,0,0,0-8.29,8.29v27.09H423.53V194.07a8.29,8.29,0,0,0-8.29-8.29H388.15V149.29h27.09a8.29,8.29,0,0,0,8.29-8.29V113.9H460V141a8.29,8.29,0,0,0,8.29,8.29h27.09Z"/></g></g></svg>