<svg xmlns="http://www.w3.org/2000/svg" viewBox="0 0 512 512"><defs><style>.cls-1{fill:#fff;}</style></defs><title>Ресурс 1</title><g id="Слой_2" data-name="Слой 2"><g id="Layer_1" data-name="Layer 1"><path class="cls-1" d="M504,93a8,8,0,0,0,8-8V42.22A42.27,42.27,0,0,0,469.78,0H42.22A42.27,42.27,0,0,0,0,42.22V469.78A42.27,42.27,0,0,0,42.22,512H469.78A42.27,42.27,0,0,0,512,469.78V119.18a8,8,0,0,0-16,0v350.6A26.22,26.22,0,0,1,469.78,496H42.22A26.22,26.22,0,0,1,16,469.78V42.22A26.22,26.22,0,0,1,42.22,16H469.78A26.22,26.22,0,0,1,496,42.22V85A8,8,0,0,0,504,93Z"/><path class="cls-1" d="M153.39,238.9a8,8,0,0,0,8-8V196.14a8,8,0,0,0-8-8H85a8,8,0,0,0-8,8V427a8,8,0,0,0,8,8h68.41a8,8,0,0,0,8-8V266.15a8,8,0,0,0-16,0V419H93V204.16h52.38v26.72A8,8,0,0,0,153.39,238.9Z"/><path class="cls-1" d="M358.61,435H427a8,8,0,0,0,8-8V264.55c0-20.24-9.59-39.58-27-54.47-16.32-14-37.45-22-58-22-33.89,0-55.36,11.27-68.94,25.15V196.14a8,8,0,0,0-8-8H204.69a8,8,0,0,0-8,8V427a8,8,0,0,0,8,8H273.1a8,8,0,0,0,8-8V315.86c0-21.46,18-34.74,34.74-34.74,20.13,0,34.74,14.61,34.74,34.74V427A8,8,0,0,0,358.61,435Zm-42.76-170c-24.42,0-50.77,19.41-50.77,50.77V419H212.71V204.16h52.38V238.9a8,8,0,0,0,15.27,3.4c11.87-25.31,35.32-38.14,69.7-38.14,32.54,0,68.94,25.83,68.94,60.39V419H366.63V315.86C366.63,286.91,344.8,265.09,315.86,265.09Z"/><path class="cls-1" d="M119.18,77a42.22,42.22,0,1,0,42.22,42.22A42.27,42.27,0,0,0,119.18,77Zm0,68.41a26.19,26.19,0,1,1,26.19-26.19A26.22,26.22,0,0,1,119.18,145.37Z"/></g></g></svg>