<svg xmlns="http://www.w3.org/2000/svg" viewBox="0 0 512 443.07"><defs><style>.cls-1{fill:#fff;}</style></defs><title>Ресурс 1</title><g id="Слой_2" data-name="Слой 2"><g id="Layer_1" data-name="Layer 1"><path class="cls-1" d="M507.89,48.46a8.25,8.25,0,0,0-9.49.86,97.38,97.38,0,0,1-14.26,10.11A112.71,112.71,0,0,0,495.89,17.8a8.25,8.25,0,0,0-14.2-6.36,97.19,97.19,0,0,1-40.12,25.43C421.4,12.71,393.84,0,361.32,0a113.92,113.92,0,0,0-113.8,113.8c0,2.53.09,5.08.26,7.63a222.23,222.23,0,0,1-27.48,1.72A220.84,220.84,0,0,1,117.43,97.72a8.25,8.25,0,1,0-7.71,14.58A237.39,237.39,0,0,0,220.3,139.63a239.36,239.36,0,0,0,37.8-3,8.25,8.25,0,0,0,6.86-9.28A98.58,98.58,0,0,1,264,113.8a97.41,97.41,0,0,1,97.3-97.3c67.22,0,97.3,63.23,97.3,125.89a328,328,0,0,1-8.77,77,8.25,8.25,0,0,0,16,3.88,344.48,344.48,0,0,0,9.23-80.91q0-10.3-1-20.25a114.08,114.08,0,0,0,37.71-65A8.25,8.25,0,0,0,507.89,48.46ZM460.07,66.9a137.13,137.13,0,0,0-8.49-16.09A113.48,113.48,0,0,0,475,38.66,96.54,96.54,0,0,1,460.07,66.9Zm11.12,35.24a177.76,177.76,0,0,0-4.45-17.48,113.8,113.8,0,0,0,22.06-8.95A97.94,97.94,0,0,1,471.19,102.14Z"/><path class="cls-1" d="M450.63,246.69A8.25,8.25,0,0,0,440,251.51c-45.37,120.71-163.32,165-225.86,172.21-69,7.91-136-1.38-181.38-24.37a297.86,297.86,0,0,0,121.9-50.09,8.32,8.32,0,0,0-1.57-14.35,221.34,221.34,0,0,1-77.69-54.55h39.33A8.25,8.25,0,0,0,116.37,264c-.77-.15-72.25-15.34-93.5-88.43l35.72,16.07a8.25,8.25,0,0,0,9.23-13.34c-.62-.62-58.21-59.61-34-129.54a237.61,237.61,0,0,0,44.57,43.6,8.25,8.25,0,1,0,9.89-13.2A221.25,221.25,0,0,1,38.57,27.5a8.32,8.32,0,0,0-14.2,1.05C7,64.2,7,103.49,24.4,142.17a178.93,178.93,0,0,0,11.34,21.15l-21.21-9.55A8.32,8.32,0,0,0,3,162.68c8.72,51,38.16,80.29,61.31,95.84,2.9,1.94,5.76,3.73,8.57,5.36H57.62a8.32,8.32,0,0,0-6.5,13.32A238.15,238.15,0,0,0,133,343.88,281.28,281.28,0,0,1,7.45,386c-7.46.64-10.2,10.56-4.09,14.93,38.28,27.32,96.47,42.19,161.57,42.19a449.79,449.79,0,0,0,51.1-3c43.23-5,90.51-22.39,129.71-47.83,51-33.13,89-79.8,109.71-135A8.25,8.25,0,0,0,450.63,246.69Z"/><path class="cls-1" d="M387.16,78.61a25.84,25.84,0,1,0-25.84,25.84A25.87,25.87,0,0,0,387.16,78.61Zm-35.18,0A9.35,9.35,0,1,1,361.32,88,9.36,9.36,0,0,1,352,78.61Z"/></g></g></svg>