<svg xmlns="http://www.w3.org/2000/svg" viewBox="0 0 512 512"><defs><style>.cls-1{fill:#dbd4b8;}</style></defs><title>3</title><g id="Слой_2" data-name="Слой 2"><g id="Capa_1" data-name="Capa 1"><path class="cls-1" d="M177.25,20a10,10,0,0,0,10-10,10,10,0,1,0-17.07,7.07A10.08,10.08,0,0,0,177.25,20Z"/><path class="cls-1" d="M512,186.5a10,10,0,0,0-4.12-7.6L458,142.82V30A30,30,0,0,0,428,0H216.5a10,10,0,0,0,0,20H428a10,10,0,0,1,10,10V226.34L315.93,326l-30.62-22.16a49.9,49.9,0,0,0-58.62,0L196.07,326,74,226.35V30A10,10,0,0,1,84,20h54.5a10,10,0,0,0,0-20H84A30,30,0,0,0,54,30V142.82L4.14,178.9h0A10,10,0,0,0,0,187V462a50.06,50.06,0,0,0,50,50H462a50.06,50.06,0,0,0,50-50V187C512,186.82,512,186.65,512,186.5Zm-54-19,27.6,20L458,210Zm34,40.57V453.41L332.7,338.14Zm-472,0L179.3,338.14,20,453.41ZM54,210,26.4,187.48l27.6-20ZM462,492H50a30,30,0,0,1-26.68-16.31L238.41,320.05a29.94,29.94,0,0,1,35.17,0L444.88,444H345a10,10,0,0,0,0,20H472.52l16.16,11.69A30,30,0,0,1,462,492Z"/><path class="cls-1" d="M235,189.62a10,10,0,0,0,14.14,0l56.14-56.14a10,10,0,1,0-14.14-14.14l-49.07,49.07L220.86,147.2a10,10,0,1,0-14.14,14.14Z"/><path class="cls-1" d="M256,255A100.48,100.48,0,1,0,155.52,154.48,100.59,100.59,0,0,0,256,255Zm0-181a80.48,80.48,0,1,1-80.48,80.48A80.57,80.57,0,0,1,256,74Z"/><path class="cls-1" d="M299.67,444a10,10,0,1,0,7.07,2.93A10.06,10.06,0,0,0,299.67,444Z"/></g></g></svg>