<svg xmlns="http://www.w3.org/2000/svg" viewBox="0 0 511.94 512"><defs><style>.cls-1{fill:#dbd4b8;}</style></defs><title>2</title><g id="Слой_2" data-name="Слой 2"><g id="Capa_1" data-name="Capa 1"><path class="cls-1" d="M503.57,437.52,404,338a10,10,0,0,0-14.14,0l-4.38,4.38-27.62-27.62a197.78,197.78,0,0,0,33.52-74.14,10,10,0,1,0-19.54-4.28C354.13,317.26,281,376,198,376,99.85,376,20,296.16,20,198S99.85,20,198,20c85.4,0,158.94,60.79,174.86,144.53a10,10,0,1,0,19.65-3.74C374.8,67.63,293,0,198,0,88.82,0,0,88.82,0,198S88.82,396,198,396A198.52,198.52,0,0,0,314.7,358l27.61,27.61L337.92,390a10,10,0,0,0,0,14.14l99.53,99.53a28.65,28.65,0,0,0,40.48,0L503.57,478A28.66,28.66,0,0,0,503.57,437.52ZM330.32,345.3a198.29,198.29,0,0,0,14.91-14.93l26.14,26.14-14.92,14.92ZM489.43,463.85l-25.64,25.64a8.63,8.63,0,0,1-12.19,0L359.14,397,397,359.2l92.46,92.46A8.63,8.63,0,0,1,489.43,463.85Z"/><path class="cls-1" d="M376,198v.71a10,10,0,0,0,10,10h0a10,10,0,0,0,10-10V198a10,10,0,1,0-20,0Z"/><path class="cls-1" d="M295.5,110.51a10,10,0,0,0,7.07-17.07c-57.66-57.66-151.48-57.66-209.14,0a10,10,0,1,0,14.14,14.14,128,128,0,0,1,180.86,0A10,10,0,0,0,295.5,110.51Z"/><path class="cls-1" d="M93.43,288.43a10,10,0,0,0,0,14.14l.09.09,0,0a10,10,0,0,0,14.2-14.08l-.2-.2A10,10,0,0,0,93.43,288.43Z"/><path class="cls-1" d="M124.64,326.45a148.12,148.12,0,0,0,177.94-23.87,10,10,0,0,0-14.14-14.14,128.12,128.12,0,0,1-153.86,20.65,10,10,0,1,0-9.93,17.36Z"/></g></g></svg>