<svg xmlns="http://www.w3.org/2000/svg" viewBox="0 0 512 512"><defs><style>.cls-1{fill:#dbd4b8;}</style></defs><title>4</title><g id="Слой_2" data-name="Слой 2"><g id="Capa_1" data-name="Capa 1"><path class="cls-1" d="M509.07,93.92l-91-91A10,10,0,0,0,411,0H114A30,30,0,0,0,84,30V49.06a132.31,132.31,0,0,0-84,123,10,10,0,0,0,10,10H132.09a10,10,0,0,0,10-10V50a10,10,0,0,0-10-10A132,132,0,0,0,104,43V30a10,10,0,0,1,10-10H401V81a30,30,0,0,0,30,30h61V482a10,10,0,0,1-10,10H114a10,10,0,0,1-10-10V396.33a10,10,0,0,0-20,0V482a30,30,0,0,0,30,30H482a30,30,0,0,0,30-30V101A10,10,0,0,0,509.07,93.92Zm-387,68.18H20.44A112.28,112.28,0,0,1,122.09,60.44V162.09ZM421,81V34.14L477.87,91H431A10,10,0,0,1,421,81Z"/><path class="cls-1" d="M86.93,352.93A10,10,0,1,0,94,350,10.08,10.08,0,0,0,86.93,352.93Z"/><path class="cls-1" d="M300,207.91c0-72.83-59.26-132.09-132.09-132.09a10,10,0,0,0-10,10V197.91H45.82a10,10,0,0,0-10,10C35.82,280.74,95.07,340,167.91,340S300,280.74,300,207.91Zm-60.26-86-61.84,61.83V96.26A111.59,111.59,0,0,1,239.74,121.93Zm-183.48,96H167.91A10,10,0,0,0,175,215h0l78.91-78.91A112.07,112.07,0,1,1,56.26,217.91Z"/><path class="cls-1" d="M290.73,365.6a30,30,0,1,0-57.24,12.56l-36.69,36.7A30,30,0,1,0,211,429l36.49-36.49a29.9,29.9,0,0,0,28.09-.82l37.18,37.18a30,30,0,1,0,54.16.29L424,372.07a30,30,0,1,0-13.51-14.77l-57.61,57.61a29.95,29.95,0,0,0-25.9-.14l-38.26-38.26A29.85,29.85,0,0,0,290.73,365.6ZM183.9,451.94a10,10,0,1,1,6.92-17.2l.12.13.15.13a10,10,0,0,1-7.18,16.94Zm76.83-76.33a10,10,0,1,1,10-10A10,10,0,0,1,260.73,375.6Zm177.34-40a10,10,0,1,1-10,10A10,10,0,0,1,438.07,335.6ZM349.74,441.9a10,10,0,1,1-10-10A10,10,0,0,1,349.74,441.9Z"/><path class="cls-1" d="M335.31,255h52.78a10,10,0,0,0,0-20H335.31a10,10,0,1,0,0,20Z"/><path class="cls-1" d="M426.55,237.93a10,10,0,1,0,7.07-2.93A10.08,10.08,0,0,0,426.55,237.93Z"/><path class="cls-1" d="M335.31,159H457.46a10,10,0,0,0,0-20H335.31a10,10,0,0,0,0,20Z"/><path class="cls-1" d="M335.31,207H457.46a10,10,0,0,0,0-20H335.31a10,10,0,1,0,0,20Z"/></g></g></svg>