<svg xmlns="http://www.w3.org/2000/svg" viewBox="0 0 512 460"><defs><style>.cls-1{fill:#dbd4b8;}</style></defs><title>5</title><g id="Слой_2" data-name="Слой 2"><g id="Capa_1" data-name="Capa 1"><path class="cls-1" d="M368.93,142.93a10,10,0,1,0,14.14,0A10,10,0,0,0,368.93,142.93Z"/><path class="cls-1" d="M482,100H386V50A50.06,50.06,0,0,0,336,0H176a50.06,50.06,0,0,0-50,50v50H30A30,30,0,0,0,0,130v67.35a30.14,30.14,0,0,0,17.13,27.1l.11.05L20,225.77V430a30,30,0,0,0,30,30H462a30,30,0,0,0,30-30V225.77c.25-.21,20-6.94,20-28.42V130A30,30,0,0,0,482,100ZM146,50a30,30,0,0,1,30-30H336a30,30,0,0,1,30,30v50H346V50a10,10,0,0,0-10-10H176a10,10,0,0,0-10,10v50H146Zm40,50V60H326v40ZM472,430a10,10,0,0,1-10,10H266V370a10,10,0,0,0-20,0v70H50a10,10,0,0,1-10-10V235l66,30.34V340H96a10,10,0,0,0,0,20h10v10a10,10,0,0,0,2.93,7.07l20,20a10,10,0,0,0,14.14,0l20-20A10,10,0,0,0,166,370V360h10a10,10,0,0,0,0-20H166V292.89l42.51,19.54,26,12.36a49.8,49.8,0,0,0,42.88,0l26-12.36L346,292.89V340H336a10,10,0,0,0,0,20h10v10a10,10,0,0,0,2.93,7.07l20,20a10,10,0,0,0,14.14,0l20-20A10,10,0,0,0,406,370V360h10a10,10,0,0,0,0-20H406V265.31L472,235ZM126,360h20v5.86l-10,10-10-10Zm0-20V274.5l20,9.19V340Zm240,20h20v5.86l-10,10-10-10Zm0-20V283.7l20-9.19V340ZM492,197.35a10.05,10.05,0,0,1-5.66,9c-204.85,94.17-188,86.27-217.48,100.36a29.87,29.87,0,0,1-25.73,0c-23.23-11,3.68,1.13-217.48-100.36a10.05,10.05,0,0,1-5.66-9V130a10,10,0,0,1,10-10H482a10,10,0,0,1,10,10Z"/><path class="cls-1" d="M336,140H136a10,10,0,0,0,0,20H336a10,10,0,0,0,0-20Z"/></g></g></svg>