<svg xmlns="http://www.w3.org/2000/svg" viewBox="0 0 512 512"><defs><style>.cls-1{fill:#dbd4b8;}</style></defs><title>2</title><g id="Слой_2" data-name="Слой 2"><g id="Capa_1" data-name="Capa 1"><path class="cls-1" d="M240.16,124.09a22.07,22.07,0,0,0,16.49,7.4c.71,0,1.42,0,2.11-.1a22.13,22.13,0,0,0,16.87-10.71L327.4,33.32a22.06,22.06,0,0,0-38-22.49L253.07,72.2l-5.82-6.54a22.06,22.06,0,1,0-33,29.31ZM223.71,79.9a7.06,7.06,0,0,1,7-6.64h.42A7,7,0,0,1,236,75.62l12.64,14.22a7.5,7.5,0,0,0,12.06-1.16l41.61-70.21a7.06,7.06,0,1,1,12.15,7.2L262.72,113a7.08,7.08,0,0,1-5.4,3.43h0c-.22,0-.45,0-.67,0a7.06,7.06,0,0,1-5.27-2.37L225.49,85A7,7,0,0,1,223.71,79.9ZM504.5,497H480.94V434.61a17.23,17.23,0,0,0-17.21-17.21H424.9a17.23,17.23,0,0,0-17.21,17.21v21.62h-21.4V369.09a7.5,7.5,0,0,0-15,0v88.33a17.23,17.23,0,0,0-10.92,16V497H339V376.37a17.24,17.24,0,0,0-10.92-16V240.47a2.21,2.21,0,0,1,2.21-2.21h38.83a2.21,2.21,0,0,1,2.21,2.21V340a7.5,7.5,0,0,0,15,0v-99.5a17.23,17.23,0,0,0-17.21-17.21H330.26a17.23,17.23,0,0,0-17.21,17.21V359.16h-21.4V172.53a17.23,17.23,0,0,0-17.21-17.21H235.61a17.23,17.23,0,0,0-17.21,17.21v28.63a7.5,7.5,0,0,0,15,0V172.53a2.21,2.21,0,0,1,2.21-2.21h38.83a2.21,2.21,0,0,1,2.21,2.21V360.35a17.24,17.24,0,0,0-10.92,16v19.74a7.5,7.5,0,0,0,15,0V376.37a2.21,2.21,0,0,1,2.21-2.21h38.83a2.21,2.21,0,0,1,2.21,2.21V497h-8.76a7.5,7.5,0,1,0,0,15H504.5a7.5,7.5,0,0,0,0-15Zm-85.88,0H375.37V473.44a2.21,2.21,0,0,1,2.21-2.21h38.83a2.21,2.21,0,0,1,2.21,2.21Zm47.32,0H433.62V473.44a17.23,17.23,0,0,0-10.92-16V434.61a2.21,2.21,0,0,1,2.21-2.21h38.83a2.21,2.21,0,0,1,2.21,2.21Zm-176.29,0h-8.92V424.9a7.5,7.5,0,0,0-15,0V497h-21.4V298.72a17.24,17.24,0,0,0-10.92-16V230.77a7.5,7.5,0,0,0-15,0v50.74H197V201.65a17.23,17.23,0,0,0-17.21-17.21H141a17.23,17.23,0,0,0-17.21,17.21V396.43a7.5,7.5,0,1,0,15,0V201.65a2.21,2.21,0,0,1,2.21-2.21H179.8a2.21,2.21,0,0,1,2.21,2.21V282.7a17.24,17.24,0,0,0-10.92,16V497h-21.4V434.61a17.23,17.23,0,0,0-17.21-17.21H102.36V386.08a17.23,17.23,0,0,0-17.21-17.21H46.33a17.23,17.23,0,0,0-17.21,17.21V497H7.5a7.5,7.5,0,0,0,0,15H289.65a7.5,7.5,0,0,0,0-15ZM87.36,418.59a17.24,17.24,0,0,0-10.92,16V497H44.12V386.08a2.21,2.21,0,0,1,2.21-2.21H85.16a2.21,2.21,0,0,1,2.21,2.21ZM134.68,497H91.44V434.61a2.21,2.21,0,0,1,2.21-2.21h38.83a2.21,2.21,0,0,1,2.21,2.21Zm94.64,0H186.09V298.72a2.21,2.21,0,0,1,2.21-2.21h38.83a2.21,2.21,0,0,1,2.21,2.21Z"/></g></g></svg>