<svg xmlns="http://www.w3.org/2000/svg" viewBox="0 0 512 335"><defs><style>.cls-1{fill:#dbd4b8;}</style></defs><title>3</title><g id="Слой_2" data-name="Слой 2"><g id="Capa_1" data-name="Capa 1"><path class="cls-1" d="M204.83,11.88a7.5,7.5,0,0,1,6.3-8.53A302.06,302.06,0,0,1,256,0,295.58,295.58,0,0,1,384.93,29.19a11.94,11.94,0,0,1,6.2,7,11.82,11.82,0,0,1-.66,9.21L367.33,91A7.5,7.5,0,0,1,354,84.17L375.66,41.4A280.71,280.71,0,0,0,256,15a287.17,287.17,0,0,0-42.64,3.18A7.5,7.5,0,0,1,204.83,11.88ZM512,294.11a7.5,7.5,0,0,1-7.5,7.5H296.73a41.54,41.54,0,0,1-81.46,0H7.5a7.5,7.5,0,0,1,0-15h8.58C17.24,209,56.78,137.13,122.35,93.71a7.5,7.5,0,1,1,8.28,12.51c-61.36,40.63-98.39,107.86-99.56,180.4h75.81A143.62,143.62,0,0,1,123,223.46a148.89,148.89,0,0,1,43.22-50.77,7.5,7.5,0,1,1,9,12c-33,24.51-52.25,61.48-53.31,101.89h93.36a40.69,40.69,0,0,1,11-21c.09-.18.19-.35.29-.52L321,109.5a23.47,23.47,0,0,1,30.22-9A23,23,0,0,1,363,129.62l-59.7,157H390.1A130.35,130.35,0,0,0,353,198.93a7.5,7.5,0,1,1,10.76-10.45,145.26,145.26,0,0,1,41.36,98.14h75.82c-1.17-73-38.6-140.55-100.65-181.11a7.5,7.5,0,0,1,8.21-12.56c66.29,43.34,106.27,115.54,107.44,193.67h8.58A7.5,7.5,0,0,1,512,294.11Zm-229.57,0c0-14.3-11.86-25.93-26.43-25.93s-26.43,11.63-26.43,25.93S241.42,320,256,320,282.43,308.37,282.43,294.07ZM349,124.29a8.09,8.09,0,0,0-4.22-10.21,8.61,8.61,0,0,0-11,3.2L251.18,253.42a42.19,42.19,0,0,1,4.82-.27A41.55,41.55,0,0,1,292.08,274ZM189.69,179.65a12,12,0,0,0,10.71,6.59,12.15,12.15,0,0,0,5.13-1.14A119,119,0,0,1,256,174c2.22,0,4.47.06,6.67.18a7.5,7.5,0,0,0,.82-15c-2.47-.13-5-.2-7.49-.2a133.87,133.87,0,0,0-54.22,11.32L136.34,41.4a281.43,281.43,0,0,1,48.21-17.33,7.5,7.5,0,1,0-3.77-14.52,296.38,296.38,0,0,0-53.7,19.64,11.94,11.94,0,0,0-6.19,7,11.82,11.82,0,0,0,.66,9.21Z"/></g></g></svg>