<svg xmlns="http://www.w3.org/2000/svg" viewBox="0 0 512 320"><defs><style>.cls-1{fill:#dbd4b8;}</style></defs><title>Ресурс 1</title><g id="Слой_2" data-name="Слой 2"><g id="Capa_1" data-name="Capa 1"><path class="cls-1" d="M270.56,161.73H370.93a27,27,0,0,0,51.64,0h13a7.5,7.5,0,0,0,0-15h-13a27,27,0,0,0-51.64,0H270.56a7.5,7.5,0,0,0,0,15Zm126.19-19.06a11.57,11.57,0,1,1-11.91,11.56A11.76,11.76,0,0,1,396.75,142.67ZM270.56,109.34h42.13a27,27,0,0,0,51.64,0h71.25a7.5,7.5,0,1,0,0-15H364.33a27,27,0,0,0-51.64,0H270.56a7.5,7.5,0,1,0,0,15Zm67.95-19.06a11.57,11.57,0,1,1-11.91,11.56A11.76,11.76,0,0,1,338.51,90.27ZM511.67,277.69a14.11,14.11,0,0,0-13.82-10.81h-5.27V15.63C492.59,7,484.87,0,475.38,0H36.63C27.14,0,19.42,7,19.42,15.63V266.88H14.24A14.14,14.14,0,0,0,.5,277.07a13.73,13.73,0,0,0,5.15,14.79l15.53,11.44a86.65,86.65,0,0,0,51,16.71H438.85a85.66,85.66,0,0,0,49.44-15.56l17.84-12.51A13.73,13.73,0,0,0,511.67,277.69ZM34.42,43.59H398.69a7.5,7.5,0,0,0,0-15H34.42V15.78A3,3,0,0,1,36.63,15H475.38a3,3,0,0,1,2.21.78V28.59H424.9a7.5,7.5,0,0,0,0,15h52.68V266.88H336.18A33.69,33.69,0,0,0,316.73,273a18.78,18.78,0,0,1-10.84,3.4H205.23a18.9,18.9,0,0,1-9.89-2.78l-2.86-1.76a33.88,33.88,0,0,0-17.73-5H34.42ZM479.68,292.16A70.73,70.73,0,0,1,438.85,305H72.22a71.54,71.54,0,0,1-42.15-13.79L17.4,281.88H174.76a18.9,18.9,0,0,1,9.89,2.78l2.86,1.76a33.88,33.88,0,0,0,17.73,5H305.89a33.69,33.69,0,0,0,19.45-6.13,18.78,18.78,0,0,1,10.84-3.4H494.33ZM218.57,171.65h9.69a11,11,0,0,0,7.87-3.35,10.81,10.81,0,0,0,3-7.88,92.61,92.61,0,0,0-27.88-62.56,95.7,95.7,0,0,0-63.54-27.32,10.84,10.84,0,0,0-11.28,10.81v9.37c-37.86,3.71-67.51,35.23-67.51,73.43a72.94,72.94,0,0,0,21.5,51.66q.2.24.43.47a7.49,7.49,0,0,0,.68.61,75.41,75.41,0,0,0,52.41,21C182.73,237.94,214.74,208.83,218.57,171.65ZM151.44,85.81c38.09,3.49,68.77,33.52,72.41,70.84H151.44ZM83.93,164.15c0-29.93,22.95-54.71,52.51-58.33v55c0,.06,0,.11,0,.17l-39.9,39.18A57.75,57.75,0,0,1,83.93,164.15Zm60,58.79a60.51,60.51,0,0,1-36.67-12.28l39.74-39h56.46C199.7,200.54,174.44,222.94,143.94,222.94Zm126.62-8.8h13a27,27,0,0,0,51.64,0H435.58a7.5,7.5,0,0,0,0-15H335.21a27,27,0,0,0-51.64,0h-13a7.5,7.5,0,0,0,0,15Zm38.83-19.06a11.57,11.57,0,1,1-11.91,11.56A11.76,11.76,0,0,1,309.39,195.07Z"/></g></g></svg>