<svg xmlns="http://www.w3.org/2000/svg" viewBox="0 0 512 512"><defs><style>.cls-1{fill:#dbd4b8;}</style></defs><title>5</title><g id="Слой_2" data-name="Слой 2"><g id="Capa_1" data-name="Capa 1"><path class="cls-1" d="M249.11,262.93a96.15,96.15,0,0,1,0-135.84,7.5,7.5,0,0,1,10.61,10.61A81.06,81.06,0,0,0,356,266.09a7.5,7.5,0,1,1,7.21,13.15,96.58,96.58,0,0,1-114.13-16.31ZM317,239.6a44.31,44.31,0,0,1-31.53-13.06,7.5,7.5,0,0,0-10.61,10.61,59.59,59.59,0,1,0,84.29-84.27,7.5,7.5,0,1,0-10.61,10.61A44.59,44.59,0,0,1,317,239.6ZM279.32,123.27a81.06,81.06,0,0,1,95,129.06A7.5,7.5,0,0,0,385,262.93,96.07,96.07,0,0,0,272.35,110a7.5,7.5,0,1,0,7,13.28ZM455,57.12a195.08,195.08,0,0,0-275.84,0,7.5,7.5,0,0,0,10.61,10.61,180,180,0,1,1,35.2,282,7.5,7.5,0,1,0-7.68,12.88A194.79,194.79,0,0,0,455,332.92C531,256.88,531,133.16,455,57.12ZM199.81,344.93c0,.61.05,1.22.05,1.83a34.36,34.36,0,0,1-10.13,24.46l-81.07,81.06A7.5,7.5,0,0,1,98,441.67l81.07-81.06a19.59,19.59,0,1,0-27.7-27.7L15.85,468.46a2.92,2.92,0,0,0,0,4.13l23.58,23.57a2.92,2.92,0,0,0,4.13,0L79.76,460a7.5,7.5,0,0,1,10.61,10.61l-36.21,36.2a17.94,17.94,0,0,1-25.34,0L5.24,483.19a17.94,17.94,0,0,1,0-25.34L140.81,322.31a34.51,34.51,0,0,1,26.27-10.06l45.06-45a127.17,127.17,0,1,1,32.72,32.7Zm37.81-70.51A112.42,112.42,0,1,0,204.77,195,112.46,112.46,0,0,0,237.62,274.43Zm-42.82,54.31,38.15-38.14q-3-2.67-5.93-5.56t-5.56-5.93l-38.16,38.15a34.55,34.55,0,0,1,6.43,5.06A34.92,34.92,0,0,1,194.79,328.73ZM291.14,48.51a148.77,148.77,0,0,1,131.11,251.7c-47,47-120.21,57.08-178.07,24.56a7.5,7.5,0,1,0-7.35,13.08,164.79,164.79,0,0,0,80.44,20.92,163.76,163.76,0,1,0-28.73-325,7.5,7.5,0,1,0,2.6,14.77Z"/></g></g></svg>