<svg xmlns="http://www.w3.org/2000/svg" viewBox="0 0 512 511.85"><defs><style>.cls-1{fill:#dbd4b8;}</style></defs><title>3</title><g id="Слой_2" data-name="Слой 2"><g id="Capa_1" data-name="Capa 1"><path class="cls-1" d="M175.66,178.18a10,10,0,0,0,13.76-3.26A103.78,103.78,0,0,1,244,131.3H388a103.37,103.37,0,0,1,70,98v26.53a10,10,0,0,0,20,0V229.32a123.3,123.3,0,0,0-81.42-116.18l36-84.68a10,10,0,0,0-4.09-12.51L410.83,5.44a38.63,38.63,0,0,0-44,3.28l-2.73,2.23a18.57,18.57,0,0,1-23.42,0l-.11-.09a38.62,38.62,0,0,0-48.76,0,18.56,18.56,0,0,1-23.44,0l-2.77-2.26a38.65,38.65,0,0,0-43.88-3.37L203.54,16a10,10,0,0,0-4.12,12.56l36.24,84.55a123.79,123.79,0,0,0-63.25,51.35A10,10,0,0,0,175.66,178.18ZM231.83,22.52a18.58,18.58,0,0,1,21.09,1.62l2.77,2.26a38.62,38.62,0,0,0,48.77,0,18.56,18.56,0,0,1,23.44,0l.11.09a38.63,38.63,0,0,0,48.71,0l2.73-2.23a18.57,18.57,0,0,1,21.16-1.57l10.16,6L375.63,111.3h-119L221.27,28.73Z"/><path class="cls-1" d="M468,283.63a10,10,0,1,0,7.07,2.93A10.07,10.07,0,0,0,468,283.63Z"/><path class="cls-1" d="M145.91,443.07A10,10,0,1,0,153,446,10.08,10.08,0,0,0,145.91,443.07Z"/><path class="cls-1" d="M512,417.85a37.9,37.9,0,0,0-12.34-28,38,38,0,0,0-25.66-66H366a38,38,0,0,0-25.66,66,37.93,37.93,0,0,0,0,56,37.93,37.93,0,0,0-7.8,46H291.82v-39.1a101.64,101.64,0,0,0-92.35-101.08,10,10,0,0,0-4.32-.3l-.51,0a69.58,69.58,0,0,0,21.06-49.9v-99.6a10,10,0,0,0-10-10H131.64a55.59,55.59,0,0,0-55.53,55.53v54.07a69.58,69.58,0,0,0,21.06,49.9l-.5,0a10,10,0,0,0-4.32.3A101.64,101.64,0,0,0,0,452.75v49.1a10,10,0,0,0,10,10H474a38,38,0,0,0,25.66-66A37.9,37.9,0,0,0,512,417.85Zm-164-56a18,18,0,0,1,18-18H474a18,18,0,0,1,0,36H366A18,18,0,0,1,348,361.85Zm-175.53,9.4L145.91,397.8l-26.56-26.56ZM96.11,247.38a35.57,35.57,0,0,1,35.53-35.53h64.08v26.76a24.55,24.55,0,0,1-24.52,24.52H96.11V247.38Zm0,54.07V283.13h75.08a44.26,44.26,0,0,0,24.52-7.39v25.7a49.8,49.8,0,0,1-99.6,0ZM164,491.85H20V463.07h81.6a10,10,0,0,0,0-20h-81a81.63,81.63,0,0,1,71.09-71.21L138.84,419A10,10,0,0,0,153,419l47.16-47.16a81.6,81.6,0,0,1,71.68,80.89v39.1H164Zm328-18a18,18,0,0,1-18,18H366a18,18,0,0,1,0-36H474A18,18,0,0,1,492,473.85Zm-126-38a18,18,0,0,1,0-36H474a18,18,0,0,1,0,36Z"/><path class="cls-1" d="M374,203.42c8,0,14.52,5.5,14.52,12.25a10,10,0,0,0,20,0c0-14.54-10.35-26.85-24.52-30.87v-1.49a10,10,0,0,0-20,0v1.49c-14.17,4-24.52,16.33-24.52,30.87,0,17.78,15.48,32.25,34.52,32.25,8,0,14.52,5.5,14.52,12.25S382,272.42,374,272.42s-14.52-5.5-14.52-12.25a10,10,0,1,0-20,0C339.48,274.7,349.83,287,364,291v.64a10,10,0,1,0,20,0V291c14.17-4,24.52-16.33,24.52-30.87,0-17.78-15.48-32.25-34.52-32.25-8,0-14.52-5.5-14.52-12.25S366,203.42,374,203.42Z"/></g></g></svg>