<svg xmlns="http://www.w3.org/2000/svg" viewBox="0 0 512 385"><defs><style>.cls-1{fill:#dbd4b8;}</style></defs><title>1</title><g id="Слой_2" data-name="Слой 2"><g id="Capa_1" data-name="Capa 1"><path class="cls-1" d="M424.9,276.06a7.5,7.5,0,0,1,0,15H366.66a7.5,7.5,0,0,1,0-15Zm-58.24-61.68h29.12a7.5,7.5,0,0,0,0-15H366.66a7.5,7.5,0,0,0,0,15ZM149.92,377.5a7.5,7.5,0,0,1-7.5,7.5H17.21A17.17,17.17,0,0,1,0,367.91V71.42A12.24,12.24,0,0,1,5.56,61.15L95.72,2a12.37,12.37,0,0,1,6.8-2H423.93a7.5,7.5,0,0,1,0,15H108.55V59.26A17.17,17.17,0,0,1,91.35,76.35H15V367.91A2.15,2.15,0,0,0,17.21,370H142.42A7.5,7.5,0,0,1,149.92,377.5ZM32.62,61.35H91.35a2.15,2.15,0,0,0,2.21-2.08V21.39ZM461.52,254.81a7.5,7.5,0,0,0-7.5-7.5H366.66a7.5,7.5,0,1,0,0,15H454A7.5,7.5,0,0,0,461.52,254.81ZM454,170.62H366.66a7.5,7.5,0,0,0,0,15H454a7.5,7.5,0,0,0,0-15Zm0-76.68H366.66a7.5,7.5,0,1,0,0,15H454a7.5,7.5,0,1,0,0-15ZM153.1,310.23a104.87,104.87,0,0,1-73.23-29.65,7.62,7.62,0,0,1-1.27-1.26,102.42,102.42,0,0,1-30.06-72.45c0-54.5,42.9-99.28,97.07-103.09V87.16a12.32,12.32,0,0,1,12.81-12.29,134,134,0,0,1,89.19,38.56,130.9,130.9,0,0,1,39.09,88.2,12.28,12.28,0,0,1-3.41,9,12.46,12.46,0,0,1-8.94,3.8H257.4C253.5,267.88,208.21,310.23,153.1,310.23Zm7.5-110.86h111C267.79,141,219.82,93.66,160.61,90V199.38ZM84.71,263.87l61-60.23a12.35,12.35,0,0,1-.1-1.56V118.83c-45.89,3.77-82.07,41.82-82.07,88A87.25,87.25,0,0,0,84.71,263.87Zm157.64-49.49H158a12.5,12.5,0,0,1-1.66-.11L95.4,274.4a89.92,89.92,0,0,0,57.71,20.83C199.94,295.23,238.49,259.6,242.36,214.38ZM337.54,93.94h-9.71a7.5,7.5,0,1,0,0,15h9.71a7.5,7.5,0,1,0,0-15ZM494.79,0H453.7a7.5,7.5,0,0,0,0,15h41.09A2.15,2.15,0,0,1,497,17.09V367.91a2.15,2.15,0,0,1-2.21,2.09H170.25a7.5,7.5,0,0,0,0,15H494.79A17.17,17.17,0,0,0,512,367.91V17.09A17.17,17.17,0,0,0,494.79,0ZM454,122.69H366.66a7.5,7.5,0,0,0,0,15H454a7.5,7.5,0,0,0,0-15ZM337.54,170.62h-9.71a7.5,7.5,0,0,0,0,15h9.71a7.5,7.5,0,0,0,0-15Zm0,76.68h-9.71a7.5,7.5,0,0,0,0,15h9.71a7.5,7.5,0,0,0,0-15Z"/></g></g></svg>