<svg xmlns="http://www.w3.org/2000/svg" viewBox="0 0 512 512"><defs><style>.cls-1{fill:#dbd4b8;}</style></defs><title>4</title><g id="Слой_2" data-name="Слой 2"><g id="Capa_1" data-name="Capa 1"><path class="cls-1" d="M181.72,366.81a10,10,0,0,0-2.21-.36,63.91,63.91,0,0,0,17.7-44.17V269.67a10.1,10.1,0,0,0-.11-1.41c.07-1,.11-1.91.11-2.87V232.1a10,10,0,0,0-10-10H120.14a51.28,51.28,0,0,0-51.22,51.22v49a63.9,63.9,0,0,0,17.7,44.17,10,10,0,0,0-2.21.36A93,93,0,0,0,0,459.28V502a10,10,0,0,0,10,10H256.13a10,10,0,0,0,10-10V459.28A93,93,0,0,0,181.72,366.81Zm-92.8-60.17h67a41,41,0,0,0,21.26-5.91v21.55a44.15,44.15,0,1,1-88.3,0Zm65.91,79.78-21.76,21.77L111.3,386.43ZM88.92,273.32a31.26,31.26,0,0,1,31.22-31.22h57.07v23.29A21.28,21.28,0,0,1,156,286.64h-67V273.32ZM246.13,492H20V472H61.5a10,10,0,0,0,0-20H20.36a73,73,0,0,1,63.26-65L126,429.4a10,10,0,0,0,14.14,0L182.51,387a72.94,72.94,0,0,1,63.62,72.24V492Z"/><path class="cls-1" d="M427.6,144.72a10,10,0,0,0-2.21-.36,63.91,63.91,0,0,0,17.7-44.17V47.57a10.1,10.1,0,0,0-.11-1.41c.07-1,.11-1.91.11-2.87V10a10,10,0,0,0-10-10H366a51.28,51.28,0,0,0-51.22,51.22v49a63.91,63.91,0,0,0,17.7,44.17,10,10,0,0,0-2.21.36,93,93,0,0,0-84.4,92.46V279.9a10,10,0,0,0,10,10h80.46a10,10,0,0,0,0-20H265.87V237.18a72.94,72.94,0,0,1,63.62-72.24l42.37,42.37a10,10,0,0,0,14.14,0l42.37-42.37A72.94,72.94,0,0,1,492,237.18V269.9H418.33a10,10,0,0,0,0,20H502a10,10,0,0,0,10-10V237.18A93,93,0,0,0,427.6,144.72Zm-92.81-44.54V84.55h67a41,41,0,0,0,21.26-5.91v21.55a44.15,44.15,0,0,1-88.3,0Zm0-49A31.26,31.26,0,0,1,366,20h57.07V43.29a21.28,21.28,0,0,1-21.26,21.26h-67V51.22ZM378.94,186.1l-21.77-21.76H400.7Z"/><path class="cls-1" d="M386,287a10,10,0,1,0-7.07,2.93A10.06,10.06,0,0,0,386,287Z"/><path class="cls-1" d="M50,188H175.58a49.72,49.72,0,0,0,46.27-31h38.48a10,10,0,0,0,7.07-17.07L225.58,98.11V50a50.06,50.06,0,0,0-50-50H50A50.06,50.06,0,0,0,0,50v88A50.06,50.06,0,0,0,50,188ZM20,50A30,30,0,0,1,50,20H175.58a30,30,0,0,1,30,30v52.25a10,10,0,0,0,2.93,7.07L236.19,137H214.55a10,10,0,0,0-9.75,7.76A29.84,29.84,0,0,1,175.58,168H50a30,30,0,0,1-30-30Z"/><path class="cls-1" d="M462,324H336.42a49.72,49.72,0,0,0-46.27,31H251.67a10,10,0,0,0-7.07,17.07l41.82,41.82V462a50.06,50.06,0,0,0,50,50H462a50.06,50.06,0,0,0,50-50V374A50.06,50.06,0,0,0,462,324Zm30,138a30,30,0,0,1-30,30H336.42a30,30,0,0,1-30-30V409.75a10,10,0,0,0-2.93-7.07L275.81,375h21.64a10,10,0,0,0,9.75-7.76A29.84,29.84,0,0,1,336.42,344H462a30,30,0,0,1,30,30Z"/><path class="cls-1" d="M430,391.39,403.43,418l-12.36-12.36a10,10,0,1,0-14.14,14.14l19.43,19.43a10,10,0,0,0,14.14,0l33.65-33.65A10,10,0,0,0,430,391.39Z"/><path class="cls-1" d="M99,78.71a10,10,0,0,0,10-10A14.67,14.67,0,1,1,126.89,83a16.79,16.79,0,0,0-13.23,16.47v5.33a10,10,0,0,0,20,0v-2.91A34.68,34.68,0,1,0,89,68.71,10,10,0,0,0,99,78.71Z"/><path class="cls-1" d="M123.67,133.09a10,10,0,1,0,7.07,2.93A10.06,10.06,0,0,0,123.67,133.09Z"/><path class="cls-1" d="M101.5,452a10,10,0,1,0,7.07,2.93A10.08,10.08,0,0,0,101.5,452Z"/></g></g></svg>