<svg xmlns="http://www.w3.org/2000/svg" viewBox="0 0 512 512"><defs><style>.cls-1{fill:#dbd4b8;}</style></defs><title>3</title><g id="Слой_2" data-name="Слой 2"><g id="Capa_1" data-name="Capa 1"><path class="cls-1" d="M482,0H126A30,30,0,0,0,96,30V64a10,10,0,0,0,20,0V30a10,10,0,0,1,10-10H482a10,10,0,0,1,10,10V482a10,10,0,0,1-10,10H126a10,10,0,0,1-10-10V449.67a10,10,0,0,0-20,0V482a30,30,0,0,0,30,30H482a30,30,0,0,0,30-30V30A30,30,0,0,0,482,0Z"/><path class="cls-1" d="M433.89,386h-240a10,10,0,0,0,0,20h240a10,10,0,0,0,0-20Z"/><path class="cls-1" d="M433.89,438a10,10,0,1,0,7.07,2.93A10.07,10.07,0,0,0,433.89,438Z"/><path class="cls-1" d="M193.89,438a10,10,0,0,0,0,20H393a10,10,0,0,0,0-20Z"/><path class="cls-1" d="M264,351.38c85.85,0,155.69-69.84,155.69-155.69S349.82,40,264,40,108.29,109.84,108.29,195.69a155.5,155.5,0,0,0,59.63,122.45L51.85,434.2a18.66,18.66,0,1,1-26.39-26.39l59.36-59.36a10,10,0,1,0-14.14-14.14L11.33,393.67A38.66,38.66,0,0,0,66,448.34L184.7,329.64A154.73,154.73,0,0,0,264,351.38ZM128.29,195.69C128.29,120.87,189.16,60,264,60s135.69,60.87,135.69,135.69S338.8,331.38,264,331.38,128.29,270.51,128.29,195.69Z"/><path class="cls-1" d="M116.3,317a10,10,0,1,0-7.07,2.93A10,10,0,0,0,116.3,317Z"/><path class="cls-1" d="M264,87.77a107.87,107.87,0,0,0-74,186.4,9.82,9.82,0,0,0,1.15,1.08,107.72,107.72,0,0,0,145.7,0,9.9,9.9,0,0,0,1.16-1.08,107.87,107.87,0,0,0-74-186.4ZM333,250c-12.8,13.22-4.55,5-14.63,14.65a87.75,87.75,0,0,1-108.89,0C198.75,256,204,261,194.9,250A87.92,87.92,0,1,1,333,250Z"/></g></g></svg>