<svg xmlns="http://www.w3.org/2000/svg" viewBox="0 0 512 512"><defs><style>.cls-1{fill:#dbd4b8;}</style></defs><title>4</title><g id="Слой_2" data-name="Слой 2"><g id="Capa_1" data-name="Capa 1"><path class="cls-1" d="M179,382.66H159.38a52.64,52.64,0,0,0,11.53-32.91V339a53,53,0,0,0-36.82-50.4L156.71,266H235.5a69.72,69.72,0,0,0,69.64-69.64V106.91A69.72,69.72,0,0,0,235.5,37.27H69.64A69.72,69.72,0,0,0,0,106.91v89.45A69.72,69.72,0,0,0,69.64,266h35.66v21.67A53,53,0,0,0,65.09,339v10.73a52.64,52.64,0,0,0,11.53,32.91H57a57,57,0,0,0-57,57V502a10,10,0,0,0,10,10H226a10,10,0,0,0,10-10V439.62A57,57,0,0,0,179,382.66ZM69.64,246A49.69,49.69,0,0,1,20,196.36V106.91A49.69,49.69,0,0,1,69.64,57.27H235.5a49.69,49.69,0,0,1,49.64,49.64v89.45A49.69,49.69,0,0,1,235.5,246H152.57a10,10,0,0,0-7.07,2.93l-20.2,20.2V256a10,10,0,0,0-10-10ZM85.09,349.75V339a32.91,32.91,0,0,1,65.82,0v10.73a32.91,32.91,0,1,1-65.82,0ZM216,492H20V439.62a37,37,0,0,1,37-37h51v20.26a10,10,0,0,0,20,0V402.66h51a37,37,0,0,1,37,37Z"/><path class="cls-1" d="M455,382.66H435.38a52.64,52.64,0,0,0,11.53-32.91V339a52.91,52.91,0,0,0-105.82,0v10.73a52.64,52.64,0,0,0,11.53,32.91H333a57,57,0,0,0-57,57V502a10,10,0,0,0,10,10H502a10,10,0,0,0,10-10V439.62A57,57,0,0,0,455,382.66Zm-94-32.91V339a32.91,32.91,0,0,1,65.82,0v10.73a32.91,32.91,0,0,1-65.82,0ZM492,492H296V439.62a37,37,0,0,1,37-37h51V428a10,10,0,0,0,20,0V402.66h51a37,37,0,0,1,37,37Z"/><path class="cls-1" d="M118,449.67a10,10,0,1,0,7.07,2.93A10,10,0,0,0,118,449.67Z"/><path class="cls-1" d="M442.36,0H276.5a10,10,0,0,0,0,20H442.36A49.69,49.69,0,0,1,492,69.64v89.45a49.69,49.69,0,0,1-49.64,49.64H396.71a10,10,0,0,0-10,10v13.13l-20.2-20.2a10,10,0,0,0-7.07-2.93H337.67a10,10,0,0,0,0,20h17.62l34.34,34.34A10,10,0,0,0,406.7,256V228.73h35.66A69.72,69.72,0,0,0,512,159.09V69.64A69.71,69.71,0,0,0,442.36,0Z"/><path class="cls-1" d="M154.35,168.49a10,10,0,0,0,14.14,0l43.65-43.65A10,10,0,0,0,232,123.25V100.85a10,10,0,0,0-10-10H199.6a10,10,0,0,0-1.6,19.86l-36.57,36.58-22.2-22.2a10,10,0,0,0-14.14,0l-57,57A10,10,0,1,0,82.2,196.25l50-50Z"/><path class="cls-1" d="M335.31,170H384a10,10,0,0,0,0-20H335.31a10,10,0,0,0,0,20Z"/><path class="cls-1" d="M418.93,152.93A10,10,0,1,0,426,150,10.08,10.08,0,0,0,418.93,152.93Z"/><path class="cls-1" d="M335.31,74H448a10,10,0,0,0,0-20H335.31a10,10,0,0,0,0,20Z"/><path class="cls-1" d="M335.31,122H448a10,10,0,0,0,0-20H335.31a10,10,0,0,0,0,20Z"/></g></g></svg>