<svg xmlns="http://www.w3.org/2000/svg" viewBox="0 0 512 512"><defs><style>.cls-1{fill:#dbd4b8;}</style></defs><title>2</title><g id="Слой_2" data-name="Слой 2"><g id="Capa_1" data-name="Capa 1"><path class="cls-1" d="M502,226H314.14l-67.07-67.07A10,10,0,0,0,240,156H94a10,10,0,0,0-10,10V460a32,32,0,0,1-64,0V176H49a10,10,0,0,0,0-20H10A10,10,0,0,0,0,166V460a52.06,52.06,0,0,0,52,52H462a50.06,50.06,0,0,0,50-50V236A10,10,0,0,0,502,226ZM492,462a30,30,0,0,1-30,30H93a51.74,51.74,0,0,0,11-32V176H235.86l67.07,67.07A10,10,0,0,0,310,246H492Z"/><path class="cls-1" d="M124,132a10,10,0,0,0,10-10V32.17A12.19,12.19,0,0,1,146.17,20H370.3V86.5a32.21,32.21,0,0,0,32.17,32.17H469v70.69a10,10,0,0,0,20,0V108.67a10,10,0,0,0-2.93-7.07L387.38,2.93A10,10,0,0,0,380.3,0H146.17A32.21,32.21,0,0,0,114,32.17V122A10,10,0,0,0,124,132ZM390.3,86.5V34.14l64.53,64.53H402.48A12.19,12.19,0,0,1,390.3,86.5Z"/><path class="cls-1" d="M188,132H330.52a10,10,0,0,0,0-20H188a10,10,0,0,0,0,20Z"/><path class="cls-1" d="M330.52,64H228a10,10,0,0,0,0,20H330.52a10,10,0,0,0,0-20Z"/><path class="cls-1" d="M188,84a10,10,0,1,0-7.07-2.93A10.08,10.08,0,0,0,188,84Z"/><path class="cls-1" d="M333,431a10,10,0,1,0,7.07,2.93A10.08,10.08,0,0,0,333,431Z"/><path class="cls-1" d="M148,317V421a30,30,0,0,0,30,30H293.5a10,10,0,0,0,0-20H178a10,10,0,0,1-10-10V317a10,10,0,0,1,10-10H418a10,10,0,0,1,10,10V421a10,10,0,0,1-10,10H373.5a10,10,0,0,0,0,20H418a30,30,0,0,0,30-30V317a30,30,0,0,0-30-30H178A30,30,0,0,0,148,317Z"/></g></g></svg>