<?xml version="1.0" standalone="no"?>
<!DOCTYPE svg PUBLIC "-//W3C//DTD SVG 1.1//EN" "http://www.w3.org/Graphics/SVG/1.1/DTD/svg11.dtd" >
<svg>
<metadata>
Created by FontForge 20090622 at Wed Sep  5 08:53:14 2018
 By deploy user
&#194;&#169; 2003 Adobe Systems Incorporated. All Rights Reserved.
</metadata>
<defs>
<font id="KeplerStd-SemiboldSubh" horiz-adv-x="1000" >
  <font-face 
    font-family="Kepler Std Light Subh"
    font-weight="600"
    font-stretch="normal"
    units-per-em="1000"
    panose-1="2 4 7 3 6 7 10 6 2 4"
    ascent="700"
    descent="-300"
    x-height="427"
    cap-height="637"
    bbox="-179 -307 3623.12 879"
    underline-thickness="58"
    underline-position="-82"
    unicode-range="U+0020-U+FB06"
  />
<missing-glyph horiz-adv-x="500" 
d="M0 0v700h500v-700h-500zM250 395l170 255h-340zM280 350l170 -255v510zM80 50h340l-170 255zM50 605v-510l170 255z" />
    <glyph glyph-name="T_h" unicode="Th" horiz-adv-x="1049" 
d="M249 258v200q0 125 -1 151q-86 0 -119.5 -9.5t-47.5 -37.5q-21 -40 -43 -114l-20 6q14 62 22 189q41 -10 228 -10h87q178 0 225 7q0 22 -1 28q54 0 123 12q-4 -84 -4 -183v-130q75 71 157 71q77 0 108 -56q13 -26 13 -67q0 -46 -0.5 -139.5t-0.5 -129.5q0 -18 9.5 -23
t47.5 -6l-1 -21q-12 0 -51.5 1.5t-62.5 1.5q-26 0 -63.5 -1.5t-46.5 -1.5v21q29 1 38 6t11 20q4 40 4 138q0 147 -7 168q-14 41 -57 41q-58 0 -88 -51q-10 -17 -10 -45v-126q0 -72 2 -122q2 -17 11 -22.5t40 -6.5l-1 -21q-10 0 -50 1.5t-62 1.5q-32 0 -69 -1.5t-46 -1.5v21
q33 2 43.5 7.5t11.5 22.5q4 60 4 166v281q0 75 -1 105q-95 12 -204 10q-2 -50 -2 -139v-214q0 -152 4 -202q2 -16 7 -22.5t19 -7.5q10 -1 22.5 -3t22 -3t20.5 -1l-3 -21q-8 0 -64.5 1.5t-98.5 1.5q-29 0 -80 -1.5t-69 -1.5l-3 21q9 1 27 3.5t32 3.5q33 3 34 28q4 68 4 206z
" />
    <glyph glyph-name="f_f" unicode="ff" horiz-adv-x="568" 
d="M23 424h61v28q0 110 53 164q48 51 118 51q50 0 76 -22.5t26 -53.5q0 -21 -15.5 -35.5t-40.5 -14.5q-27 0 -27 30q0 69 -37 69q-36 0 -42 -64q-1 -12 0 -32t3 -54t3 -66h164q0 13 -1 20q0 96 30 143q47 94 150 94q53 0 79.5 -23t26.5 -54q0 -21 -15 -35t-40 -14
q-30 0 -30 29q0 36 -8.5 53.5t-31.5 17.5q-38 0 -44 -67q-4 -31 2 -164h93l-5 -23l-89 -6q-2 -86 -2 -166q0 -131 4 -176q1 -16 6 -23t18 -8q8 0 24 -2t24 -2l-3 -21q-15 0 -54.5 1.5t-61.5 1.5q-23 0 -70 -1.5t-61 -1.5l1 21q33 1 42 5t11 18q4 52 4 160v195h-164
q0 -23 -0.5 -80.5t-0.5 -93.5q0 -126 3 -170q1 -28 20 -31q39 -3 42 -3l-3 -21q-12 0 -48 1.5t-58 1.5q-23 0 -71 -1.5t-66 -1.5l1 21q38 2 48.5 6t11.5 17q4 52 4 161v194l-63 6z" />
    <glyph glyph-name="f_i" unicode="fi" horiz-adv-x="555" 
d="M17 401l3 23h64v22q0 101 49 158q69 77 177 77q78 0 117 -29.5t39 -73.5q0 -25 -17.5 -42.5t-49.5 -17.5q-19 0 -31.5 9.5t-12.5 26.5q0 3 3 18.5t3 24.5q0 58 -66 58q-67 0 -83 -79q-12 -50 -12 -152h103q131 0 183 13q-5 -40 -5 -159v-116q0 -82 3 -114q2 -18 12 -23.5
t48 -7.5l-1 -21q-18 0 -58.5 1.5t-66.5 1.5q-32 0 -67.5 -1.5t-46.5 -1.5l1 21q33 1 43.5 7t12.5 21q4 38 4 128v96q0 86 -5 111q-3 16 -44 16h-117v-182q0 -96 2 -160q2 -23 12 -29.5t49 -7.5l-1 -21q-90 3 -107 3q-22 0 -70 -1.5t-68 -1.5l1 21q38 1 48.5 5.5t12.5 20.5
q5 57 5 158v195z" />
    <glyph glyph-name="f_l" unicode="fl" horiz-adv-x="555" 
d="M19 424h65v30q0 112 58 168q57 59 153 59q59 0 96 -23q43 10 95 17q-5 -160 -5 -212v-241q0 -124 2 -174q2 -20 12 -25t52 -6l-2 -21q-20 0 -76 1.5t-74 1.5q-21 0 -53 -1.5t-42 -1.5v21q35 1 46 7.5t13 27.5q7 69 6 189v279q0 68 -9 88q-22 48 -73 48q-54 0 -69 -59
q-14 -48 -13 -173h104l-6 -23l-99 -6q-1 -56 -1 -183q0 -94 2 -158q1 -22 11.5 -28.5t49.5 -8.5l-3 -21q-15 0 -49 1.5t-55 1.5q-25 0 -74 -1.5t-65 -1.5l1 21q37 1 48 6t13 20q5 57 5 158v194l-67 6z" />
    <glyph glyph-name="f_f_i" unicode="ffi" horiz-adv-x="837" 
d="M22 424h62v27q0 89 48 142q61 75 173 75q41 0 73 -14.5t48 -34.5q64 62 165 62q76 0 116 -29.5t40 -74.5q0 -26 -17 -43t-49 -17q-20 0 -33 9t-12 26q0 4 2 18.5t2 23.5q0 61 -64 61q-30 0 -51 -19.5t-28 -55.5q-14 -58 -14 -156h102q130 0 183 13q-5 -40 -5 -159v-115
q0 -83 3 -115q1 -19 11 -24t48 -7l-1 -21q-18 0 -58 1.5t-66 1.5q-31 0 -66.5 -1.5t-46.5 -1.5l1 21q33 1 43 7t12 21q4 38 4 127v97q0 81 -4 111q-3 16 -45 16h-116q0 -19 -0.5 -76t-0.5 -93q0 -131 4 -175q1 -21 12.5 -27t52.5 -8l-3 -21q-17 0 -52.5 1.5t-56.5 1.5
q-23 0 -71.5 -1.5t-60.5 -1.5l1 21q32 1 42 5.5t12 17.5q4 52 4 160v196h-165q0 -20 -0.5 -77t-0.5 -94q0 -129 3 -175q1 -20 12.5 -25.5t50.5 -7.5l-3 -21q-12 0 -46.5 1.5t-56.5 1.5q-23 0 -74 -1.5t-69 -1.5l1 21q38 1 49 5.5t13 17.5q4 52 4 161v195l-64 6zM201 424h165
q0 83 19 136q-7 32 -33 57.5t-60 25.5q-63 0 -79 -73q-13 -51 -12 -146z" />
    <glyph glyph-name="f_f_l" unicode="ffl" horiz-adv-x="837" 
d="M20 424h64v24q0 92 49 147q63 73 172 73q76 0 120 -46q59 59 149 59q61 0 100 -24q28 7 95 18q-6 -96 -6 -213v-241q0 -125 2 -173q1 -20 11 -24.5t52 -6.5l-1 -21q-20 0 -76.5 1.5t-74.5 1.5q-22 0 -52 -1.5t-40 -1.5v21q35 1 45 7.5t12 27.5q6 57 6 189v275q0 69 -8 90
q-18 50 -73 50q-51 0 -68 -55q-15 -47 -15 -177h105l-7 -24l-98 -5q-2 -88 -2 -168q0 -107 4 -175q2 -21 12 -27t50 -8l-2 -21q-16 0 -55.5 1.5t-63.5 1.5q-25 0 -67 -1.5t-54 -1.5l1 21q33 1 43 5.5t12 18.5q4 52 4 158v197h-165q0 -20 -0.5 -76.5t-0.5 -93.5
q0 -130 3 -174q1 -22 11.5 -27.5t51.5 -7.5l-2 -21q-12 0 -47 1.5t-57 1.5q-23 0 -74.5 -1.5t-68.5 -1.5l2 21q38 1 48.5 5t12.5 18q4 52 4 161v195l-66 6zM201 424h165q0 78 17 136q-8 32 -32 57t-60 25q-60 0 -78 -71q-12 -37 -12 -147z" />
    <glyph glyph-name=".notdef" horiz-adv-x="500" 
d="M0 0v700h500v-700h-500zM250 395l170 255h-340zM280 350l170 -255v510zM80 50h340l-170 255zM50 605v-510l170 255z" />
    <glyph glyph-name=".null" horiz-adv-x="0" 
 />
    <glyph glyph-name="nonmarkingreturn" horiz-adv-x="333" 
 />
    <glyph glyph-name="space" unicode=" " horiz-adv-x="183" 
 />
    <glyph glyph-name="exclam" unicode="!" horiz-adv-x="235" 
d="M117 655h1q23 0 51 -29.5t28 -58.5t-18 -80q-49 -147 -49 -277h-26q0 128 -49 277q-18 51 -18 80q0 33 30 60.5t50 27.5zM120 -14h-1q-28 0 -47.5 20.5t-19.5 51.5q0 30 20 50.5t49 20.5t48.5 -20t19.5 -51t-19.5 -51.5t-49.5 -20.5z" />
    <glyph glyph-name="quotedbl" unicode="&#x22;" horiz-adv-x="316" 
d="M254 703h1q13 0 20.5 -18t7.5 -34q0 -53 -51 -184l-19 2q-9 136 -31 203q8 8 32.5 19.5t39.5 11.5zM109 703h1q13 0 20.5 -18t7.5 -34q0 -30 -17.5 -88t-33.5 -96l-19 2q-10 141 -31 203q8 8 32.5 19.5t39.5 11.5z" />
    <glyph glyph-name="numbersign" unicode="#" horiz-adv-x="467" 
d="M295 392h-103l-28 -110h104zM211 587l34 3q-7 -19 -36 -129h102q23 92 30 126l36 3q-23 -74 -37 -129q72 0 92 1q-12 -32 -19 -71h-20.5h-33.5h-36l-27 -108q94 2 101 2q-7 -19 -17 -73q-9 0 -42 0.5t-59 1.5l-31 -145l-36 -4q11 36 38 149h-102l-36 -145l-34 -7
q1 4 40 152q-16 -1 -46 -1.5t-41 -0.5q11 35 16 72q3 0 88 -2l29 110q-41 1 -102 -1q11 31 17 71q20 -1 101 -1q14 50 31 126z" />
    <glyph glyph-name="dollar" unicode="$" horiz-adv-x="488" 
d="M363 133v1q0 21 -6 36t-24 28.5t-30.5 20t-45.5 22.5l-8 -204q49 2 81.5 26t32.5 70zM137 489v-1q0 -37 26 -60t76 -44l8 199q-53 -1 -81.5 -27t-28.5 -67zM252 680l32 6l-6 -81q71 -3 111 -36l17 40l17 -6q-18 -89 -18 -187l-21 2q1 70 -28 112t-80 51l-12 -208
q115 -54 136 -70q52 -38 52 -114q0 -66 -42 -111q-59 -61 -163 -65l-2 -85l-34 -8l6 93q-51 1 -174 29q9 50 15 177l20 4q-4 -175 141 -186l12 215q-90 42 -101 49q-77 45 -77 134q0 77 57 126q52 44 139 45z" />
    <glyph glyph-name="percent" unicode="%" horiz-adv-x="684" 
d="M140 -12l-27 24l385 564q-56 -34 -129 -34q-45 0 -77 12q15 -38 15 -87q0 -79 -36 -127.5t-100 -48.5q-63 0 -99.5 41t-36.5 120q0 80 43.5 127t106.5 47q34 0 61 -15l15 10q40 -52 126 -52q91 0 132 48q5 6 26 37l48 5q-306 -440 -453 -671zM192 600h-1q-22 0 -38 -19
q-27 -37 -28 -124q-2 -88 26 -121q16 -18 42 -18q30 0 52.5 37.5t22.5 113.5q0 131 -76 131zM523 348h1q66 0 96 -46t30 -117q0 -76 -36 -123.5t-99 -47.5t-100 41t-37 117q0 82 42 129t103 47zM538 323h-1q-28 0 -43 -21q-26 -39 -26 -122q0 -91 27 -123q14 -17 40 -17
q32 0 54.5 38t22.5 109q0 32 -5.5 60.5t-23.5 52t-45 23.5z" />
    <glyph glyph-name="ampersand" unicode="&#x26;" horiz-adv-x="705" 
d="M670 23v-20q-66 -21 -135 -21q-34 0 -66.5 19t-82.5 73q-64 -89 -165 -89q-84 0 -132 45q-49 46 -49 123q0 69 50 111q33 29 83 59q-58 76 -58 149q0 69 45.5 113t122.5 44q71 0 112 -38t41 -92q0 -57 -52 -92q-33 -24 -92 -55q77 -93 142 -162q6 14 52 112
q27 59 53.5 89t60.5 30q24 0 36 -13t12 -33q0 -23 -18 -36q-9 -8 -19 -4q-11 6 -24 6q-21 0 -37 -13.5t-36 -46.5q-21 -32 -61 -109q72 -78 122.5 -114t94.5 -35zM280 606h-2q-27 0 -46 -24t-19 -72q0 -58 63 -140q74 54 74 133q0 46 -18.5 74.5t-51.5 28.5zM147 203v-1
q0 -64 37.5 -112t94.5 -48q58 0 89 49q-119 132 -180 212q-41 -39 -41 -100z" />
    <glyph glyph-name="quotesingle" unicode="'" horiz-adv-x="170" 
d="M109 703h1q14 0 21.5 -18t7.5 -34q0 -50 -52 -184l-19 2q-10 139 -32 203q10 9 34.5 20t38.5 11z" />
    <glyph glyph-name="parenleft" unicode="(" horiz-adv-x="334" 
d="M46 262v1q0 224 113 356q52 65 124 99l11 -21q-103 -52 -130 -205q-16 -92 -16 -232q0 -144 16 -231q28 -154 130 -205l-11 -22q-74 37 -125 100q-112 132 -112 360z" />
    <glyph glyph-name="parenright" unicode=")" horiz-adv-x="334" 
d="M289 259v-1q0 -223 -113 -357q-51 -63 -123 -99l-12 21q104 53 130 206q16 87 16 231q0 147 -16 232q-28 155 -129 204l11 22q72 -36 124 -99q112 -134 112 -360z" />
    <glyph glyph-name="asterisk" unicode="*" horiz-adv-x="379" 
d="M218 528l-2 15q22 6 54 30.5t39 25.5q13 2 25.5 -11t14.5 -22q2 -11 -3.5 -28t-19.5 -19q-6 -1 -45.5 6t-62.5 3zM205 506l11 10q16 -16 53.5 -32t41.5 -21q8 -14 3.5 -29.5t-11.5 -21.5q-8 -8 -23.5 -11.5t-27.5 7.5q-3 4 -17 42t-30 56zM178 506l14 -5
q-6 -23 -0.5 -62.5t3.5 -45.5q-5 -13 -22.5 -17.5t-26.5 -1.5q-10 3 -22.5 16t-7.5 27q2 4 27.5 35t34.5 54zM165 528l3 -15q-22 -6 -53.5 -30.5t-38.5 -25.5q-14 -3 -26 9.5t-16 22.5q-1 13 4 29.5t19 18.5q6 1 45.5 -6t62.5 -3zM178 552l-11 -11q-17 16 -54 32t-42 22
q-7 14 -3 28.5t11 22.5q8 7 23 10.5t29 -6.5q3 -4 17.5 -42t29.5 -56zM205 551l-15 4q5 24 0.5 63.5t-2.5 45.5q4 13 22 17t27 1q10 -3 22 -16t7 -26q-2 -5 -27.5 -36t-33.5 -53z" />
    <glyph glyph-name="plus" unicode="+" horiz-adv-x="485" 
d="M269 18h-51v186h-169v48h169v169h51v-169h168v-48h-168v-186z" />
    <glyph glyph-name="comma" unicode="," horiz-adv-x="218" 
d="M37 -118l-7 20q46 7 78 37t32 73q0 12 -8 4q-14 -11 -38 -11q-23 0 -40 17t-16 46q0 27 19.5 47t47.5 20q37 0 57.5 -27.5t20.5 -72.5q0 -70 -46 -110t-100 -43z" />
    <glyph glyph-name="hyphen" unicode="-" horiz-adv-x="308" 
d="M35 198l11 61q110 -3 228 0l-10 -61q-120 4 -229 0z" />
    <glyph glyph-name="period" unicode="." horiz-adv-x="218" 
d="M109 130h1q29 0 48.5 -20.5t19.5 -51.5t-20 -51.5t-49 -20.5t-49 20t-20 52q0 31 20 51.5t49 20.5z" />
    <glyph glyph-name="slash" unicode="/" horiz-adv-x="395" 
d="M318 698l42 -16q-42 -97 -146 -401l-132 -385l-43 14l34.5 94l53 149l51.5 145q102 285 140 400z" />
    <glyph glyph-name="zero" unicode="0" horiz-adv-x="488" 
d="M250 628h1q85 0 139 -60q73 -80 73 -253q-1 -207 -95 -285q-52 -44 -129 -44q-82 0 -134 51q-80 80 -80 267q0 195 102 279q53 45 123 45zM247 604h-1q-21 0 -35 -11.5t-26 -38.5q-33 -75 -33 -243q0 -163 29 -242q24 -59 66 -59q40 0 63 56q28 78 28 242q0 167 -29 244
q-21 52 -62 52z" />
    <glyph glyph-name="one" unicode="1" horiz-adv-x="488" 
d="M413 19l1 -22q-36 0 -91.5 1.5t-75.5 1.5q-25 0 -80 -1.5t-78 -1.5l-4 21l70 7q19 1 25.5 7t7.5 18q4 50 4 155v199q0 99 -2 157q-1 15 -13 15l-79 -4l6 23q175 20 211 34l4 -3q-4 -148 -4 -216v-202q0 -108 3 -159q1 -21 23 -24z" />
    <glyph glyph-name="two" unicode="2" horiz-adv-x="488" 
d="M442 185l20 -10q-25 -84 -31 -180q-60 5 -295 5q-80 0 -107 -2l-3 8q19 51 26 66q191 131 231 274q14 53 14 123q0 59 -21 96.5t-63 37.5q-81 0 -81 -100q0 -17 8 -49q3 -19 -11 -33q-15 -15 -39 -15q-25 0 -40.5 17t-15.5 48q0 58 54 107q56 50 149 50q79 0 128 -36
q65 -50 65 -152q0 -88 -65 -150q-27 -27 -234 -195q202 4 264 10q20 3 27 22q13 31 20 58z" />
    <glyph glyph-name="three" unicode="3" horiz-adv-x="488" 
d="M243 628h1q73 0 126 -36t53 -104q0 -72 -63 -109q-40 -23 -112 -44l1 -5q110 -4 160 -48q48 -39 48 -106q0 -84 -64 -137q-63 -53 -175 -53q-85 0 -136 33t-51 80q0 23 17 39.5t42 16.5q28 0 33 -33q11 -61 34.5 -86.5t63.5 -25.5q50 0 74 41.5t24 113.5q0 69 -26 105.5
t-88 36.5q-23 0 -48 -7l-17 18l2 6q63 8 94 33q61 40 61 125q0 50 -21.5 85t-61.5 35q-79 0 -79 -88q0 -17 5 -35q2 -17 -9 -28q-13 -13 -35 -13q-23 0 -36.5 14.5t-13.5 42.5q0 49 54 91t143 42z" />
    <glyph glyph-name="four" unicode="4" horiz-adv-x="488" 
d="M259 213q4 72 5.5 201t1.5 132q-148 -214 -206 -316q42 -17 199 -17zM18 193l-9 23l96.5 140l102 147t60.5 92q70 15 112 35l6 -3q-6 -122 -6 -341v-71q58 1 103 16v-20q-35 -23 -103 -29q0 -58 2 -182q-81 0 -125 -13l-5 4q3 48 6 187q-168 0 -240 15z" />
    <glyph glyph-name="five" unicode="5" horiz-adv-x="488" 
d="M88 254l-22 21q16 51 28 177t11 165q19 -7 58 -10q45 -5 92 -5q85 0 124.5 8.5t58.5 34.5l13 -12q-26 -84 -75 -111q-42 -24 -130 -24q-75 0 -116 9q-15 -129 -29 -200q72 60 163 60q86 0 137.5 -41t51.5 -129q0 -71 -37 -125q-63 -86 -197 -86q-82 0 -132.5 31.5
t-50.5 77.5q0 26 18 41t42 15q26 0 33 -33q22 -108 94 -108q47 0 71.5 44t24.5 122q0 87 -41 125q-28 25 -69 25q-84 0 -121 -72z" />
    <glyph glyph-name="six" unicode="6" horiz-adv-x="488" 
d="M416 620l2 -25q-15 5 -42 5q-98 0 -156.5 -84t-64.5 -204q73 77 149 77q75 0 117 -49t42 -130q0 -96 -54 -157q-59 -67 -162 -67q-90 0 -145 48q-75 67 -75 214q0 193 117 301q89 79 214 79q29 0 58 -8zM252 340h-1q-63 0 -89 -68q-9 -21 -9 -62q0 -66 16 -117
q23 -83 80 -83q46 0 68 53q20 47 20 123q0 52 -13 92q-22 62 -72 62z" />
    <glyph glyph-name="seven" unicode="7" horiz-adv-x="488" 
d="M56 413l-19 7q12 42 20.5 110.5t6.5 93.5q33 -10 204 -10q165 0 186 1l4 -6q-29 -101 -50 -139q-80 -151 -121 -261.5t-42 -217.5l-5 -5q-45 -2 -75 11q-26 11 -26 36q0 17 13 50q22 63 120.5 216.5t122.5 209.5q-42 4 -156 4q-94 0 -121 -6.5t-36 -27.5q-10 -21 -26 -66
z" />
    <glyph glyph-name="eight" unicode="8" horiz-adv-x="488" 
d="M257 628h1q68 0 117 -40.5t49 -107.5q0 -46 -32 -76q-22 -21 -78 -58q82 -45 110.5 -85t28.5 -93q0 -79 -58 -128q-65 -54 -159 -54q-92 0 -146.5 40.5t-54.5 113.5q0 55 40 91q17 16 88 61q-54 34 -79 70.5t-25 86.5q0 65 37 111q52 68 161 68zM241 603h-1
q-38 0 -64.5 -26t-26.5 -72q0 -48 33 -78q30 -27 111 -68q54 44 54 116q0 55 -28 91.5t-78 36.5zM252 11h1q46 0 73 27.5t27 75.5q0 44 -34 77.5t-134 88.5q-63 -41 -63 -121q0 -61 33 -104.5t97 -43.5z" />
    <glyph glyph-name="nine" unicode="9" horiz-adv-x="488" 
d="M82 -6l-1 23q35 -6 76 5q78 15 123.5 89t53.5 189q-68 -70 -141 -70q-79 0 -122.5 49t-43.5 133q0 81 48 140q62 76 171 76q88 0 141 -53q74 -73 74 -226q0 -94 -30 -169t-81 -121q-81 -74 -200 -74q-44 0 -68 9zM241 603h-1q-46 0 -67 -52q-20 -51 -20 -118
q0 -65 24.5 -109.5t67.5 -44.5q54 0 79 50q10 20 11 76q2 109 -32 160q-24 38 -62 38z" />
    <glyph glyph-name="colon" unicode=":" horiz-adv-x="218" 
d="M110 126h1q28 0 47 -20.5t19 -49.5q0 -30 -19.5 -50t-48.5 -20q-28 0 -47.5 19.5t-19.5 50.5q0 30 19.5 50t48.5 20zM111 406h1q28 0 47 -20t19 -49q0 -30 -19.5 -50t-48.5 -20q-28 0 -47.5 20t-19.5 50q0 29 20 49t48 20z" />
    <glyph glyph-name="semicolon" unicode=";" horiz-adv-x="218" 
d="M108 406h1q28 0 47 -20t19 -49q0 -30 -19.5 -50t-48.5 -20q-28 0 -47.5 20t-19.5 50q0 29 20 49t48 20zM39 -117l-7 20q46 7 77 36t31 72q0 11 -8 3q-15 -10 -37 -10q-23 0 -39.5 17t-15.5 45q0 26 19 45.5t46 19.5q37 0 57 -27t20 -71q0 -68 -45.5 -107t-97.5 -43z" />
    <glyph glyph-name="less" unicode="&#x3c;" horiz-adv-x="472" 
d="M65 206v51l342 184v-56l-289 -153v-2l289 -152v-57z" />
    <glyph glyph-name="equal" unicode="=" horiz-adv-x="485" 
d="M437 169v-48h-389v48h389zM437 334v-48h-389v48h389z" />
    <glyph glyph-name="greater" unicode="&#x3e;" horiz-adv-x="472" 
d="M407 257v-51l-341 -185v56l287 153v2l-287 153v56z" />
    <glyph glyph-name="question" unicode="?" horiz-adv-x="411" 
d="M208 210l-19 -8q-52 58 -54 108q-1 35 29 67q14 15 52.5 52.5l48.5 47.5q26 24 26 58q0 48 -23 72t-59 24q-35 0 -54.5 -20.5t-19.5 -48.5q0 -23 10 -45q8 -18 -10 -33q-21 -18 -50 -18q-20 0 -34.5 15t-14.5 43q0 60 54.5 95.5t119.5 35.5q82 0 127.5 -46.5t45.5 -127.5
q0 -64 -54 -107q-88 -74 -100 -86q-19 -18 -24 -35t3 -43zM202 -14h-1q-27 0 -46.5 20.5t-19.5 51.5q0 30 20 50.5t49 20.5t48.5 -20t19.5 -51q0 -32 -19.5 -52t-50.5 -20z" />
    <glyph glyph-name="at" unicode="@" horiz-adv-x="732" 
d="M297 104v-1q0 -13 5 -22t13 -9q38 0 76.5 53t58.5 116q13 42 17 63q2 48 -38 48q-36 0 -67 -47q-65 -102 -65 -201zM527 -27l9 -22q-89 -100 -240 -100q-117 0 -185.5 72t-68.5 201q0 80 26 153t74.5 130t123.5 91t167 34q127 0 193 -70t66 -176q0 -108 -61.5 -182.5
t-152.5 -74.5q-28 0 -42.5 7t-17.5 24.5t-0.5 35t11.5 51.5q-29 -49 -70.5 -83t-87.5 -34q-61 0 -61 82q0 59 33 128.5t90 106.5q46 28 92 28q41 0 54 -33l7 23q53 0 79 -1q-49 -137 -70 -265q-6 -38 17 -38q59 -1 103.5 64t44.5 153q0 104 -61 165.5t-173 61.5
q-135 0 -213 -105q-86 -117 -86 -280q0 -120 53 -178q54 -60 150 -60q120 0 197 91z" />
    <glyph glyph-name="A" unicode="A" horiz-adv-x="610" 
d="M621 17v-21q-75 3 -137 3q-24 0 -47 -0.5t-50.5 -1.5t-43.5 -1l1 21q42 5 52.5 10t6.5 21q-8 32 -54 197q-19 1 -93 1q-73 0 -91 -1q-44 -145 -49 -169q-7 -33 7.5 -44t73.5 -15l-1 -21q-12 0 -45 1.5t-58 1.5q-14 0 -53.5 -1.5t-58.5 -1.5v21q42 4 59 15.5t33 49.5
q64 164 170 494q11 31 13 54q20 0 57 5t50 11q35 -130 98.5 -338.5t85.5 -259.5q11 -24 38 -27zM264 557q-63 -195 -89 -282q18 -1 86 -1q67 0 80 1z" />
    <glyph glyph-name="B" unicode="B" horiz-adv-x="595" 
d="M16 -3l1 21q47 2 62 7t16 19q5 52 5 163v236q0 113 -3 149q-1 11 -17.5 16.5t-61.5 7.5l-1 21q13 0 60 -1.5t74 -1.5q21 0 81.5 1.5t85.5 1.5q70 0 103.5 -7.5t57.5 -27.5q42 -33 42 -102q0 -93 -83 -131q-30 -15 -84 -24v-5q102 -10 148 -40q57 -36 57 -119
q0 -92 -73 -140q-63 -43 -199 -43q-23 0 -69.5 1t-69.5 1q-17 0 -66 -1.5t-66 -1.5zM226 476v-126q11 -1 45 -1q59 0 88 31t29 107q0 55 -18 87q-23 40 -92 40q-29 0 -38.5 -4.5t-9.5 -14.5q-4 -58 -4 -119zM226 324v-139q0 -106 4 -146q2 -17 43 -17q87 0 119 48
q25 39 25 114q0 71 -27 105q-32 38 -120 38q-29 0 -44 -3z" />
    <glyph glyph-name="C" unicode="C" horiz-adv-x="614" 
d="M563 426l-21 -4q-4 54 -21 97.5t-54.5 74t-91.5 30.5q-80 0 -128 -63q-63 -84 -63 -239q0 -132 47 -209q51 -85 152 -85q139 0 186 152l21 -13q-26 -90 -90 -137t-162 -47q-159 0 -233 99q-66 82 -66 224q0 173 106 268q82 76 216 76q121 0 174 -58l18 53l19 -7
q-15 -102 -9 -212z" />
    <glyph glyph-name="D" unicode="D" horiz-adv-x="678" 
d="M99 245v180q0 115 -2 161q-1 13 -7 18t-20 7l-53 5l2 20q8 0 57.5 -1.5t76.5 -1.5t83 2t81 2q138 0 205 -41q117 -72 117 -258q0 -233 -167 -310q-69 -32 -175 -32q-26 0 -77.5 1.5t-76.5 1.5q-28 0 -76.5 -1.5t-54.5 -1.5l1 21l44 4q20 1 27.5 7.5t8.5 20.5q6 63 6 196z
M226 417v-175q0 -169 4 -201q1 -11 12 -16t42 -5q112 0 161 69q54 78 54 243q0 156 -55 222q-49 58 -148 58q-41 0 -52.5 -5t-13.5 -17q-4 -60 -4 -173z" />
    <glyph glyph-name="E" unicode="E" horiz-adv-x="560" 
d="M17 616v20q12 0 71 -1.5t87 -1.5h170q108 0 140 8q-8 -61 -3 -174l-20 -2q-9 57 -28 95q-15 30 -38.5 39t-96.5 9h-51q-17 0 -18 -16q-4 -128 -4 -150v-100q12 -1 57 -1q62 0 84 19t30 72h19q-12 -117 -3 -223l-20 1q-7 60 -27.5 82.5t-84.5 22.5q-43 0 -55 -2v-83
q0 -131 4 -180q1 -15 14.5 -20t62.5 -5q67 0 95 6t50 27q39 35 64 126l19 -4q-1 -17 -12 -90.5t-16 -94.5q-63 5 -215 5h-117q-25 0 -165 -4l1 22l54 5q15 2 22 9.5t8 26.5q4 78 4 176v188q0 121 -3 164q-1 13 -8 18t-25 7z" />
    <glyph glyph-name="F" unicode="F" horiz-adv-x="530" 
d="M18 616l-1 20q10 0 69.5 -1.5t95.5 -1.5h136q130 0 182 8q-9 -77 -5 -178l-20 -1q-9 59 -25 92q-9 20 -22 31.5t-41 17.5t-76 6h-62q-18 0 -19 -14q-4 -40 -4 -160v-104q11 -2 66 -2q61 0 84.5 18t32.5 76l19 -2q-5 -46 -4.5 -121.5t4.5 -105.5h-20q-6 34 -11 50.5
t-17 32t-33.5 20.5t-56.5 5q-55 0 -64 -2v-100q0 -109 4 -147q1 -26 26 -29q4 0 28 -3t38 -4l-2 -21q-14 0 -70 1.5t-83 1.5q-30 0 -84.5 -1.5t-65.5 -1.5l-2 21l52 5q25 3 28 26q5 55 5 177v205q0 106 -3 157q-2 22 -21 24z" />
    <glyph glyph-name="G" unicode="G" horiz-adv-x="672" 
d="M576 422h-22q-8 99 -54 151.5t-120 52.5q-89 0 -139 -73q-56 -83 -56 -239q0 -141 47 -221q50 -85 143 -85q81 0 86 57q4 32 4 143q0 43 -8 55t-39 14l-49 4l-3 22q16 0 74 -1.5t80 -1.5q90 0 128 3l2 -21q-35 -4 -45 -10.5t-12 -23.5q-3 -32 -3 -109q0 -63 5 -108
q-13 -3 -47.5 -13l-48.5 -14q-74 -21 -137 -21q-184 0 -261 103q-62 82 -62 225q0 96 36 170.5t104 118.5q76 50 196 50q62 0 108.5 -17t68.5 -39l20 54l18 -7q-6 -31 -11.5 -99.5t-2.5 -119.5z" />
    <glyph glyph-name="H" unicode="H" horiz-adv-x="702" 
d="M100 207v222q0 120 -2 154q-1 19 -16.5 25t-59.5 8l1 21q11 0 61 -1.5t74 -1.5q17 0 71 1.5t71 1.5l-2 -21q-39 -1 -52 -7.5t-15 -26.5q-4 -37 -4 -139v-97q25 -1 116 -1q92 0 132 1v107q0 91 -3 134q-1 16 -16.5 22t-54.5 7v21q117 -3 135 -3q85 0 142 3v-21
q-42 -2 -56.5 -8t-15.5 -24q-4 -68 -4 -146v-217q0 -117 4 -175q1 -16 16 -21.5t58 -7.5l-2 -21q-90 3 -144 3q-52 0 -136 -3l1 21q41 2 56 8.5t16 24.5q4 92 4 155v111q-70 2 -132 2q-66 0 -116 -2v-110q0 -114 3 -156q1 -18 17.5 -24.5t58.5 -8.5v-21q-15 0 -68.5 1.5
t-83.5 1.5q-24 0 -71.5 -1.5t-64.5 -1.5v21q43 2 59.5 8.5t17.5 24.5q5 60 5 157z" />
    <glyph glyph-name="I" unicode="I" horiz-adv-x="326" 
d="M100 211v225q0 94 -2 144q-1 21 -15.5 27t-61.5 9l1 21q11 0 61 -1.5t80 -1.5q27 0 77 1.5t63 1.5l1 -21q-44 -2 -58 -8t-15 -24q-4 -42 -4 -145v-226q0 -105 4 -161q1 -20 16 -26.5t59 -8.5l-2 -21q-15 0 -66 1.5t-79 1.5q-50 0 -140 -3l1 21q44 2 59.5 8.5t16.5 24.5
q4 46 4 161z" />
    <glyph glyph-name="J" unicode="J" horiz-adv-x="315" 
d="M19 616l4 21q10 0 56.5 -2t78.5 -2q26 0 77.5 2t62.5 2l-1 -21l-37 -4q-16 -1 -22 -7t-7 -20q-5 -104 -4 -435q0 -65 -11 -118q-17 -86 -65 -136q-76 -79 -160 -79q-31 0 -51 13.5t-20 29.5q0 15 15.5 31.5t29.5 16.5q13 0 23 -13q27 -39 56 -39q43 0 49 91q6 102 7 284
v211q1 58 -2 141q-1 24 -23 27q-33 5 -56 6z" />
    <glyph glyph-name="K" unicode="K" horiz-adv-x="642" 
d="M100 216v205q0 137 -2 163q-1 18 -14 23t-59 8l2 22q8 0 56 -2t78 -2t78.5 2t58.5 2l2 -22q-44 -3 -56 -7.5t-13 -21.5q-5 -65 -5 -166v-92q48 24 132.5 116t115.5 143q11 17 -9 20l-61 7l8 22q13 0 48.5 -1t60.5 -1q38 0 107 3l2 -21q-73 -4 -106 -33
q-17 -15 -46.5 -46.5l-71 -75.5l-68.5 -72q52 -83 133 -198.5t107 -143.5q15 -15 30.5 -20t56.5 -8l-6 -22q-64 3 -114 0q-59 -3 -94 -8q-8 15 -45 71.5l-83 124.5t-63 95q-22 31 -34 30v-87q0 -111 5 -174q1 -17 14 -22t62 -9l-2 -21q-13 0 -65.5 1.5t-84.5 1.5
q-31 0 -80.5 -1.5t-58.5 -1.5l1 21q48 4 62.5 9t15.5 22q5 50 5 167z" />
    <glyph glyph-name="L" unicode="L" horiz-adv-x="531" 
d="M492 192l21 -2q-6 -40 -22 -195q-20 2 -116 4q-57 1 -211 1q-25 0 -84.5 -1.5t-67.5 -1.5l1 21l51 5q17 2 22.5 7.5t6.5 18.5q6 51 6 203v188q0 105 -2 149q-1 11 -6.5 16.5t-20.5 6.5l-48 3l1 22q9 0 63.5 -2t79.5 -2t73.5 2t67.5 2l3 -22l-50 -4q-28 -3 -29 -26
q-5 -100 -5 -196v-141q0 -179 3 -206q1 -10 11 -14t42 -4q73 0 104.5 7.5t49.5 30.5q33 43 56 130z" />
    <glyph glyph-name="M" unicode="M" horiz-adv-x="827" 
d="M22 615l2 21q88 -3 124 -3q68 0 91 3q9 -28 41 -105.5l76 -182l68 -165.5q134 334 171 453q22 -3 87 -3q26 0 67 1.5t53 1.5l3 -21q-33 -2 -63 -6q-17 -1 -17 -24v-130q-2 -312 5 -397q2 -20 8.5 -26.5t22.5 -8.5l49 -5v-21q-66 3 -143 3q-22 0 -142 -3l1 21q41 3 55 9.5
t15 24.5q2 37 11 537h-1l-205 -582l-55 -13q-21 70 -108 302.5l-106 285.5h-2q0 -252 7 -485q1 -42 9.5 -55.5t36.5 -16.5l51 -7l-2 -21q-13 0 -54.5 1.5t-65.5 1.5q-25 0 -59.5 -1.5t-41.5 -1.5v21q33 4 41 6q21 3 30.5 18t11.5 58q10 193 10 486l-3 11q-5 11 -30 14z" />
    <glyph glyph-name="N" unicode="N" horiz-adv-x="650" 
d="M13 616v20q5 0 46 -1.5t66 -1.5q64 0 92 3q3 -6 53 -83q44 -72 265 -393q1 342 -8 407q-3 25 -13 34t-37 11l-47 3l5 21q18 0 57.5 -1.5t57.5 -1.5q20 0 55 1.5t46 1.5v-20q-5 -1 -22 -3.5t-25 -4.5q-13 -3 -18.5 -10.5t-9.5 -25.5q-13 -72 -13 -329v-245q-38 -2 -74 -10
l-358 553q0 -424 8 -477q5 -33 34 -38q5 -1 17.5 -2.5l24 -3t22.5 -2.5l-3 -21q-13 0 -55.5 1.5t-72.5 1.5q-26 0 -58 -1.5t-41 -1.5l1 21q12 0 48 6q28 5 34 49q5 34 10 180t5 312q-6 17 -14 28q-10 14 -36 17z" />
    <glyph glyph-name="O" unicode="O" horiz-adv-x="681" 
d="M346 650h1q137 0 216 -90.5t79 -231.5q0 -164 -80 -254.5t-222 -90.5t-221.5 88.5t-79.5 240.5q0 145 80.5 241.5t226.5 96.5zM339 627h-1q-70 0 -110 -69q-43 -74 -43 -230q0 -79 14 -148t36 -105q40 -67 113 -67q72 0 108 68q40 75 40 236t-43 244q-40 71 -114 71z" />
    <glyph glyph-name="P" unicode="P" horiz-adv-x="567" 
d="M99 274v162q0 103 -2 149q-1 23 -23 24l-59 6l6 22q76 -4 128 -4q21 0 73.5 2t88.5 2q73 0 111 -12t63 -36q49 -47 49 -133q0 -90 -50 -142q-58 -59 -155 -59q-44 0 -71 10l2 23q18 -6 47 -6q42 0 62 33q29 46 29 136q0 89 -31 127q-30 34 -90 34q-28 0 -36.5 -4
t-9.5 -15q-5 -80 -5 -180v-122v-116q0 -61 3 -121q1 -16 8.5 -21.5t28.5 -7.5l54 -7l-1 -21q-17 0 -71.5 1.5t-91.5 1.5q-28 0 -77 -1.5t-67 -1.5l1 21l40 4q24 2 32 9t9 30q5 77 5 213z" />
    <glyph glyph-name="Q" unicode="Q" horiz-adv-x="681" 
d="M719 -93l2 -18q-26 -29 -67 -44.5t-82 -15.5q-80 0 -205 110q-45 42 -101 54q-98 20 -162.5 95.5t-64.5 217.5q0 152 80.5 248t228.5 96q135 0 214.5 -89t79.5 -238q0 -82 -22 -146t-58.5 -101.5t-75.5 -58t-82 -27.5v-4l89 -37q99 -44 161 -47q32 -4 65 5zM340 627h-1
q-68 0 -109 -68q-45 -80 -45 -238q0 -171 50 -251q42 -66 114 -66q69 0 104 61q43 79 43 253q0 157 -45 242q-39 67 -111 67z" />
    <glyph glyph-name="R" unicode="R" horiz-adv-x="603" 
d="M100 228v185q0 128 -2 174q-1 20 -26 23l-57 6l5 21q7 0 56 -2t75 -2q24 0 78.5 2t83.5 2q127 0 171 -41q38 -35 38 -103q0 -140 -187 -164v-5q84 -10 127 -39t56 -86q14 -44 19 -124q5 -58 49 -58q3 0 27 3l-4 -21q-22 -9 -72 -9q-70 0 -104 29t-39 96q-5 72 -6 91
q-5 63 -35.5 84t-102.5 21h-24v-93q0 -122 3 -168q1 -18 14.5 -23.5t61.5 -9.5l-2 -21q-15 0 -65 1.5t-76 1.5q-31 0 -81.5 -1.5t-62.5 -1.5l1 21q45 3 60.5 9t16.5 22q4 44 4 180zM226 435v-100h24q73 0 105.5 35t32.5 112q0 59 -19 91q-23 40 -87 40q-22 0 -38 -4
q-12 -3 -13 -19q-5 -33 -5 -155z" />
    <glyph glyph-name="S" unicode="S" horiz-adv-x="487" 
d="M47 203l21 6q-2 -87 40 -143t120 -56q52 0 83.5 29.5t31.5 84.5q0 60 -50 91q-10 6 -68.5 39t-84.5 50q-92 53 -92 157q0 88 55.5 138.5t147.5 50.5q90 0 133 -40l19 45l18 -6q-15 -87 -15 -193l-21 -4q-2 80 -40 127t-94 47q-48 0 -75.5 -30t-27.5 -80q0 -66 61 -99
q39 -24 92.5 -53.5t68.5 -38.5q82 -48 82 -142q0 -97 -67 -148t-173 -51q-87 0 -172 36q4 43 7 183z" />
    <glyph glyph-name="T" unicode="T" horiz-adv-x="586" 
d="M353 468v-213q0 -151 4 -201q2 -16 7 -22.5t19 -7.5q10 -1 32.5 -3.5t37.5 -3.5l-3 -21q-8 0 -67 1.5t-102 1.5q-29 0 -82 -1.5t-72 -1.5l-4 22q4 0 64 6q34 3 35 28q4 68 4 206v198q0 128 -1 154q-82 0 -107 -9t-40 -39q-16 -30 -43 -116l-19 6q12 53 21 191
q41 -10 209 -10h87q185 0 226 10q-13 -94 -9 -182l-21 -9q-10 81 -33 125q-9 20 -35.5 27t-106.5 6q0 -9 -0.5 -58.5t-0.5 -83.5z" />
    <glyph glyph-name="U" unicode="U" horiz-adv-x="647" 
d="M369 24h1q69 0 109.5 36t47.5 134q12 197 -1 374q-1 26 -10.5 33.5t-30.5 9.5l-48 5l-3 21q13 0 49.5 -2t54.5 -2t51.5 2t49.5 2l4 -21l-36 -4q-20 -1 -26.5 -9.5t-7.5 -30.5q-2 -44 -4.5 -133t-5.5 -159.5t-7 -107.5q-13 -100 -76 -146q-56 -42 -156 -42q-136 0 -191 66
q-41 48 -42 156q0 41 -0.5 190.5t-1.5 181.5q-1 31 -20 33l-52 5v21q17 0 65.5 -2t73.5 -2q24 0 71.5 2t63.5 2l2 -21l-49 -6q-18 -1 -21 -25q-14 -164 -3 -394q2 -56 11.5 -83.5t28.5 -46.5q37 -37 109 -37z" />
    <glyph glyph-name="V" unicode="V" horiz-adv-x="611" 
d="M-16 616l-1 21q8 0 58.5 -1.5t80.5 -1.5q24 0 70.5 1.5t69.5 1.5l5 -21l-48 -6q-12 -2 -15.5 -6.5t-0.5 -15.5q20 -77 156 -466q123 335 150 458q3 15 -1 21t-16 8q-29 5 -58 7l-3 21q9 0 46 -1.5t57 -1.5q16 0 49 1.5t55 1.5l6 -21q-43 -1 -61.5 -13t-35.5 -53
q-67 -155 -202 -561q-34 6 -74 -2q-109 336 -206 583q-13 28 -27.5 36t-53.5 10z" />
    <glyph glyph-name="W" unicode="W" horiz-adv-x="900" 
d="M724 615l-3 21q13 0 50 -1.5t58 -1.5t51 1.5t47 1.5v-21q-44 -5 -58 -15t-29 -48q-52 -148 -176 -563q-42 3 -73 -2q-16 64 -71.5 252.5l-74.5 255.5q-111 -421 -132 -506q-10 2 -74 -2q-89 344 -164 562q-15 42 -29.5 53t-56.5 13v21q78 -3 130 -3q24 0 70 1.5t69 1.5
l6 -21l-48 -6q-20 -3 -16 -24q17 -66 68 -249t54 -195q38 136 78.5 299t45.5 194q38 -4 88 1q14 -60 144 -501q98 311 124 438q4 21 -0.5 28t-20.5 9z" />
    <glyph glyph-name="X" unicode="X" horiz-adv-x="589" 
d="M7 616l-2 21q15 0 65 -1.5t76 -1.5q23 0 66.5 1.5t66.5 1.5l6 -21l-43 -5q-20 -3 -11 -24q38 -76 98 -184q82 124 105 174q8 17 4 24t-25 10l-44 5l5 21q19 0 55.5 -2t47.5 -2q23 -1 59.5 1.5t49.5 2.5l3 -21q-54 -4 -74.5 -14.5t-46.5 -42.5q-44 -52 -126 -180
q126 -238 178 -322q20 -32 58 -36l36 -4l-2 -21q-15 0 -65 2t-79 2q-30 0 -80.5 -2t-63.5 -2l-1 21q39 4 48 10t3 20q-11 24 -120 233q-97 -163 -117 -204q-13 -29 -8.5 -40t27.5 -14l50 -5l5 -21q-14 0 -51.5 1.5t-61.5 1.5q-27 0 -62 -1.5t-52 -1.5l-4 21q40 3 59 11.5
t40 35.5q36 45 161 241q-118 227 -153 281q-10 16 -27 22t-53 8z" />
    <glyph glyph-name="Y" unicode="Y" horiz-adv-x="548" 
d="M435 17l3 -21q-26 0 -83 1.5t-84 1.5q-34 0 -83 -1.5t-69 -1.5l-3 21q12 1 32.5 3.5t29.5 3.5q18 2 26.5 10t9.5 26q5 88 5 201q0 26 -10 47q-17 38 -64.5 125.5t-78.5 135.5q-19 30 -34 38t-54 9l-1 21q8 0 57 -1.5t76 -1.5q36 0 83.5 1.5t59.5 1.5l3 -21l-42 -4
q-20 -2 -11 -25q10 -23 61 -123.5l68 -135.5q85 167 117 249q12 30 -10 33q-8 1 -17 2t-20 2t-17 2l2 21q9 0 44 -1.5t56 -1.5q18 0 49 1.5t47 1.5l3 -21q-42 -2 -59.5 -10.5t-35.5 -36.5q-46 -75 -134 -250q-11 -23 -11 -50q-2 -150 4 -223q2 -20 22 -21q35 -5 63 -8z" />
    <glyph glyph-name="Z" unicode="Z" horiz-adv-x="596" 
d="M270 632h51q27 0 69 0.5t57 0.5q33 0 101 4q-11 -41 -26 -66l-150 -249l-94.5 -157.5t-82.5 -139.5q130 -1 186.5 3t77.5 13t38 33q29 40 53 132l19 -7q-20 -163 -21 -206q-14 1 -107 6q-41 1 -127 1h-185q-61 0 -93 -3l-7 15q300 477 367 596h-101q-98 0 -132.5 -12.5
t-50.5 -46.5q-17 -34 -37 -114l-19 6q19 117 12 200q32 -7 68 -8q28 -1 134 -1z" />
    <glyph glyph-name="bracketleft" unicode="[" horiz-adv-x="333" 
d="M292 -149l-6 -24q-148 4 -188 -5q3 201 3 440q0 342 -3 434q41 -9 194 0l-4 -24q-40 0 -85 -7q-15 -2 -16 -19q-9 -51 -9 -384q0 -340 6 -391q2 -16 28 -17z" />
    <glyph glyph-name="backslash" unicode="\" horiz-adv-x="374" 
d="M36 680l40 19q28 -96 133 -409l62 -190.5t64 -189.5l-43 -16l-124 394q-107 334 -132 392z" />
    <glyph glyph-name="bracketright" unicode="]" horiz-adv-x="333" 
d="M43 668l5 25q147 -3 188 4q-3 -198 -3 -439q0 -342 3 -434q-19 4 -86 3.5t-107 -3.5l3 24q43 0 85 7q16 2 17 19q8 54 8 384q0 353 -6 393q-2 15 -29 15z" />
    <glyph glyph-name="asciicircum" unicode="^" horiz-adv-x="466" 
d="M417 302h-57l-129 278l-123 -278h-59l159 336h50z" />
    <glyph glyph-name="underscore" unicode="_" horiz-adv-x="500" 
d="M500 -111v-58h-500v58h500z" />
    <glyph glyph-name="grave" unicode="`" horiz-adv-x="456" 
d="M260 490l-16 -10l-116 112q-23 23 -23 49q0 19 9.5 28t22.5 9q29 0 48 -35q9 -16 40 -80t35 -73z" />
    <glyph glyph-name="a" unicode="a" horiz-adv-x="484" 
d="M294 285v46q0 84 -67 84q-74 0 -74 -73q0 -6 3 -33q3 -14 -8 -23q-16 -12 -42 -12q-22 0 -37 11.5t-15 36.5q0 43 53.5 79.5t139.5 36.5q104 0 145 -59q14 -21 14 -50v-255q0 -41 22 -41q12 0 24 18t18 47l22 -9q-21 -103 -114 -103q-73 0 -85 73q-67 -73 -140 -73
q-56 0 -88 34t-32 90q0 67 53 89q22 9 71 26.5t83.5 32t53.5 27.5zM156 129v-1q0 -35 15.5 -61t45.5 -26q49 0 71 55q6 20 6 43v120q-9 -5 -43.5 -22t-50.5 -26q-22 -13 -33 -30t-11 -52z" />
    <glyph glyph-name="b" unicode="b" horiz-adv-x="530" 
d="M2 644l1 21q109 0 184 15q0 -2 -2.5 -82.5t-2.5 -155.5v-74q79 70 154 70q85 0 129 -68q33 -52 33 -135q0 -121 -59.5 -185t-171.5 -64q-75 0 -124 29q-11 -4 -36.5 -14.5t-36.5 -14.5l-6 4q0 16 1 104.5t1 153.5v235q0 79 -4 139q-1 15 -11 18.5t-49 3.5zM265 10h1
q107 0 107 213q0 81 -26 128q-22 41 -69 41q-57 0 -88 -56q-7 -11 -9 -34.5t-2 -110.5q0 -55 2 -84t4 -36.5t7 -16.5q24 -44 73 -44z" />
    <glyph glyph-name="c" unicode="c" horiz-adv-x="449" 
d="M407 132l21 -11q-41 -135 -184 -135q-113 0 -167 66q-44 53 -44 152q0 101 60.5 167.5t170.5 66.5q69 0 113.5 -28.5t44.5 -79.5q0 -29 -19 -43.5t-43 -14.5q-18 0 -29 8q-12 8 -9 26q4 24 4 35q0 74 -65 74q-49 0 -75 -53.5t-26 -141.5q0 -76 23 -125q32 -66 101 -66
q47 0 75.5 25.5t47.5 77.5z" />
    <glyph glyph-name="d" unicode="d" horiz-adv-x="540" 
d="M281 646l4 20q98 2 187 14q0 -14 -1.5 -54t-2.5 -85.5t-1 -93.5l-1 -223q0 -122 4 -177q2 -22 22 -23h41l-5 -22q-124 -5 -180 -17q1 21 1 67l-2 1q-69 -67 -141 -67q-82 0 -129 58q-44 59 -44 154q0 104 57 172t168 68q64 0 92 -23q0 160 -2 205q-2 19 -12 23t-55 3z
M158 216v-1q0 -90 30 -137q27 -42 74 -42q52 0 79 48q9 18 9 154q0 114 -7 126q-25 49 -74 49q-55 0 -83 -54.5t-28 -142.5z" />
    <glyph glyph-name="e" unicode="e" horiz-adv-x="453" 
d="M425 118q-43 -132 -185 -132q-113 0 -165 68q-42 53 -42 150q0 100 55.5 167t159.5 67q44 0 78 -13t52.5 -32t29.5 -44t14.5 -44.5t3.5 -38.5q0 -31 -17 -39q-26 -12 -130 -12q-27 -1 -121 -1q-3 -75 25 -127q31 -58 98 -58q45 0 74.5 24.5t49.5 76.5zM246 415h-1
q-39 0 -61 -49.5t-24 -126.5h65q52 0 73 6q19 5 19 39q0 47 -16.5 89t-54.5 42z" />
    <glyph glyph-name="f" unicode="f" horiz-adv-x="288" 
d="M21 401l4 23h59v39q2 111 53 164q51 54 125 54q53 0 79.5 -22.5t26.5 -53.5q0 -21 -15.5 -35t-41.5 -14q-28 0 -28 28q0 72 -40 72q-38 0 -44 -65q-2 -16 2 -167h89l-5 -24l-84 -6q-2 -82 -2 -172q0 -135 2 -170q1 -27 24 -30q28 -4 50 -5l-3 -21q-14 0 -59 1.5t-68 1.5
t-67.5 -1.5t-57.5 -1.5l1 21q35 1 46 6.5t12 18.5q4 54 4 154v198z" />
    <glyph glyph-name="g" unicode="g" horiz-adv-x="475" 
d="M128 -50l10 -14q-43 -17 -43 -58t40 -68t106 -27q82 0 124 34t42 83q0 26 -17.5 41.5t-45.5 15.5h-182q-75 2 -112 45q-24 29 -24 70q0 62 66 110q-32 35 -32 94q0 81 54 121.5t128 40.5q63 0 107 -24q62 49 93 49q18 0 30.5 -10t12.5 -21q-1 -11 -13 -25.5t-22 -17.5
q-21 17 -52 17q-17 0 -32 -5q50 -44 50 -114q0 -79 -54.5 -117.5t-128.5 -38.5q-85 0 -123 34q-17 -6 -28 -21.5t-11 -32.5q0 -19 15.5 -30t38.5 -11q25 0 100 1.5t131 1.5q48 0 82 -27q41 -35 41 -93q0 -65 -42 -112.5t-101 -68t-124 -20.5q-91 0 -138.5 30t-47.5 81
q0 36 39 59q26 19 63 28zM237 414h-1q-63 0 -63 -128q0 -58 16.5 -95.5t49.5 -37.5q62 0 62 129q0 132 -64 132z" />
    <glyph glyph-name="h" unicode="h" horiz-adv-x="542" 
d="M18 647v20q110 2 176 13q-4 -84 -4 -188v-126q74 72 157 72q81 0 109 -56q13 -26 13 -67q0 -50 -0.5 -147.5t-0.5 -121.5q0 -18 9.5 -23t47.5 -6l-1 -21q-12 0 -51.5 1.5t-62.5 1.5q-26 0 -63.5 -1.5t-46.5 -1.5v21q29 1 38 6t11 20q4 40 4 138q0 147 -7 168
q-14 41 -58 41q-57 0 -88 -52q-10 -16 -10 -44v-126q0 -97 2 -122q2 -17 11 -22.5t40 -6.5l-1 -21q-10 0 -50 1.5t-62 1.5q-32 0 -69 -1.5t-46 -1.5v21q33 2 43.5 7.5t11.5 22.5q4 60 4 164v279q0 108 -3 139q-1 11 -10.5 14.5t-42.5 3.5z" />
    <glyph glyph-name="i" unicode="i" horiz-adv-x="273" 
d="M136 635h1q28 0 43.5 -16.5t15.5 -45.5q0 -25 -18 -41.5t-46 -16.5q-24 0 -40.5 16t-16.5 42q0 27 17 44.5t44 17.5zM256 17v-21q-13 0 -53 1.5t-70 1.5q-32 0 -67 -1.5t-46 -1.5l1 21q36 1 46.5 7t12.5 22q3 57 3 116v111q0 77 -2 107q-2 12 -12 15t-44 2l2 21
q121 7 175 19q-3 -72 -3 -160v-115q0 -80 3 -115q2 -17 11 -22.5t43 -7.5z" />
    <glyph glyph-name="j" unicode="j" horiz-adv-x="263" 
d="M131 635h1q28 0 43.5 -16t15.5 -45q0 -26 -18 -42.5t-45 -16.5q-25 0 -41.5 16t-16.5 42q0 28 17 45t44 17zM17 400l-2 21q98 5 180 16l3 -3q0 -17 -0.5 -114t-0.5 -214q0 -113 -9 -161q-13 -75 -53 -118q-33 -35 -75 -53t-67 -18q-14 0 -24 10q-10 15 -11 19l5 9
q24 -6 43 -6q58 0 67 90q8 98 8 289q0 177 -3 217q-2 9 -6 12.5t-15 3.5h-40z" />
    <glyph glyph-name="k" unicode="k" horiz-adv-x="499" 
d="M18 644l1 21q124 4 175 15q-4 -204 -4 -229v-218q26 5 76.5 57t76.5 94q9 15 -7 16l-42 4v20q41 0 190 7v-19q-66 -8 -91 -29q-38 -33 -101 -99q129 -207 163 -247q15 -18 40 -18l28 -1l-1 -21q-120 0 -178 -11q-16 28 -68.5 112.5l-60.5 97.5q-13 20 -25 18
q0 -134 2 -167q2 -17 11.5 -22.5t45.5 -6.5l-1 -21q-13 0 -53 1.5t-69 1.5q-33 0 -69 -1.5t-44 -1.5v21q33 1 44 6.5t12 19.5q5 33 5 171v232q0 141 -2 182q0 14 -21 14z" />
    <glyph glyph-name="l" unicode="l" horiz-adv-x="264" 
d="M15 646l1 21q70 0 178 13q-4 -136 -4 -209v-252q0 -146 2 -170q1 -20 11 -25t47 -7l-2 -21q-15 0 -58.5 1.5t-62.5 1.5q-29 0 -68 -1.5t-48 -1.5v21q35 1 45.5 7.5t12.5 27.5q5 95 5 181v245q0 121 -2 146q-2 15 -11 18.5t-46 3.5z" />
    <glyph glyph-name="m" unicode="m" horiz-adv-x="822" 
d="M83 170v91q0 79 -3 121q-1 10 -11 13.5t-45 2.5l3 21q96 0 166 15q4 -23 7 -74q83 78 160 78q63 0 91 -39q11 -14 18 -38q55 47 87 61q36 16 74 16q73 0 102 -53q15 -27 15 -63v-277q0 -16 9 -20.5t49 -7.5l-2 -21q-14 0 -53.5 1.5t-66.5 1.5q-30 0 -64 -1.5t-41 -1.5v21
q29 1 38 6.5t11 19.5q4 48 4 149q0 144 -7 159q-15 36 -56 36q-57 0 -86 -55q-9 -17 -9 -44v-149q0 -49 2 -97q1 -14 11 -19t42 -6l-2 -21q-8 0 -49.5 1.5t-66.5 1.5q-28 0 -63 -1.5t-43 -1.5v21q31 2 40 7.5t10 22.5q3 44 3 126v100q0 66 -7 81q-14 33 -53 33
q-55 0 -86 -56q-12 -19 -12 -48v-145q0 -56 3 -95q1 -15 10 -19.5t42 -6.5l-4 -21q-8 0 -48 1.5t-64 1.5q-26 0 -64.5 -1.5t-48.5 -1.5v21q34 2 44 7t11 23q3 41 3 123z" />
    <glyph glyph-name="n" unicode="n" horiz-adv-x="551" 
d="M24 -4v21q35 2 44.5 7t10.5 23q4 41 4 113v101q0 81 -3 120q-1 10 -10 13t-42 4l1 21q86 0 164 15q5 -33 7 -70q78 74 153 74q81 0 110 -57q14 -24 14 -58v-278q0 -16 9 -20t48 -8l-1 -21q-16 0 -55 1.5t-62 1.5q-30 0 -66.5 -1.5t-41.5 -1.5v21q29 1 38 6.5t11 20.5
q4 42 4 148q1 98 -1 125t-8 39q-17 32 -55 32q-56 0 -87 -53q-11 -17 -11 -45v-136q0 -85 2 -111q2 -14 11.5 -19t41.5 -7l-1 -21q-10 0 -52 1.5t-64 1.5q-26 0 -64 -1.5t-49 -1.5z" />
    <glyph glyph-name="o" unicode="o" horiz-adv-x="518" 
d="M263 438h1q102 0 161.5 -60.5t59.5 -161.5q0 -107 -61.5 -168.5t-166.5 -61.5q-109 0 -166.5 61.5t-57.5 160.5q0 102 61 166t169 64zM259 414h-1q-45 0 -71 -46q-25 -47 -25 -143q0 -104 26 -161q26 -54 78 -54q49 0 71 48q21 56 21 148q0 105 -26 157q-24 51 -73 51z
" />
    <glyph glyph-name="p" unicode="p" horiz-adv-x="540" 
d="M-4 -234l5 21q42 3 53.5 8.5t13.5 21.5q6 102 6 215v216q0 79 -3 133q-1 12 -12 16t-47 3l5 20q106 2 171 17q1 -14 2.5 -45t1.5 -32q80 78 159 78q71 0 114 -55q42 -55 42 -148q0 -120 -57.5 -184.5t-164.5 -64.5q-57 0 -95 27q0 -152 3 -190q1 -20 13.5 -26t60.5 -7
l-4 -21q-6 0 -49.5 1t-81.5 1q-1 0 -136 -5zM276 12h1q30 0 51.5 18.5t33 49.5t16.5 65.5t5 73.5q0 81 -26 127q-23 42 -66 42q-57 0 -89 -59q-10 -17 -10 -38q-2 -102 -1 -203q2 -19 9 -31q26 -45 76 -45z" />
    <glyph glyph-name="q" unicode="q" horiz-adv-x="530" 
d="M465 213v-233q0 -108 6 -166q1 -12 13 -16t55 -5l-4 -22q-140 2 -273 -9l4 22q49 5 63 11t15 21q4 40 4 125v103q-67 -58 -142 -58t-121 46q-53 56 -53 162q0 111 61 177.5t172 66.5q63 0 111 -27l82 24h10q0 -6 -1.5 -80.5t-1.5 -141.5zM269 413h-1q-55 0 -82.5 -58
t-27.5 -137q0 -98 32 -144q28 -42 76 -42q50 0 74 42q9 17 9 121q0 107 -3 152q-3 19 -13 34q-22 32 -64 32z" />
    <glyph glyph-name="r" unicode="r" horiz-adv-x="387" 
d="M83 171v81q0 90 -7 127q-3 16 -20 16h-32v21q103 2 160 19l3 -2q7 -37 7 -104h3q43 109 119 109q29 0 46.5 -19t17.5 -46q0 -33 -18 -48.5t-36 -15.5q-27 0 -34 18q-5 20 -11 28t-21 8q-33 0 -53 -64q-8 -23 -8 -61q0 -165 2 -190q1 -17 14.5 -23t63.5 -8l-3 -21
q-120 3 -133 3q-12 0 -123 -3l4 21q33 1 43 6t12 19q4 44 4 129z" />
    <glyph glyph-name="s" unicode="s" horiz-adv-x="393" 
d="M330 288l-20 -6q-3 54 -34 93t-79 39q-33 0 -52 -18t-19 -48q0 -33 33 -52q16 -9 70 -31t69 -29q65 -32 65 -101q0 -75 -53 -111.5t-130 -36.5q-76 0 -138 27q3 68 0 148l19 2q7 -49 23 -81q31 -71 111 -71q39 0 59.5 18.5t20.5 48.5q0 34 -33 52q-18 9 -62.5 28.5
t-50.5 22.5q-83 36 -83 115q0 65 45.5 103t113.5 38q30 0 59 -8.5t41 -19.5l13 36l19 -6q-11 -73 -7 -152z" />
    <glyph glyph-name="t" unicode="t" horiz-adv-x="331" 
d="M193 424h123l-3 -24l-121 -7q0 -13 -1 -67t-1 -96q0 -131 5 -170q4 -36 36 -36q31 0 51 25t27 62h10l10 -32q-16 -43 -54 -67.5t-92 -24.5q-67 0 -94 35q-17 23 -17 63q0 33 0.5 89.5t2 125t1.5 94.5l-63 6l5 24h58q0 16 0.5 56.5t0.5 55.5q78 22 114 47l7 -2
q-5 -135 -5 -157z" />
    <glyph glyph-name="u" unicode="u" horiz-adv-x="542" 
d="M290 402l-1 22q61 0 112 3q43 2 71 5q-4 -52 -4 -140v-120q0 -85 4 -126q2 -16 11.5 -20t49.5 -3l-2 -21q-46 -2 -96 -7q-30 -3 -82 -9q-2 52 -2 87q-72 -87 -171 -87q-77 0 -99 47q-11 22 -11 58q3 189 3 219q0 45 -2 75q-1 12 -11 15.5t-44 3.5l2 21q55 0 103 3
q30 2 76 7q-9 -56 -9 -203q0 -138 5 -164q6 -35 43 -35t64.5 23t42.5 59q9 23 9 57v118q0 61 -3 94q-1 11 -12.5 14t-46.5 4z" />
    <glyph glyph-name="v" unicode="v" horiz-adv-x="448" 
d="M-11 406l-1 21q72 -3 111 -3q25 0 68 1.5t54 1.5l4 -21l-32 -4q-13 -2 -16 -6t1 -17q12 -41 96 -264q74 195 92 260q4 13 0 18.5t-16 7.5l-42 5v21q14 0 43.5 -1.5t44.5 -1.5q19 0 45 1.5t34 1.5l-1 -21q-32 -2 -46 -12t-29 -41q-60 -129 -143 -361q-34 -2 -55 -5
q-88 237 -147 376q-13 27 -23.5 34.5t-41.5 8.5z" />
    <glyph glyph-name="w" unicode="w" horiz-adv-x="688" 
d="M-9 406v21q78 -3 111 -3q18 0 126 3l3 -21l-37 -5q-13 -1 -15.5 -6t0.5 -17q12 -44 42 -135.5t38 -118.5q30 83 97 301q29 -1 56 2q4 -14 115 -309q65 192 78 257q3 13 -1.5 18.5t-21.5 7.5l-41 5l1 21q14 0 45.5 -1.5t47.5 -1.5q20 0 47 1.5t33 1.5l1 -21
q-37 -4 -50 -13.5t-29 -45.5q-44 -106 -126 -355q-32 -2 -55 -5q-8 25 -28.5 78.5l-46.5 121l-39 101.5l-48 -139.5l-55 -161.5q-21 3 -54 5q-78 243 -129 372q-10 25 -21.5 32.5t-43.5 9.5z" />
    <glyph glyph-name="x" unicode="x" horiz-adv-x="459" 
d="M1 406v21q10 0 49.5 -1.5t61.5 -1.5q19 0 38.5 0.5t42 1.5t35.5 1l2 -21l-23 -3q-17 -3 -7 -20l33.5 -61t24.5 -44q52 74 67 105q9 16 -13 19l-29 4l2 21q9 0 38 -1.5t47 -1.5q16 0 45.5 1.5t38.5 1.5l-1 -21q-58 -5 -86 -32q-35 -33 -95 -118q96 -168 131 -211
q11 -15 25 -20.5t49 -7.5l-1 -21q-9 0 -51 1.5t-70 1.5q-4 0 -121 -3l-1 21l23 3q19 4 8 23l-72 130q-55 -80 -79 -126q-11 -23 15 -26l35 -4l-2 -21q-14 0 -48.5 1.5t-49.5 1.5q-19 0 -45 -1.5t-33 -1.5l-1 21q34 3 53 13t39 33q39 45 102 135q-89 151 -104 174
q-12 19 -26.5 25.5t-46.5 8.5z" />
    <glyph glyph-name="y" unicode="y" horiz-adv-x="439" 
d="M-11 406l1 21q90 -3 110 -3q43 0 118 3l4 -21l-30 -4q-12 -1 -14.5 -6t0.5 -17q6 -18 102 -263q51 149 76 247q5 21 -1 28.5t-28 10.5l-34 4l2 21q10 0 39.5 -1.5t44.5 -1.5q13 0 43 1.5t43 1.5l-1 -21q-33 -2 -46 -12t-28 -48q-45 -109 -155 -431q-29 -85 -56.5 -122.5
t-71.5 -37.5q-30 0 -48.5 17.5t-18.5 44.5q0 26 15 40.5t35 14.5q24 0 31 -20q6 -16 11.5 -22.5t16.5 -6.5q29 0 75 151q-16 15 -32 52q-104 269 -139 340q-10 21 -18 28t-25 9z" />
    <glyph glyph-name="z" unicode="z" horiz-adv-x="445" 
d="M66 274l-21 -2q11 99 11 163q23 -11 110 -11h87q60 0 154 2q-5 -25 -23 -55l-204 -348q90 0 135 7q34 5 53.5 33.5t35.5 100.5l19 -8q-15 -90 -17 -161q-68 5 -261 5q-60 0 -108 -3l-9 15q57 75 136.5 209t98.5 179q-69 0 -110 -5q-28 -3 -41 -11.5t-22 -31.5
q-10 -24 -24 -78z" />
    <glyph glyph-name="braceleft" unicode="{" horiz-adv-x="336" 
d="M292 706l-4 -25q-58 -2 -75.5 -24t-10.5 -91q2 -20 6.5 -55.5t6.5 -61t2 -49.5q-2 -58 -30 -91t-91 -54q63 -22 92 -54.5t29 -92.5q0 -38 -10 -144q-7 -83 6 -108t76 -26l3 -26q-36 -4 -75 9.5t-69 50.5t-30 89q0 26 3.5 104.5t3.5 108.5q0 43 -21 60t-66 17l-6 24
q48 1 70.5 18.5t21.5 60.5q0 29 -3.5 99.5t-2.5 94.5q0 60 30 100.5t68 54.5t76 11z" />
    <glyph glyph-name="bar" unicode="|" horiz-adv-x="246" 
d="M90 750h67v-1000h-67v1000z" />
    <glyph glyph-name="braceright" unicode="}" horiz-adv-x="336" 
d="M43 -197l4 26q58 2 76.5 24t11.5 91q-2 17 -7 54.5t-7 62t-2 48.5q1 59 28.5 91.5t91.5 54.5q-62 21 -91 54.5t-29 94.5q0 55 10 143q9 82 -5.5 107t-76.5 26l-3 26q59 6 117 -33t58 -116q0 -26 -4 -103t-4 -107q-1 -44 20 -62t66 -18l6 -24q-48 -1 -70.5 -18.5
t-22.5 -61.5q0 -31 4.5 -101.5t4.5 -91.5q0 -60 -31 -101t-69.5 -55t-75.5 -11z" />
    <glyph glyph-name="asciitilde" unicode="~" horiz-adv-x="489" 
d="M396 311l47 -9q-13 -164 -112 -164q-29 0 -53 18t-55 55l-24.5 28.5t-21 17.5t-24.5 8q-46 0 -61 -121l-46 7q13 165 112 165q50 0 101 -65q48 -60 76 -60q23 0 38.5 24.5t22.5 95.5z" />
    <glyph glyph-name="uni00A0" unicode="&#xa0;" horiz-adv-x="183" 
 />
    <glyph glyph-name="exclamdown" unicode="&#xa1;" horiz-adv-x="232" 
d="M116 -232h-1q-19 0 -48.5 28.5t-29.5 59.5q0 32 18 79q49 149 49 278h26q0 -129 49 -278q18 -54 18 -79q0 -29 -29 -58.5t-52 -29.5zM114 437h1q29 0 48.5 -20.5t19.5 -51.5q0 -30 -20 -50.5t-49 -20.5q-28 0 -48 20.5t-20 49.5q0 31 19.5 52t48.5 21z" />
    <glyph glyph-name="cent" unicode="&#xa2;" horiz-adv-x="488" 
d="M440 246l3 -35q-22 -43 -66 -70t-93 -31l-3 -82l-34 -10l6 91q-111 1 -164 61q-48 51 -48 143q0 100 65.5 161.5t168.5 63.5l3 77l34 8l-6 -85q65 -3 102.5 -29.5t37.5 -69.5q0 -25 -15 -39t-38 -14q-17 0 -26.5 8.5t-5.5 21.5q6 22 6 36q0 54 -64 63q-15 -308 -17 -372
q54 0 88.5 25t52.5 80zM165 327v-1q0 -92 26 -135q23 -38 65 -46q13 224 18 371q-39 -4 -65 -36t-35 -71t-9 -82z" />
    <glyph glyph-name="sterling" unicode="&#xa3;" horiz-adv-x="488" 
d="M12 305l13 33q40 -2 76 -2q-11 97 0 149q18 73 79 112q50 31 114 31q78 0 115 -32t37 -71q0 -32 -18 -48t-44 -16q-17 0 -27 7q-12 7 -9 20q5 27 5 39q0 33 -16 55t-49 22q-71 0 -70 -114q0 -42 10 -154q94 0 153 3l-13 -34q-6 0 -49.5 1t-88.5 1q2 -83 -28 -133
q-29 -46 -96 -88q294 4 309 13q10 6 14 18q12 38 20 60l22 5q-24 -113 -24 -187l-7 -4q-130 9 -302 9q-67 0 -121 -4l-5 8l25 61q15 8 25 15.5t22.5 22t19 36t7.5 50.5q1 50 -7 118q-28 0 -92 -2z" />
    <glyph glyph-name="currency" unicode="&#xa4;" horiz-adv-x="490" 
d="M242 456h-1q-51 1 -78.5 -40.5t-27.5 -106.5q0 -72 29.5 -111t76.5 -39q51 0 77.5 40.5t26.5 106.5q0 64 -24.5 107t-78.5 43zM246 492q63 0 101 -31l55 71l42 -40l-69 -60q42 -43 42 -125q0 -78 -45 -125l71 -65l-40 -41l-61 79q-41 -33 -103 -33q-63 0 -104 30l-56 -73
l-37 40l65 61q-44 47 -44 125q0 79 48 128l-67 59l40 41l57 -73q42 32 105 32z" />
    <glyph glyph-name="yen" unicode="&#xa5;" horiz-adv-x="488" 
d="M-14 598l2 20q22 0 64.5 -1t60.5 -1q41 0 79 1t47 1l1 -20q-4 -1 -19.5 -2.5t-24.5 -3.5q-15 -1 -8 -20q6 -15 22 -50.5l38.5 -85l35.5 -77.5q55 112 92 205q7 19 -3.5 25t-58.5 9l3 20q14 0 45.5 -1t47.5 -1q13 0 41 1t40 1v-20q-31 -1 -46.5 -9.5t-33.5 -36.5
q-17 -27 -110 -219q20 0 120 4l-9 -33q-2 0 -44 1t-71 1v-74q67 0 119 2l-9 -33q-51 3 -110 3q0 -107 4 -156q1 -21 21 -24q30 -4 65 -6l-1 -21q-114 3 -160 3q-14 0 -63 -1.5t-74 -1.5v21q20 2 61 7q24 4 27 29q2 36 4 151q-99 -2 -114 -3l6 34q84 -3 109 -3v74
q-84 0 -120 -2l9 33q4 0 17 -1t37 -2t52 -1q-21 48 -59 121.5t-56 103.5q-15 25 -29.5 32t-46.5 7z" />
    <glyph glyph-name="brokenbar" unicode="&#xa6;" horiz-adv-x="246" 
d="M90 675h68v-350h-68v350zM90 -175v350h68v-350h-68z" />
    <glyph glyph-name="section" unicode="&#xa7;" horiz-adv-x="466" 
d="M261 607h1q49 0 82 -22t33 -62q0 -21 -14.5 -34t-33.5 -13q-22 0 -37 11q-9 9 -5 16q8 16 8 33q0 20 -16 32.5t-44 12.5q-27 0 -43.5 -16.5t-16.5 -41.5q0 -27 24 -57q8 -10 82 -74t106 -101q39 -49 39 -120q0 -112 -67 -192q-76 -94 -165 -94q-45 0 -83 23t-38 68
q0 23 14.5 38t35.5 15q30 0 46 -23q8 -11 0 -21q-11 -15 -11 -29q0 -19 15.5 -32t43.5 -13q33 0 53 17.5t19 46.5q0 32 -47 79q-12 12 -73 68t-79 77q-51 56 -51 135q0 122 92 214q61 59 130 59zM380 102v1q0 61 -43 112q-24 29 -93.5 92.5t-78.5 74.5q-49 55 -43 126
q-35 -45 -35 -111q0 -77 71 -144l67 -62.5t67 -63.5q52 -56 55 -124q33 36 33 99z" />
    <glyph glyph-name="dieresis" unicode="&#xa8;" horiz-adv-x="456" 
d="M142 631h1q24 0 38 -15t14 -40q0 -26 -17.5 -42t-38.5 -16t-36.5 13.5t-15.5 40.5q0 26 15.5 42.5t39.5 16.5zM317 631h1q24 0 38 -15t14 -39q0 -27 -17 -43t-38 -16q-22 0 -37.5 13.5t-15.5 40.5t15.5 43t39.5 16z" />
    <glyph glyph-name="copyright" unicode="&#xa9;" horiz-adv-x="675" 
d="M337 633h1q128 0 211.5 -89t83.5 -220t-84.5 -220t-211.5 -89t-211 88.5t-84 220.5q0 130 85 219.5t210 89.5zM338 606h-1q-112 0 -186 -79.5t-74 -202.5t74.5 -203t187.5 -80q111 0 185.5 80.5t74.5 202.5t-72.5 202t-188.5 80zM474 273l16 -8q-13 -52 -53 -77t-90 -25
q-89 0 -134 51q-36 41 -36 111q0 83 54 129q46 41 125 41q54 0 90 -23q7 -6 9 0l10 22l14 -3q-9 -55 -4 -126h-16q-6 51 -29 80q-26 30 -65 30q-40 0 -65 -31q-29 -38 -29 -110q0 -73 28 -107q27 -33 74 -33q74 0 101 79z" />
    <glyph glyph-name="ordfeminine" unicode="&#xaa;" horiz-adv-x="357" 
d="M207 466v30q0 46 -43 46q-21 0 -32 -10.5t-11 -24.5q0 -8 4 -20t-9 -22q-17 -12 -41 -12q-16 0 -25.5 8.5t-9.5 22.5q0 32 39.5 55t97.5 23q78 0 105 -36q11 -13 11 -35q0 -3 -0.5 -59.5t-0.5 -80.5q0 -29 16 -29q17 0 30 41l16 -7q-16 -71 -86 -71q-58 0 -61 43l-1 4
q-49 -46 -102 -46q-36 0 -58 22t-22 54q0 44 44 58q111 31 139 46zM207 387v60q-4 -2 -18 -7.5l-26 -10.5t-20 -9q-28 -14 -28 -44q0 -23 11 -36.5t29 -13.5q33 0 48 35q4 16 4 26z" />
    <glyph glyph-name="guillemotleft" unicode="&#xab;" horiz-adv-x="481" 
d="M231 398l19 -9q-22 -85 -87 -177q73 -98 87 -173l-16 -11q-31 65 -87 114.5t-100 61.5l7 17q49 16 98 64.5t79 112.5zM417 398l19 -10q-24 -89 -87 -176q27 -36 53 -85t34 -87l-16 -12q-31 65 -87 114.5t-101 61.5l7 16q49 16 98.5 65.5t79.5 112.5z" />
    <glyph glyph-name="logicalnot" unicode="&#xac;" horiz-adv-x="489" 
d="M387 100v186h-337v48h388v-234h-51z" />
    <glyph glyph-name="uni00AD" unicode="&#xad;" horiz-adv-x="308" 
d="M35 198l11 61q110 -3 228 0l-10 -61q-120 4 -229 0z" />
    <glyph glyph-name="registered" unicode="&#xae;" horiz-adv-x="209" 
d="M107 637h1q40 0 67 -27.5t27 -68.5t-27 -69t-68 -28q-40 0 -66.5 28t-26.5 69q0 40 27 68t66 28zM107 623h-1q-31 0 -52.5 -23t-21.5 -60q0 -34 22 -57.5t54 -23.5q34 0 55.5 23t21.5 58t-22 59t-56 24zM59 577l1 9h55q30 0 30 -21q0 -17 -24 -21v-2q20 -1 23 -13
q2 -3 4 -14q0 -9 7 -9q1 0 3 0.5t3 0.5v-9q-14 -2 -20 -2q-19 0 -19 20q0 6 -2 12q-2 9 -11 9h-12q0 -20 1 -26q0 -3 3 -4l9 -1v-9h-49v9l7 1q6 0 6 4q1 6 1 33q0 25 -1 29q0 3 -4 4h-11zM120 561v1q0 16 -15 16q-7 0 -7 -3q-1 -2 -1 -29h10q13 2 13 15z" />
    <glyph glyph-name="macron" unicode="&#xaf;" horiz-adv-x="456" 
d="M117 528l10 59h212l-8 -59h-214z" />
    <glyph glyph-name="degree" unicode="&#xb0;" horiz-adv-x="300" 
d="M156 649h1q49 0 79.5 -29.5t30.5 -81.5q0 -54 -33.5 -85t-85.5 -31q-51 0 -82.5 28.5t-31.5 80.5q0 57 34 87.5t88 30.5zM153 626h-1q-22 0 -35.5 -16t-17 -33.5t-3.5 -38.5q0 -43 14.5 -66.5t39.5 -23.5q56 0 56 93q0 84 -53 85z" />
    <glyph glyph-name="plusminus" unicode="&#xb1;" horiz-adv-x="485" 
d="M438 53v-48h-390v48h390zM269 89h-52v169h-169v47h169v159h52v-159h169v-47h-169v-169z" />
    <glyph glyph-name="two.superior" unicode="&#xb2;" horiz-adv-x="349" 
d="M320 567l19 -8q-21 -69 -24 -121q-54 3 -197 3q-62 0 -81 -2l-2 6q1 3 8 20.5l10 25.5q125 63 152 138q10 29 10 64q0 70 -48 70t-48 -63q0 -9 3 -30q3 -10 -7 -17q-11 -8 -28 -8q-44 0 -44 44q0 34 39 65q38 30 101 30q55 0 88 -21q42 -28 42 -82q0 -48 -41 -79
q-36 -28 -147 -94q118 2 161 6q12 0 17 11q10 17 17 42z" />
    <glyph glyph-name="three.superior" unicode="&#xb3;" horiz-adv-x="349" 
d="M187 784h1q49 0 86 -19t37 -61q0 -39 -42 -59q-14 -7 -67 -21v-3q72 -5 102 -26q28 -20 28 -57q0 -45 -44 -74q-44 -30 -119 -30q-54 0 -92.5 21t-38.5 53q0 17 14 28.5t33 11.5q20 0 26 -26q9 -67 62 -67q59 0 59 76q0 75 -70 75q-18 0 -38 -5l-12 17l2 6q47 2 67 13
q39 19 39 64q0 26 -13 44t-37 18q-52 0 -52 -55q0 -10 2 -24q1 -9 -7 -14t-21 -5q-42 0 -42 36q0 30 37 56.5t100 26.5z" />
    <glyph glyph-name="acute" unicode="&#xb4;" horiz-adv-x="456" 
d="M217 481l-16 12q11 17 47.5 79.5t42.5 71.5q23 36 54 36q27 0 27 -35q0 -23 -33 -56q-10 -10 -51.5 -45.5t-70.5 -62.5z" />
    <glyph glyph-name="mu" unicode="&#xb5;" horiz-adv-x="545" 
d="M538 93l20 -19q-29 -87 -126 -87q-46 -1 -62.5 24t-17.5 71q-25 -38 -64 -66t-82 -27q-36 0 -51 19q2 -98 21 -249l-7 -7q-30 1 -57 7t-41 12.5t-16 10.5q11 131 19 301q1 69 1 228q0 46 -3 115q28 -1 128 8q-9 -56 -9 -204q0 -139 7 -164q9 -32 40 -32q76 0 108 101
q8 27 8 56v104q0 72 -3 129q53 2 123 8q-4 -52 -4 -140v-119q0 -82 3 -124q3 -23 16 -23t27.5 16t21.5 51z" />
    <glyph glyph-name="paragraph" unicode="&#xb6;" horiz-adv-x="513" 
d="M481 555v-22l-63 -8q-15 -2 -19.5 -12t-4.5 -50v-306q0 -142 -11.5 -204.5t-48.5 -101.5q-39 -40 -103 -40q-48 0 -82 24.5t-34 76.5q0 27 17 47t40 20q33 0 49 -35q7 -14 1 -17q-1 -1 -2 0q-15 3 -16 3q-17 0 -25 -10.5t-8 -25.5q0 -25 18.5 -41t51.5 -16
q36 0 57.5 16.5t35.5 70t14 149.5v67q-65 -27 -96 -27q-85 0 -140 59.5t-55 154.5q0 140 107 201q45 25 111 25q22 0 60 -0.5t45 -0.5q35 0 101 3z" />
    <glyph glyph-name="periodcentered" unicode="&#xb7;" horiz-adv-x="228" 
d="M114 296h1q29 0 48 -20.5t19 -51.5t-19.5 -51.5t-48.5 -20.5t-49 20.5t-20 51.5t20 51.5t49 20.5z" />
    <glyph glyph-name="cedilla" unicode="&#xb8;" horiz-adv-x="456" 
d="M234 2h25l-16 -24.5l-19 -29.5q73 -14 73 -73q0 -38 -26 -60.5t-68 -22.5q-36 0 -60 19l9 22q18 -12 45 -12q39 0 39 34q0 18 -17.5 28t-46.5 10l-5 11z" />
    <glyph glyph-name="one.superior" unicode="&#xb9;" horiz-adv-x="349" 
d="M297 459l1 -20q-21 0 -59 1.5t-55 1.5q-21 0 -55.5 -1.5t-47.5 -1.5l-2 20l44 4q21 3 22 16q3 48 3 84v94q0 46 -2 80q-1 8 -8 7q-3 -1 -13 -2.5t-21 -3.5l-22 -4l5 24q122 16 148 26l2 -2q0 -4 -1 -43.5t-1 -78.5v-97q0 -45 2 -85q2 -13 17 -14z" />
    <glyph glyph-name="ordmasculine" unicode="&#xba;" horiz-adv-x="370" 
d="M191 563h1q68 0 109 -35t41 -101q0 -63 -43.5 -102t-118.5 -39q-74 0 -113 37t-39 97q0 63 42.5 103t120.5 40zM187 542h-1q-26 0 -44 -26q-17 -29 -17 -91q0 -56 13 -86q15 -32 48 -32q31 0 46 30q15 31 15 92q0 55 -13 83q-14 30 -47 30z" />
    <glyph glyph-name="guillemotright" unicode="&#xbb;" horiz-adv-x="481" 
d="M252 28l-19 9q22 85 87 177q-73 98 -87 173l16 11q30 -65 86 -114.5t101 -61.5l-7 -17q-49 -16 -98 -64.5t-79 -112.5zM66 28l-19 10q24 89 87 176q-27 36 -53 85t-34 87l16 12q31 -65 87 -114.5t101 -61.5l-7 -16q-49 -16 -98.5 -65.5t-79.5 -112.5z" />
    <glyph glyph-name="onequarter" unicode="&#xbc;" horiz-adv-x="731" 
d="M278 311l1 -20q-21 0 -59 1.5t-55 1.5q-21 0 -55.5 -1.5t-47.5 -1.5l-2 20l44 4q21 3 22 16q3 48 3 84v94q0 46 -2 80q-1 8 -8 7q-3 -1 -13 -2.5t-21 -3.5l-22 -4l5 24q122 16 148 26l2 -2q0 -4 -1 -43.5t-1 -78.5v-97q0 -45 2 -85q2 -13 17 -14zM563 668l26 -21
l-417 -657l-25 23zM362 131l-7 18q116 130 174 208q43 5 82 19l4 -3q-3 -61 -3 -184v-40q39 2 67 15v-17q-23 -18 -67 -25q0 -32 2 -88q-57 -1 -92 -9l-4 3q3 28 4 91q-121 0 -160 12zM523 148q4 77 4 172l-126 -162q38 -10 122 -10z" />
    <glyph glyph-name="onehalf" unicode="&#xbd;" horiz-adv-x="731" 
d="M263 311l1 -20q-21 0 -59 1.5t-55 1.5q-21 0 -55.5 -1.5t-47.5 -1.5l-2 20l44 4q21 3 22 16q3 48 3 84v94q0 46 -2 80q-1 8 -8 7q-3 -1 -13 -2.5t-21 -3.5l-22 -4l5 24q122 16 148 26l2 -2q0 -4 -1 -43.5t-1 -78.5v-97q0 -44 2 -84q2 -14 17 -15zM541 668l27 -21
q-184 -275 -417 -657l-25 22zM676 161l19 -8q-21 -69 -24 -121q-51 3 -196 3q-62 0 -81 -1l-2 5l18 46q126 63 151 138q10 29 10 64q0 70 -48 70t-48 -63q0 -9 3 -30q3 -10 -7 -17q-11 -8 -28 -8q-44 0 -44 44q0 34 39 65q38 30 101 30q56 0 88 -22q42 -28 42 -81
q0 -48 -41 -79q-36 -28 -147 -94q117 2 160 6q13 0 18 11q10 17 17 42z" />
    <glyph glyph-name="threequarters" unicode="&#xbe;" horiz-adv-x="731" 
d="M185 636h1q48 0 85.5 -19.5t37.5 -61.5q0 -38 -42 -58q-14 -7 -67 -21v-3q71 -5 103 -26q28 -20 28 -57q0 -45 -44 -74q-44 -30 -119 -30q-55 0 -93.5 21t-38.5 53q0 17 14 28.5t33 11.5q20 0 26 -26q9 -67 63 -67q59 0 59 76q0 75 -71 75q-18 0 -38 -5l-12 17l2 6
q47 2 67 13q39 19 39 64q0 26 -13 44t-37 18q-52 0 -52 -55q0 -10 2 -24q1 -9 -7 -14t-21 -5q-42 0 -42 36q0 30 37 56.5t100 26.5zM585 668l26 -20l-417 -658l-25 22zM379 131l-7 18q115 130 174 208q42 7 82 19l4 -3q-3 -61 -3 -184v-40q39 2 67 15v-17q-23 -18 -67 -25
q0 -32 2 -88q-57 -1 -92 -9l-4 3q3 28 4 91q-122 0 -160 12zM540 148q4 77 4 172q-100 -126 -126 -162q35 -10 122 -10z" />
    <glyph glyph-name="questiondown" unicode="&#xbf;" horiz-adv-x="411" 
d="M207 214l19 8q52 -58 54 -108q1 -35 -29 -67q-14 -15 -52.5 -52.5l-48.5 -47.5q-25 -25 -25 -58q0 -48 22.5 -72t58.5 -24q35 0 54.5 20.5t19.5 48.5q0 23 -10 45q-8 18 10 33q21 18 50 18q20 0 34.5 -15t14.5 -43q0 -59 -55.5 -95t-118.5 -36q-82 0 -127.5 46.5
t-45.5 127.5q0 63 55 107q76 62 99 86q36 33 21 78zM213 438h1q27 0 46.5 -20.5t19.5 -51.5q0 -30 -20 -50.5t-49 -20.5t-48.5 20t-19.5 51q0 32 19.5 52t50.5 20z" />
    <glyph glyph-name="Agrave" unicode="&#xc0;" horiz-adv-x="610" 
d="M621 17v-21q-75 3 -137 3q-24 0 -47 -0.5t-50.5 -1.5t-43.5 -1l1 21q42 5 52.5 10t6.5 21q-8 32 -54 197q-19 1 -93 1q-73 0 -91 -1q-44 -145 -49 -169q-7 -33 7.5 -44t73.5 -15l-1 -21q-12 0 -45 1.5t-58 1.5q-14 0 -53.5 -1.5t-58.5 -1.5v21q42 4 59 15.5t33 49.5
q64 164 170 494q11 31 13 54q20 0 57 5t50 11q35 -130 98.5 -338.5t85.5 -259.5q11 -24 38 -27zM264 557q-63 -195 -89 -282q18 -1 86 -1q67 0 80 1zM350 697l-11 -15q-125 43 -150 54q-34 12 -38 40q-4 17 4.5 27.5t22.5 13.5q25 7 50 -12q9 -6 60 -52.5t62 -55.5z" />
    <glyph glyph-name="Aacute" unicode="&#xc1;" horiz-adv-x="610" 
d="M621 17v-21q-75 3 -137 3q-24 0 -47 -0.5t-50.5 -1.5t-43.5 -1l1 21q42 5 52.5 10t6.5 21q-8 32 -54 197q-19 1 -93 1q-73 0 -91 -1q-44 -145 -49 -169q-7 -33 7.5 -44t73.5 -15l-1 -21q-12 0 -45 1.5t-58 1.5q-14 0 -53.5 -1.5t-58.5 -1.5v21q42 4 59 15.5t33 49.5
q64 164 170 494q11 31 13 54q20 0 57 5t50 11q35 -130 98.5 -338.5t85.5 -259.5q11 -24 38 -27zM264 557q-63 -195 -89 -282q18 -1 86 -1q67 0 80 1zM268 681l-11 16l73 57t64 50q29 21 54 13q30 -7 21 -40q-7 -26 -46 -42z" />
    <glyph glyph-name="Acircumflex" unicode="&#xc2;" horiz-adv-x="610" 
d="M621 17v-21q-75 3 -137 3q-24 0 -47 -0.5t-50.5 -1.5t-43.5 -1l1 21q42 5 52.5 10t6.5 21q-8 32 -54 197q-19 1 -93 1q-73 0 -91 -1q-44 -145 -49 -169q-7 -33 7.5 -44t73.5 -15l-1 -21q-12 0 -45 1.5t-58 1.5q-14 0 -53.5 -1.5t-58.5 -1.5v21q42 4 59 15.5t33 49.5
q64 164 170 494q11 31 13 54q20 0 57 5t50 11q35 -130 98.5 -338.5t85.5 -259.5q11 -24 38 -27zM264 557q-63 -195 -89 -282q18 -1 86 -1q67 0 80 1zM304 809l17 3q14 -25 45.5 -58.5t81.5 -63.5l-11 -17q-76 25 -125 55q-64 -35 -126 -55l-11 17q83 53 129 119z" />
    <glyph glyph-name="Atilde" unicode="&#xc3;" horiz-adv-x="610" 
d="M621 17v-21q-75 3 -137 3q-24 0 -47 -0.5t-50.5 -1.5t-43.5 -1l1 21q42 5 52.5 10t6.5 21q-8 32 -54 197q-19 1 -93 1q-73 0 -91 -1q-44 -145 -49 -169q-7 -33 7.5 -44t73.5 -15l-1 -21q-12 0 -45 1.5t-58 1.5q-14 0 -53.5 -1.5t-58.5 -1.5v21q42 4 59 15.5t33 49.5
q64 164 170 494q11 31 13 54q20 0 57 5t50 11q35 -130 98.5 -338.5t85.5 -259.5q11 -24 38 -27zM264 557q-63 -195 -89 -282q18 -1 86 -1q67 0 80 1zM209 683l-24 3q3 46 23 79.5t58 33.5q26 0 64 -30q32 -26 49 -26q30 0 35 60l24 -6q-3 -47 -21.5 -79.5t-54.5 -32.5
q-28 0 -69 33q-29 23 -46 23q-14 0 -24.5 -16t-13.5 -42z" />
    <glyph glyph-name="Adieresis" unicode="&#xc4;" horiz-adv-x="610" 
d="M621 17v-21q-75 3 -137 3q-24 0 -47 -0.5t-50.5 -1.5t-43.5 -1l1 21q42 5 52.5 10t6.5 21q-8 32 -54 197q-19 1 -93 1q-73 0 -91 -1q-44 -145 -49 -169q-7 -33 7.5 -44t73.5 -15l-1 -21q-12 0 -45 1.5t-58 1.5q-14 0 -53.5 -1.5t-58.5 -1.5v21q42 4 59 15.5t33 49.5
q64 164 170 494q11 31 13 54q20 0 57 5t50 11q35 -130 98.5 -338.5t85.5 -259.5q11 -24 38 -27zM264 557q-63 -195 -89 -282q18 -1 86 -1q67 0 80 1zM216 792h1q23 0 36.5 -14.5t13.5 -36.5q0 -25 -16.5 -40.5t-36.5 -15.5t-35 13t-15 38t14.5 40.5t37.5 15.5zM400 792h1
q23 0 37 -14.5t14 -36.5q0 -25 -16.5 -40.5t-36.5 -15.5q-21 0 -35.5 13t-14.5 38t14 40.5t37 15.5z" />
    <glyph glyph-name="Aring" unicode="&#xc5;" horiz-adv-x="610" 
d="M621 17v-21q-75 3 -137 3q-24 0 -47 -0.5t-50.5 -1.5t-43.5 -1l1 21q42 5 52.5 10t6.5 21q-8 32 -54 197q-19 1 -93 1q-73 0 -91 -1q-44 -145 -49 -169q-7 -33 7.5 -44t73.5 -15l-1 -21q-12 0 -45 1.5t-58 1.5q-14 0 -53.5 -1.5t-58.5 -1.5v21q42 4 59 15.5t33 49.5
q64 164 170 494q11 31 13 54q20 0 57 5t50 11q35 -130 98.5 -338.5t85.5 -259.5q11 -24 38 -27zM264 557q-63 -195 -89 -282q18 -1 86 -1q67 0 80 1zM312 844h1q38 0 61.5 -21.5t23.5 -61.5t-26.5 -62.5t-65.5 -22.5q-40 0 -65 20.5t-25 59.5q0 41 27 64.5t69 23.5zM308 823
h-1q-37 0 -37 -62q0 -32 10.5 -48t27.5 -16q37 0 37 66q0 60 -37 60z" />
    <glyph glyph-name="AE" unicode="&#xc6;" horiz-adv-x="852" 
d="M447 633h187q41 0 89 2q38 3 52 6q-8 -60 -3 -171l-20 -1q-13 62 -26 88q-15 31 -43 41t-99 10h-46q-17 0 -18 -16q-4 -58 -4 -139v-129h55q64 0 85.5 17.5t29.5 68.5h19q-11 -119 -2 -219l-20 1q-5 30 -9 45t-15.5 31.5t-32.5 23t-56 6.5l-54 -1v-74q0 -128 4 -173
q2 -16 14 -20.5t64 -4.5q66 0 96 6t52 26q40 39 61 124l19 -4q-1 -29 -23 -182q-31 2 -100 4q-41 1 -146 1h-93q-30 0 -87 -1.5t-72 -1.5l2 21l51 6q15 2 20.5 8.5t6.5 24.5q4 78 4 164v76q-11 0 -77 -1t-92 -2q-80 -160 -103 -226q-8 -21 0 -30.5t39 -13.5l41 -6l-1 -21
q-19 0 -55 1.5t-59 1.5q-18 0 -51 -1.5t-49 -1.5v21q41 5 59 18.5t42 59.5l257 495q10 17 -8 18l-78 6l-3 21q28 1 99.5 -1t96.5 -2zM389 324v282h-10q-73 -134 -143 -281q55 -3 153 -1z" />
    <glyph glyph-name="Ccedilla" unicode="&#xc7;" horiz-adv-x="613" 
d="M370 -16q-8 -11 -24 -37q29 -5 50 -22t21 -49q0 -38 -25.5 -60t-65.5 -22q-32 0 -59 18l8 22q20 -11 45 -11q38 0 38 33q0 17 -17.5 27.5t-45.5 10.5l-5 10l54 79h-9q-158 2 -231 100q-65 79 -65 221q0 175 104 268q85 77 221 77q116 0 173 -55l18 51l18 -7
q-16 -110 -9 -208l-20 -4q-7 83 -47.5 140.5t-118.5 57.5q-82 0 -130 -64q-64 -83 -64 -241q0 -132 46 -208q51 -85 155 -85q136 0 186 149l21 -13q-50 -166 -222 -178z" />
    <glyph glyph-name="Egrave" unicode="&#xc8;" horiz-adv-x="560" 
d="M17 616v20q6 0 30 -0.5t41 -0.5q58 -2 87 -2h170q108 0 140 8q-8 -61 -3 -174l-20 -2q-9 57 -28 95q-15 30 -38.5 39t-96.5 9h-51q-17 0 -18 -16q-4 -128 -4 -150v-100q12 -1 57 -1q62 0 84 19t30 72h19q-12 -117 -3 -223l-20 1q-7 60 -27.5 82.5t-84.5 22.5
q-43 0 -55 -2v-83q0 -131 4 -180q1 -15 14.5 -20t62.5 -5q67 0 95 6t50 27q39 35 64 126l19 -4q-1 -17 -12 -90.5t-16 -94.5q-63 5 -215 5h-117q-25 0 -165 -4l1 22l54 5q15 2 22 9.5t8 26.5q4 78 4 176v188q0 121 -3 164q-1 13 -8 18t-25 7zM325 700l-11 -15
q-125 43 -150 54q-34 12 -38 40q-4 17 4.5 27.5t22.5 13.5q25 7 50 -12q9 -6 60 -52.5t62 -55.5z" />
    <glyph glyph-name="Eacute" unicode="&#xc9;" horiz-adv-x="560" 
d="M17 616v20q6 0 30 -0.5t41 -0.5q58 -2 87 -2h170q108 0 140 8q-8 -61 -3 -174l-20 -2q-9 57 -28 95q-15 30 -38.5 39t-96.5 9h-51q-17 0 -18 -16q-4 -128 -4 -150v-100q12 -1 57 -1q62 0 84 19t30 72h19q-12 -117 -3 -223l-20 1q-7 60 -27.5 82.5t-84.5 22.5
q-43 0 -55 -2v-83q0 -131 4 -180q1 -15 14.5 -20t62.5 -5q67 0 95 6t50 27q39 35 64 126l19 -4q-1 -17 -12 -90.5t-16 -94.5q-63 5 -215 5h-117q-25 0 -165 -4l1 22l54 5q15 2 22 9.5t8 26.5q4 78 4 176v188q0 121 -3 164q-1 13 -8 18t-25 7zM241 684l-11 16l73 57t64 50
q29 21 54 13q30 -7 21 -40q-7 -26 -46 -42z" />
    <glyph glyph-name="Ecircumflex" unicode="&#xca;" horiz-adv-x="560" 
d="M17 616v20q6 0 30 -0.5t41 -0.5q58 -2 87 -2h170q108 0 140 8q-8 -61 -3 -174l-20 -2q-9 57 -28 95q-15 30 -38.5 39t-96.5 9h-51q-17 0 -18 -16q-4 -128 -4 -150v-100q12 -1 57 -1q62 0 84 19t30 72h19q-12 -117 -3 -223l-20 1q-7 60 -27.5 82.5t-84.5 22.5
q-43 0 -55 -2v-83q0 -131 4 -180q1 -15 14.5 -20t62.5 -5q67 0 95 6t50 27q39 35 64 126l19 -4q-1 -17 -12 -90.5t-16 -94.5q-63 5 -215 5h-117q-25 0 -165 -4l1 22l54 5q15 2 22 9.5t8 26.5q4 78 4 176v188q0 121 -3 164q-1 13 -8 18t-25 7zM274 820l17 3
q14 -25 45.5 -58.5t81.5 -63.5l-11 -17q-76 25 -125 55q-64 -35 -126 -55l-11 17q83 53 129 119z" />
    <glyph glyph-name="Edieresis" unicode="&#xcb;" horiz-adv-x="560" 
d="M17 616v20q6 0 30 -0.5t41 -0.5q58 -2 87 -2h170q108 0 140 8q-8 -61 -3 -174l-20 -2q-9 57 -28 95q-15 30 -38.5 39t-96.5 9h-51q-17 0 -18 -16q-4 -128 -4 -150v-100q12 -1 57 -1q62 0 84 19t30 72h19q-12 -117 -3 -223l-20 1q-7 60 -27.5 82.5t-84.5 22.5
q-43 0 -55 -2v-83q0 -131 4 -180q1 -15 14.5 -20t62.5 -5q67 0 95 6t50 27q39 35 64 126l19 -4q-1 -17 -12 -90.5t-16 -94.5q-63 5 -215 5h-117q-25 0 -165 -4l1 22l54 5q15 2 22 9.5t8 26.5q4 78 4 176v188q0 121 -3 164q-1 13 -8 18t-25 7zM188 798h1q23 0 36.5 -14.5
t13.5 -36.5q0 -25 -16.5 -40.5t-36.5 -15.5t-35 13t-15 38t14.5 40.5t37.5 15.5zM372 798h1q23 0 37 -14.5t14 -36.5q0 -25 -16.5 -40.5t-36.5 -15.5q-21 0 -35.5 13t-14.5 38t14 40.5t37 15.5z" />
    <glyph glyph-name="Igrave" unicode="&#xcc;" horiz-adv-x="326" 
d="M100 211v225q0 94 -2 144q-1 21 -15.5 27t-61.5 9l1 21q11 0 61 -1.5t80 -1.5q27 0 77 1.5t63 1.5l1 -21q-44 -2 -58 -8t-15 -24q-4 -42 -4 -145v-226q0 -105 4 -161q1 -20 16 -26.5t59 -8.5l-2 -21q-15 0 -66 1.5t-79 1.5q-50 0 -140 -3l1 21q44 2 59.5 8.5t16.5 24.5
q4 46 4 161zM209 697l-11 -15q-125 43 -150 54q-34 12 -38 40q-4 17 4.5 27.5t22.5 13.5q25 7 50 -12q9 -6 60 -52.5t62 -55.5z" />
    <glyph glyph-name="Iacute" unicode="&#xcd;" horiz-adv-x="326" 
d="M100 211v225q0 94 -2 144q-1 21 -15.5 27t-61.5 9l1 21q11 0 61 -1.5t80 -1.5q27 0 77 1.5t63 1.5l1 -21q-44 -2 -58 -8t-15 -24q-4 -42 -4 -145v-226q0 -105 4 -161q1 -20 16 -26.5t59 -8.5l-2 -21q-15 0 -66 1.5t-79 1.5q-50 0 -140 -3l1 21q44 2 59.5 8.5t16.5 24.5
q4 46 4 161zM116 679l-11 16l73 57t64 50q29 21 54 13q30 -7 21 -40q-7 -26 -46 -42z" />
    <glyph glyph-name="Icircumflex" unicode="&#xce;" horiz-adv-x="326" 
d="M100 211v225q0 94 -2 144q-1 21 -15.5 27t-61.5 9l1 21q11 0 61 -1.5t80 -1.5q27 0 77 1.5t63 1.5l1 -21q-44 -2 -58 -8t-15 -24q-4 -42 -4 -145v-226q0 -105 4 -161q1 -20 16 -26.5t59 -8.5l-2 -21q-15 0 -66 1.5t-79 1.5q-50 0 -140 -3l1 21q44 2 59.5 8.5t16.5 24.5
q4 46 4 161zM156 814l17 3q14 -25 45.5 -58.5t81.5 -63.5l-11 -17q-76 25 -125 55q-64 -35 -126 -55l-11 17q83 53 129 119z" />
    <glyph glyph-name="Idieresis" unicode="&#xcf;" horiz-adv-x="326" 
d="M100 211v225q0 94 -2 144q-1 21 -15.5 27t-61.5 9l1 21q11 0 61 -1.5t80 -1.5q27 0 77 1.5t63 1.5l1 -21q-44 -2 -58 -8t-15 -24q-4 -42 -4 -145v-226q0 -105 4 -161q1 -20 16 -26.5t59 -8.5l-2 -21q-15 0 -66 1.5t-79 1.5q-50 0 -140 -3l1 21q44 2 59.5 8.5t16.5 24.5
q4 46 4 161zM70 794h1q23 0 36.5 -14.5t13.5 -36.5q0 -25 -16.5 -40.5t-36.5 -15.5t-35 13t-15 38t14.5 40.5t37.5 15.5zM254 794h1q23 0 37 -14.5t14 -36.5q0 -25 -16.5 -40.5t-36.5 -15.5q-21 0 -35.5 13t-14.5 38t14 40.5t37 15.5z" />
    <glyph glyph-name="Eth" unicode="&#xd0;" horiz-adv-x="691" 
d="M18 318l4 35q23 -1 89 -3v77q0 111 -2 157q-1 25 -23 26l-57 6l2 21q6 0 54.5 -2t76.5 -2q22 0 77 2t88 2q143 0 205 -39q120 -75 120 -261q0 -68 -16 -125t-54 -106.5t-97 -76.5q-69 -32 -177 -32q-29 0 -83 2q-13 0 -37 0.5t-35 0.5q-26 0 -74 -1.5t-54 -1.5l1 21l43 4
q20 1 27 7.5t9 20.5q6 126 6 196v75q-49 0 -93 -3zM383 353l-4 -36q-6 0 -27 0.5t-53 1.5t-61 1v-77q0 -165 3 -201q2 -11 13 -16t42 -5q112 0 161 68q55 80 55 242q0 157 -56 223q-25 30 -59 44t-94 14q-59 0 -61 -20q-4 -30 -4 -173v-70q69 0 145 4z" />
    <glyph glyph-name="Ntilde" unicode="&#xd1;" horiz-adv-x="650" 
d="M13 616v20q5 0 46 -1.5t66 -1.5q64 0 92 3q3 -6 53 -83q44 -72 265 -393q1 342 -8 407q-3 25 -13 34t-37 11l-47 3l5 21q18 0 57.5 -1.5t57.5 -1.5q20 0 55 1.5t46 1.5v-20q-5 -1 -22 -3.5t-25 -4.5q-13 -3 -18.5 -10.5t-9.5 -25.5q-13 -72 -13 -329v-245q-38 -2 -74 -10
l-358 553q0 -424 8 -477q5 -33 34 -38q5 -1 17.5 -2.5l24 -3t22.5 -2.5l-3 -21q-13 0 -55.5 1.5t-72.5 1.5q-26 0 -58 -1.5t-41 -1.5l1 21q12 0 48 6q28 5 34 49q5 34 10 180t5 312q-6 17 -14 28q-10 14 -36 17zM235 688l-24 3q3 46 23 79.5t58 33.5q26 0 64 -30
q33 -26 49 -26q30 0 35 60l24 -6q-3 -47 -21.5 -79.5t-54.5 -32.5q-28 0 -69 33q-29 23 -46 23q-14 0 -24.5 -16t-13.5 -42z" />
    <glyph glyph-name="Ograve" unicode="&#xd2;" horiz-adv-x="681" 
d="M346 650h1q137 0 216 -90.5t79 -231.5q0 -164 -80 -254.5t-222 -90.5t-221.5 88.5t-79.5 240.5q0 145 80.5 241.5t226.5 96.5zM339 627h-1q-70 0 -110 -69q-43 -74 -43 -230q0 -79 14 -148t36 -105q40 -67 113 -67q72 0 108 68q40 75 40 236t-43 244q-40 71 -114 71z
M384 703l-11 -15q-125 43 -150 54q-34 12 -38 40q-4 17 4.5 27.5t22.5 13.5q25 7 50 -12q9 -6 60 -52.5t62 -55.5z" />
    <glyph glyph-name="Oacute" unicode="&#xd3;" horiz-adv-x="681" 
d="M346 650h1q137 0 216 -90.5t79 -231.5q0 -164 -80 -254.5t-222 -90.5t-221.5 88.5t-79.5 240.5q0 145 80.5 241.5t226.5 96.5zM339 627h-1q-70 0 -110 -69q-43 -74 -43 -230q0 -79 14 -148t36 -105q40 -67 113 -67q72 0 108 68q40 75 40 236t-43 244q-40 71 -114 71z
M284 690l-11 16l73 57t64 50q29 21 54 13q30 -7 21 -40q-7 -26 -46 -42z" />
    <glyph glyph-name="Ocircumflex" unicode="&#xd4;" horiz-adv-x="681" 
d="M346 650h1q137 0 216 -90.5t79 -231.5q0 -164 -80 -254.5t-222 -90.5t-221.5 88.5t-79.5 240.5q0 145 80.5 241.5t226.5 96.5zM339 627h-1q-70 0 -110 -69q-43 -74 -43 -230q0 -79 14 -148t36 -105q40 -67 113 -67q72 0 108 68q40 75 40 236t-43 244q-40 71 -114 71z
M332 821l17 3q14 -25 45.5 -58.5t81.5 -63.5l-11 -17q-76 25 -125 55q-64 -35 -126 -55l-11 17q83 53 129 119z" />
    <glyph glyph-name="Otilde" unicode="&#xd5;" horiz-adv-x="681" 
d="M346 650h1q137 0 216 -90.5t79 -231.5q0 -164 -80 -254.5t-222 -90.5t-221.5 88.5t-79.5 240.5q0 145 80.5 241.5t226.5 96.5zM339 627h-1q-70 0 -110 -69q-43 -74 -43 -230q0 -79 14 -148t36 -105q40 -67 113 -67q72 0 108 68q40 75 40 236t-43 244q-40 71 -114 71z
M236 693l-24 3q3 46 23 79.5t58 33.5q26 0 64 -30q32 -26 49 -26q30 0 35 60l24 -6q-3 -47 -21.5 -79.5t-54.5 -32.5q-28 0 -69 33q-29 23 -46 23q-14 0 -24.5 -16t-13.5 -42z" />
    <glyph glyph-name="Odieresis" unicode="&#xd6;" horiz-adv-x="681" 
d="M346 650h1q137 0 216 -90.5t79 -231.5q0 -164 -80 -254.5t-222 -90.5t-221.5 88.5t-79.5 240.5q0 145 80.5 241.5t226.5 96.5zM339 627h-1q-70 0 -110 -69q-43 -74 -43 -230q0 -79 14 -148t36 -105q40 -67 113 -67q72 0 108 68q40 75 40 236t-43 244q-40 71 -114 71z
M247 801h1q23 0 36.5 -14.5t13.5 -36.5q0 -25 -16.5 -40.5t-36.5 -15.5t-35 13t-15 38t14.5 40.5t37.5 15.5zM431 801h1q23 0 37 -14.5t14 -36.5q0 -25 -16.5 -40.5t-36.5 -15.5q-21 0 -35.5 13t-14.5 38t14 40.5t37 15.5z" />
    <glyph glyph-name="multiply" unicode="&#xd7;" horiz-adv-x="485" 
d="M431 383l-155 -158l155 -158l-35 -36l-154 159l-154 -159l-34 36l154 158l-154 157l34 36l154 -158l154 160z" />
    <glyph glyph-name="Oslash" unicode="&#xd8;" horiz-adv-x="683" 
d="M556 664l28 -17q-26 -39 -44 -62q49 -45 76 -112t27 -144q0 -161 -83 -253.5t-223 -92.5q-99 0 -166 46l-46 -69l-30 15l51 71q-107 90 -107 265q0 145 82.5 242t229.5 97q98 0 165 -46zM345 627h-1q-67 0 -108 -62q-22 -35 -36.5 -102.5t-14.5 -143.5q0 -110 30 -181
l247 398q-34 91 -117 91zM341 8h1q75 0 112 66q44 77 44 251q0 108 -25 174l-246 -398q40 -93 114 -93z" />
    <glyph glyph-name="Ugrave" unicode="&#xd9;" horiz-adv-x="647" 
d="M369 24h1q69 0 109.5 36t47.5 134q12 197 -1 374q-1 26 -10.5 33.5t-30.5 9.5l-48 5l-3 21q13 0 49.5 -2t54.5 -2t51.5 2t49.5 2l4 -21l-36 -4q-20 -1 -26.5 -9.5t-7.5 -30.5q-2 -44 -4.5 -133t-5.5 -159.5t-7 -107.5q-13 -100 -76 -146q-56 -42 -156 -42q-136 0 -191 66
q-41 48 -42 156q0 41 -0.5 190.5t-1.5 181.5q-1 31 -20 33l-52 5v21q17 0 65.5 -2t73.5 -2q24 0 71.5 2t63.5 2l2 -21l-49 -6q-18 -1 -21 -25q-14 -164 -3 -394q2 -56 11.5 -83.5t28.5 -46.5q37 -37 109 -37zM401 698l-11 -15q-125 43 -150 54q-34 12 -38 40q-4 17 4.5 27.5
t22.5 13.5q25 7 50 -12q9 -6 60 -52.5t62 -55.5z" />
    <glyph glyph-name="Uacute" unicode="&#xda;" horiz-adv-x="647" 
d="M369 24h1q69 0 109.5 36t47.5 134q12 197 -1 374q-1 26 -10.5 33.5t-30.5 9.5l-48 5l-3 21q13 0 49.5 -2t54.5 -2t51.5 2t49.5 2l4 -21l-36 -4q-20 -1 -26.5 -9.5t-7.5 -30.5q-2 -44 -4.5 -133t-5.5 -159.5t-7 -107.5q-13 -100 -76 -146q-56 -42 -156 -42q-136 0 -191 66
q-41 48 -42 156q0 41 -0.5 190.5t-1.5 181.5q-1 31 -20 33l-52 5v21q17 0 65.5 -2t73.5 -2q24 0 71.5 2t63.5 2l2 -21l-49 -6q-18 -1 -21 -25q-14 -164 -3 -394q2 -56 11.5 -83.5t28.5 -46.5q37 -37 109 -37zM291 684l-11 16l73 57t64 50q29 21 54 13q30 -7 21 -40
q-7 -26 -46 -42z" />
    <glyph glyph-name="Ucircumflex" unicode="&#xdb;" horiz-adv-x="647" 
d="M369 24h1q69 0 109.5 36t47.5 134q12 197 -1 374q-1 26 -10.5 33.5t-30.5 9.5l-48 5l-3 21q13 0 49.5 -2t54.5 -2t51.5 2t49.5 2l4 -21l-36 -4q-20 -1 -26.5 -9.5t-7.5 -30.5q-2 -44 -4.5 -133t-5.5 -159.5t-7 -107.5q-13 -100 -76 -146q-56 -42 -156 -42q-136 0 -191 66
q-41 48 -42 156q0 41 -0.5 190.5t-1.5 181.5q-1 31 -20 33l-52 5v21q17 0 65.5 -2t73.5 -2q24 0 71.5 2t63.5 2l2 -21l-49 -6q-18 -1 -21 -25q-14 -164 -3 -394q2 -56 11.5 -83.5t28.5 -46.5q37 -37 109 -37zM340 817l17 3q14 -25 45.5 -58.5t81.5 -63.5l-11 -17
q-76 25 -125 55q-64 -35 -126 -55l-11 17q83 53 129 119z" />
    <glyph glyph-name="Udieresis" unicode="&#xdc;" horiz-adv-x="647" 
d="M369 24h1q69 0 109.5 36t47.5 134q12 197 -1 374q-1 26 -10.5 33.5t-30.5 9.5l-48 5l-3 21q13 0 49.5 -2t54.5 -2t51.5 2t49.5 2l4 -21l-36 -4q-20 -1 -26.5 -9.5t-7.5 -30.5q-2 -44 -4.5 -133t-5.5 -159.5t-7 -107.5q-13 -100 -76 -146q-56 -42 -156 -42q-136 0 -191 66
q-41 48 -42 156q0 41 -0.5 190.5t-1.5 181.5q-1 31 -20 33l-52 5v21q17 0 65.5 -2t73.5 -2q24 0 71.5 2t63.5 2l2 -21l-49 -6q-18 -1 -21 -25q-14 -164 -3 -394q2 -56 11.5 -83.5t28.5 -46.5q37 -37 109 -37zM254 797h1q23 0 36.5 -14.5t13.5 -36.5q0 -25 -16.5 -40.5
t-36.5 -15.5t-35 13t-15 38t14.5 40.5t37.5 15.5zM438 797h1q23 0 37 -14.5t14 -36.5q0 -25 -16.5 -40.5t-36.5 -15.5q-21 0 -35.5 13t-14.5 38t14 40.5t37 15.5z" />
    <glyph glyph-name="Yacute" unicode="&#xdd;" horiz-adv-x="548" 
d="M435 17l3 -21q-26 0 -83 1.5t-84 1.5q-34 0 -83 -1.5t-69 -1.5l-3 21q12 1 32.5 3.5t29.5 3.5q18 2 26.5 10t9.5 26q5 88 5 201q0 26 -10 47q-17 38 -64.5 125.5t-78.5 135.5q-19 30 -34 38t-54 9l-1 21q8 0 57 -1.5t76 -1.5q36 0 83.5 1.5t59.5 1.5l3 -21l-42 -4
q-20 -2 -11 -25q10 -23 61 -123.5l68 -135.5q85 167 117 249q12 30 -10 33q-8 1 -17 2t-20 2t-17 2l2 21q9 0 44 -1.5t56 -1.5q18 0 49 1.5t47 1.5l3 -21q-42 -2 -59.5 -10.5t-35.5 -36.5q-46 -75 -134 -250q-11 -23 -11 -50q-2 -150 4 -223q2 -20 22 -21q35 -5 63 -8z
M244 685l-11 16l73 57t64 50q29 21 54 13q30 -7 21 -40q-7 -26 -46 -42z" />
    <glyph glyph-name="Thorn" unicode="&#xde;" horiz-adv-x="574" 
d="M100 231v204q0 125 -1 148q-1 19 -15 25t-57 8l4 21q35 -1 128 -3q36 -1 82.5 1t56.5 2l1 -21q-42 -1 -54 -7t-14 -24q-2 -40 -2 -75q54 4 104 4q110 0 157 -47q49 -48 49 -133q0 -86 -52 -140q-60 -61 -177 -61q-50 0 -83 10q0 -62 2 -90q2 -21 14.5 -27t67.5 -9l-1 -21
q-16 0 -68.5 1.5t-84.5 1.5q-25 0 -74.5 -1.5t-63.5 -1.5l1 21q48 3 61 9.5t14 30.5q5 95 5 174zM227 400v-223q25 -18 68 -18q53 0 79 39q28 46 28 133q0 86 -29 122q-26 36 -96 36q-46 0 -48 -16q-2 -24 -2 -73z" />
    <glyph glyph-name="germandbls" unicode="&#xdf;" horiz-adv-x="574" 
d="M23 424h61v12q0 114 72 183q64 62 164 62q89 1 132.5 -40.5t43.5 -104.5q0 -29 -8 -44q-111 -31 -111 -102q0 -30 27 -57q23 -23 66 -57q37 -28 55 -57t18 -74q0 -73 -49.5 -115.5t-122.5 -42.5q-41 0 -101 16q2 39 -2 96l19 5q19 -92 92 -92q28 0 49.5 20t21.5 57
q0 41 -35 72l-60 53q-61 53 -61 115q0 89 110 145q8 19 8 57q0 55 -23.5 90.5t-72.5 35.5q-63 0 -90 -66.5t-27 -198.5v-192q0 -123 2 -152q1 -17 9 -22.5t38 -7.5l-1 -21q-21 0 -62.5 1.5t-63.5 1.5q-20 0 -56 -1.5t-45 -1.5l1 21q35 1 46 7t12 24q4 92 4 192v153l-62 6z
" />
    <glyph glyph-name="agrave" unicode="&#xe0;" horiz-adv-x="484" 
d="M294 285v46q0 84 -67 84q-74 0 -74 -73q0 -6 3 -33q3 -14 -8 -23q-16 -12 -42 -12q-22 0 -37 11.5t-15 36.5q0 43 53.5 79.5t139.5 36.5q104 0 145 -59q14 -21 14 -50v-255q0 -41 22 -41q12 0 24 18t18 47l22 -9q-21 -103 -114 -103q-73 0 -85 73q-67 -73 -140 -73
q-56 0 -88 34t-32 90q0 67 53 89q22 9 71 26.5t83.5 32t53.5 27.5zM156 129v-1q0 -35 15.5 -61t45.5 -26q49 0 71 55q6 20 6 43v120q-9 -5 -43.5 -22t-50.5 -26q-22 -13 -33 -30t-11 -52zM274 490l-16 -10l-116 112q-23 23 -23 49q0 19 9.5 28t22.5 9q29 0 48 -35
q9 -16 40 -80t35 -73z" />
    <glyph glyph-name="aacute" unicode="&#xe1;" horiz-adv-x="484" 
d="M294 285v46q0 84 -67 84q-74 0 -74 -73q0 -6 3 -33q3 -14 -8 -23q-16 -12 -42 -12q-22 0 -37 11.5t-15 36.5q0 43 53.5 79.5t139.5 36.5q104 0 145 -59q14 -21 14 -50v-255q0 -41 22 -41q12 0 24 18t18 47l22 -9q-21 -103 -114 -103q-73 0 -85 73q-67 -73 -140 -73
q-56 0 -88 34t-32 90q0 67 53 89q22 9 71 26.5t83.5 32t53.5 27.5zM156 129v-1q0 -35 15.5 -61t45.5 -26q49 0 71 55q6 20 6 43v120q-9 -5 -43.5 -22t-50.5 -26q-22 -13 -33 -30t-11 -52zM218 481l-16 12q11 17 47.5 79.5t42.5 71.5q23 36 54 36q27 0 27 -35q0 -23 -33 -56
q-10 -10 -51.5 -45.5t-70.5 -62.5z" />
    <glyph glyph-name="acircumflex" unicode="&#xe2;" horiz-adv-x="484" 
d="M294 285v46q0 84 -67 84q-74 0 -74 -73q0 -6 3 -33q3 -14 -8 -23q-16 -12 -42 -12q-22 0 -37 11.5t-15 36.5q0 43 53.5 79.5t139.5 36.5q104 0 145 -59q14 -21 14 -50v-255q0 -41 22 -41q12 0 24 18t18 47l22 -9q-21 -103 -114 -103q-73 0 -85 73q-67 -73 -140 -73
q-56 0 -88 34t-32 90q0 67 53 89q22 9 71 26.5t83.5 32t53.5 27.5zM156 129v-1q0 -35 15.5 -61t45.5 -26q49 0 71 55q6 20 6 43v120q-9 -5 -43.5 -22t-50.5 -26q-22 -13 -33 -30t-11 -52zM233 675l19 5q28 -84 109 -186l-15 -15q-62 49 -104 100q-46 -53 -104 -100l-15 15
q77 97 110 181z" />
    <glyph glyph-name="atilde" unicode="&#xe3;" horiz-adv-x="484" 
d="M294 285v46q0 84 -67 84q-74 0 -74 -73q0 -6 3 -33q3 -14 -8 -23q-16 -12 -42 -12q-22 0 -37 11.5t-15 36.5q0 43 53.5 79.5t139.5 36.5q104 0 145 -59q14 -21 14 -50v-255q0 -41 22 -41q12 0 24 18t18 47l22 -9q-21 -103 -114 -103q-73 0 -85 73q-67 -73 -140 -73
q-56 0 -88 34t-32 90q0 67 53 89q22 9 71 26.5t83.5 32t53.5 27.5zM156 129v-1q0 -35 15.5 -61t45.5 -26q49 0 71 55q6 20 6 43v120q-9 -5 -43.5 -22t-50.5 -26q-22 -13 -33 -30t-11 -52zM143 504l-23 4q3 47 21 80t55 33q24 0 63 -31q36 -28 49 -28q28 0 32 61l23 -5
q-6 -114 -73 -114q-25 0 -66 34q-30 24 -46 24q-30 0 -35 -58z" />
    <glyph glyph-name="adieresis" unicode="&#xe4;" horiz-adv-x="484" 
d="M294 285v46q0 84 -67 84q-74 0 -74 -73q0 -6 3 -33q3 -14 -8 -23q-16 -12 -42 -12q-22 0 -37 11.5t-15 36.5q0 43 53.5 79.5t139.5 36.5q104 0 145 -59q14 -21 14 -50v-255q0 -41 22 -41q12 0 24 18t18 47l22 -9q-21 -103 -114 -103q-73 0 -85 73q-67 -73 -140 -73
q-56 0 -88 34t-32 90q0 67 53 89q22 9 71 26.5t83.5 32t53.5 27.5zM156 129v-1q0 -35 15.5 -61t45.5 -26q49 0 71 55q6 20 6 43v120q-9 -5 -43.5 -22t-50.5 -26q-22 -13 -33 -30t-11 -52zM156 631h1q24 0 38 -15t14 -40q0 -26 -17.5 -42t-38.5 -16t-36.5 13.5t-15.5 40.5
q0 26 15.5 42.5t39.5 16.5zM331 631h1q24 0 38 -15t14 -39q0 -27 -17 -43t-38 -16q-22 0 -37.5 13.5t-15.5 40.5t15.5 43t39.5 16z" />
    <glyph glyph-name="aring" unicode="&#xe5;" horiz-adv-x="484" 
d="M294 285v46q0 84 -67 84q-74 0 -74 -73q0 -6 3 -33q3 -14 -8 -23q-16 -12 -42 -12q-22 0 -37 11.5t-15 36.5q0 43 53.5 79.5t139.5 36.5q104 0 145 -59q14 -21 14 -50v-255q0 -41 22 -41q12 0 24 18t18 47l22 -9q-21 -103 -114 -103q-73 0 -85 73q-67 -73 -140 -73
q-56 0 -88 34t-32 90q0 67 53 89q22 9 71 26.5t83.5 32t53.5 27.5zM156 129v-1q0 -35 15.5 -61t45.5 -26q49 0 71 55q6 20 6 43v120q-9 -5 -43.5 -22t-50.5 -26q-22 -13 -33 -30t-11 -52zM246 662h1q39 0 63 -22t24 -61q0 -41 -26.5 -64t-66.5 -23t-65 21t-25 60
q0 42 26.5 65.5t68.5 23.5zM243 641h-1q-38 0 -38 -63q0 -32 11 -48.5t28 -16.5q38 0 38 66q0 23 -8.5 42.5t-29.5 19.5z" />
    <glyph glyph-name="ae" unicode="&#xe6;" horiz-adv-x="706" 
d="M156 124v-1q0 -34 16 -59t44 -25q53 0 71 56q6 17 6 45l1 119q-85 -43 -97 -50q-20 -13 -30.5 -30.5t-10.5 -54.5zM678 115q-23 -66 -67.5 -97.5t-118.5 -31.5q-132 0 -175 92l-44 -41.5t-52 -32.5t-69 -18q-56 1 -87.5 34.5t-31.5 85.5q0 40 13.5 61t42.5 33
q17 7 64.5 24.5t82 31.5t58.5 28v47q0 39 -18 61.5t-51 22.5q-35 0 -54 -19t-18 -53q0 -4 3 -34q3 -15 -9 -24q-20 -12 -42 -12q-23 0 -37 13t-14 36q0 44 53 80t136 36q99 0 127 -59q48 59 135 59q44 0 77.5 -13.5t51.5 -32t28.5 -44t13.5 -44.5t3 -38q0 -28 -18 -38
q-21 -10 -92 -12q-64 -3 -159 -1q-3 -80 25 -130q30 -57 100 -57q47 0 75.5 25t47.5 72zM496 415h-1q-37 0 -59 -50.5t-24 -123.5q20 -2 64 -2q50 0 76 6q17 6 17 32q0 60 -17.5 99t-55.5 39z" />
    <glyph glyph-name="ccedilla" unicode="&#xe7;" horiz-adv-x="448" 
d="M270 -13q-3 -5 -11.5 -17t-12.5 -19q73 -14 73 -73q0 -38 -26 -60.5t-68 -22.5q-36 0 -60 19l8 22q19 -12 46 -12q39 0 39 34q0 18 -17.5 28t-47.5 10l-4 10l54 80q-112 0 -167 65q-44 53 -44 152q0 103 60 169t171 66q69 0 113.5 -29t44.5 -80q0 -29 -18.5 -43
t-43.5 -14q-18 0 -30 8t-9 21q5 35 5 39q0 75 -64 75q-49 0 -75.5 -54t-26.5 -142q0 -79 23 -125q32 -66 102 -66q46 0 74.5 25t48.5 78l20 -10q-35 -124 -157 -134z" />
    <glyph glyph-name="egrave" unicode="&#xe8;" horiz-adv-x="453" 
d="M425 118q-43 -132 -185 -132q-113 0 -165 68q-42 53 -42 150q0 100 55.5 167t159.5 67q44 0 78 -13t52.5 -32t29.5 -44t14.5 -44.5t3.5 -38.5q0 -31 -17 -39q-26 -12 -130 -12q-27 -1 -121 -1q-3 -75 25 -127q31 -58 98 -58q45 0 74.5 24.5t49.5 76.5zM246 415h-1
q-39 0 -61 -49.5t-24 -126.5h65q52 0 73 6q19 5 19 39q0 47 -16.5 89t-54.5 42zM272 490l-16 -10l-116 112q-23 23 -23 49q0 19 9.5 28t22.5 9q29 0 48 -35q9 -16 40 -80t35 -73z" />
    <glyph glyph-name="eacute" unicode="&#xe9;" horiz-adv-x="453" 
d="M425 118q-43 -132 -185 -132q-113 0 -165 68q-42 53 -42 150q0 100 55.5 167t159.5 67q44 0 78 -13t52.5 -32t29.5 -44t14.5 -44.5t3.5 -38.5q0 -31 -17 -39q-26 -12 -130 -12q-27 -1 -121 -1q-3 -75 25 -127q31 -58 98 -58q45 0 74.5 24.5t49.5 76.5zM246 415h-1
q-39 0 -61 -49.5t-24 -126.5h65q52 0 73 6q19 5 19 39q0 47 -16.5 89t-54.5 42zM213 481l-16 12q11 17 47.5 79.5t42.5 71.5q23 36 54 36q27 0 27 -35q0 -23 -33 -56q-10 -10 -51.5 -45.5t-70.5 -62.5z" />
    <glyph glyph-name="ecircumflex" unicode="&#xea;" horiz-adv-x="453" 
d="M425 118q-43 -132 -185 -132q-113 0 -165 68q-42 53 -42 150q0 100 55.5 167t159.5 67q44 0 78 -13t52.5 -32t29.5 -44t14.5 -44.5t3.5 -38.5q0 -31 -17 -39q-26 -12 -130 -12q-27 -1 -121 -1q-3 -75 25 -127q31 -58 98 -58q45 0 74.5 24.5t49.5 76.5zM246 415h-1
q-39 0 -61 -49.5t-24 -126.5h65q52 0 73 6q19 5 19 39q0 47 -16.5 89t-54.5 42zM232 675l19 5q28 -84 109 -186l-15 -15q-62 49 -104 100q-46 -53 -104 -100l-15 15q77 97 110 181z" />
    <glyph glyph-name="edieresis" unicode="&#xeb;" horiz-adv-x="453" 
d="M425 118q-43 -132 -185 -132q-113 0 -165 68q-42 53 -42 150q0 100 55.5 167t159.5 67q44 0 78 -13t52.5 -32t29.5 -44t14.5 -44.5t3.5 -38.5q0 -31 -17 -39q-26 -12 -130 -12q-27 -1 -121 -1q-3 -75 25 -127q31 -58 98 -58q45 0 74.5 24.5t49.5 76.5zM246 415h-1
q-39 0 -61 -49.5t-24 -126.5h65q52 0 73 6q19 5 19 39q0 47 -16.5 89t-54.5 42zM151 631h1q24 0 38 -15t14 -40q0 -26 -17.5 -42t-38.5 -16t-36.5 13.5t-15.5 40.5q0 26 15.5 42.5t39.5 16.5zM326 631h1q24 0 38 -15t14 -39q0 -27 -17 -43t-38 -16q-22 0 -37.5 13.5
t-15.5 40.5t15.5 43t39.5 16z" />
    <glyph glyph-name="igrave" unicode="&#xec;" horiz-adv-x="273" 
d="M255 18v-21q-12 0 -52 1.5t-70 1.5q-32 0 -67 -1.5t-45 -1.5l1 21q35 1 45.5 7t12.5 21q3 57 3 124v101q0 78 -2 110q-1 8 -5.5 11.5t-17 4.5t-34.5 0l1 21q122 7 177 19q-3 -72 -3 -157v-119q0 -80 3 -113q2 -17 11 -22.5t42 -7.5zM167 490l-16 -10l-116 112
q-23 23 -23 49q0 19 9.5 28t22.5 9q29 0 48 -35q9 -16 40 -80t35 -73z" />
    <glyph glyph-name="iacute" unicode="&#xed;" horiz-adv-x="273" 
d="M255 18v-21q-12 0 -52 1.5t-70 1.5q-32 0 -67 -1.5t-45 -1.5l1 21q35 1 45.5 7t12.5 21q3 57 3 124v101q0 78 -2 110q-1 8 -5.5 11.5t-17 4.5t-34.5 0l1 21q122 7 177 19q-3 -72 -3 -157v-119q0 -80 3 -113q2 -17 11 -22.5t42 -7.5zM119 481l-16 12q11 17 47.5 79.5
t42.5 71.5q23 36 54 36q27 0 27 -35q0 -23 -33 -56q-10 -10 -51.5 -45.5t-70.5 -62.5z" />
    <glyph glyph-name="icircumflex" unicode="&#xee;" horiz-adv-x="273" 
d="M255 18v-21q-12 0 -52 1.5t-70 1.5q-32 0 -67 -1.5t-45 -1.5l1 21q35 1 45.5 7t12.5 21q3 57 3 124v101q0 78 -2 110q-1 8 -5.5 11.5t-17 4.5t-34.5 0l1 21q122 7 177 19q-3 -72 -3 -157v-119q0 -80 3 -113q2 -17 11 -22.5t42 -7.5zM126 675l19 5q28 -84 109 -186
l-15 -15q-62 49 -104 100q-46 -53 -104 -100l-15 15q77 97 110 181z" />
    <glyph glyph-name="idieresis" unicode="&#xef;" horiz-adv-x="273" 
d="M255 18v-21q-12 0 -52 1.5t-70 1.5q-32 0 -67 -1.5t-45 -1.5l1 21q35 1 45.5 7t12.5 21q3 57 3 124v101q0 78 -2 110q-1 8 -5.5 11.5t-17 4.5t-34.5 0l1 21q122 7 177 19q-3 -72 -3 -157v-119q0 -80 3 -113q2 -17 11 -22.5t42 -7.5zM51 631h1q24 0 38 -15t14 -40
q0 -26 -17.5 -42t-38.5 -16t-36.5 13.5t-15.5 40.5q0 26 15.5 42.5t39.5 16.5zM226 631h1q24 0 38 -15t14 -39q0 -27 -17 -43t-38 -16q-22 0 -37.5 13.5t-15.5 40.5t15.5 43t39.5 16z" />
    <glyph glyph-name="eth" unicode="&#xf0;" horiz-adv-x="515" 
d="M98 656l5 22q125 3 227 -71l108 60l13 -29l-98 -51q62 -54 94 -137.5t32 -179.5q0 -135 -60.5 -209.5t-171.5 -74.5q-98 0 -156 58.5t-58 158.5q0 103 62 169t161 66q53 0 89 -26q-10 85 -56 142q-62 -30 -139 -74l-14 30q68 32 134 67q-70 76 -172 79zM261 415
q-46 2 -70 -43q-28 -49 -28 -158q0 -89 20 -144q24 -61 76 -61q50 0 74 55q23 55 23 193q0 66 -10 105q-25 52 -85 53z" />
    <glyph glyph-name="ntilde" unicode="&#xf1;" horiz-adv-x="551" 
d="M24 -4v21q35 2 44.5 7t10.5 23q4 41 4 113v101q0 81 -3 120q-1 10 -10 13t-42 4l1 21q86 0 164 15q5 -33 7 -70q78 74 153 74q81 0 110 -57q14 -24 14 -58v-278q0 -16 9 -20t48 -8l-1 -21q-16 0 -55 1.5t-62 1.5q-30 0 -66.5 -1.5t-41.5 -1.5v21q29 1 38 6.5t11 20.5
q4 42 4 148q1 98 -1 125t-8 39q-17 32 -55 32q-56 0 -87 -53q-11 -17 -11 -45v-136q0 -85 2 -111q2 -14 11.5 -19t41.5 -7l-1 -21q-10 0 -52 1.5t-64 1.5q-26 0 -64 -1.5t-49 -1.5zM177 504l-23 4q3 47 21 80t55 33q24 0 63 -31q36 -28 49 -28q28 0 32 61l23 -5
q-6 -114 -73 -114q-25 0 -66 34q-30 24 -46 24q-30 0 -35 -58z" />
    <glyph glyph-name="ograve" unicode="&#xf2;" horiz-adv-x="518" 
d="M263 438h1q102 0 161.5 -60.5t59.5 -161.5q0 -107 -61.5 -168.5t-166.5 -61.5q-109 0 -166.5 61.5t-57.5 160.5q0 102 61 166t169 64zM259 414h-1q-45 0 -71 -46q-25 -47 -25 -143q0 -104 26 -161q26 -54 78 -54q49 0 71 48q21 56 21 148q0 105 -26 157q-24 51 -73 51z
M293 490l-16 -10l-116 112q-23 23 -23 49q0 19 9.5 28t22.5 9q29 0 48 -35q9 -16 40 -80t35 -73z" />
    <glyph glyph-name="oacute" unicode="&#xf3;" horiz-adv-x="518" 
d="M263 438h1q102 0 161.5 -60.5t59.5 -161.5q0 -107 -61.5 -168.5t-166.5 -61.5q-109 0 -166.5 61.5t-57.5 160.5q0 102 61 166t169 64zM259 414h-1q-45 0 -71 -46q-25 -47 -25 -143q0 -104 26 -161q26 -54 78 -54q49 0 71 48q21 56 21 148q0 105 -26 157q-24 51 -73 51z
M236 481l-16 12q11 17 47.5 79.5t42.5 71.5q23 36 54 36q27 0 27 -35q0 -23 -33 -56q-10 -10 -51.5 -45.5t-70.5 -62.5z" />
    <glyph glyph-name="ocircumflex" unicode="&#xf4;" horiz-adv-x="518" 
d="M263 438h1q102 0 161.5 -60.5t59.5 -161.5q0 -107 -61.5 -168.5t-166.5 -61.5q-109 0 -166.5 61.5t-57.5 160.5q0 102 61 166t169 64zM259 414h-1q-45 0 -71 -46q-25 -47 -25 -143q0 -104 26 -161q26 -54 78 -54q49 0 71 48q21 56 21 148q0 105 -26 157q-24 51 -73 51z
M258 675l19 5q28 -84 109 -186l-15 -15q-62 49 -104 100q-46 -53 -104 -100l-15 15q77 97 110 181z" />
    <glyph glyph-name="otilde" unicode="&#xf5;" horiz-adv-x="518" 
d="M263 438h1q102 0 161.5 -60.5t59.5 -161.5q0 -107 -61.5 -168.5t-166.5 -61.5q-109 0 -166.5 61.5t-57.5 160.5q0 102 61 166t169 64zM259 414h-1q-45 0 -71 -46q-25 -47 -25 -143q0 -104 26 -161q26 -54 78 -54q49 0 71 48q21 56 21 148q0 105 -26 157q-24 51 -73 51z
M159 504l-23 4q3 47 21 80t55 33q24 0 63 -31q36 -28 49 -28q28 0 32 61l23 -5q-6 -114 -73 -114q-25 0 -66 34q-30 24 -46 24q-30 0 -35 -58z" />
    <glyph glyph-name="odieresis" unicode="&#xf6;" horiz-adv-x="518" 
d="M263 438h1q102 0 161.5 -60.5t59.5 -161.5q0 -107 -61.5 -168.5t-166.5 -61.5q-109 0 -166.5 61.5t-57.5 160.5q0 102 61 166t169 64zM259 414h-1q-45 0 -71 -46q-25 -47 -25 -143q0 -104 26 -161q26 -54 78 -54q49 0 71 48q21 56 21 148q0 105 -26 157q-24 51 -73 51z
M171 631h1q24 0 38 -15t14 -40q0 -26 -17.5 -42t-38.5 -16t-36.5 13.5t-15.5 40.5q0 26 15.5 42.5t39.5 16.5zM346 631h1q24 0 38 -15t14 -39q0 -27 -17 -43t-38 -16q-22 0 -37.5 13.5t-15.5 40.5t15.5 43t39.5 16z" />
    <glyph glyph-name="divide" unicode="&#xf7;" horiz-adv-x="485" 
d="M243 135h1q18 0 30.5 -12.5t12.5 -30.5q0 -17 -13 -30t-30 -13t-30 13t-13 30t13 30t29 13zM243 323h-1q-15 0 -28 13t-13 30t13 30t30 13q18 0 30.5 -13t12.5 -30q0 -19 -12.5 -31t-31.5 -12zM48 253h389v-48h-389v48z" />
    <glyph glyph-name="oslash" unicode="&#xf8;" horiz-adv-x="520" 
d="M418 454l31 -15l-37 -47q76 -62 76 -175q0 -102 -64.5 -166.5t-169.5 -64.5q-72 0 -120 28l-34 -45l-30 14l38 49q-37 28 -56.5 73.5t-19.5 97.5q0 103 64 169t170 66q71 0 120 -28zM161 210v-1q0 -54 15 -96l162 239q-27 63 -75 63q-45 1 -73 -46q-29 -51 -29 -159z
M361 219v1q0 52 -12 96l-163 -240q30 -67 75 -67q51 0 75 48q25 57 25 162z" />
    <glyph glyph-name="ugrave" unicode="&#xf9;" horiz-adv-x="542" 
d="M290 402l-1 22q61 0 112 3q43 2 71 5q-4 -52 -4 -140v-120q0 -85 4 -126q2 -16 11.5 -20t49.5 -3l-2 -21q-46 -2 -96 -7q-30 -3 -82 -9q-2 52 -2 87q-72 -87 -171 -87q-77 0 -99 47q-11 22 -11 58q3 189 3 219q0 45 -2 75q-1 12 -11 15.5t-44 3.5l2 21q55 0 103 3
q30 2 76 7q-9 -56 -9 -203q0 -138 5 -164q6 -35 43 -35t64.5 23t42.5 59q9 23 9 57v118q0 61 -3 94q-1 11 -12.5 14t-46.5 4zM302 490l-16 -10l-116 112q-23 23 -23 49q0 19 9.5 28t22.5 9q29 0 48 -35q9 -16 40 -80t35 -73z" />
    <glyph glyph-name="uacute" unicode="&#xfa;" horiz-adv-x="542" 
d="M290 402l-1 22q61 0 112 3q43 2 71 5q-4 -52 -4 -140v-120q0 -85 4 -126q2 -16 11.5 -20t49.5 -3l-2 -21q-46 -2 -96 -7q-30 -3 -82 -9q-2 52 -2 87q-72 -87 -171 -87q-77 0 -99 47q-11 22 -11 58q3 189 3 219q0 45 -2 75q-1 12 -11 15.5t-44 3.5l2 21q55 0 103 3
q30 2 76 7q-9 -56 -9 -203q0 -138 5 -164q6 -35 43 -35t64.5 23t42.5 59q9 23 9 57v118q0 61 -3 94q-1 11 -12.5 14t-46.5 4zM245 481l-16 12q11 17 47.5 79.5t42.5 71.5q23 36 54 36q27 0 27 -35q0 -23 -33 -56q-10 -10 -51.5 -45.5t-70.5 -62.5z" />
    <glyph glyph-name="ucircumflex" unicode="&#xfb;" horiz-adv-x="542" 
d="M290 402l-1 22q61 0 112 3q43 2 71 5q-4 -52 -4 -140v-120q0 -85 4 -126q2 -16 11.5 -20t49.5 -3l-2 -21q-46 -2 -96 -7q-30 -3 -82 -9q-2 52 -2 87q-72 -87 -171 -87q-77 0 -99 47q-11 22 -11 58q3 189 3 219q0 45 -2 75q-1 12 -11 15.5t-44 3.5l2 21q55 0 103 3
q30 2 76 7q-9 -56 -9 -203q0 -138 5 -164q6 -35 43 -35t64.5 23t42.5 59q9 23 9 57v118q0 61 -3 94q-1 11 -12.5 14t-46.5 4zM259 675l19 5q28 -84 109 -186l-15 -15q-62 49 -104 100q-46 -53 -104 -100l-15 15q77 97 110 181z" />
    <glyph glyph-name="udieresis" unicode="&#xfc;" horiz-adv-x="542" 
d="M290 402l-1 22q61 0 112 3q43 2 71 5q-4 -52 -4 -140v-120q0 -85 4 -126q2 -16 11.5 -20t49.5 -3l-2 -21q-46 -2 -96 -7q-30 -3 -82 -9q-2 52 -2 87q-72 -87 -171 -87q-77 0 -99 47q-11 22 -11 58q3 189 3 219q0 45 -2 75q-1 12 -11 15.5t-44 3.5l2 21q55 0 103 3
q30 2 76 7q-9 -56 -9 -203q0 -138 5 -164q6 -35 43 -35t64.5 23t42.5 59q9 23 9 57v118q0 61 -3 94q-1 11 -12.5 14t-46.5 4zM184 631h1q24 0 38 -15t14 -40q0 -26 -17.5 -42t-38.5 -16t-36.5 13.5t-15.5 40.5q0 26 15.5 42.5t39.5 16.5zM359 631h1q24 0 38 -15t14 -39
q0 -27 -17 -43t-38 -16q-22 0 -37.5 13.5t-15.5 40.5t15.5 43t39.5 16z" />
    <glyph glyph-name="yacute" unicode="&#xfd;" horiz-adv-x="439" 
d="M-11 406l1 21q90 -3 110 -3q43 0 118 3l4 -21l-30 -4q-12 -1 -14.5 -6t0.5 -17q6 -18 102 -263q51 149 76 247q5 21 -1 28.5t-28 10.5l-34 4l2 21q10 0 39.5 -1.5t44.5 -1.5q13 0 43 1.5t43 1.5l-1 -21q-33 -2 -46 -12t-28 -48q-45 -109 -155 -431q-29 -85 -56.5 -122.5
t-71.5 -37.5q-30 0 -48.5 17.5t-18.5 44.5q0 26 15 40.5t35 14.5q24 0 31 -20q6 -16 11.5 -22.5t16.5 -6.5q29 0 75 151q-16 15 -32 52q-104 269 -139 340q-10 21 -18 28t-25 9zM225 481l-16 12q11 17 47.5 79.5t42.5 71.5q23 36 54 36q27 0 27 -35q0 -23 -33 -56
q-10 -10 -51.5 -45.5t-70.5 -62.5z" />
    <glyph glyph-name="thorn" unicode="&#xfe;" horiz-adv-x="532" 
d="M-13 -236l6 22q41 3 53 8.5t14 20.5q6 102 6 221v449q0 96 -2 138q-1 12 -12 16t-50 3l5 21q29 0 92.5 5t86.5 12q-2 -27 -2 -313q83 71 158 71q73 0 115 -52q43 -55 43 -150q0 -120 -58.5 -185t-160.5 -65q-64 0 -99 29q0 -158 2 -194q2 -20 14 -26t59 -7l-5 -21
q-6 0 -26 0.5t-48 1t-57 0.5q-4 0 -134 -5zM270 11h1q30 0 51.5 21t31.5 55t14.5 67.5t4.5 68.5q0 88 -26 131q-24 37 -66 37q-61 0 -88 -63q-9 -18 -9 -44q-3 -99 -1 -192q0 -23 11 -41q29 -40 76 -40z" />
    <glyph glyph-name="ydieresis" unicode="&#xff;" horiz-adv-x="439" 
d="M-11 406l1 21q90 -3 110 -3q43 0 118 3l4 -21l-30 -4q-12 -1 -14.5 -6t0.5 -17q6 -18 102 -263q51 149 76 247q5 21 -1 28.5t-28 10.5l-34 4l2 21q10 0 39.5 -1.5t44.5 -1.5q13 0 43 1.5t43 1.5l-1 -21q-33 -2 -46 -12t-28 -48q-45 -109 -155 -431q-29 -85 -56.5 -122.5
t-71.5 -37.5q-30 0 -48.5 17.5t-18.5 44.5q0 26 15 40.5t35 14.5q24 0 31 -20q6 -16 11.5 -22.5t16.5 -6.5q29 0 75 151q-16 15 -32 52q-104 269 -139 340q-10 21 -18 28t-25 9zM157 631h1q24 0 38 -15t14 -40q0 -26 -17.5 -42t-38.5 -16t-36.5 13.5t-15.5 40.5
q0 26 15.5 42.5t39.5 16.5zM332 631h1q24 0 38 -15t14 -39q0 -27 -17 -43t-38 -16q-22 0 -37.5 13.5t-15.5 40.5t15.5 43t39.5 16z" />
    <glyph glyph-name="dotlessi" unicode="&#x131;" horiz-adv-x="273" 
d="M255 18v-21q-12 0 -52 1.5t-70 1.5q-32 0 -67 -1.5t-45 -1.5l1 21q35 1 45.5 7t12.5 21q3 57 3 124v101q0 78 -2 110q-1 8 -5.5 11.5t-17 4.5t-34.5 0l1 21q122 7 177 19q-3 -72 -3 -157v-119q0 -80 3 -113q2 -17 11 -22.5t42 -7.5z" />
    <glyph glyph-name="Lslash" unicode="&#x141;" horiz-adv-x="540" 
d="M42 615l2 21q10 0 60.5 -1.5t74.5 -1.5q23 0 68 1.5t68 1.5l3 -21l-49 -4q-15 -2 -21 -7t-7 -18q-4 -70 -4 -160v-67l103 64l20 -22q-114 -68 -123 -73v-96q0 -164 3 -190q1 -10 11 -13.5t42 -3.5q72 0 103 7.5t50 30.5q33 40 55 125l21 -2q-5 -26 -12 -101.5t-9 -88.5
q-22 2 -122 4q-58 1 -206 1q-24 0 -81.5 -2t-65.5 -2v21l48 4q17 2 23.5 7.5t7.5 17.5q5 53 5 152v64q-7 -5 -31 -18.5t-37 -22.5l-20 22q2 1 36 20.5l52 30.5v146q0 107 -2 149q0 12 -5.5 16t-20.5 6z" />
    <glyph glyph-name="lslash" unicode="&#x142;" horiz-adv-x="276" 
d="M28 652l1 21q74 1 178 13q-5 -85 -5 -207v-62q39 24 55 36l19 -23l-74 -45v-168q0 -143 2 -168q1 -19 10.5 -24t46.5 -7l-2 -21q-14 0 -56 1.5t-68 1.5q-28 0 -67 -1.5t-47 -1.5v21q37 1 47.5 7t11.5 26q6 63 6 183v92l-51 -33l-18 24q6 4 32.5 19.5t36.5 22.5v126
q0 121 -2 144q-1 16 -9.5 19.5t-46.5 3.5z" />
    <glyph glyph-name="OE" unicode="&#x152;" horiz-adv-x="982" 
d="M187 311v-1q0 -152 56 -229q45 -63 124 -63q82 0 122 62q20 28 27.5 74t7.5 165q0 158 -12 193q-17 46 -53.5 78.5t-94.5 32.5q-70 0 -110 -52q-67 -88 -67 -260zM595 633h167q42 0 90 2q37 2 52 6q-5 -56 -3 -173h-21q-8 52 -26 90q-14 31 -41.5 40.5t-98.5 9.5h-45
q-15 0 -18 -16q-5 -53 -5 -151v-96q11 -2 63 -2q58 0 80 18t30 69h19q-10 -113 -3 -217h-20q-8 58 -27.5 81t-80.5 23q-50 0 -61 -2v-79q0 -132 3 -187q1 -11 5.5 -15t20.5 -6.5t52 -2.5q67 0 97.5 6.5t51.5 27.5q35 32 60 122l20 -4q-2 -56 -24 -183q-7 1 -18 1.5t-28 1
t-31 1.5q-72 2 -144 2h-102q-78 0 -94 -3q0 30 1 66q-30 -37 -79.5 -58t-107.5 -21q-107 0 -170 44q-120 82 -120 277q0 96 34.5 173.5t95.5 119.5q73 51 174 51q121 0 177 -71v57q42 -2 75 -2z" />
    <glyph glyph-name="oe" unicode="&#x153;" horiz-adv-x="773" 
d="M266 415h-1q-48 0 -74 -46q-28 -52 -28 -159q0 -93 22 -148q22 -52 73 -52q55 0 77 48q24 53 24 164q0 97 -19 143q-20 50 -74 50zM745 115q-42 -129 -182 -129q-110 0 -153 75q-55 -75 -161 -75q-104 0 -160.5 59.5t-56.5 157.5q0 100 63.5 167.5t166.5 67.5
q110 0 160 -81q56 81 152 81q54 0 91 -19t53 -49t22 -54t6 -48q0 -31 -18 -41q-19 -10 -96 -12q-42 -2 -154 -2q-3 -76 24 -129q29 -56 100 -56q47 0 75.5 25t47.5 72zM563 415h-1q-37 0 -58.5 -49t-23.5 -126q20 -2 65 -2q46 0 74 7q17 6 17 38q0 56 -17 94t-56 38z" />
    <glyph glyph-name="Scaron" unicode="&#x160;" horiz-adv-x="487" 
d="M47 203l21 6q-2 -87 40 -143t120 -56q52 0 83.5 29.5t31.5 84.5q0 60 -50 91q-10 6 -68.5 39t-84.5 50q-92 53 -92 157q0 88 55.5 138.5t147.5 50.5q90 0 133 -40l19 45l18 -6q-15 -87 -15 -193l-21 -4q-2 80 -40 127t-94 47q-48 0 -75.5 -30t-27.5 -80q0 -66 61 -99
q39 -24 92.5 -53.5t68.5 -38.5q82 -48 82 -142q0 -97 -67 -148t-173 -51q-87 0 -172 36q4 43 7 183zM255 690l-17 -3q-40 68 -128 121l10 18q82 -28 127 -55q51 29 125 55l11 -18q-86 -54 -128 -118z" />
    <glyph glyph-name="scaron" unicode="&#x161;" horiz-adv-x="393" 
d="M330 288l-20 -6q-3 54 -34 93t-79 39q-33 0 -52 -18t-19 -48q0 -33 33 -52q16 -9 70 -31t69 -29q65 -32 65 -101q0 -75 -53 -111.5t-130 -36.5q-76 0 -138 27q3 68 0 148l19 2q7 -49 23 -81q31 -71 111 -71q39 0 59.5 18.5t20.5 48.5q0 34 -33 52q-18 9 -62.5 28.5
t-50.5 22.5q-83 36 -83 115q0 65 45.5 103t113.5 38q30 0 59 -8.5t41 -19.5l13 36l19 -6q-11 -73 -7 -152zM209 485l-19 -5q-32 89 -109 187l15 14q57 -44 105 -100q49 57 103 100l15 -14q-76 -96 -110 -182z" />
    <glyph glyph-name="Ydieresis" unicode="&#x178;" horiz-adv-x="548" 
d="M435 17l3 -21q-26 0 -83 1.5t-84 1.5q-34 0 -83 -1.5t-69 -1.5l-3 21q12 1 32.5 3.5t29.5 3.5q18 2 26.5 10t9.5 26q5 88 5 201q0 26 -10 47q-17 38 -64.5 125.5t-78.5 135.5q-19 30 -34 38t-54 9l-1 21q8 0 57 -1.5t76 -1.5q36 0 83.5 1.5t59.5 1.5l3 -21l-42 -4
q-20 -2 -11 -25q10 -23 61 -123.5l68 -135.5q85 167 117 249q12 30 -10 33q-8 1 -17 2t-20 2t-17 2l2 21q9 0 44 -1.5t56 -1.5q18 0 49 1.5t47 1.5l3 -21q-42 -2 -59.5 -10.5t-35.5 -36.5q-46 -75 -134 -250q-11 -23 -11 -50q-2 -150 4 -223q2 -20 22 -21q35 -5 63 -8z
M207 798h1q23 0 36.5 -14.5t13.5 -36.5q0 -25 -16.5 -40.5t-36.5 -15.5t-35 13t-15 38t14.5 40.5t37.5 15.5zM391 798h1q23 0 37 -14.5t14 -36.5q0 -25 -16.5 -40.5t-36.5 -15.5q-21 0 -35.5 13t-14.5 38t14 40.5t37 15.5z" />
    <glyph glyph-name="Zcaron" unicode="&#x17d;" horiz-adv-x="596" 
d="M270 632h51q27 0 69 0.5t57 0.5q33 0 101 4q-11 -41 -26 -66l-150 -249l-94.5 -157.5t-82.5 -139.5q130 -1 186.5 3t77.5 13t38 33q29 40 53 132l19 -7q-20 -163 -21 -206q-14 1 -107 6q-41 1 -127 1h-185q-61 0 -93 -3l-7 15q300 477 367 596h-101q-98 0 -132.5 -12.5
t-50.5 -46.5q-17 -34 -37 -114l-19 6q19 117 12 200q32 -7 68 -8q28 -1 134 -1zM311 686l-17 -3q-40 68 -128 121l10 18q82 -28 127 -55q51 29 125 55l11 -18q-86 -54 -128 -118z" />
    <glyph glyph-name="zcaron" unicode="&#x17e;" horiz-adv-x="445" 
d="M66 274l-21 -2q11 99 11 163q15 -6 42 -9q36 -2 68 -2h87q60 0 154 2q-5 -25 -23 -55l-204 -348q90 0 135 7q34 5 53.5 33.5t35.5 100.5l19 -8q-15 -90 -17 -161q-68 5 -261 5q-60 0 -108 -3l-9 15q57 75 136.5 209t98.5 179q-69 0 -110 -5q-28 -3 -41 -11.5t-22 -31.5
q-10 -24 -24 -78zM244 485l-19 -5q-32 89 -109 187l15 14q57 -44 105 -100q49 57 103 100l15 -14q-76 -96 -110 -182z" />
    <glyph glyph-name="longs" unicode="&#x17f;" horiz-adv-x="270" 
d="M21 398l4 24h59v40q0 108 53 164q53 55 125 55q53 0 79.5 -22.5t26.5 -53.5q0 -21 -15.5 -35.5t-41.5 -14.5q-28 0 -28 29q0 71 -38 71q-37 0 -43 -64q-2 -28 -2 -181q-1 -58 -1 -188q0 -101 2 -171q1 -26 21 -30q7 0 19.5 -1.5l20.5 -2.5l-3 -21q-13 0 -50.5 1.5
t-63.5 1.5q-22 0 -66.5 -1.5t-58.5 -1.5l1 21q35 1 46 6t12 18q4 56 4 154v197z" />
    <glyph glyph-name="florin" unicode="&#x192;" horiz-adv-x="488" 
d="M46 323l12 33q46 -2 84 -2q22 156 80 220q60 65 142 65q42 0 69.5 -20t27.5 -53q0 -27 -15.5 -40.5t-38.5 -13.5q-12 0 -22 7t-8 17q4 20 4 34q0 45 -34 45t-49 -65q-16 -64 -31 -196q38 0 120 2l-10 -34q-93 3 -114 3q-27 -203 -44 -286q-26 -132 -112 -186
q-50 -30 -108 -30q-36 0 -61 17.5t-25 42.5q0 23 15.5 37.5t36.5 14.5t30 -26q16 -56 44 -56q19 0 29 18.5t18 64.5q21 133 52 389q-6 0 -92 -2z" />
    <glyph glyph-name="circumflex" unicode="&#x2c6;" horiz-adv-x="456" 
d="M219 675l19 5q28 -84 109 -186l-15 -15q-62 49 -104 100q-46 -53 -104 -100l-15 15q77 97 110 181z" />
    <glyph glyph-name="caron" unicode="&#x2c7;" horiz-adv-x="456" 
d="M237 485l-19 -5q-32 89 -109 187l15 14q57 -44 105 -100q49 57 103 100l15 -14q-76 -96 -110 -182z" />
    <glyph glyph-name="uni02C9" unicode="&#x2c9;" horiz-adv-x="456" 
d="M117 528l10 59h212l-8 -59h-214z" />
    <glyph glyph-name="breve" unicode="&#x2d8;" horiz-adv-x="456" 
d="M125 640h22q5 -44 27 -61q18 -16 54 -16t54 16q20 15 27 61h22q-1 -31 -4.5 -53t-13.5 -44.5t-31.5 -34.5t-54.5 -12q-34 0 -55.5 12t-31 35t-12.5 44.5t-3 52.5z" />
    <glyph glyph-name="dotaccent" unicode="&#x2d9;" horiz-adv-x="371" 
d="M187 635h1q26 0 41 -16.5t15 -42.5q0 -28 -18.5 -44.5t-41.5 -16.5t-39.5 15t-16.5 43q0 27 16.5 44.5t42.5 17.5z" />
    <glyph glyph-name="ring" unicode="&#x2da;" horiz-adv-x="399" 
d="M203 660h1q39 0 63 -22t24 -61q0 -41 -26.5 -64t-66.5 -23t-65 21t-25 60q0 42 26.5 65.5t68.5 23.5zM200 639h-1q-38 0 -38 -63q0 -32 11 -48.5t28 -16.5q38 0 38 66q0 23 -8.5 42.5t-29.5 19.5z" />
    <glyph glyph-name="ogonek" unicode="&#x2db;" horiz-adv-x="456" 
d="M259 10h24q-90 -70 -90 -142q0 -23 12.5 -35.5t31.5 -12.5q36 0 62 29l11 -18q-17 -25 -47.5 -46.5t-72.5 -21.5q-32 0 -52.5 19.5t-20.5 53.5q0 47 43.5 94t98.5 80z" />
    <glyph glyph-name="tilde" unicode="&#x2dc;" horiz-adv-x="456" 
d="M129 504l-23 4q3 47 21 80t55 33q24 0 63 -31q36 -28 49 -28q28 0 32 61l23 -5q-6 -114 -73 -114q-25 0 -66 34q-30 24 -46 24q-30 0 -35 -58z" />
    <glyph glyph-name="hungarumlaut" unicode="&#x2dd;" horiz-adv-x="456" 
d="M163 482l-18 9q36 125 39 133q15 44 47 44q12 0 19 -9.5t7 -24.5q0 -20 -21 -50q-11 -17 -73 -102zM298 482l-17 9q29 104 38 132q15 44 47 44q27 0 27 -33q0 -20 -21 -52z" />
    <glyph glyph-name="pi" unicode="&#x3c0;" horiz-adv-x="474" 
d="M260 377h-118v-52t-0.5 -100.5t-0.5 -97.5q-1 -83 -21 -112t-52 -29q-22 0 -34.5 12.5t-12.5 34.5q0 13 5.5 21t12.5 6q14 -4 25 -3q21 1 32 18t12 66q3 133 -1 236q-23 0 -41.5 -2t-26.5 -3.5t-21.5 -5.5t-16.5 -5q-1 1 -7 19q61 44 139 44h202q31 0 122 7l-7 -57
q-5 0 -32.5 1.5t-40.5 1.5v-310q0 -22 3.5 -31t14.5 -9q14 0 28 15.5t21 50.5l20 -17q-30 -89 -123 -89q-44 0 -62.5 21.5t-18.5 73.5v295z" />
    <glyph glyph-name="figuredash" unicode="&#x2012;" horiz-adv-x="308" 
d="M35 284l11 61q110 -3 228 0l-10 -61q-120 4 -229 0z" />
    <glyph glyph-name="endash" unicode="&#x2013;" horiz-adv-x="534" 
d="M47 200l13 56q210 -2 428 0l-13 -56q-205 2 -428 0z" />
    <glyph glyph-name="emdash" unicode="&#x2014;" horiz-adv-x="915" 
d="M47 200l13 56q90 -1 400.5 -1t407.5 1l-13 -56q-93 1 -403 1t-405 -1z" />
    <glyph glyph-name="quoteleft" unicode="&#x2018;" horiz-adv-x="200" 
d="M168 707l4 -19q-44 -6 -73 -33t-28 -64q0 -11 7 -4q15 12 36 10q22 0 37.5 -16t14.5 -42q0 -24 -18.5 -41.5t-43.5 -17.5q-35 0 -54.5 24.5t-19.5 65.5q0 61 43 97.5t95 39.5z" />
    <glyph glyph-name="quoteright" unicode="&#x2019;" horiz-adv-x="199" 
d="M33 476l-5 19q44 7 73 34t28 64q0 9 -7 4q-13 -11 -36 -11q-21 0 -36.5 15.5t-15.5 42.5q0 24 18.5 41.5t43.5 17.5q35 0 54.5 -24.5t19.5 -65.5q0 -61 -42.5 -97.5t-94.5 -39.5z" />
    <glyph glyph-name="quotesinglbase" unicode="&#x201a;" horiz-adv-x="208" 
d="M33 -108l-6 20q47 6 77.5 33.5t30.5 68.5q0 3 -1 4.5t-2.5 1.5t-3.5 -2q-13 -10 -38 -10q-23 0 -40 16.5t-17 44.5q0 25 20 44t46 19q37 0 58 -27t21 -70q0 -66 -45.5 -103t-99.5 -40z" />
    <glyph glyph-name="quotedblleft" unicode="&#x201c;" horiz-adv-x="372" 
d="M338 707l5 -19q-44 -7 -73 -33.5t-28 -64.5q0 -3 1 -4.5t2.5 -1.5t3.5 2q13 11 36 11q21 0 36.5 -15.5t15.5 -42.5q0 -24 -18.5 -41.5t-43.5 -17.5q-35 0 -54.5 24.5t-19.5 65.5q0 61 42.5 97.5t94.5 39.5zM167 707l5 -20q-44 -6 -73 -33t-28 -64q0 -11 7 -4q14 11 36 11
q21 0 36.5 -15.5t15.5 -42.5q0 -24 -18.5 -41.5t-43.5 -17.5q-35 0 -54.5 24.5t-19.5 65.5q0 61 42.5 97.5t94.5 39.5z" />
    <glyph glyph-name="quotedblright" unicode="&#x201d;" horiz-adv-x="372" 
d="M33 476l-5 19q44 7 73 34t28 64q0 9 -7 4q-13 -11 -36 -11q-21 0 -36.5 15.5t-15.5 42.5q0 24 18.5 41.5t43.5 17.5q35 0 54.5 -24.5t19.5 -65.5q0 -61 -42.5 -97.5t-94.5 -39.5zM204 476l-5 19q45 7 74 33.5t28 64.5q0 3 -1 4.5t-2.5 1.5t-3.5 -2q-14 -11 -36 -11
t-37.5 16t-15.5 42q0 24 19 41.5t44 17.5q35 0 54.5 -24.5t19.5 -65.5q0 -61 -43 -97.5t-95 -39.5z" />
    <glyph glyph-name="quotedblbase" unicode="&#x201e;" horiz-adv-x="389" 
d="M32 -107l-5 20q46 7 76.5 34.5t30.5 67.5q0 3 -1 4.5t-2.5 1.5t-3.5 -2q-13 -10 -38 -10q-23 0 -40 16.5t-16 44.5q0 25 20 43.5t46 18.5q37 0 57.5 -27t20.5 -69q0 -65 -45.5 -102t-99.5 -41zM213 -107l-5 20q46 7 76.5 34.5t30.5 67.5q0 3 -1 4.5t-2.5 1.5t-3.5 -2
q-13 -10 -38 -10q-23 0 -40 16.5t-16 44.5q0 25 19.5 43.5t45.5 18.5q37 0 58 -26.5t21 -69.5q0 -65 -45.5 -102t-99.5 -41z" />
    <glyph glyph-name="dagger" unicode="&#x2020;" horiz-adv-x="498" 
d="M251 586q20 -31 53 -51q10 -5 2 -13q-47 -55 -48 -166q44 1 79 14.5t50 33.5q8 10 13 -1q5 -9 19.5 -25t27.5 -25q9 -7 0 -14q-34 -21 -48 -51q-6 -9 -13 0q-39 45 -128 47q0 -240 40 -385q3 -10 -4 -14q-18 -6 -44 -29q-3 -3 -8 0q-21 19 -44 29q-6 2 -4 13
q40 152 40 386q-90 -2 -127 -47q-8 -10 -14 1q-16 29 -47 50q-10 7 -1 14q33 25 47 50q6 11 14 1q35 -45 128 -48q-1 111 -48 166q-8 8 2 12q32 19 53 52q6 6 10 0z" />
    <glyph glyph-name="daggerdbl" unicode="&#x2021;" horiz-adv-x="496" 
d="M249 589q9 -13 25 -28.5t27 -21.5q7 -3 1 -12q-45 -58 -46 -140q90 3 127 45q9 8 13 -2q11 -19 46 -46q10 -7 0 -14q-31 -22 -47 -47q-5 -9 -13 -1q-41 43 -126 44q1 -71 43 -109q-39 -48 -43 -106q90 2 127 45q8 10 13 0q11 -22 46 -48q11 -8 0 -14q-32 -23 -46 -47
q-6 -9 -14 -1q-39 43 -126 44q1 -108 47 -167q6 -8 -3 -12q-26 -16 -51 -47q-5 -4 -10 1q-26 30 -51 45q-8 6 -3 13q45 64 47 167q-86 -1 -127 -44q-7 -9 -12 1q-15 24 -48 47q-10 6 0 14q34 24 46 48q6 9 13 1q39 -44 128 -46q-4 58 -43 106q43 40 43 109q-86 -1 -127 -44
q-7 -8 -13 1q-13 23 -47 47q-10 7 0 14q35 27 46 46q6 11 13 2q37 -42 128 -45q-1 42 -15 80t-31 59q-5 9 1 13q32 20 52 50q5 5 10 0z" />
    <glyph glyph-name="bullet" unicode="&#x2022;" horiz-adv-x="312" 
d="M156 331h1q47 0 77 -32.5t30 -80.5q0 -49 -31 -80t-77 -31q-44 0 -75.5 31.5t-31.5 79.5t31.5 80.5t75.5 32.5z" />
    <glyph glyph-name="onedotenleader" unicode="&#x2024;" horiz-adv-x="373" 
d="M187 131h1q29 0 48.5 -20.5t19.5 -51.5q0 -32 -20 -52.5t-49 -20.5t-49 20.5t-20 52.5q0 31 20 51.5t49 20.5z" />
    <glyph glyph-name="twodotenleader" unicode="&#x2025;" horiz-adv-x="537" 
d="M134 131h1q29 0 48.5 -20.5t19.5 -51.5q0 -32 -20 -52.5t-49 -20.5t-49 20.5t-20 52.5q0 31 20 51.5t49 20.5zM404 131h1q30 0 49 -21t19 -51q0 -32 -20 -52.5t-49 -20.5t-49 20.5t-20 52.5q0 31 20 51.5t49 20.5z" />
    <glyph glyph-name="ellipsis" unicode="&#x2026;" horiz-adv-x="800" 
d="M134 130h1q29 0 48 -20.5t19 -51.5t-19.5 -51.5t-48.5 -20.5t-49 20.5t-20 51.5t20 51.5t49 20.5zM401 130h1q29 0 48 -20.5t19 -51.5t-19.5 -51.5t-48.5 -20.5t-49 20.5t-20 51.5t20 51.5t49 20.5zM667 130h1q29 0 48 -20.5t19 -51.5t-19.5 -51.5t-48.5 -20.5t-49 20.5
t-20 51.5t20 51.5t49 20.5z" />
    <glyph glyph-name="perthousand" unicode="&#x2030;" horiz-adv-x="986" 
d="M140 -12l-27 24l384 564q-56 -34 -128 -34q-45 0 -77 12q15 -38 15 -87q0 -79 -36 -127.5t-100 -48.5q-63 0 -99.5 41t-36.5 120q0 80 43.5 127t106.5 47q34 0 61 -15l15 10q40 -52 125 -52q91 0 132 48q5 6 26 37l48 5q-340 -495 -452 -671zM192 600h-1q-22 0 -38 -19
q-27 -37 -28 -124q-2 -88 26 -121q16 -18 42 -18q30 0 52.5 37.5t22.5 113.5q0 131 -76 131zM523 348h1q66 0 96 -46t30 -117q0 -76 -36 -123.5t-99 -47.5t-100 41t-37 117q0 82 42 129t103 47zM538 323h-1q-28 0 -43 -21q-26 -39 -26 -122q0 -91 27 -123q14 -17 40 -17
q32 0 54.5 38t22.5 109q0 32 -5.5 60.5t-23.5 52t-45 23.5zM825 348h1q67 0 97 -45t30 -118q0 -77 -36 -124t-99 -47q-64 0 -101 41.5t-37 116.5q0 82 42 129t103 47zM840 323h-1q-27 0 -43 -21q-25 -37 -26 -122q0 -91 27 -123q15 -17 40 -17q33 0 55.5 38t22.5 108
q0 34 -5.5 62.5t-23.5 51.5t-46 23z" />
    <glyph glyph-name="guilsinglleft" unicode="&#x2039;" horiz-adv-x="300" 
d="M235 402l19 -10q-23 -88 -88 -180q73 -99 88 -176l-16 -12q-31 66 -88.5 116.5t-103.5 63.5l7 17q49 16 100.5 66.5t81.5 114.5z" />
    <glyph glyph-name="guilsinglright" unicode="&#x203a;" horiz-adv-x="300" 
d="M65 24l-19 10q24 93 88 180q-73 99 -88 176l16 12q31 -66 88.5 -116.5t103.5 -63.5l-7 -17q-50 -16 -100.5 -66t-81.5 -115z" />
    <glyph glyph-name="fraction" unicode="&#x2044;" horiz-adv-x="95" 
d="M241 673l27 -20l-421 -666l-26 23z" />
    <glyph glyph-name="zero.superior" unicode="&#x2070;" horiz-adv-x="349" 
d="M189 784h1q71 0 108.5 -48t37.5 -123q0 -80 -40 -129.5t-115 -49.5q-73 0 -110 47t-37 125q0 76 41 127t114 51zM188 763h-1q-25 0 -41 -30q-19 -38 -19 -124q0 -79 17 -121q15 -33 43 -33q26 0 41 32q18 42 18 125q0 81 -17 122q-16 29 -41 29z" />
    <glyph glyph-name="four.superior" unicode="&#x2074;" horiz-adv-x="349" 
d="M191 556q4 77 4 172l-126 -162q38 -10 122 -10zM31 539l-8 18q115 130 174 208q43 5 82 19l4 -3q-3 -61 -3 -184v-40q44 4 67 16v-17q-22 -20 -67 -25q0 -34 2 -88q-61 -1 -92 -10l-4 4q3 26 4 90q-121 0 -159 12z" />
    <glyph glyph-name="five.superior" unicode="&#x2075;" horiz-adv-x="349" 
d="M75 575l-16 18q11 29 19.5 97t7.5 92q38 -12 109 -12q54 0 80 6t39 26l12 -10q-15 -59 -54 -77q-26 -14 -83 -14q-51 0 -84 5q-13 -72 -19 -93q18 12 46 23q32 10 64 10q132 0 132 -99q0 -41 -27 -70q-41 -43 -133 -43q-57 0 -93 19.5t-36 51.5q0 17 14 28t34 11
q19 0 26 -28q12 -62 58 -62q60 0 60 84q0 48 -27 66q-16 13 -44 13q-59 0 -85 -42z" />
    <glyph glyph-name="six.superior" unicode="&#x2076;" horiz-adv-x="349" 
d="M301 780l2 -22q-14 5 -36 5q-61 0 -97.5 -40.5t-40.5 -102.5q21 20 47 31q28 13 53 13q52 0 80 -27.5t28 -75.5q0 -62 -45 -94.5t-109 -32.5q-69 0 -109 37.5t-40 107.5q0 107 78 164q56 41 144 41q23 0 45 -4zM186 454h1q30 0 44.5 29t14.5 68q0 32 -13 56.5t-39 24.5
q-44 0 -63 -44q-5 -12 -5 -35q0 -34 15.5 -66.5t44.5 -32.5z" />
    <glyph glyph-name="seven.superior" unicode="&#x2077;" horiz-adv-x="349" 
d="M58 642l-18 4q10 33 15.5 77.5t3.5 59.5q26 -7 140 -7q113 0 128 2l4 -5q-15 -48 -32 -75q-108 -159 -107 -260l-6 -5q-37 0 -59 9q-18 8 -18 24q0 13 8 31q15 36 80.5 111.5t77.5 94.5q-22 3 -99 3q-59 0 -76 -3.5t-23 -14.5q-8 -16 -19 -46z" />
    <glyph glyph-name="eight.superior" unicode="&#x2078;" horiz-adv-x="349" 
d="M195 784h1q45 0 80.5 -21t35.5 -62q0 -25 -21 -41q-4 -3 -45 -28q51 -22 68.5 -43t17.5 -51q0 -43 -40 -73q-45 -32 -112 -32q-63 0 -100.5 24t-37.5 65q0 30 26 49l14 8t18 9.5t20 10.5q-63 30 -63 81q0 37 25 62q37 42 113 42zM182 764h-1q-23 0 -39.5 -13.5
t-16.5 -35.5q0 -24 23 -39t78 -35q29 18 29 55q0 31 -20 49.5t-53 18.5zM191 454h1q27 0 46.5 12.5t19.5 38.5q0 21 -25 39.5t-92 44.5q-35 -17 -35 -58q0 -30 22 -53.5t63 -23.5z" />
    <glyph glyph-name="nine.superior" unicode="&#x2079;" horiz-adv-x="349" 
d="M67 440v20q28 -5 57 0q102 15 115 134q-45 -40 -97 -40q-53 0 -81 28.5t-28 74.5q0 59 44 93t108 34q72 0 110.5 -41.5t38.5 -113.5q0 -104 -75 -156q-55 -39 -140 -39q-24 0 -52 6zM182 763h-1q-28 0 -42.5 -29t-14.5 -66q0 -34 15 -57.5t41 -23.5q39 0 56 34q7 14 7 40
q0 40 -14.5 71t-46.5 31z" />
    <glyph glyph-name="parenleft.superior" unicode="&#x207d;" horiz-adv-x="245" 
d="M224 360l-8 -20q-51 21 -88 60q-74 76 -74 209q0 134 75 211q32 33 87 59l8 -18q-62 -28 -82 -119q-11 -48 -11 -133t11 -134q20 -89 82 -115z" />
    <glyph glyph-name="parenright.superior" unicode="&#x207e;" horiz-adv-x="245" 
d="M43 859l9 20q53 -22 88 -60q74 -74 74 -209q0 -134 -75 -211q-38 -38 -87 -59l-9 18q66 29 84 119q10 50 10 133q0 84 -11 134q-18 89 -83 115z" />
    <glyph glyph-name="n.superior" unicode="&#x207f;" horiz-adv-x="408" 
d="M22 291v20q28 2 34.5 4.5t7.5 14.5q2 34 2 71v52q0 55 -2 73q-1 6 -8.5 8t-34.5 2l1 19q49 -1 124 8q6 -41 7 -50q59 50 113 50q49 0 70 -33q11 -19 11 -53v-96q0 -38 2 -52q1 -10 8 -13.5t34 -4.5l-2 -20q-8 0 -38 1t-48 1q-21 0 -47 -1t-31 -1v20q20 1 25.5 4.5
t7.5 15.5q2 36 2 71q0 85 -6 105q-8 20 -33 20q-39 0 -60 -41q-8 -13 -8 -35v-69q0 -24 2 -54q1 -9 7.5 -12.5t28.5 -4.5l-2 -20q-6 0 -34.5 1t-45.5 1q-19 0 -49 -1t-38 -1z" />
    <glyph glyph-name="zero.inferior" unicode="&#x2080;" horiz-adv-x="349" 
d="M139 232h1q71 0 108.5 -48t37.5 -123q0 -80 -40 -129.5t-115 -49.5q-73 0 -110 47t-37 125q0 76 41 127t114 51zM138 211h-1q-25 0 -41 -30q-19 -38 -19 -124q0 -79 17 -121q15 -33 43 -33q26 0 41 32q18 42 18 125q0 81 -17 122q-16 29 -41 29z" />
    <glyph glyph-name="one.inferior" unicode="&#x2081;" horiz-adv-x="349" 
d="M247 -93l1 -20q-21 0 -59 1.5t-55 1.5q-21 0 -55.5 -1.5t-47.5 -1.5l-2 20l44 4q21 3 22 16q3 48 3 84v94q0 46 -2 80q-1 8 -8 7q-3 -1 -13 -2.5t-21 -3.5l-22 -4l5 24q122 16 148 26l2 -2q0 -4 -1 -43.5t-1 -78.5v-97q0 -45 2 -85q2 -13 17 -14z" />
    <glyph glyph-name="two.inferior" unicode="&#x2082;" horiz-adv-x="349" 
d="M270 15l19 -8q-21 -69 -24 -121q-54 3 -197 3q-62 0 -81 -2l-2 6q1 3 8 20.5l10 25.5q125 63 152 138q10 29 10 64q0 70 -48 70t-48 -63q0 -9 3 -30q3 -10 -7 -17q-11 -8 -28 -8q-44 0 -44 44q0 34 39 65q38 30 101 30q55 0 88 -21q42 -28 42 -82q0 -48 -41 -79
q-36 -28 -147 -94q118 2 161 6q12 0 17 11q10 18 17 42z" />
    <glyph glyph-name="three.inferior" unicode="&#x2083;" horiz-adv-x="349" 
d="M137 232h1q49 0 86 -19t37 -61q0 -39 -42 -59q-14 -7 -67 -21v-3q72 -5 102 -26q28 -20 28 -57q0 -45 -44 -74q-44 -30 -119 -30q-54 0 -92.5 21t-38.5 53q0 17 14 28.5t33 11.5q20 0 26 -26q9 -67 62 -67q59 0 59 76q0 75 -70 75q-18 0 -38 -5l-12 17l2 6q47 2 67 13
q39 19 39 64q0 26 -13 44t-37 18q-52 0 -52 -55q0 -10 2 -24q1 -9 -7 -14t-21 -5q-42 0 -42 36q0 30 37 56.5t100 26.5z" />
    <glyph glyph-name="four.inferior" unicode="&#x2084;" horiz-adv-x="349" 
d="M141 4q4 77 4 172l-126 -162q37 -10 122 -10zM-19 -13l-8 18q115 130 174 208q43 5 82 19l4 -3q-3 -62 -3 -184v-40q44 4 67 16v-17q-22 -20 -67 -25q0 -34 2 -88q-61 -1 -92 -10l-4 4q3 26 4 90q-121 0 -159 12z" />
    <glyph glyph-name="five.inferior" unicode="&#x2085;" horiz-adv-x="349" 
d="M25 23l-16 18q11 29 19.5 97t7.5 92q38 -12 109 -12q54 0 80 6t39 26l12 -10q-15 -59 -54 -77q-26 -14 -83 -14q-52 0 -84 5q-13 -72 -19 -93q50 33 110 33q132 0 132 -99q0 -42 -27 -70q-41 -43 -133 -43q-57 0 -93 19.5t-36 51.5q0 17 14 28t34 11q19 0 26 -28
q12 -62 58 -62q60 0 60 84q0 48 -27 66q-16 13 -44 13q-59 0 -85 -42z" />
    <glyph glyph-name="six.inferior" unicode="&#x2086;" horiz-adv-x="349" 
d="M251 228l2 -22q-14 5 -36 5q-61 0 -97.5 -40.5t-40.5 -102.5q48 44 100 44t80 -27.5t28 -75.5q0 -62 -45 -94.5t-109 -32.5q-69 0 -109 37.5t-40 107.5q0 107 78 164q56 41 144 41q23 0 45 -4zM136 -98h1q30 0 44.5 29t14.5 68q0 32 -13 56.5t-39 24.5q-44 0 -63 -44
q-5 -12 -5 -35q0 -34 15.5 -66.5t44.5 -32.5z" />
    <glyph glyph-name="seven.inferior" unicode="&#x2087;" horiz-adv-x="349" 
d="M8 90l-18 4q10 33 15.5 77.5t3.5 59.5q26 -7 140 -7q113 0 128 2l4 -5q-15 -48 -32 -75q-108 -159 -107 -260l-6 -5q-37 0 -59 9q-18 8 -18 24q0 13 8 31q15 36 80.5 111.5t77.5 94.5q-22 3 -99 3q-59 0 -76 -3.5t-23 -14.5q-8 -16 -19 -46z" />
    <glyph glyph-name="eight.inferior" unicode="&#x2088;" horiz-adv-x="349" 
d="M145 232h1q45 0 80.5 -21t35.5 -62q0 -25 -21 -41q-4 -3 -45 -28q51 -22 68.5 -43t17.5 -51q0 -43 -40 -73q-45 -32 -112 -32q-63 0 -100.5 24t-37.5 65q0 30 26 49l14 8t18 9.5t20 10.5q-63 30 -63 81q0 37 25 62q37 42 113 42zM132 212h-1q-23 0 -39.5 -13.5
t-16.5 -35.5q0 -24 23 -39t78 -35q29 18 29 55q0 31 -20 49.5t-53 18.5zM141 -98h1q27 0 46.5 12.5t19.5 38.5q0 21 -25 39.5t-92 44.5q-35 -17 -35 -58q0 -30 22 -53.5t63 -23.5z" />
    <glyph glyph-name="nine.inferior" unicode="&#x2089;" horiz-adv-x="349" 
d="M17 -112v20q28 -5 57 0q102 15 115 134q-45 -40 -97 -40q-53 0 -81 28.5t-28 74.5q0 59 44 93t108 34q72 0 110.5 -41.5t38.5 -113.5q0 -104 -75 -156q-55 -39 -140 -39q-24 0 -52 6zM132 211h-1q-28 0 -42.5 -29t-14.5 -66q0 -34 15 -57.5t41 -23.5q39 0 56 34
q7 14 7 40q0 40 -14.5 71t-46.5 31z" />
    <glyph glyph-name="parenleft.inferior" unicode="&#x208d;" horiz-adv-x="245" 
d="M174 -192l-8 -20q-51 21 -88 60q-74 76 -74 209q0 134 75 211q32 33 87 59l8 -18q-62 -28 -82 -119q-11 -48 -11 -133q0 -84 11 -134q20 -89 82 -115z" />
    <glyph glyph-name="parenright.inferior" unicode="&#x208e;" horiz-adv-x="245" 
d="M-7 307l9 20q53 -22 88 -60q74 -74 74 -209q0 -134 -75 -211q-38 -38 -87 -59l-9 18q66 29 84 119q10 50 10 133q0 84 -11 134q-18 89 -83 115z" />
    <glyph glyph-name="colonmonetary" unicode="&#x20a1;" horiz-adv-x="491" 
d="M158 306v-1q0 -83 16.5 -150.5t50.5 -92.5q37 469 41 533q-33 -9 -56 -43t-33.5 -81.5t-14.5 -87t-4 -77.5zM363 619q41 -9 70 -34t29 -63q0 -52 -42 -52q-14 0 -20 6q-11 9 -8 19q6 30 6 34q0 51 -38 63q-9 -107 -41 -553q96 14 128 118l18 -9q-14 -60 -53 -95.5
t-94 -45.5l-6 -88l-30 -9l10 94q-25 -2 -46 1q-1 -35 -6 -86l-29 -9l10 99q-53 10 -91.5 39t-59.5 71t-30.5 87.5t-9.5 96.5q0 123 61 214.5t177 104.5l4 77l29 6l-8 -80q15 1 45 -2l4 76l29 6zM336 598q-18 5 -45 3q-21 -259 -42 -553q24 -10 45 -9q29 353 42 559z" />
    <glyph glyph-name="Euro" unicode="&#x20ac;" horiz-adv-x="488" 
d="M199 368l212 1l-9 -30l-204 1q-1 -15 -1 -51l189 2l-9 -32l-179 2q1 -40 7 -75.5t19.5 -73.5t40 -61t63.5 -23q44 0 74 23.5t51 84.5l19 -11q-24 -76 -66 -107t-114 -31q-205 0 -221 274h-57l9 28h47q0 35 2 51h-39l8 28h33q6 50 22.5 93.5t45 82.5t74 61.5t102.5 22.5
q77 0 113 -30.5t36 -69.5q0 -28 -15.5 -43.5t-36.5 -15.5q-15 0 -25 8q-11 9 -8 21q5 18 5 38q0 69 -69 69q-100 0 -119 -237z" />
    <glyph glyph-name="afii61289" unicode="&#x2113;" horiz-adv-x="392" 
d="M350 136l19 -9q-19 -77 -55.5 -106t-93.5 -29q-73 0 -100.5 41.5t-27.5 124.5v46q-9 -6 -28 -15.5t-24 -12.5l-11 19q45 27 61 40v190q0 80 14.5 135.5t38 80t44.5 34t43 9.5q41 0 64.5 -32.5t23.5 -95.5q0 -156 -131 -293v-91q0 -72 16.5 -102t51.5 -30q37 0 57.5 21
t37.5 75zM187 525v-218q86 112 86 256q0 34 -11 66t-34 32q-41 0 -41 -136z" />
    <glyph glyph-name="trademark" unicode="&#x2122;" horiz-adv-x="314" 
d="M61 616h20q40 0 49 3v-7q-1 -6 -1.5 -16.5t-0.5 -22.5l-7 -2q-4 24 -9 29q-4 7 -26 6v-49q0 -11 0.5 -23.5t0.5 -13.5q2 -5 22 -6l-1 -10q-2 0 -17 0.5t-26 0.5q-5 0 -15.5 -0.5t-16.5 -0.5l-1 10q21 1 21 6q2 14 2 38v48q-23 0 -27 -7q-4 -9 -10 -29l-8 1q2 12 3.5 29.5
t1.5 18.5q24 -3 46 -3zM139 608l1 10q18 -1 30 -1q18 0 25 1q3 -13 30 -69q23 51 28 69q9 -1 25 -1q6 0 14.5 0.5t12.5 0.5l1 -10q-17 -1 -17 -6q-1 -4 -1 -21q0 -47 3 -59q0 -8 17 -8v-10q-2 0 -14 0.5t-19 0.5t-19 -0.5t-14 -0.5v10q14 0 16 8q0 3 2 83h-1l-38 -98l-14 -3
q-3 12 -18.5 50l-19.5 48h-1q-1 -32 -1 -74q2 -13 10 -14h11v-10q-4 0 -13.5 0.5t-14.5 0.5q-6 0 -16 -0.5t-12 -0.5v10q12 1 16 3.5t5 10.5q4 51 5 73l-1 3q0 2 -5 2z" />
    <glyph glyph-name="Omega" unicode="&#x2126;" horiz-adv-x="702" 
d="M272 80v5q-209 68 -209 282q0 135 80 209t214 74q130 0 206 -73t76 -206q0 -61 -16 -108.5t-47.5 -80.5t-66 -55.5t-81.5 -41.5v-5h103q60 0 81 14.5t39 70.5l22 -2q-1 -24 -15 -86t-24 -80q-10 0 -30.5 1.5t-52.5 1.5h-178l-4 6q2 8 5.5 23.5l7.5 34t5 23.5
q52 32 82 104t30 174q0 262 -148 262t-148 -268q0 -200 108 -272q2 -10 7 -43.5t6 -37.5l-3 -6h-170q-32 0 -58 -1.5t-36 -1.5q-7 18 -17 77.5t-12 84.5l23 5q20 -58 40.5 -71t83.5 -13h97z" />
    <glyph glyph-name="estimated" unicode="&#x212e;" horiz-adv-x="829" 
d="M760 288h-559q-5 0 -5 -4v-169q0 -12 8 -20q86 -91 212 -91q134 0 222 103h49q-48 -56 -119.5 -88.5t-153.5 -32.5q-143 0 -244 90.5t-101 219.5t101 220t244 91t244.5 -91t101.5 -220v-8zM633 309v171q0 12 -9 21q-86 88 -208 88q-124 0 -211 -90q-9 -9 -9 -22v-168
q0 -4 5 -4h428q4 0 4 4z" />
    <glyph glyph-name="onethird" unicode="&#x2153;" horiz-adv-x="731" 
d="M266 311l1 -20q-21 0 -59 1.5t-55 1.5q-21 0 -55.5 -1.5t-47.5 -1.5l-2 20l44 4q21 3 22 16q3 48 3 84v94q0 46 -2 80q-1 8 -8 7q-3 -1 -13 -2.5t-21 -3.5l-22 -4l5 24q122 16 148 26l2 -2q0 -4 -1 -43.5t-1 -78.5v-97q0 -44 2 -84q2 -14 17 -15zM547 668l27 -21
l-417 -657l-26 22zM549 380h1q49 0 86.5 -19.5t37.5 -61.5q0 -38 -42 -58q-23 -11 -68 -21v-3q72 -5 103 -26q28 -20 28 -57q0 -46 -44 -75q-44 -30 -119 -30q-55 0 -93.5 21t-38.5 53q0 17 13.5 29t33.5 12q12 0 17.5 -6t8.5 -21q9 -67 63 -67q59 0 59 77q0 75 -71 75
q-18 0 -38 -5l-13 17l3 6q47 2 67 13q39 19 39 63q0 27 -13 45t-37 18q-52 0 -52 -56q0 -9 2 -23q1 -9 -7 -14t-21 -5q-42 0 -42 35q0 31 37 57.5t100 26.5z" />
    <glyph glyph-name="twothirds" unicode="&#x2154;" horiz-adv-x="731" 
d="M307 419l19 -7q-21 -70 -24 -122q-54 3 -196 3q-62 0 -81 -2l-2 6q1 3 8 20.5l10 25.5q124 63 151 138q10 29 10 64q0 70 -47 70q-48 0 -48 -63q0 -9 3 -30q1 -10 -7 -17q-11 -8 -28 -8q-44 0 -44 44q0 34 39 65q38 30 100 30q55 0 88 -21q42 -28 42 -82q0 -48 -41 -79
q-34 -26 -146 -94q122 4 160 7q11 0 17 10q12 23 17 42zM572 667l27 -20l-417 -657l-25 22zM559 380h1q48 0 85.5 -19.5t37.5 -61.5q0 -37 -42 -59q-25 -10 -68 -20l1 -3q72 -5 102 -26q28 -20 28 -57q0 -46 -44 -75q-44 -30 -119 -30q-54 0 -92.5 21t-38.5 53q0 17 13.5 29
t33.5 12q12 0 17.5 -6t8.5 -21q9 -67 62 -67q59 0 59 77q0 75 -70 75q-20 0 -38 -5l-13 17l3 6q46 2 66 13q39 19 39 63q0 26 -12.5 44t-36.5 18q-52 0 -52 -55q0 -11 2 -23q1 -9 -7 -14t-21 -5q-42 0 -42 35q0 31 37 57.5t100 26.5z" />
    <glyph glyph-name="oneeighth" unicode="&#x215b;" horiz-adv-x="731" 
d="M267 311l1 -20q-21 0 -59 1.5t-55 1.5q-21 0 -55.5 -1.5t-47.5 -1.5l-2 20l44 4q21 3 22 16q3 48 3 84v94q0 46 -2 80q-1 8 -8 7q-3 -1 -13 -2.5t-21 -3.5l-22 -4l5 24q122 16 148 26l2 -2q0 -4 -1 -43.5t-1 -78.5v-97q0 -44 2 -84q2 -14 17 -15zM549 668l27 -21
l-418 -656l-25 22zM547 380h1q45 0 80.5 -21t35.5 -62q0 -26 -21 -42q-18 -13 -45 -27q52 -22 69 -42.5t17 -50.5q0 -43 -41 -74q-45 -31 -112 -31q-62 0 -99.5 24t-37.5 64q0 29 27 49q5 4 52 28q-34 16 -48.5 34.5t-14.5 46.5q0 35 25 62q37 42 112 42zM535 360h-1
q-23 0 -39.5 -13.5t-16.5 -35.5q0 -23 23 -39q30 -19 78 -35q29 19 29 55q0 31 -20 49.5t-53 18.5zM544 51h1q26 0 45.5 12.5t19.5 38.5q0 21 -24.5 39t-92.5 44q-35 -17 -35 -57q0 -30 22.5 -53.5t63.5 -23.5z" />
    <glyph glyph-name="threeeighths" unicode="&#x215c;" horiz-adv-x="731" 
d="M180 636h1q49 0 86 -19t37 -61q0 -39 -42 -59q-14 -7 -67 -21v-3q71 -5 103 -26q28 -20 28 -57q0 -45 -44 -74q-44 -30 -119 -30q-55 0 -93.5 21t-38.5 53q0 17 14 28.5t33 11.5q12 0 17.5 -6t8.5 -21q9 -66 63 -66q59 0 59 76q0 75 -71 75q-18 0 -38 -5l-12 17l2 6
q47 2 67 13q39 19 39 64q0 26 -13 44t-37 18q-52 0 -52 -55q0 -10 2 -24q1 -9 -7 -14t-21 -5q-42 0 -42 36q0 30 37 56.5t100 26.5zM564 668l27 -20l-417 -657l-25 22zM559 380h1q45 0 80 -21t35 -62q0 -25 -21 -42q-7 -5 -44 -27q52 -22 69 -42.5t17 -50.5q0 -43 -41 -74
q-45 -31 -112 -31q-62 0 -99.5 24t-37.5 65q0 30 27 48q5 4 52 28q-63 30 -63 82q0 36 25 61q37 42 112 42zM546 360h-1q-23 0 -39 -13.5t-16 -35.5q0 -21 22 -39q23 -14 78 -35q29 18 29 55q0 31 -20 49.5t-53 18.5zM556 51h1q26 0 45.5 12.5t19.5 38.5q0 21 -24.5 39
t-92.5 45q-35 -18 -35 -58q0 -30 22.5 -53.5t63.5 -23.5z" />
    <glyph glyph-name="fiveeighths" unicode="&#x215d;" horiz-adv-x="731" 
d="M73 427l-16 17q11 30 19.5 98t7.5 92q38 -12 109 -12q54 0 80 6t39 26l12 -10q-15 -59 -54 -77q-26 -14 -83 -14q-52 0 -84 5q-13 -72 -19 -93q50 33 110 33q132 0 132 -99q0 -40 -27 -70q-41 -43 -133 -43q-57 0 -93 19.5t-36 52.5q0 16 14 27t34 11q19 0 26 -28
q12 -62 58 -62q60 0 60 84q0 48 -27 66q-16 13 -44 13q-59 0 -85 -42zM566 668l27 -20l-417 -657l-26 22zM559 380h1q45 0 80.5 -21t35.5 -62q0 -25 -21 -42q-10 -8 -45 -27q52 -22 69 -42.5t17 -50.5q0 -43 -41 -74q-45 -31 -111 -31q-62 0 -99.5 24t-37.5 65q0 30 27 48
q2 2 51 28q-63 30 -63 82q0 34 25 61q37 42 112 42zM547 360h-1q-23 0 -39.5 -13.5t-16.5 -35.5q0 -23 23 -39q23 -15 78 -35q29 19 29 55q0 31 -20 49.5t-53 18.5zM556 51h1q26 0 45.5 12.5t19.5 38.5q0 21 -24.5 39t-91.5 45q-35 -18 -35 -58q0 -30 22 -53.5t63 -23.5z
" />
    <glyph glyph-name="seveneighths" unicode="&#x215e;" horiz-adv-x="731" 
d="M69 494l-18 4q10 33 15.5 77.5t3.5 59.5q26 -7 140 -7q113 0 129 2l3 -5q-12 -47 -32 -75q-108 -160 -107 -260l-6 -5q-37 0 -59 9q-18 8 -18 24q0 13 8 31q15 36 80.5 111.5t77.5 94.5q-21 3 -99 3q-59 0 -76.5 -3.5t-22.5 -15.5q-8 -14 -19 -45zM527 668l27 -20
l-418 -657l-25 22zM540 380h1q45 0 80.5 -21t35.5 -62q0 -25 -21 -42q-7 -5 -44 -27q52 -22 69 -42.5t17 -50.5q0 -43 -41 -74q-45 -31 -112 -31q-62 0 -99.5 24t-37.5 65q0 30 27 48q2 2 51 28q-63 30 -63 81q0 37 25 62q37 42 112 42zM528 360h-1q-23 0 -39.5 -13.5
t-16.5 -35.5q0 -23 23 -39q23 -15 78 -35q29 19 29 55q0 31 -20 49.5t-53 18.5zM538 51h1q26 0 45.5 12.5t19.5 38.5q0 21 -24.5 39t-92.5 44q-35 -17 -35 -57q0 -30 22.5 -53.5t63.5 -23.5z" />
    <glyph glyph-name="uni2190" unicode="&#x2190;" horiz-adv-x="577" 
d="M547 218h-419l201 -179l-32 -42l-269 245v2l269 245l32 -42l-201 -179h419v-50z" />
    <glyph glyph-name="uni2192" unicode="&#x2192;" horiz-adv-x="577" 
d="M28 268h419l-200 179l32 42l268 -245v-2l-268 -245l-32 42l200 179h-419v50z" />
    <glyph glyph-name="partialdiff" unicode="&#x2202;" horiz-adv-x="488" 
d="M58 560q-5 10 2 38t17 37q11 10 42 18.5t73 8.5q46 0 89.5 -21t80 -61t59 -106.5t22.5 -149.5q0 -152 -64 -243.5t-175 -91.5q-82 0 -125 44.5t-43 123.5q0 82 51.5 135.5t138.5 53.5q76 0 108 -45h3q7 61 7 117q0 212 -136 212q-42 0 -80.5 -20.5t-64.5 -50.5zM215 11h1
q41 0 71.5 76.5t43.5 183.5q-25 41 -73 41t-79 -48t-31 -127q0 -65 19 -95.5t48 -30.5z" />
    <glyph glyph-name="Delta" unicode="&#x2206;" horiz-adv-x="565" 
d="M533 -3q-7 0 -30 1t-60.5 1.5t-81.5 0.5h-328v22l190 551q7 24 13 55q72 3 106 18q81 -303 191 -626v-23zM245 559l-67 -208t-85 -274q-7 -27 15 -31q32 -7 129 -7q92 0 123 4q10 1 14 2.5t7 8t-2 18.5l-71 257.5z" />
    <glyph glyph-name="product" unicode="&#x220f;" horiz-adv-x="663" 
d="M105 137v301q0 123 -2 157q-1 20 -12 26t-54 7l1 21q11 0 55.5 -1.5t68.5 -1.5h333q27 0 75.5 1.5t55.5 1.5l1 -21q-41 -1 -52.5 -7t-12.5 -25q-4 -70 -4 -149v-320q0 -130 5 -178q1 -16 12.5 -21.5t53.5 -7.5l-2 -21q-93 3 -134 3t-125 -3l1 21q38 2 48.5 8t12.5 25
q4 92 4 158v476q0 18 -4.5 23.5t-19.5 7.5q-17 2 -80 2q-58 0 -76 -2q-15 -2 -20 -7.5t-5 -23.5v-480q0 -112 3 -154q1 -19 12.5 -25t51.5 -8v-21q-16 0 -61 1.5t-76 1.5q-23 0 -66 -1.5t-61 -1.5v21q43 1 54.5 7.5t13.5 25.5q5 60 5 184z" />
    <glyph glyph-name="summation" unicode="&#x2211;" horiz-adv-x="526" 
d="M31 629v18q15 0 71.5 -1.5t82.5 -1.5h131q100 0 131 7q-2 -23 -3 -81.5t1 -85.5l-22 -2q-10 47 -28 90q-12 25 -34 35.5t-81 10.5h-91q-21 0 -14 -14l141 -292l-188 -309q-6 -10 11 -13q27 -5 130 -5q86 0 117.5 5t46.5 18q27 25 47 92l21 -6q-2 -23 -18.5 -101
t-23.5 -98q-68 5 -177 5h-76q-38 0 -102 -1.5t-76 -1.5v19q92 131 199 316z" />
    <glyph glyph-name="minus" unicode="&#x2212;" horiz-adv-x="485" 
d="M48 252h389v-48h-389v48z" />
    <glyph glyph-name="uni2215" unicode="&#x2215;" horiz-adv-x="95" 
d="M241 673l27 -20l-421 -666l-26 23z" />
    <glyph glyph-name="uni2219" unicode="&#x2219;" horiz-adv-x="312" 
d="M156 331h1q47 0 77 -32.5t30 -80.5q0 -49 -31 -80t-77 -31q-44 0 -75.5 31.5t-31.5 79.5t31.5 80.5t75.5 32.5z" />
    <glyph glyph-name="radical" unicode="&#x221a;" horiz-adv-x="529" 
d="M511 779l-192 -928h-20l-185 430l-65 -31l-9 25l136 66l98 -243q28 -64 41 -113h2q4 29 20 111l136 683h38z" />
    <glyph glyph-name="infinity" unicode="&#x221e;" horiz-adv-x="634" 
d="M463 98h-1q-30 0 -58 15t-43 30t-44 48q-28 -31 -43 -46t-45 -31t-63 -16q-53 0 -86.5 34t-33.5 93q0 52 37 89.5t90 37.5q21 0 37.5 -4t34.5 -18l24 -18.5t27.5 -28.5t22.5 -25q26 30 43 46.5t47 32t62 15.5q50 0 83.5 -35.5t33.5 -90.5q0 -52 -37 -90t-88 -38zM173 143
h1q23 0 46.5 14t34 25.5l34.5 38.5q-4 5 -20 23.5t-23 25.5t-21 18.5t-26.5 16t-26.5 4.5q-35 0 -56.5 -24t-21.5 -60q0 -37 22.5 -59.5t56.5 -22.5zM463 143h1q34 0 55 23.5t21 59.5q0 38 -20 60.5t-54 22.5q-24 0 -48.5 -15t-35.5 -26.5l-36 -39.5q3 -4 15 -17.5l16 -18
t14.5 -15t17 -14.5l16 -10t19 -8t19.5 -2z" />
    <glyph glyph-name="integral" unicode="&#x222b;" horiz-adv-x="342" 
d="M329 730v-1q0 -17 -10.5 -27t-28.5 -10q-14 0 -22.5 7t-12 16t-11 16t-19.5 7q-39 0 -34 -117q2 -36 13.5 -222t13.5 -271q3 -148 -35.5 -235.5t-116.5 -87.5q-29 0 -45.5 12.5t-16.5 34.5q0 17 12 29t32 12q22 0 36.5 -22t32.5 -22q38 0 33 147q-2 65 -11.5 217
t-11.5 203q-20 359 144 359q26 0 42 -13t16 -32z" />
    <glyph glyph-name="approxequal" unicode="&#x2248;" horiz-adv-x="487" 
d="M394 360l40 -18q-14 -48 -40 -70t-70 -22q-35 0 -102 36q-43 23 -68 23q-48 0 -70 -56l-38 20q30 84 110 84q37 0 99 -34q47 -25 73 -25q49 0 66 62zM394 210l40 -18q-14 -49 -40.5 -71t-70.5 -22q-36 0 -101 36q-44 24 -68 24q-48 0 -70 -56l-38 20q30 84 111 84
q39 0 100 -35q45 -25 72 -25q48 0 65 63z" />
    <glyph glyph-name="notequal" unicode="&#x2260;" horiz-adv-x="485" 
d="M48 334h220q26 52 46 97q18 -7 39 -19l-36 -78h120v-48h-142l-54 -117h196v-48h-218l-45 -96q-21 12 -39 19l35 77h-122v48h144l54 117h-198v48z" />
    <glyph glyph-name="lessequal" unicode="&#x2264;" horiz-adv-x="471" 
d="M64 253v52l344 168v-56l-290 -137v-2l290 -137v-57zM64 53h344v-48h-344v48z" />
    <glyph glyph-name="greaterequal" unicode="&#x2265;" horiz-adv-x="471" 
d="M408 304v-51l-344 -169v57l290 137v2l-290 137v56zM64 53h344v-48h-344v48z" />
    <glyph glyph-name="blacksquare" unicode="&#x25a0;" horiz-adv-x="353" 
d="M54 370h244v-251h-244v251z" />
    <glyph glyph-name="blackrightpointingtriangle" unicode="&#x25b6;" horiz-adv-x="518" 
d="M64 46q1 397 0 397h1l414 -196v-1l-414 -201z" />
    <glyph glyph-name="whiterightpointingtriangle" unicode="&#x25b7;" horiz-adv-x="518" 
d="M110 371l1 -252l265 128zM64 47q1 397 0 397h1l414 -196v-1l-414 -201z" />
    <glyph glyph-name="blackleftpointingtriangle" unicode="&#x25c0;" horiz-adv-x="518" 
d="M454 442q-1 -397 0 -397h-1l-414 196v1l414 201z" />
    <glyph glyph-name="whiteleftpointingtriangle" unicode="&#x25c1;" horiz-adv-x="518" 
d="M407 119v252l-266 -128zM454 443q-1 -397 0 -397h-1l-414 196v1l414 201z" />
    <glyph glyph-name="blackdiamond" unicode="&#x25c6;" horiz-adv-x="410" 
d="M32 247l171 171l174 -177l-170 -171z" />
    <glyph glyph-name="fisheye" unicode="&#x25c9;" horiz-adv-x="399" 
d="M200 418h1q67 0 112.5 -48t45.5 -116t-46 -115.5t-113 -47.5t-113.5 47.5t-46.5 115.5q0 69 46.5 116.5t113.5 47.5zM200 374h-1q-46 0 -77 -35t-31 -85t31 -84.5t78 -34.5t77.5 35t30.5 84t-30.5 84.5t-77.5 35.5zM200 319h-1q-25 0 -42 -19t-17 -46t17 -46t43 -19
t42.5 19.5t16.5 45.5q0 27 -16.5 46t-42.5 19z" />
    <glyph glyph-name="lozenge" unicode="&#x25ca;" horiz-adv-x="521" 
d="M472 300l-191 -342h-51l-180 337l180 346h56zM412 294l-153 302h-2l-147 -296l147 -292h1z" />
    <glyph glyph-name="uni2610" unicode="&#x2610;" horiz-adv-x="775" 
d="M120 601h563v-573l-48 -46h-560v577zM108 545v-529h515v529h-515z" />
    <glyph glyph-name="uni2611" unicode="&#x2611;" horiz-adv-x="775" 
d="M120 601h563v-573l-48 -46h-560v577zM108 545v-529h515v529h-515zM479 475q9 13 38.5 25t53.5 14l2 -3q-27 -30 -55 -70t-60 -96.5l-50 -90.5l-54.5 -106.5l-45.5 -89.5h-4q-19 16 -69.5 105t-50.5 109q5 11 23.5 27.5t28.5 18.5l1 1q6 -28 32 -93.5t43 -98.5
q102 260 167 348z" />
    <glyph glyph-name="A.sc" unicode="&#xe000;" horiz-adv-x="515" 
d="M526 18v-21q-19 0 -60.5 1.5t-65.5 1.5q-26 0 -70 -1.5t-59 -1.5l-1 21q37 4 45.5 9.5t5.5 18.5q-8 32 -38 137q-34 2 -74 2q-47 0 -73 -2q-32 -106 -36 -125q-2 -20 11 -28.5t59 -11.5l1 -21q-14 0 -45 1.5t-49 1.5q-11 0 -42.5 -1.5t-49.5 -1.5v21q36 3 50 12t27 41
q32 73 128 366q7 24 12 50q22 -1 57.5 3t51.5 11q31 -110 78.5 -257.5t68.5 -198.5q9 -20 36 -24zM213 428l-29 -92.5l-38 -122.5q26 -2 65 -2q37 0 63 2z" />
    <glyph glyph-name="AE.sc" unicode="&#xe001;" horiz-adv-x="720" 
d="M377 489h155q73 0 122 7q-4 -32 -2 -153l-21 -3q-7 48 -22 81q-12 24 -35 33t-81 9h-36q-13 0 -14 -12q-3 -21 -3 -118v-83h49q42 0 59.5 15.5t24.5 58.5h20q-8 -105 -2 -191l-22 1q-6 48 -21.5 68t-61.5 20q-35 0 -46 -1v-41q0 -95 3 -135q2 -11 11.5 -15t44.5 -4
q59 0 86 6.5t42 26.5q32 40 48 112l21 -4q-2 -59 -20 -172q-170 5 -187 5h-112q-7 0 -30 -0.5t-37 -0.5q-50 -2 -68 -2v22l47 5q24 1 25 25q4 56 4 138v35q-103 0 -137 -2q-64 -127 -81 -166q-5 -13 1 -20t28 -10l50 -5l-1 -22q-24 0 -56 1.5t-46 1.5q-15 0 -47.5 -1.5
t-51.5 -1.5v21q35 3 52 13t36 43q32 54 205 376q7 14 -9 16l-71 5l-2 22q15 0 55.5 -1.5t75 -2t58.5 -0.5zM318 250v211h-11q-24 -41 -109 -211q44 -2 120 0z" />
    <glyph glyph-name="Aacute.sc" unicode="&#xe002;" horiz-adv-x="515" 
d="M526 18v-21q-19 0 -60.5 1.5t-65.5 1.5q-26 0 -70 -1.5t-59 -1.5l-1 21q37 4 45.5 9.5t5.5 18.5q-8 32 -38 137q-34 2 -74 2q-47 0 -73 -2q-32 -106 -36 -125q-2 -20 11 -28.5t59 -11.5l1 -21q-14 0 -45 1.5t-49 1.5q-11 0 -42.5 -1.5t-49.5 -1.5v21q36 3 50 12t27 41
q32 73 128 366q7 24 12 50q22 -1 57.5 3t51.5 11q31 -110 78.5 -257.5t68.5 -198.5q9 -20 36 -24zM213 428l-29 -92.5l-38 -122.5q26 -2 65 -2q37 0 63 2zM235 544l-14 14q12 15 52.5 69.5t49.5 65.5q26 30 52 30q31 0 31 -31q0 -34 -41 -61q-7 -5 -26 -17.5l-48.5 -32z" />
    <glyph glyph-name="Acircumflex.sc" unicode="&#xe003;" horiz-adv-x="515" 
d="M526 18v-21q-19 0 -60.5 1.5t-65.5 1.5q-26 0 -70 -1.5t-59 -1.5l-1 21q37 4 45.5 9.5t5.5 18.5q-8 32 -38 137q-34 2 -74 2q-47 0 -73 -2q-32 -106 -36 -125q-2 -20 11 -28.5t59 -11.5l1 -21q-14 0 -45 1.5t-49 1.5q-11 0 -42.5 -1.5t-49.5 -1.5v21q36 3 50 12t27 41
q32 73 128 366q7 24 12 50q22 -1 57.5 3t51.5 11q31 -110 78.5 -257.5t68.5 -198.5q9 -20 36 -24zM213 428l-29 -92.5l-38 -122.5q26 -2 65 -2q37 0 63 2zM249 722l18 4q30 -74 113 -170l-14 -14q-67 45 -108 88q-47 -45 -108 -88l-15 14q80 90 114 166z" />
    <glyph glyph-name="Adieresis.sc" unicode="&#xe004;" horiz-adv-x="515" 
d="M526 18v-21q-19 0 -60.5 1.5t-65.5 1.5q-26 0 -70 -1.5t-59 -1.5l-1 21q37 4 45.5 9.5t5.5 18.5q-8 32 -38 137q-34 2 -74 2q-47 0 -73 -2q-32 -106 -36 -125q-2 -20 11 -28.5t59 -11.5l1 -21q-14 0 -45 1.5t-49 1.5q-11 0 -42.5 -1.5t-49.5 -1.5v21q36 3 50 12t27 41
q32 73 128 366q7 24 12 50q22 -1 57.5 3t51.5 11q31 -110 78.5 -257.5t68.5 -198.5q9 -20 36 -24zM213 428l-29 -92.5l-38 -122.5q26 -2 65 -2q37 0 63 2zM173 674h1q23 0 37 -15.5t14 -39.5q0 -27 -16.5 -43t-37.5 -16q-22 0 -37 14t-15 41q0 26 15 42.5t39 16.5zM350 674
h1q23 0 36.5 -15.5t13.5 -39.5q0 -27 -16.5 -43t-37.5 -16q-22 0 -37 14t-15 41q0 26 15 42.5t40 16.5z" />
    <glyph glyph-name="Agrave.sc" unicode="&#xe005;" horiz-adv-x="515" 
d="M526 18v-21q-19 0 -60.5 1.5t-65.5 1.5q-26 0 -70 -1.5t-59 -1.5l-1 21q37 4 45.5 9.5t5.5 18.5q-8 32 -38 137q-34 2 -74 2q-47 0 -73 -2q-32 -106 -36 -125q-2 -20 11 -28.5t59 -11.5l1 -21q-14 0 -45 1.5t-49 1.5q-11 0 -42.5 -1.5t-49.5 -1.5v21q36 3 50 12t27 41
q32 73 128 366q7 24 12 50q22 -1 57.5 3t51.5 11q31 -110 78.5 -257.5t68.5 -198.5q9 -20 36 -24zM213 428l-29 -92.5l-38 -122.5q26 -2 65 -2q37 0 63 2zM277 544q-120 83 -126 88q-34 25 -34 54q0 17 10 26.5t25 9.5q25 0 48 -30l90 -134z" />
    <glyph glyph-name="Aring.sc" unicode="&#xe006;" horiz-adv-x="515" 
d="M526 18v-21q-19 0 -60.5 1.5t-65.5 1.5q-26 0 -70 -1.5t-59 -1.5l-1 21q37 4 45.5 9.5t5.5 18.5q-8 32 -38 137q-34 2 -74 2q-47 0 -73 -2q-32 -106 -36 -125q-2 -20 11 -28.5t59 -11.5l1 -21q-14 0 -45 1.5t-49 1.5q-11 0 -42.5 -1.5t-49.5 -1.5v21q36 3 50 12t27 41
q32 73 128 366q7 24 12 50q22 -1 57.5 3t51.5 11q31 -110 78.5 -257.5t68.5 -198.5q9 -20 36 -24zM213 428l-29 -92.5l-38 -122.5q26 -2 65 -2q37 0 63 2zM260 718h1q39 0 63.5 -22.5t24.5 -62.5q0 -42 -27 -66.5t-67 -24.5t-65.5 22.5t-25.5 62.5q0 43 26.5 67t69.5 24z
M257 696h-1q-38 0 -38 -65q0 -66 39 -66t39 68q0 63 -39 63z" />
    <glyph glyph-name="Atilde.sc" unicode="&#xe007;" horiz-adv-x="515" 
d="M526 18v-21q-19 0 -60.5 1.5t-65.5 1.5q-26 0 -70 -1.5t-59 -1.5l-1 21q37 4 45.5 9.5t5.5 18.5q-8 32 -38 137q-34 2 -74 2q-47 0 -73 -2q-32 -106 -36 -125q-2 -20 11 -28.5t59 -11.5l1 -21q-14 0 -45 1.5t-49 1.5q-11 0 -42.5 -1.5t-49.5 -1.5v21q36 3 50 12t27 41
q32 73 128 366q7 24 12 50q22 -1 57.5 3t51.5 11q31 -110 78.5 -257.5t68.5 -198.5q9 -20 36 -24zM213 428l-29 -92.5l-38 -122.5q26 -2 65 -2q37 0 63 2zM159 558l-24 4q3 49 22 81.5t56 32.5q25 0 65 -31q37 -27 50 -27q29 0 35 61l23 -5q-8 -115 -75 -115q-25 0 -69 33
q-31 25 -44 25q-15 0 -25.5 -15.5t-13.5 -43.5z" />
    <glyph glyph-name="B.sc" unicode="&#xe008;" horiz-adv-x="539" 
d="M20 -3v21q43 2 55 6.5t13 15.5q3 63 3 137v151q0 96 -2 121q-1 11 -14 16t-51 6v22q12 0 56 -2t66 -2q28 0 87 2t77 2q94 0 132 -29q33 -26 33 -79q0 -71 -63 -97q-36 -17 -85 -21v-5q88 -4 133 -30q46 -28 46 -92q0 -70 -59 -107q-53 -35 -172 -35q-23 0 -71.5 1
t-66.5 1q-33 0 -117 -3zM213 355v-82q8 -1 39 -1q49 0 73 24.5t24 78.5q0 41 -17 64q-20 29 -80 29q-36 0 -36 -14q-3 -30 -3 -99zM213 246v-100q0 -84 3 -105q2 -19 42 -19q68 0 94 36q21 29 21 81q0 58 -27 82q-30 27 -93 27q-26 0 -40 -2z" />
    <glyph glyph-name="C.sc" unicode="&#xe009;" horiz-adv-x="532" 
d="M483 308l-22 -1q-7 79 -41 124q-37 47 -99 47q-60 0 -97 -45q-49 -62 -49 -186q0 -56 14.5 -103.5t37.5 -72.5q41 -45 109 -45q103 0 149 117l20 -12q-27 -76 -78.5 -111t-136.5 -35q-135 0 -196 71q-58 64 -58 181q0 132 83 204q70 63 188 63q104 0 148 -46l16 49l21 -5
q-12 -82 -9 -194z" />
    <glyph glyph-name="Ccedilla.sc" unicode="&#xe00a;" horiz-adv-x="530" 
d="M319 -14l-23 -36q29 -5 51 -22.5t22 -50.5q0 -38 -26 -60.5t-68 -22.5q-33 0 -60 19l9 22q18 -12 45 -12q39 0 39 34q0 18 -17.5 28t-46.5 10l-5 11l54 79h-11q-127 2 -190 72q-56 64 -56 181q0 131 83 203q70 63 188 63q103 0 148 -47l16 50l21 -4q-12 -81 -9 -195
l-22 -1q-7 80 -41 124q-37 47 -99 47q-60 0 -97 -45q-49 -62 -49 -187q0 -56 14.5 -103t37.5 -72q42 -45 109 -45q103 0 150 115l19 -12q-25 -68 -69.5 -103t-116.5 -40z" />
    <glyph glyph-name="D.sc" unicode="&#xe00b;" horiz-adv-x="594" 
d="M93 192v139q0 39 -0.5 75t-0.5 38q-1 18 -19 21l-49 5l1 22q7 0 53 -1.5t66 -1.5q31 0 79 2q50 2 70 2q112 0 171 -35q43 -25 68 -77.5t25 -123.5q0 -185 -148 -240q-58 -20 -143 -20q-4 0 -124 3q-28 0 -74 -2t-52 -2l2 22l40 3q17 2 23 6.5t7 14.5q5 40 5 150zM215 322
v-134q0 -114 2 -148q2 -18 40 -18q89 0 128 50q41 56 41 182q0 117 -40 165q-39 48 -126 48q-39 0 -41 -16q-4 -56 -4 -129z" />
    <glyph glyph-name="E.sc" unicode="&#xe00c;" horiz-adv-x="496" 
d="M24 471v22q8 0 54 -2q44 -2 75 -2h155q88 0 124 9q-7 -52 -3 -152l-21 -3q-7 44 -22 77q-12 25 -35 34t-78 9h-39q-16 0 -16 -13q-3 -31 -3 -107v-77q8 -1 43 -1q43 0 59.5 15t23.5 60h21q-8 -101 -2 -188h-22q-6 47 -21.5 66.5t-59.5 19.5q-34 0 -42 -1v-63
q0 -102 2 -131q1 -11 11.5 -14.5t46.5 -3.5q59 0 86 6.5t43 26.5q28 34 49 105l19 -4q-2 -60 -22 -164q-82 5 -187 5h-110q-11 0 -36 -0.5t-38 -0.5q-50 -2 -62 -2v21l46 5q25 2 26 25q4 36 4 135v147q0 89 -2 116q0 11 -4.5 15.5t-18.5 5.5z" />
    <glyph glyph-name="Eacute.sc" unicode="&#xe00d;" horiz-adv-x="496" 
d="M24 471v22q8 0 54 -2q44 -2 75 -2h155q88 0 124 9q-7 -52 -3 -152l-21 -3q-7 44 -22 77q-12 25 -35 34t-78 9h-39q-16 0 -16 -13q-3 -31 -3 -107v-77q8 -1 43 -1q43 0 59.5 15t23.5 60h21q-8 -101 -2 -188h-22q-6 47 -21.5 66.5t-59.5 19.5q-34 0 -42 -1v-63
q0 -102 2 -131q1 -11 11.5 -14.5t46.5 -3.5q59 0 86 6.5t43 26.5q28 34 49 105l19 -4q-2 -60 -22 -164q-82 5 -187 5h-110q-11 0 -36 -0.5t-38 -0.5q-50 -2 -62 -2v21l46 5q25 2 26 25q4 36 4 135v147q0 89 -2 116q0 11 -4.5 15.5t-18.5 5.5zM225 544l-14 14
q12 15 52.5 69.5t49.5 65.5q26 30 52 30q31 0 31 -31q0 -34 -41 -61q-7 -5 -26 -17.5l-48.5 -32z" />
    <glyph glyph-name="Ecircumflex.sc" unicode="&#xe00e;" horiz-adv-x="496" 
d="M24 471v22q8 0 54 -2q44 -2 75 -2h155q88 0 124 9q-7 -52 -3 -152l-21 -3q-7 44 -22 77q-12 25 -35 34t-78 9h-39q-16 0 -16 -13q-3 -31 -3 -107v-77q8 -1 43 -1q43 0 59.5 15t23.5 60h21q-8 -101 -2 -188h-22q-6 47 -21.5 66.5t-59.5 19.5q-34 0 -42 -1v-63
q0 -102 2 -131q1 -11 11.5 -14.5t46.5 -3.5q59 0 86 6.5t43 26.5q28 34 49 105l19 -4q-2 -60 -22 -164q-82 5 -187 5h-110q-11 0 -36 -0.5t-38 -0.5q-50 -2 -62 -2v21l46 5q25 2 26 25q4 36 4 135v147q0 89 -2 116q0 11 -4.5 15.5t-18.5 5.5zM246 722l18 4q30 -74 113 -170
l-14 -14q-67 45 -108 88q-47 -45 -108 -88l-15 14q80 90 114 166z" />
    <glyph glyph-name="Edieresis.sc" unicode="&#xe00f;" horiz-adv-x="496" 
d="M24 471v22q8 0 54 -2q44 -2 75 -2h155q88 0 124 9q-7 -52 -3 -152l-21 -3q-7 44 -22 77q-12 25 -35 34t-78 9h-39q-16 0 -16 -13q-3 -31 -3 -107v-77q8 -1 43 -1q43 0 59.5 15t23.5 60h21q-8 -101 -2 -188h-22q-6 47 -21.5 66.5t-59.5 19.5q-34 0 -42 -1v-63
q0 -102 2 -131q1 -11 11.5 -14.5t46.5 -3.5q59 0 86 6.5t43 26.5q28 34 49 105l19 -4q-2 -60 -22 -164q-82 5 -187 5h-110q-11 0 -36 -0.5t-38 -0.5q-50 -2 -62 -2v21l46 5q25 2 26 25q4 36 4 135v147q0 89 -2 116q0 11 -4.5 15.5t-18.5 5.5zM168 667h1q23 0 37 -15.5
t14 -39.5q0 -27 -16.5 -43t-37.5 -16q-22 0 -37 14t-15 41q0 26 15 42.5t39 16.5zM345 667h1q23 0 36.5 -15.5t13.5 -39.5q0 -27 -16.5 -43t-37.5 -16q-22 0 -37 14t-15 41q0 26 15 42.5t40 16.5z" />
    <glyph glyph-name="Egrave.sc" unicode="&#xe010;" horiz-adv-x="496" 
d="M24 471v22q8 0 54 -2q44 -2 75 -2h155q88 0 124 9q-7 -52 -3 -152l-21 -3q-7 44 -22 77q-12 25 -35 34t-78 9h-39q-16 0 -16 -13q-3 -31 -3 -107v-77q8 -1 43 -1q43 0 59.5 15t23.5 60h21q-8 -101 -2 -188h-22q-6 47 -21.5 66.5t-59.5 19.5q-34 0 -42 -1v-63
q0 -102 2 -131q1 -11 11.5 -14.5t46.5 -3.5q59 0 86 6.5t43 26.5q28 34 49 105l19 -4q-2 -60 -22 -164q-82 5 -187 5h-110q-11 0 -36 -0.5t-38 -0.5q-50 -2 -62 -2v21l46 5q25 2 26 25q4 36 4 135v147q0 89 -2 116q0 11 -4.5 15.5t-18.5 5.5zM274 544q-120 83 -126 88
q-34 25 -34 54q0 17 10 26.5t25 9.5q25 0 48 -30l90 -134z" />
    <glyph glyph-name="Eth.sc" unicode="&#xe011;" horiz-adv-x="607" 
d="M31 243l3 32q5 0 30 -1t42 -1v53q0 102 -1 119t-18 19l-52 7l1 21q9 0 54.5 -1.5t62.5 -1.5q30 0 74 2q46 2 72 2q121 0 178 -33q93 -55 93 -202q0 -84 -35.5 -148t-113.5 -92q-59 -21 -142 -21q-12 0 -126 3q-30 0 -73.5 -1.5t-50.5 -1.5l1 22l41 4q17 1 23 5t7 15
q5 40 5 155v48q-39 0 -75 -3zM340 275l-5 -33q-13 1 -107 3v-54q0 -125 3 -152q2 -17 37 -17q92 0 130 50q41 54 41 182q0 119 -39 166q-19 25 -47.5 36t-80.5 11q-38 0 -40 -15q-4 -56 -4 -135v-44q35 -1 112 2z" />
    <glyph glyph-name="Euro.fitted" unicode="&#xe012;" horiz-adv-x="488" 
d="M199 368l212 1l-9 -30l-204 1q-1 -15 -1 -51l189 2l-9 -32l-179 2q1 -40 7 -75.5t19.5 -73.5t40 -61t63.5 -23q44 0 74 23.5t51 84.5l19 -11q-24 -76 -66 -107t-114 -31q-205 0 -221 274h-57l9 28h47q0 35 2 51h-39l8 28h33q6 50 22.5 93.5t45 82.5t74 61.5t102.5 22.5
q77 0 113 -30.5t36 -69.5q0 -28 -15.5 -43.5t-36.5 -15.5q-15 0 -25 8q-11 9 -8 21q5 18 5 38q0 69 -69 69q-100 0 -119 -237z" />
    <glyph glyph-name="Euro.oldstyle" unicode="&#xe013;" horiz-adv-x="483" 
d="M195 318l203 1l-9 -29l-195 1q-1 -13 -1 -48l181 1l-9 -29l-172 1q1 -32 6.5 -60t18 -59.5t39 -50.5t63.5 -19q88 0 124 104l20 -12q-24 -69 -67 -100.5t-114 -31.5q-59 0 -101.5 20t-65.5 55.5t-34 72.5t-14 81h-56l9 27h47q0 35 2 48h-38l8 27h32q7 41 22 76.5
t41.5 68.5t70.5 52t101 19q77 0 114 -29.5t37 -66.5q0 -27 -15.5 -41t-37.5 -14q-13 0 -24 7q-10 10 -8 20q5 17 5 37q0 32 -19 49t-51 17q-97 0 -113 -195z" />
    <glyph glyph-name="F.sc" unicode="&#xe014;" horiz-adv-x="473" 
d="M24 471l-1 22q10 0 63.5 -2t78.5 -2h124q92 0 153 8q-3 -36 -3 -157l-21 -1q-6 46 -24 82q-10 23 -32 32.5t-80 9.5h-49q-14 0 -15 -10q-3 -21 -3 -123v-75q9 -1 52 -1q47 0 65.5 14.5t23.5 60.5l21 -1q-3 -43 -3 -105.5t3 -85.5h-20q-8 52 -24 71t-67 19q-42 0 -51 -1
v-75q0 -76 2 -106q1 -19 21 -20q38 -7 61 -7l-2 -21q-13 0 -65 2t-78 2q-24 0 -71 -2t-61 -2l-1 22l43 4q23 2 24 20q5 47 5 142v145q0 105 -3 120q0 15 -19 17z" />
    <glyph glyph-name="G.sc" unicode="&#xe015;" horiz-adv-x="569" 
d="M487 308l-22 -1q-6 81 -45.5 126.5t-99.5 45.5q-68 0 -106 -55q-43 -64 -43 -180q0 -114 37 -172q41 -61 109 -61q60 0 65 41q2 16 2 115q0 27 -8.5 35.5t-38.5 11.5l-38 3l-1 22q14 0 58 -1.5t66 -1.5q60 0 124 4l1 -22q-26 -3 -35 -8t-10 -18q-2 -19 -2 -83
q0 -53 5 -83q-10 -2 -81 -22q-67 -19 -124 -19q-144 0 -208 75q-56 64 -56 180q0 73 29.5 131t82.5 92q66 42 163 42q103 0 152 -46l18 45l18 -9q-15 -90 -12 -187z" />
    <glyph glyph-name="H.sc" unicode="&#xe016;" horiz-adv-x="613" 
d="M93 173v154q0 93 -1 119q-1 14 -12.5 19t-52.5 6l1 22q11 0 53.5 -2t66.5 -2q19 0 59.5 2t67.5 2l-1 -22q-35 -1 -45 -6.5t-12 -20.5q-2 -38 -2 -104v-69q20 -1 95 -1t89 1v76q0 80 -2 102q-1 11 -12 16t-45 6l1 22q112 -4 119 -4q24 0 70 2t55 2v-22q-39 -1 -49.5 -7
t-12.5 -24q-2 -42 -2 -108v-158q0 -72 3 -132q2 -14 14 -19t52 -6l-4 -21q-105 3 -125 3q-24 0 -123 -3l1 21q36 2 46 8t12 22q2 62 2 119v75q-34 2 -90 2q-54 0 -94 -2v-80q0 -78 2 -118q2 -14 12.5 -19t45.5 -7v-21q-12 0 -55.5 1.5t-72.5 1.5q-20 0 -62.5 -1.5
t-60.5 -1.5v21q39 1 51.5 6.5t14.5 19.5q3 60 3 130z" />
    <glyph glyph-name="I.sc" unicode="&#xe017;" horiz-adv-x="308" 
d="M93 162v173q0 75 -2 111q-1 15 -11 19.5t-50 6.5v21q8 0 50.5 -2t69.5 -2q32 0 74 2t52 2l1 -21q-38 -2 -48 -7t-11 -18q-3 -48 -3 -108v-177q0 -99 3 -118q2 -14 12 -18.5t50 -7.5l-1 -21q-15 0 -62 1.5t-70 1.5q-24 0 -66.5 -1.5t-54.5 -1.5l1 21q40 2 50.5 6.5
t12.5 18.5q3 28 3 119z" />
    <glyph glyph-name="Iacute.sc" unicode="&#xe018;" horiz-adv-x="308" 
d="M93 162v173q0 75 -2 111q-1 15 -11 19.5t-50 6.5v21q8 0 50.5 -2t69.5 -2q32 0 74 2t52 2l1 -21q-38 -2 -48 -7t-11 -18q-3 -48 -3 -108v-177q0 -99 3 -118q2 -14 12 -18.5t50 -7.5l-1 -21q-15 0 -62 1.5t-70 1.5q-24 0 -66.5 -1.5t-54.5 -1.5l1 21q40 2 50.5 6.5
t12.5 18.5q3 28 3 119zM133 544l-14 14q12 15 52.5 69.5t49.5 65.5q26 30 52 30q31 0 31 -31q0 -34 -41 -61q-7 -5 -26 -17.5l-48.5 -32z" />
    <glyph glyph-name="Icircumflex.sc" unicode="&#xe019;" horiz-adv-x="308" 
d="M93 162v173q0 75 -2 111q-1 15 -11 19.5t-50 6.5v21q8 0 50.5 -2t69.5 -2q32 0 74 2t52 2l1 -21q-38 -2 -48 -7t-11 -18q-3 -48 -3 -108v-177q0 -99 3 -118q2 -14 12 -18.5t50 -7.5l-1 -21q-15 0 -62 1.5t-70 1.5q-24 0 -66.5 -1.5t-54.5 -1.5l1 21q40 2 50.5 6.5
t12.5 18.5q3 28 3 119zM143 722l18 4q30 -74 113 -170l-14 -14q-67 45 -108 88q-47 -45 -108 -88l-15 14q80 90 114 166z" />
    <glyph glyph-name="Idieresis.sc" unicode="&#xe01a;" horiz-adv-x="308" 
d="M93 162v173q0 75 -2 111q-1 15 -11 19.5t-50 6.5v21q8 0 50.5 -2t69.5 -2q32 0 74 2t52 2l1 -21q-38 -2 -48 -7t-11 -18q-3 -48 -3 -108v-177q0 -99 3 -118q2 -14 12 -18.5t50 -7.5l-1 -21q-15 0 -62 1.5t-70 1.5q-24 0 -66.5 -1.5t-54.5 -1.5l1 21q40 2 50.5 6.5
t12.5 18.5q3 28 3 119zM68 667h1q23 0 37 -15.5t14 -39.5q0 -27 -16.5 -43t-37.5 -16q-22 0 -37 14t-15 41q0 26 15 42.5t39 16.5zM245 667h1q23 0 36.5 -15.5t13.5 -39.5q0 -27 -16.5 -43t-37.5 -16q-22 0 -37 14t-15 41q0 26 15 42.5t40 16.5z" />
    <glyph glyph-name="Igrave.sc" unicode="&#xe01b;" horiz-adv-x="308" 
d="M93 162v173q0 75 -2 111q-1 15 -11 19.5t-50 6.5v21q8 0 50.5 -2t69.5 -2q32 0 74 2t52 2l1 -21q-38 -2 -48 -7t-11 -18q-3 -48 -3 -108v-177q0 -99 3 -118q2 -14 12 -18.5t50 -7.5l-1 -21q-15 0 -62 1.5t-70 1.5q-24 0 -66.5 -1.5t-54.5 -1.5l1 21q40 2 50.5 6.5
t12.5 18.5q3 28 3 119zM173 544q-120 83 -126 88q-34 25 -34 54q0 17 10 26.5t25 9.5q25 0 48 -30l90 -134z" />
    <glyph glyph-name="J.sc" unicode="&#xe01c;" horiz-adv-x="295" 
d="M22 471l3 22q12 0 54.5 -2t67.5 -2q24 0 70.5 2t56.5 2l-1 -22l-29 -3q-16 -1 -20.5 -5.5t-6.5 -15.5q-3 -24 -3 -306q0 -63 -10 -116q-14 -72 -53 -116q-69 -78 -155 -78q-30 0 -47.5 12.5t-17.5 28.5q0 17 14.5 31.5t27.5 14.5t22 -14q25 -36 50 -36q36 0 41 82
q6 100 6 246v141q0 88 -2 108q-1 20 -20 21q-29 4 -48 5z" />
    <glyph glyph-name="K.sc" unicode="&#xe01d;" horiz-adv-x="575" 
d="M93 168v140q0 113 -1 138q-1 14 -10.5 18.5t-50.5 6.5l2 22q100 -4 122 -4q28 0 70 2t51 2l1 -22q-39 -2 -48.5 -6t-10.5 -18q-3 -27 -3 -137v-54q46 13 113.5 83.5t87.5 107.5q8 14 -7 17l-56 6l4 21q10 0 45.5 -0.5t55.5 -0.5q9 0 102 3l2 -22q-66 -5 -93 -26
q-39 -35 -142 -142q31 -54 96.5 -146.5t90.5 -117.5q10 -10 23.5 -14t52.5 -7l-5 -20q-67 3 -111 0q-52 -1 -87 -6q-5 10 -33 53.5l-62 96l-46 71.5q-20 26 -31 25v-58q0 -110 3 -139q1 -12 11.5 -16.5t51.5 -7.5l-1 -21q-14 0 -56.5 1.5t-69.5 1.5q-25 0 -72 -1.5t-59 -1.5
l2 21q43 4 53.5 8t11.5 16q3 48 3 127z" />
    <glyph glyph-name="L.sc" unicode="&#xe01e;" horiz-adv-x="473" 
d="M433 176l21 -4q-7 -42 -20 -177q-35 4 -106 5h-167q-44 0 -144 -4v22l48 5q24 3 24 20q5 40 5 155v139q0 79 -2 109q-1 19 -21 20l-43 4l1 22q10 0 54 -2t74 -2q26 0 70.5 2t62.5 2l3 -22l-51 -4q-21 -3 -22 -20q-3 -94 -4 -147v-102q0 -136 2 -157q2 -15 45 -15
q57 0 81 7t40 29q30 38 49 115z" />
    <glyph glyph-name="Lslash.sc" unicode="&#xe01f;" horiz-adv-x="482" 
d="M40 470l1 22q10 0 56 -2t73 -2q18 0 61 2t71 2l2 -22l-52 -4q-20 -1 -21 -19q-3 -51 -3 -156l87 47l15 -25l-102 -52v-60q0 -142 2 -162q0 -14 44 -14q57 0 81 7.5t39 28.5q31 37 49 113l21 -4q-5 -28 -12 -100.5t-7 -73.5q-19 3 -107 3q-48 1 -164 1q-11 0 -38.5 -0.5
t-42.5 -0.5q-54 -2 -66 -2v22l50 4q14 2 19 5.5t5 12.5q5 43 5 160q-32 -15 -59 -31l-16 25q5 2 75 36v109q0 76 -2 108q-1 17 -20 18z" />
    <glyph glyph-name="M.sc" unicode="&#xe020;" horiz-adv-x="717" 
d="M352 6l-56 -9q-18 53 -88.5 236.5l-80.5 210.5h-2q0 -200 5 -360q2 -35 9 -46t33 -15l40 -6l-1 -21q-13 0 -47.5 1.5t-56.5 1.5q-25 0 -55 -1.5t-38 -1.5v21l22 2.5t16 1.5q17 3 25.5 15.5t11.5 42.5q15 184 11 366q-1 4 -3 10q-4 11 -22 12l-48 4l2 22q34 -1 67 -3
q10 0 26.5 -0.5t24.5 -0.5q61 0 85 3q7 -21 31.5 -79.5l56.5 -134l48 -113.5q67 162 124 327q16 -3 66 -3q24 0 69 2t57 2l4 -22q-9 -1 -27.5 -2.5t-25.5 -2.5q-11 0 -13 -18q-1 -13 -1 -84q0 -272 5 -317q1 -13 6 -17.5t18 -6.5l44 -6l-1 -21q-5 0 -50.5 1.5t-79.5 1.5
q-11 0 -128 -3l3 21q37 3 46.5 8.5t10.5 22.5q9 228 10 400h-2q-85 -234 -151 -442z" />
    <glyph glyph-name="N.sc" unicode="&#xe021;" horiz-adv-x="573" 
d="M18 471v22q10 0 44 -1.5t55 -1.5q66 0 99 3q12 -22 41 -64l205 -292q1 229 -8 297q-2 18 -12 25.5t-33 9.5l-37 2l4 22q18 0 49 -2t48 -2t48 2t44 2v-22q-37 -5 -39 -5q-23 -5 -27 -32q-9 -43 -9 -245v-189q-52 0 -83 -9l-282 421q0 -312 7 -354q3 -16 9.5 -23.5
t21.5 -9.5q52 -7 53 -7l-2 -21q-14 0 -51.5 1.5t-59.5 1.5q-15 0 -47.5 -1.5t-45.5 -1.5l1 21q9 0 41 5q30 4 34 39q12 88 12 373q-4 10 -10 19q-7 10 -22 13z" />
    <glyph glyph-name="Ntilde.sc" unicode="&#xe022;" horiz-adv-x="573" 
d="M18 471v22q10 0 44 -1.5t55 -1.5q66 0 99 3q12 -22 41 -64l205 -292q1 229 -8 297q-2 18 -12 25.5t-33 9.5l-37 2l4 22q18 0 49 -2t48 -2t48 2t44 2v-22q-37 -5 -39 -5q-23 -5 -27 -32q-9 -43 -9 -245v-189q-52 0 -83 -9l-282 421q0 -312 7 -354q3 -16 9.5 -23.5
t21.5 -9.5q52 -7 53 -7l-2 -21q-14 0 -51.5 1.5t-59.5 1.5q-15 0 -47.5 -1.5t-45.5 -1.5l1 21q9 0 41 5q30 4 34 39q12 88 12 373q-4 10 -10 19q-7 10 -22 13zM200 558l-24 4q3 49 22 81.5t56 32.5q25 0 65 -31q37 -27 50 -27q29 0 35 61l23 -5q-8 -115 -75 -115
q-25 0 -69 33q-31 25 -44 25q-15 0 -25.5 -15.5t-13.5 -43.5z" />
    <glyph glyph-name="O.sc" unicode="&#xe023;" horiz-adv-x="579" 
d="M295 504h1q113 0 179.5 -69.5t66.5 -183.5q0 -127 -67.5 -196.5t-187.5 -69.5t-185.5 67t-65.5 186q0 115 66 190.5t193 75.5zM290 479h-1q-51 0 -80 -48q-33 -58 -33 -175q0 -132 34 -193q30 -53 87 -53q52 0 79 52q28 53 28 179q0 132 -34 190q-30 48 -80 48z" />
    <glyph glyph-name="OE.sc" unicode="&#xe024;" horiz-adv-x="846" 
d="M448 250v1q0 119 -9 143q-27 80 -117 80q-60 0 -93 -44q-48 -60 -48 -186q0 -114 41 -175q36 -51 102 -51q65 0 97 47q16 22 21.5 62.5t5.5 122.5zM513 489h149q73 0 122 7q-5 -38 -3 -152l-21 -3q-7 51 -21 81q-11 24 -34 32.5t-81 8.5h-38q-13 0 -14 -12
q-4 -42 -4 -119v-63q9 -1 48 -1q42 0 59 13.5t24 56.5h20q-8 -101 -2 -185h-21q-7 48 -22.5 67.5t-61.5 19.5q-36 0 -44 -1v-57q0 -100 3 -137q2 -12 11 -15.5t44 -3.5q59 0 88 7t44 27q31 38 47 105l20 -3q-2 -58 -20 -166q-136 4 -188 4h-107q-50 0 -63 -2q-1 12 -1 51
q-59 -64 -160 -64q-102 0 -158 41q-89 63 -89 209q0 74 26.5 132.5t73.5 91.5q64 45 160 45q99 0 148 -59v47q19 -3 66 -3z" />
    <glyph glyph-name="Oacute.sc" unicode="&#xe025;" horiz-adv-x="579" 
d="M295 504h1q113 0 179.5 -69.5t66.5 -183.5q0 -127 -67.5 -196.5t-187.5 -69.5t-185.5 67t-65.5 186q0 115 66 190.5t193 75.5zM290 479h-1q-51 0 -80 -48q-33 -58 -33 -175q0 -132 34 -193q30 -53 87 -53q52 0 79 52q28 53 28 179q0 132 -34 190q-30 48 -80 48zM263 544
l-14 14q12 15 52.5 69.5t49.5 65.5q26 30 52 30q31 0 31 -31q0 -34 -41 -61q-7 -5 -26 -17.5l-48.5 -32z" />
    <glyph glyph-name="Ocircumflex.sc" unicode="&#xe026;" horiz-adv-x="579" 
d="M295 504h1q113 0 179.5 -69.5t66.5 -183.5q0 -127 -67.5 -196.5t-187.5 -69.5t-185.5 67t-65.5 186q0 115 66 190.5t193 75.5zM290 479h-1q-51 0 -80 -48q-33 -58 -33 -175q0 -132 34 -193q30 -53 87 -53q52 0 79 52q28 53 28 179q0 132 -34 190q-30 48 -80 48zM279 722
l18 4q30 -74 113 -170l-14 -14q-67 45 -108 88q-47 -45 -108 -88l-15 14q80 90 114 166z" />
    <glyph glyph-name="Odieresis.sc" unicode="&#xe027;" horiz-adv-x="579" 
d="M295 504h1q113 0 179.5 -69.5t66.5 -183.5q0 -127 -67.5 -196.5t-187.5 -69.5t-185.5 67t-65.5 186q0 115 66 190.5t193 75.5zM290 479h-1q-51 0 -80 -48q-33 -58 -33 -175q0 -132 34 -193q30 -53 87 -53q52 0 79 52q28 53 28 179q0 132 -34 190q-30 48 -80 48zM204 670
h1q23 0 37 -15.5t14 -39.5q0 -27 -16.5 -43t-37.5 -16q-22 0 -37 14t-15 41q0 26 15 42.5t39 16.5zM381 670h1q23 0 36.5 -15.5t13.5 -39.5q0 -27 -16.5 -43t-37.5 -16q-22 0 -37 14t-15 41q0 26 15 42.5t40 16.5z" />
    <glyph glyph-name="Ograve.sc" unicode="&#xe028;" horiz-adv-x="579" 
d="M295 504h1q113 0 179.5 -69.5t66.5 -183.5q0 -127 -67.5 -196.5t-187.5 -69.5t-185.5 67t-65.5 186q0 115 66 190.5t193 75.5zM290 479h-1q-51 0 -80 -48q-33 -58 -33 -175q0 -132 34 -193q30 -53 87 -53q52 0 79 52q28 53 28 179q0 132 -34 190q-30 48 -80 48zM312 544
q-120 83 -126 88q-34 25 -34 54q0 17 10 26.5t25 9.5q25 0 48 -30l90 -134z" />
    <glyph glyph-name="Oslash.sc" unicode="&#xe029;" horiz-adv-x="580" 
d="M465 525l30 -13l-41 -56q40 -31 64.5 -86.5t24.5 -119.5q0 -128 -71 -196.5t-186 -68.5q-87 0 -143 35l-41 -55l-30 13l45 58q-81 62 -81 202q0 118 70 192t190 74q74 0 132 -33zM295 478h-1q-54 0 -84 -49q-37 -64 -37 -185q0 -70 18 -119q19 25 186 282q-31 71 -82 71z
M286 11h1q54 0 84 47q35 58 35 192q0 83 -17 124l-187 -283q32 -80 84 -80z" />
    <glyph glyph-name="Otilde.sc" unicode="&#xe02a;" horiz-adv-x="579" 
d="M295 504h1q113 0 179.5 -69.5t66.5 -183.5q0 -127 -67.5 -196.5t-187.5 -69.5t-185.5 67t-65.5 186q0 115 66 190.5t193 75.5zM290 479h-1q-51 0 -80 -48q-33 -58 -33 -175q0 -132 34 -193q30 -53 87 -53q52 0 79 52q28 53 28 179q0 132 -34 190q-30 48 -80 48zM186 556
l-24 4q3 49 22 81.5t56 32.5q25 0 65 -31q37 -27 50 -27q29 0 35 61l23 -5q-8 -115 -75 -115q-25 0 -69 33q-31 25 -44 25q-15 0 -25.5 -15.5t-13.5 -43.5z" />
    <glyph glyph-name="P.sc" unicode="&#xe02b;" horiz-adv-x="517" 
d="M93 211v116q0 91 -2 119q-2 20 -21 21l-47 4l5 22q7 0 53 -2t69 -2q31 0 81.5 2t64.5 2q66 0 98 -10t54 -31q40 -37 40 -109q0 -70 -42 -112q-51 -48 -144 -48q-25 0 -57 8l2 24q13 -6 39 -6q37 0 53 31q20 35 20 99q0 67 -25 99q-23 29 -81 29q-32 0 -34 -14
q-4 -28 -4 -151v-83v-85q0 -60 2 -88q1 -11 7.5 -16t23.5 -7l50 -5l-1 -22q-9 0 -56 1.5t-89 1.5q-28 0 -73.5 -1.5t-59.5 -1.5l1 22l35 3q21 2 27 7t7 21q4 76 4 162z" />
    <glyph glyph-name="Q.alt" unicode="&#xe02c;" horiz-adv-x="681" 
d="M1087 -166l10 -19q-88 -122 -263 -122q-68 0 -140.5 35t-165.5 106l-140 105q-58 40 -122 55q-98 20 -162.5 95.5t-64.5 217.5q0 152 80.5 247.5t228.5 95.5q135 0 214.5 -89t79.5 -238q0 -81 -22 -144.5t-58.5 -101t-76 -58.5t-83.5 -28v-4q71 -20 195 -90
q210 -117 333 -117q104 0 157 54zM341 627h-1q-70 0 -109 -67q-46 -78 -46 -239q0 -79 14 -146.5t36 -103.5q42 -67 115 -67q67 0 103 62q43 78 43 252q0 157 -45 242q-39 67 -110 67z" />
    <glyph glyph-name="Q.sc" unicode="&#xe02d;" horiz-adv-x="579" 
d="M602 -88v-16q-44 -46 -125 -46q-40 0 -78.5 23.5t-101.5 77.5q-34 29 -87 41q-80 20 -127 81.5t-47 161.5q0 121 70 195t189 74q111 0 179 -69t68 -188q0 -62 -17.5 -111t-46.5 -78t-60.5 -45.5t-66.5 -22.5v-4l53 -22l63 -26q74 -31 135 -26zM291 479h-1q-49 0 -80 -46
q-35 -58 -35 -189q0 -52 10.5 -106t24.5 -79q28 -51 85 -51q53 0 79 50q30 55 30 182q0 132 -34 191q-28 48 -79 48z" />
    <glyph glyph-name="Q.scalt" unicode="&#xe02e;" horiz-adv-x="578" 
d="M971 -159l9 -18q-87 -109 -242 -109q-116 0 -273 122q-106 84 -143 109q-52 34 -112 49q-77 19 -125.5 79.5t-48.5 162.5q0 122 70 195t189 73q111 0 179 -69t68 -188t-57 -181t-140 -75v-4q54 -12 190 -85q98 -52 167.5 -79.5t132.5 -27.5q86 0 136 46zM291 479h-1
q-50 0 -80 -46q-35 -58 -35 -189q0 -119 35 -183q30 -52 85 -52q54 0 80 50q29 53 29 181q0 132 -34 191q-28 48 -79 48z" />
    <glyph glyph-name="R.sc" unicode="&#xe02f;" horiz-adv-x="553" 
d="M93 185v127q0 106 -2 136q-1 9 -6 13.5t-19 5.5l-44 4l4 22q10 0 56.5 -1.5t66.5 -1.5q29 0 82 1.5t79 1.5q96 0 132.5 -28t36.5 -87q0 -63 -52 -94q-37 -22 -106 -29v-5q83 -7 120 -33.5t42 -77.5q4 -35 6 -73q3 -51 41 -51q12 0 25 3l-2 -20q-25 -9 -73 -9
q-63 0 -92 21.5t-32 74.5q0 8 -1.5 30t-2.5 33q-2 54 -30 71.5t-90 17.5h-17v-60q0 -77 3 -134q1 -13 12 -17t56 -8l-2 -21q-11 0 -55.5 1.5t-68.5 1.5q-28 0 -77.5 -1.5t-58.5 -1.5v21q42 3 53.5 7t12.5 16q3 45 3 144zM215 334v-71h19q57 0 81 15q36 22 36 92q0 45 -15 68
q-22 30 -74 30q-23 0 -35 -3q-8 -1 -10 -15q0 -2 -0.5 -16t-1 -40.5t-0.5 -59.5z" />
    <glyph glyph-name="S.sc" unicode="&#xe030;" horiz-adv-x="458" 
d="M46 184l21 5q-1 -90 44.5 -134.5t111.5 -44.5q46 0 71 21t25 57q0 44 -50 69l-64.5 29t-71.5 33q-85 40 -85 125q0 76 55 121q50 40 132 40q80 0 123 -35l20 44l19 -6q-14 -75 -12 -184l-21 -1q-5 69 -40.5 112.5t-95.5 43.5q-37 0 -60 -20.5t-23 -57.5q0 -50 62 -76
q132 -55 160 -73q56 -36 57 -105q0 -64 -42 -106q-55 -57 -170 -57q-47 0 -117 14q-11 2 -57 14q6 43 8 172z" />
    <glyph glyph-name="Scaron.sc" unicode="&#xe031;" horiz-adv-x="458" 
d="M46 184l21 5q-1 -90 44.5 -134.5t111.5 -44.5q46 0 71 21t25 57q0 44 -50 69l-64.5 29t-71.5 33q-85 40 -85 125q0 76 55 121q50 40 132 40q80 0 123 -35l20 44l19 -6q-14 -75 -12 -184l-21 -1q-5 69 -40.5 112.5t-95.5 43.5q-37 0 -60 -20.5t-23 -57.5q0 -50 62 -76
q132 -55 160 -73q56 -36 57 -105q0 -64 -42 -106q-55 -57 -170 -57q-47 0 -117 14q-11 2 -57 14q6 43 8 172zM245 548l-18 -4q-30 74 -113 170l14 14q65 -44 109 -88q44 44 107 88l15 -14q-77 -87 -114 -166z" />
    <glyph glyph-name="T.sc" unicode="&#xe032;" horiz-adv-x="505" 
d="M313 361v-146q0 -111 3 -165q2 -25 22 -26q22 -3 64 -6l-1 -21q-9 0 -66 1.5t-97 1.5q-26 0 -69 -1.5t-63 -1.5l-3 21q9 1 27.5 2.5t29.5 2.5q26 3 27 24q4 96 4 168v133q0 97 -2 117q-61 0 -81.5 -9.5t-32.5 -35.5q-19 -42 -34 -99l-21 6q12 91 17 173q21 -7 63 -8
q42 -3 107 -3h94q151 0 181 11q-8 -115 -7 -169l-21 -9q-8 68 -26 111q-9 18 -30 25.5t-84 6.5q-1 -20 -1 -104z" />
    <glyph glyph-name="Thorn.sc" unicode="&#xe034;" horiz-adv-x="521" 
d="M95 211v127q0 89 -1 107q-1 15 -13 20t-54 7l5 21q3 0 47.5 -1.5t72.5 -1.5q26 0 69 1.5t57 1.5l1 -21q-38 -1 -48 -6.5t-12 -19.5q-1 -6 -1.5 -23.5t-0.5 -24.5q60 4 104 4q90 0 129 -36q40 -35 40 -107t-46 -116q-50 -47 -153 -47q-38 0 -75 11q-1 -22 1 -59
q1 -16 12.5 -21t60.5 -9v-21q-15 0 -59 1.5t-78 1.5q-23 0 -67 -1.5t-62 -1.5l1 21q43 3 53.5 8t11.5 23q5 80 5 162zM216 366v-231q22 -13 57 -13q44 0 65 30q24 37 24 100q0 70 -25 98q-23 27 -80 27q-41 0 -41 -11z" />
    <glyph glyph-name="U.sc" unicode="&#xe035;" horiz-adv-x="560" 
d="M23 470v23q14 0 52 -2t65 -2q24 0 47.5 0.5t45.5 2t32 1.5l2 -23l-42 -5q-17 -2 -18 -20q-4 -47 -4.5 -147.5t3.5 -162.5q4 -57 35 -85q28 -25 80 -25q57 0 87.5 26t37.5 107q12 132 -1 278q-1 16 -8 22t-26 8l-42 4l-1 23q11 0 41 -2t49 -2q20 0 51 2t40 2l3 -23l-32 -3
q-18 -2 -23 -8t-6 -21q-2 -32 -6 -148t-7 -144q-12 -89 -69 -129q-48 -32 -130 -32q-104 0 -153 47q-42 42 -42 124q0 230 -2 286q-1 23 -18 24z" />
    <glyph glyph-name="Uacute.sc" unicode="&#xe036;" horiz-adv-x="560" 
d="M23 470v23q14 0 52 -2t65 -2q24 0 47.5 0.5t45.5 2t32 1.5l2 -23l-42 -5q-17 -2 -18 -20q-4 -47 -4.5 -147.5t3.5 -162.5q4 -57 35 -85q28 -25 80 -25q57 0 87.5 26t37.5 107q12 132 -1 278q-1 16 -8 22t-26 8l-42 4l-1 23q11 0 41 -2t49 -2q20 0 51 2t40 2l3 -23l-32 -3
q-18 -2 -23 -8t-6 -21q-2 -32 -6 -148t-7 -144q-12 -89 -69 -129q-48 -32 -130 -32q-104 0 -153 47q-42 42 -42 124q0 230 -2 286q-1 23 -18 24zM279 544l-14 14q12 15 52.5 69.5t49.5 65.5q26 30 52 30q31 0 31 -31q0 -34 -41 -61q-7 -5 -26 -17.5l-48.5 -32z" />
    <glyph glyph-name="Ucircumflex.sc" unicode="&#xe037;" horiz-adv-x="560" 
d="M23 470v23q14 0 52 -2t65 -2q24 0 47.5 0.5t45.5 2t32 1.5l2 -23l-42 -5q-17 -2 -18 -20q-4 -47 -4.5 -147.5t3.5 -162.5q4 -57 35 -85q28 -25 80 -25q57 0 87.5 26t37.5 107q12 132 -1 278q-1 16 -8 22t-26 8l-42 4l-1 23q11 0 41 -2t49 -2q20 0 51 2t40 2l3 -23l-32 -3
q-18 -2 -23 -8t-6 -21q-2 -32 -6 -148t-7 -144q-12 -89 -69 -129q-48 -32 -130 -32q-104 0 -153 47q-42 42 -42 124q0 230 -2 286q-1 23 -18 24zM292 722l18 4q30 -74 113 -170l-14 -14q-67 45 -108 88q-47 -45 -108 -88l-15 14q80 90 114 166z" />
    <glyph glyph-name="Udieresis.sc" unicode="&#xe038;" horiz-adv-x="560" 
d="M23 470v23q14 0 52 -2t65 -2q24 0 47.5 0.5t45.5 2t32 1.5l2 -23l-42 -5q-17 -2 -18 -20q-4 -47 -4.5 -147.5t3.5 -162.5q4 -57 35 -85q28 -25 80 -25q57 0 87.5 26t37.5 107q12 132 -1 278q-1 16 -8 22t-26 8l-42 4l-1 23q11 0 41 -2t49 -2q20 0 51 2t40 2l3 -23l-32 -3
q-18 -2 -23 -8t-6 -21q-2 -32 -6 -148t-7 -144q-12 -89 -69 -129q-48 -32 -130 -32q-104 0 -153 47q-42 42 -42 124q0 230 -2 286q-1 23 -18 24zM215 674h1q23 0 37 -15.5t14 -39.5q0 -27 -16.5 -43t-37.5 -16q-22 0 -37 14t-15 41q0 26 15 42.5t39 16.5zM392 674h1
q23 0 36.5 -15.5t13.5 -39.5q0 -27 -16.5 -43t-37.5 -16q-22 0 -37 14t-15 41q0 26 15 42.5t40 16.5z" />
    <glyph glyph-name="Ugrave.sc" unicode="&#xe039;" horiz-adv-x="560" 
d="M23 470v23q14 0 52 -2t65 -2q24 0 47.5 0.5t45.5 2t32 1.5l2 -23l-42 -5q-17 -2 -18 -20q-4 -47 -4.5 -147.5t3.5 -162.5q4 -57 35 -85q28 -25 80 -25q57 0 87.5 26t37.5 107q12 132 -1 278q-1 16 -8 22t-26 8l-42 4l-1 23q11 0 41 -2t49 -2q20 0 51 2t40 2l3 -23l-32 -3
q-18 -2 -23 -8t-6 -21q-2 -32 -6 -148t-7 -144q-12 -89 -69 -129q-48 -32 -130 -32q-104 0 -153 47q-42 42 -42 124q0 230 -2 286q-1 23 -18 24zM330 544q-120 83 -126 88q-34 25 -34 54q0 17 10 26.5t25 9.5q25 0 48 -30l90 -134z" />
    <glyph glyph-name="V.sc" unicode="&#xe03a;" horiz-adv-x="532" 
d="M-12 472v21q11 0 59.5 -2t68.5 -2q18 0 62.5 2t72.5 2l5 -21l-47 -5q-16 -1 -10 -22q31 -103 120 -346q87 230 114 344q5 19 -13 22q-24 4 -59 7l-3 21q8 0 43.5 -2t53.5 -2q13 0 45 2t51 2l4 -21q-38 -2 -53 -10.5t-30 -38.5q-36 -74 -162 -433q-12 2 -41.5 2t-39.5 -2
q-113 320 -167 445q-11 23 -24 29.5t-50 7.5z" />
    <glyph glyph-name="W.sc" unicode="&#xe03b;" horiz-adv-x="765" 
d="M605 471l-4 22q12 0 44 -2.5t50 -1.5q14 0 42.5 2t45.5 2v-22q-38 -4 -50 -12.5t-24 -38.5q-32 -84 -134 -430q-45 5 -79 0q-29 100 -117 383q-91 -342 -101 -383q-7 2 -38.5 2t-39.5 -2q-100 347 -132 428q-13 35 -25 43.5t-49 9.5v22q9 0 51 -2t71 -2q19 0 60.5 2
t65.5 2l3 -22l-40 -4q-19 -3 -15 -18q59 -230 92 -332q24 82 57.5 214.5t38.5 159.5q29 -3 88 0q3 -12 116 -382q71 221 90 332q5 22 -18 25z" />
    <glyph glyph-name="X.sc" unicode="&#xe03c;" horiz-adv-x="520" 
d="M501 21l34 -4l1 -21q-108 3 -134 3q-30 0 -73 -1.5t-64 -1.5l-2 21q18 2 28 4t14.5 5t5 7t-2.5 9l-90 166q-56 -81 -93 -153q-9 -17 -4.5 -24t22.5 -9l46 -5l2 -21q-10 0 -44 1.5t-61 1.5q-19 0 -49 -1.5t-45 -1.5l-3 21q33 2 48 8t33 25q19 21 133 182
q-100 180 -128 219q-7 10 -21 14.5t-50 6.5l-3 21q4 0 53.5 -2t77.5 -2q21 0 65 2t65 2l4 -21l-38 -4q-16 -1 -10 -16q30 -60 76 -139q60 81 83 132q10 19 -16 23l-36 4l3 21q18 0 49 -2t39 -2q17 0 46.5 2t46.5 2l4 -21q-43 -3 -61.5 -11.5t-38.5 -28.5q-10 -11 -24.5 -30
t-38.5 -54l-41 -58q127 -216 147 -243q19 -24 45 -26z" />
    <glyph glyph-name="Y.sc" unicode="&#xe03d;" horiz-adv-x="492" 
d="M399 17l3 -21q-28 0 -79.5 1.5t-80.5 1.5q-30 0 -74.5 -1.5t-66.5 -1.5l-2 21q14 1 37.5 4t24.5 3q24 3 27 27q5 40 5 145q0 13 -10 36q-15 29 -55 100.5t-64 106.5q-14 20 -28.5 25.5t-50.5 7.5v21q7 0 56.5 -2t79.5 -2t70.5 2t53.5 2l3 -21l-37 -4q-17 -1 -11 -17
q16 -35 101 -200q54 100 92 195q5 18 -11 21q-7 0 -23 2t-26 3l1 21q10 0 42.5 -2t50.5 -2q15 0 42.5 2t43.5 2l3 -21q-35 -2 -51.5 -9t-32.5 -29q-23 -32 -107 -193q-11 -24 -11 -40q-3 -109 4 -157q3 -17 21 -19q6 -1 26.5 -3.5t33.5 -4.5z" />
    <glyph glyph-name="Yacute.sc" unicode="&#xe03e;" horiz-adv-x="492" 
d="M399 17l3 -21q-28 0 -79.5 1.5t-80.5 1.5q-30 0 -74.5 -1.5t-66.5 -1.5l-2 21q14 1 37.5 4t24.5 3q24 3 27 27q5 40 5 145q0 13 -10 36q-15 29 -55 100.5t-64 106.5q-14 20 -28.5 25.5t-50.5 7.5v21q7 0 56.5 -2t79.5 -2t70.5 2t53.5 2l3 -21l-37 -4q-17 -1 -11 -17
q16 -35 101 -200q54 100 92 195q5 18 -11 21q-7 0 -23 2t-26 3l1 21q10 0 42.5 -2t50.5 -2q15 0 42.5 2t43.5 2l3 -21q-35 -2 -51.5 -9t-32.5 -29q-23 -32 -107 -193q-11 -24 -11 -40q-3 -109 4 -157q3 -17 21 -19q6 -1 26.5 -3.5t33.5 -4.5zM237 544l-14 14
q12 15 52.5 69.5t49.5 65.5q26 30 52 30q31 0 31 -31q0 -34 -41 -61q-7 -5 -26 -17.5l-48.5 -32z" />
    <glyph glyph-name="Ydieresis.sc" unicode="&#xe03f;" horiz-adv-x="492" 
d="M399 17l3 -21q-28 0 -79.5 1.5t-80.5 1.5q-30 0 -74.5 -1.5t-66.5 -1.5l-2 21q14 1 37.5 4t24.5 3q24 3 27 27q5 40 5 145q0 13 -10 36q-15 29 -55 100.5t-64 106.5q-14 20 -28.5 25.5t-50.5 7.5v21q7 0 56.5 -2t79.5 -2t70.5 2t53.5 2l3 -21l-37 -4q-17 -1 -11 -17
q16 -35 101 -200q54 100 92 195q5 18 -11 21q-7 0 -23 2t-26 3l1 21q10 0 42.5 -2t50.5 -2q15 0 42.5 2t43.5 2l3 -21q-35 -2 -51.5 -9t-32.5 -29q-23 -32 -107 -193q-11 -24 -11 -40q-3 -109 4 -157q3 -17 21 -19q6 -1 26.5 -3.5t33.5 -4.5zM176 674h1q23 0 37 -15.5
t14 -39.5q0 -27 -16.5 -43t-37.5 -16q-22 0 -37 14t-15 41q0 26 15 42.5t39 16.5zM353 674h1q23 0 36.5 -15.5t13.5 -39.5q0 -27 -16.5 -43t-37.5 -16q-22 0 -37 14t-15 41q0 26 15 42.5t40 16.5z" />
    <glyph glyph-name="Z.sc" unicode="&#xe040;" horiz-adv-x="514" 
d="M68 306l-20 6q18 113 12 187q19 -6 59 -9q20 -2 119 -2q86 0 123 1q20 1 55.5 2t55.5 1q-8 -34 -21 -55l-121 -190l-142 -221q129 -1 174 8.5t62 37.5q29 46 47 123l19 -8q-13 -155 -14 -192q-29 2 -94 4q-34 1 -103 1h-168q-49 0 -77 -1l-7 15q55 78 151 225.5
t141 223.5h-74q-70 0 -98.5 -12t-43.5 -42q-18 -40 -35 -103z" />
    <glyph glyph-name="Zcaron.sc" unicode="&#xe041;" horiz-adv-x="514" 
d="M68 306l-20 6q18 113 12 187q19 -6 59 -9q20 -2 119 -2q86 0 123 1q20 1 55.5 2t55.5 1q-8 -34 -21 -55l-121 -190l-142 -221q129 -1 174 8.5t62 37.5q29 46 47 123l19 -8q-13 -155 -14 -192q-29 2 -94 4q-34 1 -103 1h-168q-49 0 -77 -1l-7 15q55 78 151 225.5
t141 223.5h-74q-70 0 -98.5 -12t-43.5 -42q-18 -40 -35 -103zM273 547l-18 -4q-30 74 -113 170l14 14q65 -44 109 -88q44 44 107 88l15 -14q-77 -87 -114 -166z" />
    <glyph glyph-name="c_t" unicode="&#xe042;" horiz-adv-x="778" 
d="M764 422l-4 -24l-120 -7q-3 -105 -3 -162q0 -138 5 -169q4 -36 36 -36q31 0 51 25t28 61h9l10 -31q-16 -43 -54 -67.5t-92 -24.5q-66 0 -94 34q-16 21 -17 63q0 33 0.5 89t2 124.5t1.5 94.5l-63 6l5 24h59v37v29.5v19.5q0 19 -8 27q-7 7 -32 12.5t-45 5.5
q-59 0 -79 -18.5t-20 -63.5q0 -28 14 -51q66 -25 66 -90q0 -28 -18 -41.5t-42 -13.5q-18 0 -29 8q-12 8 -9 21q5 32 5 37q0 74 -66 74q-49 0 -75.5 -54t-26.5 -141q0 -76 23 -125q32 -66 102 -66q86 0 123 103l21 -11q-40 -135 -185 -135q-113 0 -167 66q-44 53 -44 152
q0 102 60.5 168t171.5 66q30 0 58 -7q-15 20 -15 45q0 40 34.5 74t121.5 34q65 0 78 -6q72 14 102 27l3 -4q-5 -135 -5 -179h123z" />
    <glyph glyph-name="cent.fitted" unicode="&#xe043;" horiz-adv-x="488" 
d="M440 246l3 -35q-22 -43 -66 -70t-93 -31l-3 -82l-34 -10l6 91q-111 1 -164 61q-48 51 -48 143q0 100 65.5 161.5t168.5 63.5l3 77l34 8l-6 -85q65 -3 102.5 -29.5t37.5 -69.5q0 -25 -15 -39t-38 -14q-17 0 -26.5 8.5t-5.5 21.5q6 22 6 36q0 54 -64 63q-15 -308 -17 -372
q54 0 88.5 25t52.5 80zM165 327v-1q0 -92 26 -135q23 -38 65 -46q13 224 18 371q-39 -4 -65 -36t-35 -71t-9 -82z" />
    <glyph glyph-name="currency.taboldstyle" unicode="&#xe044;" horiz-adv-x="482" 
d="M240 382h-1q-51 0 -79 -41.5t-28 -107.5q0 -73 29.5 -112t77.5 -39q52 0 78.5 41.5t26.5 107.5q0 64 -24.5 107.5t-79.5 43.5zM244 418q63 0 102 -31l55 72l42 -41l-69 -60q42 -43 42 -127q0 -79 -45 -126l72 -65l-41 -41l-61 79q-42 -33 -104 -33q-64 0 -105 30l-56 -74
l-38 41l65 61q-43 46 -43 126q0 82 48 130l-67 59l40 42l57 -74q42 32 106 32z" />
    <glyph glyph-name="dollar.fitted" unicode="&#xe045;" horiz-adv-x="488" 
d="M363 133v1q0 21 -6 36t-24 28.5t-30.5 20t-45.5 22.5l-8 -204q49 2 81.5 26t32.5 70zM137 489v-1q0 -37 26 -60t76 -44l8 199q-53 -1 -81.5 -27t-28.5 -67zM252 680l32 6l-6 -81q71 -3 111 -36l17 40l17 -6q-18 -89 -18 -187l-21 2q1 70 -28 112t-80 51l-12 -208
q117 -54 140 -72q48 -39 48 -112q0 -66 -42 -111q-59 -61 -163 -65l-2 -85l-34 -8l6 93q-51 1 -174 29q9 50 15 177l20 4q-4 -175 141 -186l12 215q-90 42 -101 49q-77 45 -77 134q0 77 57 126q52 44 139 45z" />
    <glyph glyph-name="dotlessi.sc" unicode="&#xe046;" horiz-adv-x="308" 
d="M93 162v173q0 75 -2 111q-1 15 -11 19.5t-50 6.5v21q8 0 50.5 -2t69.5 -2q32 0 74 2t52 2l1 -21q-38 -2 -48 -7t-11 -18q-3 -48 -3 -108v-177q0 -99 3 -118q2 -14 12 -18.5t50 -7.5l-1 -21q-15 0 -62 1.5t-70 1.5q-24 0 -66.5 -1.5t-54.5 -1.5l1 21q40 2 50.5 6.5
t12.5 18.5q3 28 3 119z" />
    <glyph glyph-name="egrave.superior" unicode="&#xe047;" horiz-adv-x="337" 
d="M204 598l-14 -8l-88 71q-16 16 -16 30q0 13 9 21t20 8q21 0 36 -20q5 -9 26.5 -50.5zM309 371q-29 -86 -135 -86q-80 0 -117 41q-29 32 -29 91q0 62 40 103.5t114 41.5q39 0 67 -11.5t40 -29.5t17 -34t5 -31q0 -19 -13 -25q-12 -6 -66 -8h-109q-2 -41 15 -69
q19 -36 66 -36q34 0 54.5 14t34.5 48zM179 543h-1q-24 0 -38 -27t-16 -70q28 -2 44 -2q34 0 47 3q11 4 11 18q0 78 -47 78z" />
    <glyph glyph-name="f_i.sc" unicode="&#xe048;" horiz-adv-x="781" 
d="M24 471l-1 22q10 0 63.5 -2t78.5 -2h124q92 0 153 8q-3 -36 -3 -157l-21 -1q-6 46 -24 82q-10 23 -32 32.5t-80 9.5h-49q-14 0 -15 -10q-3 -21 -3 -123v-75q9 -1 52 -1q47 0 65.5 14.5t23.5 60.5l21 -1q-3 -43 -3 -105.5t3 -85.5h-20q-8 52 -24 71t-67 19q-42 0 -51 -1
v-75q0 -76 2 -106q1 -19 21 -20q38 -7 61 -7l-2 -21q-13 0 -65 2t-78 2q-24 0 -71 -2t-61 -2l-1 22l43 4q23 2 24 20q5 47 5 142v145q0 105 -3 120q0 15 -19 17zM566 162v173q0 75 -2 111q-1 15 -11 19.5t-50 6.5v21q8 0 50.5 -2t69.5 -2q32 0 74 2t52 2l1 -21
q-38 -2 -48 -7t-11 -18q-3 -48 -3 -108v-177q0 -99 3 -118q2 -14 12 -18.5t50 -7.5l-1 -21q-14 0 -61 1.5t-71 1.5t-66.5 -1.5t-54.5 -1.5l1 21q40 2 50.5 6.5t12.5 18.5q3 28 3 119z" />
    <glyph glyph-name="f_l.sc" unicode="&#xe049;" horiz-adv-x="946" 
d="M24 471l-1 22q10 0 63.5 -2t78.5 -2h124q92 0 153 8q-3 -36 -3 -157l-21 -1q-6 46 -24 82q-10 23 -32 32.5t-80 9.5h-49q-14 0 -15 -10q-3 -21 -3 -123v-75q9 -1 52 -1q47 0 65.5 14.5t23.5 60.5l21 -1q-3 -43 -3 -105.5t3 -85.5h-20q-8 52 -24 71t-67 19q-42 0 -51 -1
v-75q0 -76 2 -106q1 -19 21 -20q38 -7 61 -7l-2 -21q-13 0 -65 2t-78 2q-24 0 -71 -2t-61 -2l-1 22l43 4q23 2 24 20q5 47 5 142v145q0 105 -3 120q0 15 -19 17zM906 176l21 -4q-7 -42 -20 -177q-35 4 -106 5h-167q-44 0 -144 -4v22l48 5q24 3 24 20q5 40 5 155v139
q0 79 -2 109q-1 19 -21 20l-43 4l1 22q10 0 54 -2t74 -2q26 0 70.5 2t62.5 2l3 -22l-51 -4q-21 -3 -22 -20q-3 -94 -4 -147v-102q0 -136 2 -157q2 -15 45 -15q57 0 81 7t40 29q30 38 49 115z" />
    <glyph glyph-name="florin.fitted" unicode="&#xe04a;" horiz-adv-x="488" 
d="M46 323l12 33q46 -2 84 -2q22 156 80 220q60 65 142 65q42 0 69.5 -20t27.5 -53q0 -27 -15.5 -40.5t-38.5 -13.5q-12 0 -22 7t-8 17q4 20 4 34q0 45 -34 45t-49 -65q-16 -64 -31 -196q38 0 120 2l-10 -34q-93 3 -114 3q-27 -203 -44 -286q-26 -132 -112 -186
q-50 -30 -108 -30q-36 0 -61 17.5t-25 42.5q0 23 15.5 37.5t36.5 14.5t30 -26q16 -56 44 -56q19 0 29 18.5t18 64.5q21 133 52 389q-6 0 -92 -2z" />
    <glyph glyph-name="florin.oldstyle" unicode="&#xe04b;" horiz-adv-x="479" 
d="M52 291l12 33q22 -2 79 -2q21 143 76 204q57 62 142 62q39 0 65.5 -19t26.5 -51q0 -26 -15.5 -39t-37.5 -13q-13 0 -23.5 6.5t-8.5 16.5q4 20 4 33q0 43 -29 43q-33 0 -48 -60q-13 -53 -28 -183q74 0 115 2l-10 -33q-58 2 -109 2q-28 -200 -38 -247q-26 -129 -107 -179
q-48 -30 -104 -30q-38 0 -62.5 17t-24.5 43q0 21 15.5 35.5t34.5 14.5q22 0 30 -27q14 -54 41 -54q19 0 29 16.5t18 62.5q3 18 45 348q-44 0 -88 -2z" />
    <glyph glyph-name="g.superior" unicode="&#xe04c;" horiz-adv-x="356" 
d="M97 254l8 -12q-27 -10 -27 -35q0 -21 26.5 -36t71.5 -15q56 0 85.5 20.5t29.5 47.5q0 16 -12.5 25.5t-32.5 9.5h-125q-56 0 -83 28q-18 18 -18 46q0 42 49 72q-25 22 -25 58q0 50 40 75t93 25q50 0 76 -15q47 32 73 32q13 0 23 -7t10 -14q-1 -7 -11.5 -18t-17.5 -13
q-16 12 -36 12q-12 0 -22 -3q33 -25 33 -67q0 -49 -40.5 -73t-94.5 -24q-56 0 -84 18q-23 -6 -23 -30q0 -25 38 -25q18 0 69 1t91 1q35 0 59 -17q29 -21 29 -62q0 -61 -57.5 -94t-135.5 -33q-63 0 -99.5 18.5t-36.5 49.5q0 22 28 38q18 10 49 16zM174 542h-1q-41 0 -41 -73
q0 -76 43 -76q41 0 41 75q0 74 -42 74z" />
    <glyph glyph-name="germandbls.sc" unicode="&#xe04d;" horiz-adv-x="917" 
d="M46 184l21 5q-1 -90 44.5 -134.5t111.5 -44.5q46 0 71 21t25 57q0 44 -50 69l-64.5 29t-71.5 33q-85 40 -85 125q0 76 55 121q50 40 132 40q80 0 123 -35l20 44l19 -6q-14 -75 -12 -184l-21 -1q-5 69 -40.5 112.5t-95.5 43.5q-37 0 -60 -20.5t-23 -57.5q0 -50 62 -76
q132 -55 160 -73q56 -36 57 -105q0 -64 -42 -106q-55 -57 -170 -57q-47 0 -117 14q-11 2 -57 14q6 43 8 172zM504 184l21 5q-1 -90 44.5 -134.5t111.5 -44.5q46 0 71 21t25 57q0 44 -50 69l-64.5 29t-71.5 33q-85 40 -85 125q0 76 55 121q50 40 132 40q80 0 123 -35l20 44
l19 -6q-14 -75 -12 -184l-21 -1q-5 69 -40.5 112.5t-95.5 43.5q-37 0 -60 -20.5t-23 -57.5q0 -50 62 -76q132 -55 160 -73q56 -36 57 -105q0 -64 -42 -106q-55 -57 -170 -57q-47 0 -117 14q-11 3 -57 14q6 43 8 172z" />
    <glyph glyph-name="numbersign.oldstyle" unicode="&#xe04e;" horiz-adv-x="469" 
d="M296 289h-104l-28 -112h104zM210 486l38 3q-11 -28 -38 -130h102q26 103 30 127l40 3q-25 -72 -38 -130q73 0 92 1q-5 -15 -19 -72h-90l-28 -110q96 2 103 2q-9 -24 -18 -74h-45t-57 1l-31 -147l-40 -3q15 52 40 150h-103q-24 -91 -35 -147l-38 -6q7 22 41 153
q-14 -1 -42 -1h-46q9 30 17 73q3 0 89 -2l29 112q-42 1 -103 -1q8 25 17 72q20 -1 102 -1q13 46 31 127z" />
    <glyph glyph-name="orn.001" unicode="&#xe04f;" horiz-adv-x="918" 
d="M532 433q37 4 56.5 22t19.5 43q0 38 -38 66q-14 10 -8 22q4 8 17.5 12.5t25.5 1.5q-4 5 -30 47q-16 28 -4 37.5t37 1.5q46 -12 68 -45t22 -72q0 -57 -44.5 -104.5t-122.5 -54.5q-6 -60 -26 -111q-2 -5 -0.5 -8.5t5.5 -3t9 7.5q52 72 120 72q57 0 86 -47t38 -153
q4 -52 15 -70t29 -18q12 0 22 13.5t10 36.5q0 42 -28 54q-14 5 -5 14q21 21 41 21q14 0 26.5 -14t12.5 -42q0 -49 -57 -104q-41 -39 -82 -39q-84 0 -113 129q-17 79 -82 79q-15 0 -24.5 -10t-5.5 -17q21 -47 21 -80q0 -23 -11.5 -50.5t-22.5 -43.5t-32 -44q-38 -48 -38 -87
q0 -27 23 -27q12 0 24 12.5t33 45.5q7 13 15 -6q3 -7 3 -14q1 -33 -19 -51.5t-45 -18.5q-33 0 -57 24q-10 10 -31 17q-26 8 -48 32.5t-22 66.5q0 61 67 137q46 52 43 83q0 16 -14.5 30t-39.5 14q-19 0 -31.5 -4.5t-26 -21t-21.5 -29.5t-27 -49q-38 -69 -114 -69
q-43 0 -81 32t-38 73q0 21 9 36.5t17 20t15 6.5q5 1 5.5 -1.5t-0.5 -8.5q-1 -2 -1 -3q-9 -33 8.5 -53.5t48.5 -20.5q37 0 50 38t-5 82q-6 14 8 35q15 26 52.5 52t93.5 26q77 0 105 -61q12 -23 26 -5q29 42 37 94q-66 5 -103.5 35t-37.5 81q0 27 18 49t45 33q-28 20 -81 20
q-61 0 -101 -35t-40 -83q0 -14 27 -34q12 -9 12 -19q0 -5 -7 -8.5t-13 -0.5q-8 2 -16 2t-12.5 -1t-13.5 -4l-12 -4q-7 -3 -9.5 -2t-8.5 9q-6 14 -6 36q0 55 39 101q61 75 163 75q40 0 73.5 -15.5t54.5 -39t35 -52.5t20 -54t6 -45q0 -15 -1 -20zM502 432q1 9 1 21
q-2 95 -65 143q-16 -5 -27.5 -22.5t-11.5 -37.5q0 -51 30 -76t73 -28z" />
    <glyph glyph-name="orn.002" unicode="&#xe050;" horiz-adv-x="918" 
d="M386 91q-37 -4 -56 -22t-19 -43q0 -39 37 -66q16 -10 9 -22q-4 -9 -17.5 -13.5t-25.5 -1.5q4 -5 30 -47q15 -27 3.5 -36.5t-36.5 -2.5q-46 12 -68 45.5t-22 72.5q0 57 44.5 104.5t122.5 54.5q4 58 25 111q2 5 0.5 8.5t-5.5 3t-9 -7.5q-50 -72 -119 -72q-57 0 -86 47
t-38 153q-4 52 -15.5 70t-29.5 18q-12 0 -22 -13.5t-10 -36.5q0 -24 10 -37t19 -17q13 -5 4 -14q-19 -21 -41 -21q-14 0 -26.5 14t-12.5 42q0 49 57 104q41 39 82 39q85 0 114 -129q17 -79 81 -79q15 0 24.5 10t5.5 17q-21 47 -21 81q0 50 66 136q38 49 38 88q0 27 -23 27
q-12 0 -24 -12.5t-33 -46.5q-7 -12 -15 7q-3 8 -3 14q-1 33 19 51.5t45 18.5q33 0 57 -24q10 -10 31 -17q26 -8 48 -32.5t22 -67.5q0 -60 -67 -137q-46 -51 -43 -82q0 -16 14.5 -30t39.5 -14q19 0 31.5 4.5t26 21t21.5 29.5t27 49q38 69 114 69q43 0 81 -32t38 -73
q0 -21 -9 -36.5t-17 -20t-15 -6.5q-5 -1 -5.5 1.5t0.5 8.5q1 2 1 3q9 33 -8.5 53.5t-48.5 20.5q-37 0 -50 -38t5 -82q6 -14 -8 -35q-15 -26 -52.5 -52t-93.5 -26q-77 0 -105 61q-12 23 -26 5q-29 -42 -37 -94q66 -5 103.5 -35t37.5 -81q0 -27 -18 -49.5t-45 -33.5
q28 -20 81 -20q61 0 101 35t40 83q0 13 -27 35q-12 8 -12 19q0 5 7 8.5t13 0.5q8 -2 16 -2t12.5 1t13.5 4l12 4q7 3 9.5 2t8.5 -9q6 -13 6 -37q0 -54 -39 -101q-61 -75 -163 -75q-40 0 -73.5 15.5t-54.5 39t-35 52.5t-20 54.5t-6 45.5q0 15 1 20zM416 92q-1 -9 -1 -21
q1 -41 17 -80.5t48 -62.5q16 4 27.5 22t11.5 38q0 51 -30 76t-73 28z" />
    <glyph glyph-name="orn.003" unicode="&#xe051;" horiz-adv-x="918" 
d="M630 190q4 -37 22 -56t43 -19q39 0 66 37q10 17 22 8q9 -4 13.5 -17t1.5 -25q5 4 47 30q28 15 37.5 3.5t1.5 -36.5q-12 -46 -45.5 -68t-72.5 -22q-57 0 -104.5 44.5t-54.5 122.5q-58 4 -111 25q-5 2 -8.5 0.5t-3 -5.5t7.5 -9q72 -50 72 -119q0 -57 -47 -86t-153 -38
q-52 -4 -69.5 -15.5t-17.5 -29.5q0 -12 13.5 -22t36.5 -10t37 10t17 19q4 13 13 4q21 -17 21 -41q0 -14 -13.5 -26.5t-41.5 -12.5q-49 0 -104 57q-39 41 -39 82q0 85 128 114q79 17 79 81q0 15 -10 24.5t-17 5.5q-42 -21 -80 -21q-23 0 -50.5 12t-43 22.5l-44.5 31.5
q-48 38 -87 38q-27 0 -27 -23q0 -12 12.5 -24t46.5 -33q12 -7 -7 -15q-8 -3 -14 -3q-33 -1 -51.5 19t-18.5 45q0 33 24 57q10 10 17 31q8 26 32.5 48t66.5 22q61 0 137 -67q52 -46 83 -43q16 0 30 14.5t14 39.5q0 19 -4.5 31.5t-21 26t-29.5 21.5t-49 27q-69 38 -69 114
q0 43 32 81t73 38q21 0 36.5 -9t20 -17t6.5 -15q1 -5 -1.5 -5.5t-8.5 0.5q-2 1 -3 1q-33 9 -53.5 -8.5t-20.5 -48.5q0 -37 38.5 -50t81.5 5q14 6 35 -8q26 -15 52 -52.5t26 -93.5q0 -77 -61 -105q-23 -12 -5 -26q42 -29 94 -37q5 66 35 103.5t81 37.5q27 0 49.5 -18
t33.5 -45q20 28 20 81q0 61 -35 101t-83 40q-13 0 -35 -27q-8 -12 -19 -12q-5 0 -8.5 7t-0.5 13q2 8 2 16t-1 12.5t-4 13.5l-4 12q-3 7 -2 9.5t9 8.5q14 6 37 6q54 0 101 -39q75 -61 75 -163q0 -40 -15.5 -73.5t-39 -54.5t-52.5 -35t-54.5 -20t-45.5 -6q-15 0 -20 1z
M629 220q9 -1 21 -1q41 1 80.5 17t62.5 48q-4 16 -22 27.5t-38 11.5q-51 0 -76 -30t-28 -73z" />
    <glyph glyph-name="orn.004" unicode="&#xe052;" horiz-adv-x="918" 
d="M290 335q-4 37 -22 56t-43 19q-37 0 -66 -37q-9 -15 -22 -9q-8 5 -12.5 18t-1.5 25q-5 -4 -47 -30q-28 -15 -37.5 -3.5t-1.5 36.5q12 46 45 68t72 22q57 0 104.5 -44.5t54.5 -122.5q58 -4 111 -25q5 -2 8.5 -0.5t3 5.5t-7.5 9q-72 50 -72 119q0 57 47 86t153 38
q52 4 70 15.5t18 29.5q0 12 -13.5 22t-36.5 10q-24 0 -37 -10t-17 -19q-5 -13 -14 -4q-21 19 -21 41q0 14 14 26.5t42 12.5q49 0 104 -57q39 -41 39 -82q0 -85 -129 -114q-79 -17 -79 -81q0 -15 10 -24.5t17 -5.5q47 21 81 21q23 0 50 -11.5t43 -22.5t44 -32q48 -38 87 -38
q27 0 27 23q0 12 -12.5 24t-46.5 33q-12 7 7 15q8 3 14 3q33 1 51.5 -19t18.5 -45q0 -33 -24 -57q-10 -10 -17 -31q-8 -26 -32.5 -48t-66.5 -22q-61 0 -137 67q-52 46 -83 43q-16 0 -30 -14.5t-14 -39.5q0 -19 4.5 -31.5t21 -26t29.5 -21.5t49 -27q69 -38 69 -114
q0 -43 -32 -81t-73 -38q-21 0 -36.5 9t-20 17t-6.5 15q-1 5 1.5 5.5t8.5 -0.5q2 -1 3 -1q33 -9 53.5 8.5t20.5 48.5q0 37 -38.5 50t-81.5 -5q-14 -6 -35 8q-26 15 -52 52.5t-26 93.5q0 77 61 105q23 12 5 26q-42 29 -94 37q-5 -66 -35 -103.5t-81 -37.5q-27 0 -49 18t-33 45
q-20 -28 -20 -81q0 -61 35 -101t83 -40q14 0 34 27q9 12 19 12q5 0 8.5 -7t0.5 -13q-2 -8 -2 -16t1 -12.5t4 -13.5l4 -12q3 -7 2 -9.5t-9 -8.5q-14 -6 -36 -6q-55 0 -101 39q-75 61 -75 163q0 40 15.5 73.5t39 54.5t52.5 35t54 20t45 6q15 0 20 -1zM291 305q-9 1 -21 1
q-95 -2 -143 -65q5 -16 22.5 -27.5t37.5 -11.5q51 0 76 30t28 73z" />
    <glyph glyph-name="orn.005" unicode="&#xe053;" horiz-adv-x="951" 
d="M717 367q-7 -40 -7 -60q0 -84 44.5 -131t84.5 -47q18 0 22 4q5 10 5 22q0 74 -40.5 131.5t-108.5 80.5zM700 403q26 71 74 101q26 19 62 19q40 0 61.5 -23.5t21.5 -46.5q0 -13 -7.5 -23t-13.5 -13.5t-12 -5.5q-12 -3 -16 5q-19 35 -56 35q-28 0 -52 -16.5t-33 -40.5
q89 -36 138.5 -111.5t49.5 -167.5q0 -44 -13 -83t-35 -58q-43 8 -75 -8q-12 -10 -12 4q0 16 11 23q1 1 7.5 4.5t11 7t12.5 10.5t14 16t12 23t11 31q-69 -8 -125.5 56.5t-56.5 156.5q0 31 11 78q-25 5 -43 5q-52 0 -88.5 -23t-44.5 -74q52 13 72 -23q19 -33 19 -72
q0 -95 -62 -154q-28 -27 -78 -44.5t-113 -17.5q-143 2 -227 84q-56 52 -56 120q0 40 23 98q24 62 24 86q0 36 -29 42.5t-52 -14.5q-15 -15 -15 6t13 34.5t33 13.5q49 0 73 -50q19 -40 -7 -113q-17 -56 -17 -94q0 -30 17.5 -50.5t43.5 -20.5q34 0 58.5 26.5t24.5 66.5
q0 39 -27 103q-11 26 -3 50q26 71 99 71q68 0 103 -23q23 -13 23 -33q0 -1 4 -18t8 -29t9 -19q5 36 44 69t110 33q35 0 71 -9z" />
    <glyph glyph-name="orn.006" unicode="&#xe054;" horiz-adv-x="951" 
d="M717 46q68 24 108.5 81t40.5 131q0 12 -5 22q-4 4 -22 4q-40 0 -84.5 -47t-44.5 -130q0 -19 7 -61zM700 10q-36 -9 -71 -9q-71 0 -110 33t-44 70q-5 -7 -9 -19t-8 -29t-4 -18q0 -20 -23 -33q-35 -23 -103 -23q-73 0 -99 71q-8 23 3 50q27 63 27 103t-24.5 66t-58.5 26
q-26 0 -43.5 -20.5t-17.5 -50.5q0 -38 18 -94q25 -74 6 -113q-24 -50 -73 -50q-20 0 -33 13.5t-13 34.5q0 22 15 7q23 -22 52 -15t29 43q0 26 -25 86q-22 59 -22 97q0 67 56 121q86 83 227 83q127 1 191 -61q62 -60 62 -154q0 -38 -19 -73q-20 -36 -72 -23q8 -51 44.5 -74
t88.5 -23q18 0 43 5q-11 47 -11 78q0 92 56.5 157t125.5 57q-5 17 -11 31t-12 22.5t-13.5 16t-12.5 10.5t-11.5 6.5t-7.5 4.5q-11 7 -11 23q0 15 12 4q32 -16 75 -8q22 -19 35 -58t13 -83q0 -91 -49.5 -167t-138.5 -112q9 -24 33 -40.5t52 -16.5q37 0 56 35q4 9 16 6
q5 -2 11.5 -5.5t14 -14t7.5 -23.5q0 -23 -21.5 -46.5t-61.5 -23.5q-36 0 -62 19q-48 30 -74 101z" />
    <glyph glyph-name="orn.007" unicode="&#xe055;" horiz-adv-x="951" 
d="M235 367q-68 -23 -108.5 -80.5t-40.5 -131.5q0 -12 5 -22q4 -4 22 -4q40 0 84.5 47t44.5 131q0 20 -7 60zM252 403q36 9 71 9q71 0 110 -33t44 -69q5 7 9 19t7 28.5t4 18.5q0 20 24 33q34 23 103 23t99 -71q5 -20 4 -27t-8 -23q-27 -65 -27 -103q0 -40 24.5 -66.5
t58.5 -26.5q27 0 44 20.5t17 50.5q0 43 -17 94q-25 74 -6 113q24 50 73 50q20 0 33 -13.5t13 -34.5q0 -23 -15 -6q-23 21 -52 14.5t-29 -42.5q0 -24 24 -87q22 -59 22 -97q0 -68 -56 -120q-84 -82 -226 -84q-126 0 -192 62q-61 59 -61 154q0 39 19 72q20 36 72 23
q-8 50 -44.5 73.5t-88.5 23.5q-18 0 -43 -5q11 -47 11 -78q0 -92 -56.5 -157t-125.5 -57q5 -17 11 -31t12 -22.5t13.5 -16t12.5 -10.5t11.5 -6.5t7.5 -4.5q11 -7 11 -23q0 -14 -12 -4q-32 16 -75 8q-48 45 -48 142q0 91 49.5 166.5t138.5 111.5q-9 24 -33 40.5t-52 16.5
q-37 0 -56 -35q-4 -8 -16 -5q-6 2 -12 5.5t-13.5 13.5t-7.5 23q0 23 21.5 46.5t61.5 23.5q36 0 62 -19q48 -30 74 -101z" />
    <glyph glyph-name="orn.008" unicode="&#xe056;" horiz-adv-x="951" 
d="M235 46q7 42 7 61q0 83 -44.5 130t-84.5 47q-18 0 -22 -4q-5 -10 -5 -22q0 -74 40.5 -131t108.5 -81zM252 10q-26 -71 -74 -101q-26 -19 -62 -19q-40 0 -61.5 23.5t-21.5 46.5q0 19 11.5 29.5t21.5 13.5q12 3 16 -6q19 -35 56 -35q28 0 52 16.5t33 40.5
q-89 36 -138.5 112t-49.5 167q0 44 13 83t35 58q43 -8 75 8q12 11 12 -4q0 -16 -11 -23q-1 -1 -7.5 -4.5t-11.5 -6.5t-12.5 -10.5t-13.5 -16t-12 -22.5t-11 -31q69 8 125.5 -57t56.5 -157q0 -31 -11 -78q25 -5 43 -5q52 0 88.5 23.5t44.5 73.5q-52 -13 -72 23q-19 35 -19 73
q0 93 61 154q66 62 192 61q140 0 226 -83q56 -54 56 -121q0 -38 -22 -97q-24 -62 -24 -86q0 -36 29 -43t52 15q15 15 15 -7q0 -21 -13 -34.5t-33 -13.5q-49 0 -73 50q-19 39 6 114q17 51 17 93q0 30 -17 50.5t-44 20.5q-34 0 -58.5 -26t-24.5 -66t27 -103q7 -16 8 -23.5
t-4 -26.5q-30 -71 -99 -71t-103 23q-24 13 -24 33q-1 2 -4 18.5t-7 28.5t-9 19q-5 -37 -44 -70t-110 -33q-35 0 -71 9z" />
    <glyph glyph-name="orn.009" unicode="&#xe057;" horiz-adv-x="804" 
d="M498 31l-8 13q16 21 16 83q0 119 -48 181q-49 63 -138 63q-54 0 -102.5 -46.5t-48.5 -125.5q0 -65 33 -94t71 -29q30 0 65 24t35 63q0 32 -19.5 50t-46.5 18q-28 0 -42 -17.5t-14 -39.5q0 -18 8 -31q5 -4 -1 -5q-5 0 -12 4q-24 15 -24 51q0 29 21.5 57t68.5 28
q52 0 85 -46t33 -110q0 -57 -29 -94.5t-68.5 -51t-89.5 -13.5q-53 0 -95 20.5t-65 49.5t-38 66.5t-19.5 66.5t-4.5 54q0 144 97 244q116 121 279 121q172 0 287 -153q56 -73 77.5 -144t21.5 -116q0 -115 -47 -162q-14 -8 -25 -4q-31 11 -100 19t-113 6zM519 271q38 3 76 35
t38 92q0 59 -43 89q-6 5 -7 -5q0 -3 1 -6q13 -65 -13 -107q-24 -37 -61 -37q-7 0 -10.5 8t4.5 15q8 4 20 23t22 45t3 57t-36 53q-10 8 -10 -1q12 -16 3 -62t-32 -60q-12 -9 -24 -1q-7 5 0 9q10 8 17.5 30.5t7.5 43.5q0 27 -16.5 49t-51.5 23q-15 0 -14 -5q1 -2 4 -4
q31 -30 31 -88q0 -20 -6.5 -33.5t-13 -18t-11.5 -4.5q-8 0 -9 2t3 10q7 15 7 34q0 40 -29.5 67t-59.5 26q-25 -1 -41 -10q-10 -7 5 -11q33 -13 53 -40.5t20 -50.5q0 -26 -11 -31q24 -2 38 -4.5t36.5 -10.5t38.5 -21.5t35 -38.5t36 -61zM315 401q5 34 -17.5 67t-67.5 33
q-41 0 -63 -29q-4 -6 -3 -9.5t6 -3.5q42 0 62 -22q15 -18 15 -32q0 -6 1.5 -8.5t6.5 -0.5q7 4 27 5.5t33 -0.5zM148 282q4 7 -5 19q-31 30 -64 7t-33 -65q0 -15 3.5 -23t9.5 -4q42 10 58 2l12 -6t6.5 -2t3 2t0.5 6q0 30 9 64zM129 187q-6 4 -25 3.5t-27 -7.5
q-13 -12 -13 -40q0 -31 20 -51q15 -15 18 -2q12 33 30 46q11 8 8 23q-7 26 -11 28zM170 73q2 23 -1 33t-17 10q-17 0 -22 -22q-8 -28 1.5 -55t30.5 -37q16 -9 16 -3q0 2 -1 4q-4 7 -7 29t0 41zM80 363q-2 -9 7 -9q8 0 32.5 -10t35.5 -21q9 -11 15 0q12 21 49 50q14 10 8 19
q-14 23 -48 29.5t-68 -14.5q-23 -17 -31 -44zM269 -12h1q9 0 10.5 3t-3.5 19q-5 14 -30 36t-34 22t-11 -3t-2 -15q0 -14 6.5 -32.5t17.5 -22.5q21 -7 45 -7zM734 273q-5 -39 -28 -65.5t-52 -36t-60.5 -12.5t-54.5 5q7 -50 -6 -100q152 -18 188 -27q26 35 29 77
q-41 -40 -91 -42q-55 -2 -76 14q-13 9 -7 13h4q32 -7 66 -1t54 22q45 38 45 98q0 48 -11 55zM527 238q4 -11 10 -45q25 -2 51.5 3t54 17t45.5 38t18 63q0 38 -22 69q-4 4 -6.5 2t-2.5 -5q-10 -130 -148 -142zM356 36q6 18 -3 21q-15 7 -47 -7q-22 -9 -13 -24q14 -23 31 -21
q10 3 19.5 12.5t12.5 18.5zM388 83q25 13 8 22q-27 11 -27 -13q0 -18 19 -9z" />
    <glyph glyph-name="orn.010" unicode="&#xe058;" horiz-adv-x="804" 
d="M490 504l8 13q44 -2 113 6t100 19q11 4 25 -4q47 -47 47 -162q0 -45 -21.5 -116t-76.5 -144q-116 -153 -288 -153q-163 0 -279 121q-97 100 -97 244q0 25 4.5 53.5t19.5 66t38 67t64.5 50t94.5 20.5q79 0 133.5 -37.5t54.5 -121.5q0 -64 -33 -110t-85 -46q-47 0 -68.5 28
t-21.5 57q0 36 24 51q12 7 14 2q1 -1 -1 -3q-8 -13 -8 -31q0 -22 14 -39.5t42 -17.5q27 0 46.5 18t19.5 50q0 39 -35 63t-65 24q-38 0 -71 -29t-33 -94q0 -79 48.5 -125.5t102.5 -46.5q89 0 138 63q48 62 48 181q0 62 -16 83zM519 277q-17 -36 -36 -61t-35 -38.5
t-38.5 -21.5t-36.5 -10.5t-38 -4.5q11 -5 11 -31q0 -23 -20.5 -50.5t-53.5 -40.5q-14 -4 -4 -11q16 -9 40 -10q30 -1 60 26t30 67q0 19 -7 34q-4 8 -3 10t9 2q5 0 11.5 -4.5t13 -18t6.5 -33.5q0 -58 -31 -88q-7 -8 10 -9q35 1 51.5 23t16.5 49q0 21 -7.5 43.5t-17.5 30.5
q-9 6 2.5 10.5t21.5 -2.5q23 -14 31.5 -60t-3.5 -62q0 -2 1.5 -3.5t4 -0.5t4.5 3q29 22 36.5 53t-2.5 57t-22 45t-20 23q-9 7 -5 15t11 8q37 0 61 -37q26 -42 13 -107q-3 -10 2 -12q2 -1 4 1q43 30 43 89q0 60 -38 92t-76 35zM315 147q-13 -2 -33.5 -0.5t-27.5 5.5
q-4 2 -5.5 -0.5t-1.5 -8.5q0 -16 -16 -32q-20 -22 -61 -22q-5 0 -6 -3.5t3 -9.5q21 -29 63 -29q45 0 67.5 33t17.5 67zM148 265q-9 34 -9 64q0 4 -0.5 6t-3 2t-6.5 -2l-12 -6q-16 -8 -58 2q-6 4 -9.5 -4t-3.5 -23q0 -42 33 -65t64 8q8 12 5 18zM129 360q4 2 11 28
q3 15 -8 23q-18 13 -30 46q-3 13 -18 -2q-21 -19 -21 -51q0 -28 13 -40q9 -7 27.5 -7.5t25.5 3.5zM170 475q-3 19 0 41t7 29q3 6 -2 6t-13 -5q-21 -10 -30.5 -37.5t-1.5 -54.5q5 -21 22 -21q14 0 17 9.5t1 32.5zM80 185q7 -26 31 -44q34 -21 68 -14.5t48 29.5q6 9 -8 19
q-37 29 -49 50q-6 9 -15 0q-11 -11 -35.5 -21t-32.5 -10q-9 0 -7 -9zM269 560h-1q-23 0 -44 -7q-11 -4 -17.5 -22.5t-6.5 -32.5q0 -12 2 -15t11 -3t34 22t30 36q5 16 3.5 19t-11.5 3zM734 275q11 7 11 55q0 61 -45 97q-20 16 -54.5 22.5t-65.5 -0.5q-5 -1 -5 3q0 5 8 10
q21 16 76 14q50 -2 91 -42q-3 42 -29 77q-34 -9 -188 -27q13 -42 7 -101q22 8 53.5 5t60.5 -12t52 -35.5t28 -65.5zM526 310q139 -12 149 -142q0 -3 2.5 -5t5.5 2q23 28 23 68q0 37 -18 63t-45.5 38t-54 17t-51.5 3q-5 -30 -11 -44zM356 512q-3 9 -12.5 18.5t-19.5 12.5
q-17 2 -31 -22q-10 -14 13 -24q33 -13 47 -6q8 2 3 21zM388 464q-19 10 -19 -8q0 -23 27 -14q8 7 4.5 12.5t-12.5 9.5z" />
    <glyph glyph-name="orn.011" unicode="&#xe059;" horiz-adv-x="804" 
d="M314 44l-8 -13q-44 2 -113 -6t-100 -19q-11 -4 -25 4q-47 47 -47 162q0 45 21.5 116t76.5 144q116 153 288 153q163 0 279 -121q97 -100 97 -244q0 -25 -4.5 -53.5t-19.5 -66t-38 -67t-64.5 -50t-94.5 -20.5q-79 0 -133.5 37.5t-54.5 121.5q0 64 33 110t85 46
q47 0 68.5 -28t21.5 -57q0 -36 -24 -51q-12 -7 -14 -2q-1 1 1 3q8 13 8 31q0 22 -14 39.5t-42 17.5q-27 0 -46.5 -18t-19.5 -50q0 -39 35 -63t65 -24q38 0 71 29t33 94q0 79 -48.5 125.5t-102.5 46.5q-89 0 -138 -63q-48 -62 -48 -181q0 -62 16 -83zM285 271q17 36 36 61
t35 38.5t38.5 21.5t36.5 10.5t38 4.5q-11 5 -11 31q0 23 20.5 50.5t53.5 40.5q14 4 4 11q-16 9 -40 10q-30 1 -60 -26t-30 -67q0 -19 7 -34q4 -8 3 -10t-9 -2q-5 0 -11.5 4.5t-13 18t-6.5 33.5q0 58 31 88q7 8 -10 9q-35 -1 -51.5 -23t-16.5 -49q0 -21 7.5 -43.5t17.5 -30.5
q9 -6 -2.5 -10.5t-21.5 2.5q-23 14 -31.5 60t3.5 62q0 2 -1.5 3.5t-4 0.5t-4.5 -3q-29 -22 -36.5 -53t2.5 -57t22 -45t20 -23q9 -7 5 -15t-11 -8q-37 0 -61 37q-26 42 -13 107q3 10 -2 12q-2 1 -4 -1q-43 -30 -43 -89q0 -60 38 -92t76 -35zM489 401q13 2 33.5 0.5t27.5 -5.5
q4 -2 5.5 0.5t1.5 8.5q0 16 16 32q20 22 61 22q5 0 6 3.5t-3 9.5q-21 29 -63 29q-45 0 -67.5 -33t-17.5 -67zM656 282q9 -34 9 -64q0 -4 0.5 -6t3 -2t6.5 2l12 6q16 8 58 -2q6 -4 9.5 4t3.5 23q0 42 -33 65t-64 -8q-8 -12 -5 -18zM675 187q-4 -2 -11 -28q-3 -15 8 -23
q18 -13 30 -46q3 -13 18 2q21 19 21 51q0 28 -13 40q-9 7 -27.5 7.5t-25.5 -3.5zM634 73q3 -19 0 -41t-7 -29q-3 -6 2 -6t13 5q21 10 30.5 37t1.5 55q-5 22 -22 22q-14 0 -17 -10t-1 -33zM724 363q-8 27 -31 44q-34 21 -68 14.5t-48 -29.5q-6 -9 8 -19q37 -29 49 -50
q6 -11 15 0q11 11 35.5 21t32.5 10q9 0 7 9zM535 -12h1q23 0 44 7q11 4 17.5 22.5t6.5 32.5q0 12 -2 15t-11 3t-34 -22t-30 -36q-5 -16 -3.5 -19t11.5 -3zM70 273q-11 -7 -11 -55q0 -60 45 -98q19 -16 54 -22t66 1q4 1 4 -3q0 -5 -8 -10q-21 -16 -75 -14q-50 2 -91 42
q3 -42 29 -77q39 10 188 27q-13 44 -7 100q-22 -8 -53.5 -5t-60.5 12.5t-52 36t-28 65.5zM277 238q-79 7 -111.5 48t-37.5 93q0 4 -2.5 5.5t-5.5 -2.5q-23 -28 -23 -68q0 -37 18 -63t45.5 -38t54 -17t51.5 -3q5 30 11 45zM448 36q3 -9 12.5 -18.5t18.5 -12.5q18 -2 32 21
q9 15 -13 24q-33 14 -47 7q-9 -3 -3 -21zM416 83q19 -9 19 9q0 24 -27 13q-17 -9 8 -22z" />
    <glyph glyph-name="orn.012" unicode="&#xe05a;" horiz-adv-x="804" 
d="M306 517l8 -13q-16 -21 -16 -83q0 -119 48 -181q49 -63 138 -63q54 0 102.5 46.5t48.5 125.5q0 65 -33 94t-71 29q-30 0 -65 -24t-35 -63q0 -32 19.5 -50t46.5 -18q28 0 42 17.5t14 39.5q0 18 -8 31q-5 4 1 5q5 0 12 -4q24 -15 24 -51q0 -29 -21.5 -57t-68.5 -28
q-52 0 -85 46t-33 110q0 57 29 94.5t68.5 51t89.5 13.5q53 0 95 -20.5t65 -49.5t38 -66.5t19.5 -66.5t4.5 -54q0 -144 -97 -244q-116 -121 -279 -121q-172 0 -287 153q-56 73 -77.5 144t-21.5 116q0 115 47 162q14 8 25 4q31 -11 100 -19t113 -6zM285 277q-38 -3 -76 -35
t-38 -92q0 -59 43 -89q6 -5 7 5q0 3 -1 6q-13 65 13 107q24 37 61 37q7 0 10.5 -8t-4.5 -15q-8 -4 -20 -23t-22 -45t-3 -57t36 -53q10 -8 10 1q-12 16 -3 62t32 60q12 9 24 1q7 -5 0 -9q-10 -8 -17.5 -30.5t-7.5 -43.5q0 -27 16.5 -49t51.5 -23q15 0 14 5q-1 2 -4 4
q-31 30 -31 88q0 20 6.5 33.5t13 18t11.5 4.5q8 0 9 -2t-3 -10q-7 -15 -7 -34q0 -40 29.5 -67t59.5 -26q25 1 41 10q10 7 -5 11q-33 13 -53 40.5t-20 50.5q0 26 11 31q-24 2 -38 4.5t-36.5 10.5t-38.5 21.5t-35 38.5t-36 61zM489 147q-5 -34 17.5 -67t67.5 -33q41 0 63 29
q4 6 3 9.5t-6 3.5q-42 0 -62 22q-15 18 -15 32q0 6 -1.5 8.5t-6.5 0.5q-7 -4 -27 -5.5t-33 0.5zM656 266q-4 -7 5 -19q31 -30 64 -7t33 65q0 15 -3.5 23t-9.5 4q-42 -10 -58 -2l-12 6t-6.5 2t-3 -2t-0.5 -6q0 -30 -9 -64zM675 361q6 -4 25 -3.5t27 7.5q13 12 13 40
q0 31 -20 51q-15 15 -18 2q-12 -33 -30 -46q-11 -8 -8 -23q7 -26 11 -28zM634 475q-2 -23 1 -32.5t17 -9.5q17 0 22 21q8 28 -1.5 55.5t-30.5 37.5q-18 9 -16 1q0 -1 1 -3q4 -7 7 -28.5t0 -41.5zM724 185q2 9 -7 9q-8 0 -32.5 10t-35.5 21q-9 9 -15 0q-12 -21 -49 -50
q-14 -10 -8 -19q14 -23 48 -29.5t68 14.5q24 18 31 44zM535 560h-1q-9 0 -10.5 -3t3.5 -19q5 -14 30 -35.5t34 -21.5t11 2.5t2 14.5q0 14 -6.5 33t-17.5 22q-21 7 -45 7zM69 275q6 39 29 65.5t52 35.5t60.5 12t54.5 -5q-7 51 6 101q-157 19 -188 27q-26 -37 -29 -77
q41 40 91 42q55 2 76 -14q13 -9 7 -13h-4q-31 7 -65.5 0.5t-54.5 -22.5q-45 -36 -45 -97q0 -48 10 -55zM278 310q-6 14 -11 44q-25 2 -51.5 -3t-54.5 -17t-46 -38t-18 -63q0 -40 23 -68q4 -4 6.5 -2t2.5 5q10 130 149 142zM448 512q-5 -19 3 -21q13 -7 47 6q23 10 13 24
q-14 24 -32 22q-9 -3 -18.5 -12.5t-12.5 -18.5zM416 464q-9 -4 -12.5 -9.5t4.5 -12.5q27 -9 27 14q0 18 -19 8z" />
    <glyph glyph-name="orn.013" unicode="&#xe05b;" horiz-adv-x="926" 
d="M297 522h1q44 0 95.5 -12.5t113.5 -40.5t127 -82t118 -128q-6 31 -20.5 66.5t-40 76.5t-68 75t-93.5 51q11 23 27 28h11q11 1 19.5 1t25.5 -2t32 -5.5t35.5 -11t39 -18t40 -27.5t41.5 -38q118 -125 118 -315q0 -114 -28 -157q-5 -5 -17.5 -10t-18.5 -5q-14 0 -5 23
q1 1 5.5 12t8 21.5t8 27t7 39t2.5 48.5q0 164 -76.5 267t-188.5 118q-5 1 -5 -2q1 -4 5 -7q83 -43 149.5 -182.5t66.5 -302.5q0 -12 -18 -24q-14 -12 -24 -12q-8 0 -8 24q0 10 -8 3q-3 -2 -16 -11.5l-21.5 -15.5t-12.5 -6q-11 0 -16 15q-8 28 -39.5 48.5t-77.5 20.5
q-38 0 -66 -13q-2 -1 -5 -2q-4 -1 -3 2v5q0 13 12 23q9 10 26 18t52.5 7.5t73.5 -19.5q-20 59 -72 103t-116 44q-40 0 -61 -8q-14 -6 -14 10q0 35 35 59.5t99 24.5q54 0 113 -28q-74 98 -166.5 143t-183.5 45q-176 0 -176 -129q0 -53 30 -89t71 -36q65 0 100 61q7 13 17 6
q31 -23 57 -67.5t26 -94.5q0 -78 -52 -123.5t-132 -45.5q-103 0 -176.5 76t-73.5 201q0 24 6 53.5t25 70.5t49 74t85 56t126 23zM218 175h-1q-39 0 -66 33t-36.5 74t-6.5 78q1 13 -2.5 15.5t-11.5 -3.5q-53 -43 -53 -131q0 -109 66.5 -175t150.5 -66q64 0 111 37t42 114
q0 8 -4 10q-3 1 -4 -3q-1 -1 -1 -2q-25 -100 -142 -100q-85 0 -141.5 73t-41.5 159q2 10 6 12q2 1 4 -3v-7q-1 -16 9 -42.5t29.5 -55.5t56.5 -49.5t82 -20.5q53 0 84 25t31 53q0 34 -25 46q-36 -71 -136 -71zM750 58l27 -4q-3 96 -59.5 169t-160.5 73q-78 0 -98 -20
q-5 -5 -5 -8t7 -2q89 8 156.5 -39t132.5 -169z" />
    <glyph glyph-name="orn.014" unicode="&#xe05c;" horiz-adv-x="926" 
d="M297 3h-1q-70 0 -125 23t-85 55.5t-49 73.5t-25 71t-6 53q0 125 73.5 201t176.5 76q80 0 132 -45.5t52 -123.5q0 -50 -26 -94.5t-57 -67.5q-10 -8 -16 6q-36 61 -101 61q-40 0 -70 -36.5t-30 -88.5q0 -128 175 -128q91 0 183.5 45t166.5 142q-59 -28 -113 -28
q-64 0 -99 24.5t-35 59.5q0 16 14 10q19 -7 61 -7q65 0 117 44t71 102q-38 -19 -73.5 -19.5t-52.5 7.5t-26 18q-12 10 -12 23v5v3l4 -1q2 -1 4 -1q26 -14 66 -14q46 0 77.5 20.5t39.5 49.5q5 15 16 15q4 0 12.5 -6l21.5 -15.5t16 -11.5q8 -7 8 3q0 24 8 24q9 0 24 -12
q18 -12 18 -24q0 -164 -66.5 -303t-149.5 -182q-6 -5 -4 -8q0 -2 4 -1q112 15 188.5 117.5t76.5 266.5q0 26 -2.5 49t-7 39.5t-8 27t-8 21.5t-5.5 12q-9 22 5 22q5 0 18 -5t18 -9q28 -43 28 -158q0 -190 -118 -314q-20 -21 -41.5 -38t-40 -27.5t-39 -18t-35.5 -11t-32 -5.5
t-25.5 -2h-19.5l-11 1q-16 5 -27 28q51 17 93.5 51t68 74.5t40 76t20.5 66.5q-53 -73 -118 -127.5t-127 -82t-114 -40t-96 -12.5zM218 349h1q99 0 135 -71q25 12 25 46q0 28 -31 53t-84 25q-45 0 -82 -20.5t-56.5 -49.5t-29.5 -55.5t-9 -42.5q1 -9 -2 -10t-6 5q-1 3 -2 7
q-15 86 41.5 159t141.5 73q117 0 142 -100q2 -11 7 -3q2 4 2 8q5 78 -42 114.5t-111 36.5q-84 0 -150.5 -66t-66.5 -175q0 -89 53 -130q8 -7 11.5 -5t2.5 16q-3 37 6.5 78t36.5 74t67 33zM777 470l-27 -4q-65 -122 -132.5 -168.5t-156.5 -38.5q-13 0 -2 -11q20 -20 98 -20
q104 0 160.5 73t59.5 169z" />
    <glyph glyph-name="orn.015" unicode="&#xe05d;" horiz-adv-x="926" 
d="M629 522h1q70 0 124.5 -23t84.5 -56t49 -74t25 -71t6 -53q0 -125 -73 -201t-176 -76q-80 0 -132 45.5t-52 123.5q0 50 26 94.5t57 67.5q10 8 16 -6q36 -61 101 -61q40 0 70 36.5t30 88.5q0 129 -175 129q-91 0 -183.5 -45t-166.5 -143q59 28 113 28q64 0 99 -24.5
t35 -59.5q0 -16 -14 -10q-21 8 -61 8q-64 0 -116 -44t-72 -103q38 19 73.5 19.5t52.5 -7.5t26 -18q12 -10 12 -23v-5q1 -3 -3 -2q-3 1 -5 2q-28 13 -66 13q-46 0 -77.5 -20.5t-39.5 -48.5q-5 -15 -16 -15q-4 0 -12.5 6l-21.5 15.5t-16 11.5q-8 7 -8 -3q0 -24 -8 -24
q-10 0 -24 12q-18 12 -18 24q0 163 66.5 302.5t149.5 182.5q6 5 4 8q0 2 -4 1q-112 -15 -189 -118t-77 -267q0 -32 4.5 -60.5t9 -42.5t10.5 -29t7 -17q9 -22 -4 -22q-6 0 -19 5t-18 9q-28 43 -28 158q0 190 119 315q20 21 41.5 38t40 27.5t39 18t35.5 11t32 5.5t25.5 2
t19.5 -1h11q16 -5 27 -28q-51 -17 -93.5 -51t-68 -75t-40 -76.5t-20.5 -66.5q53 74 118 128t127 82t114 40.5t96 12.5zM708 175h-1q-99 0 -135 71q-25 -12 -25 -46q0 -28 31 -53t84 -25q45 0 82 20.5t56.5 49.5t29.5 55.5t9 42.5q-1 9 2 10t6 -5q1 -3 2 -7
q15 -86 -41.5 -159t-141.5 -73q-117 0 -142 100q-2 11 -7 3q-2 -4 -2 -8q-5 -78 42 -114.5t111 -36.5q84 0 150 66t66 175q0 89 -52 131q-8 6 -11.5 3.5t-2.5 -15.5q3 -37 -6.5 -78t-36.5 -74t-67 -33zM149 54l27 4q65 122 132.5 168.5t156.5 38.5q13 0 2 11q-20 20 -98 20
q-104 0 -160.5 -73t-59.5 -169z" />
    <glyph glyph-name="orn.016" unicode="&#xe05e;" horiz-adv-x="926" 
d="M629 3h-1q-44 0 -95.5 12.5t-113.5 40t-127 82t-118 127.5q6 -31 20.5 -66.5t40 -76t68 -74.5t93.5 -51q-11 -23 -27 -28l-11 -1h-19.5t-25.5 2t-32 5.5t-35.5 11t-39 18t-40 27.5t-41.5 38q-119 123 -119 314q0 115 28 158q5 5 18 10t19 5q13 0 4 -23q-1 -2 -7 -17
t-10.5 -29t-9 -42.5t-4.5 -60.5q0 -164 77 -266.5t189 -117.5q5 -1 5 2q-1 4 -5 7q-83 43 -149.5 182t-66.5 303q0 12 18 24q15 12 24 12q8 0 8 -25q0 -8 8 -3q44 34 50 34q11 0 16 -15q8 -29 39.5 -49.5t77.5 -20.5q40 0 66 14q8 -5 8 -6q0 -13 -12 -23q-9 -10 -26 -18
t-52.5 -7.5t-73.5 19.5q19 -58 71 -102t117 -44q42 0 61 7q14 6 14 -10q0 -35 -35 -59.5t-99 -24.5q-54 0 -113 28q74 -97 166.5 -142t183.5 -45q176 0 176 128q0 53 -30 89t-71 36q-65 0 -100 -61q-7 -13 -17 -6q-31 23 -57 67.5t-26 94.5q0 78 52 123.5t132 45.5
q103 0 176 -76t73 -201q0 -23 -6 -53t-25 -71t-49 -73.5t-85 -55.5t-125 -23zM708 349h1q39 0 66 -33t36.5 -74t6.5 -78q-1 -14 2.5 -16t11.5 5q52 41 52 130q0 109 -66 175t-150 66q-64 0 -111 -37t-42 -114q0 -8 4 -10q3 -1 4 3q1 1 1 2q25 100 142 100q85 0 141.5 -73
t41.5 -159q-2 -10 -6 -12q-2 -1 -4 3v7q1 16 -9 42.5t-29.5 55.5t-56.5 49.5t-82 20.5q-53 0 -84 -25t-31 -53q0 -34 25 -46q36 71 136 71zM176 466l-27 4q3 -96 59.5 -169t160.5 -73q79 0 98 21q5 5 5 8t-7 2q-89 -8 -156.5 38.5t-132.5 168.5z" />
    <glyph glyph-name="orn.017" unicode="&#xe05f;" horiz-adv-x="836" 
d="M470 367q8 -1 6 -45l-2 -44q1 -12 7 -17t15 0l24 12l31.5 15.5t31 12.5t36.5 10q-6 7 -19 33.5t-26 42.5q-24 32 -58 44q-26 10 -60 14q-16 2 -3 20q29 36 100 32q26 -2 51 -18t39 -35q33 -44 11 -98q-9 -24 -11 -30q38 6 97 -5q21 10 32 4q-3 -20 12 -43t30 -35
q11 -7 4 -20q-1 -3 -5.5 -3.5t-11 2.5t-12.5 9q-65 67 -142 67q9 -19 22 -35.5t22 -24.5t24 -19t17 -13q10 -11 19.5 -33t11.5 -40q1 -19 19 -31q10 -7 1 -14q-12 -9 -30 0q-5 1 -27.5 3.5t-38.5 5.5q-33 7 -48 34q-8 14 -10.5 43t-2.5 66t-3 55q-69 -22 -101 -73
q-9 -10 3 -18q23 -15 46 -26q19 -10 17 -38q0 -14 -11 -36.5t-24 -34.5q-28 -28 -78 -50t-105 -25q-139 -9 -231 101q-45 56 -38 78q-46 13 -71 46q-16 19 -13.5 45t22.5 43q17 14 44 18q7 1 18 -2.5t14 -7.5q2 -5 -10 -6q-17 -2 -31 -19q-8 -11 -7.5 -28t7.5 -26
q17 -24 54 -29q38 -6 80 42t64 108q13 37 44 55t71 15q22 -1 40.5 -12t24 -18zM441 223q-66 -47 -151 -66.5t-117 2.5q-9 6 -11 1q-1 -5 7 -12q44 -39 113 -38q100 2 154 66q14 17 18 37q2 11 -1.5 13.5t-11.5 -3.5z" />
    <glyph glyph-name="orn.018" unicode="&#xe060;" horiz-adv-x="836" 
d="M366 367q25 34 45 44q17 9 38 11q40 2 71.5 -16t43.5 -54q23 -62 64.5 -109.5t80.5 -41.5q37 5 54 29q7 9 7.5 26t-7.5 28q-14 17 -32 19q-12 0 -11 4q0 1 2 2q10 12 32 10q27 -4 44 -18q20 -17 22 -43t-13 -45q-25 -33 -71 -46q7 -22 -38 -78q-92 -110 -231 -101
q-56 4 -106 26t-77 49q-13 12 -24 34.5t-11 36.5q-2 28 17 38q25 12 46 26q10 8 2 18q-32 51 -100 73q-3 -18 -3 -55t-2.5 -66t-10.5 -43q-15 -27 -48 -34q-16 -3 -38.5 -5.5t-27.5 -3.5q-18 -9 -30 0q-9 7 1 14q17 11 19 31q6 48 31 73q2 2 17 13t24 19t22 24.5t22 35.5
q-78 0 -142 -67q-6 -6 -13 -9t-11 -2.5t-5 3.5q-7 13 4 20q47 43 41 78q13 6 32 -4q60 11 97 5q-3 14 -11 30q-21 52 11 98q40 49 91 53q70 4 99 -32q13 -18 -3 -20q-34 -4 -60 -14q-32 -13 -58 -44q-12 -15 -25 -41.5t-19 -34.5q17 -3 36 -10t31 -12.5t31 -15.5t24 -12
q9 -5 15 0t7 17q1 5 -0.5 25t-1 38.5t5.5 25.5zM395 223q-8 6 -11 3.5t-2 -13.5q4 -20 18 -37q54 -64 154 -66q70 -1 114 38q12 11 5 14q-4 1 -9 -3q-32 -22 -117.5 -2.5t-151.5 66.5z" />
    <glyph glyph-name="orn.019" unicode="&#xe061;" horiz-adv-x="637" 
d="M490 522q6 18 8 44q2 29 -11.5 50.5t-43.5 21.5q-13 0 -25.5 -10.5t-13.5 -33.5q-1 -31 26 -50.5t60 -21.5zM351 417q42 4 75 26.5t50 53.5q-42 2 -75.5 24t-32.5 69q1 33 23 56t52 23q42 0 62 -29.5t19 -67.5q-2 -30 -9 -49q32 6 53 29.5t21 54.5q0 45 -33 64
q-12 4 -13 9q0 3 4 4q8 1 25 -3l4 -3q3 -2 6 -4.5t8 -7.5t8.5 -10.5t7 -12.5t5.5 -16.5t2 -19.5q0 -51 -34.5 -79.5t-72.5 -32.5q-24 -50 -68 -79.5t-90 -32.5q-2 -27 -22 -87q24 18 57 29t54 11q50 0 79.5 -39t30.5 -93q0 -19 -2.5 -37t-5.5 -30.5t-10.5 -25.5t-12 -20
t-14.5 -17t-13.5 -13t-14.5 -11.5t-12 -9.5q-7 -4 -29 -1q-24 5 -76 0.5t-88 -17.5q-58 -21 -91.5 -47.5t-32.5 -53.5q1 -20 13.5 -31t30.5 -11q6 0 12 0.5t12.5 2.5t11 4l12 5.5l11.5 5.5t12 7.5t11.5 7.5t13 8.5l12.5 8.5q76 54 120 54q36 0 59.5 -22.5t23.5 -65.5
q0 -53 -30.5 -82t-63.5 -29q-35 0 -50.5 19.5t-16.5 42.5q0 11 3 11q1 0 3 -3q8 -14 43 -14q22 1 42 19.5t20 46.5q0 14 -9.5 26t-31.5 12q-39 0 -105 -49l-17 -12.5t-18.5 -13l-17.5 -11t-19.5 -11t-18.5 -8t-21.5 -6t-21.5 -1.5q-45 0 -73.5 28.5t-28.5 71.5q0 31 10.5 54
t21 38t10.5 29q0 12 -7 23t-12.5 16t-19.5 16q-17 13 -29.5 38.5t-13.5 54.5q0 69 46 111q55 49 125 49q62 0 89 -48q16 27 25 71q-55 4 -89.5 32.5t-33.5 79.5q1 36 22.5 58t35.5 22q13 0 30 -4q-34 41 -101 41q-55 0 -100 -49q-12 -12 -12 6q1 5 11.5 22t21.5 28
q-14 13 2 29q20 12 64 12q51 0 89.5 -20.5t59.5 -53.5t31 -69.5t8 -74.5q0 -21 -1 -26zM319 416q3 18 3 33q2 26 -7.5 57.5t-26.5 51.5q-27 -2 -42 -19t-16 -40q-1 -31 23 -54.5t66 -28.5z" />
    <glyph glyph-name="orn.020" unicode="&#xe062;" horiz-adv-x="622" 
d="M402 536q24 17 43 21q10 0 25 -23q-14 -9 -17 -13q32 -16 70 -31q13 -5 59 13q3 1 8.5 -6t6.5 -17q-22 -8 -60 -39q-9 -7 -18 1q-54 42 -109 54q-33 -22 -56 -59t-30 -61q0 -7 -12 -10q-8 -2 -11.5 -2t-2.5 4q11 75 72 139q-47 13 -90 15q-46 1 -84 -37q-15 6 -11 17
q29 37 34 48q3 10 16 19q4 2 27 7q2 -1 15.5 -9.5t22.5 -10.5zM219 411q26 -4 42.5 -16t21 -20.5t3.5 -12.5q-65 -63 -99 -155.5t-36 -162.5q0 -6 2.5 -9.5t5.5 -2t5 9.5q26 102 59.5 164.5t95.5 141.5q77 47 148 35q42 -7 68.5 -49t12.5 -100q-10 -42 -34.5 -74t-64 -53
t-77 -34t-91.5 -26q-100 -25 -108 -75q-7 -41 19 -63q6 -4 -3 -8q-10 -8 -25 -4q-9 2 -18.5 11.5t-16 34.5t-2.5 59q1 17 -18 33q-14 13 -28 30.5t-32.5 46.5t-26.5 67t-2 75q15 81 70 125q59 41 129 32z" />
    <glyph glyph-name="orn.021" unicode="&#xe063;" horiz-adv-x="902" 
d="M610 448q21 -6 39 -23.5t23 -32.5q3 -11 21 -15q41 -3 89 22q29 14 42 41t-1 41q-10 13 9 13q15 0 29 17q9 9 18 -1q10 -12 6 -36q-6 -39 -41.5 -71t-68.5 -46.5t-63 -20.5q-15 -4 -9 -16q10 -18 7 -32q-13 -47 -40.5 -91.5t-56.5 -72.5t-55 -43.5t-37 -11.5
q-8 2 -11.5 9t-1 23t6 30t12.5 43q-99 -113 -131 -105q-18 6 16 95q-58 -59 -101 -92t-58 -38.5t-22 -3.5q-15 7 -12 24.5t21 60.5q-51 -24 -91 -52.5t-61.5 -52.5t-32.5 -40.5t-13 -25.5t-6.5 -13t-8 -3t-5.5 5q-9 21 -1 52q11 40 33.5 75t56 62t67 48t79.5 40t78.5 30.5
t79.5 26.5q37 12 96 29.5l87.5 26.5t33.5 13q10 6 8.5 10.5t-11.5 6.5q-80 3 -248 -54q-134 -47 -219.5 -104t-112.5 -97q-6 -1 -7 4q4 28 47 72.5t117 90.5q-56 14 -52 37q4 14 40.5 23.5t128.5 19.5q-28 14 -36 25t-4.5 15.5t14.5 12.5q41 28 152 46t161 4z" />
    <glyph glyph-name="orn.022" unicode="&#xe064;" horiz-adv-x="1187" 
d="M753 379h1q70 0 136 -12t109.5 -28.5t80.5 -35.5t52 -29.5t20 -15.5q7 -5 7 -21q0 -2 -2.5 -3.5t-4.5 0.5q-163 118 -410 118q-187 0 -312 -84q-12 -5 -27 1q-12 10 -2 16q38 38 127.5 66t224.5 28zM655 115h-1q-49 0 -95 8.5t-76.5 21t-55 26.5t-36 23.5t-14.5 14.5
q-9 16 -24 18q-56 9 -132 9q-157 0 -185 -55q-2 -5 -5 -7t-5 0.5t-2 10.5q4 23 27 41q-23 10 2 27q31 22 110 22q93 0 183 -14q305 -43 446 -43q148 0 224 30q15 7 15 -6q0 -11 -16 -28q16 7 32.5 15t26 14l18.5 12t10 6q2 0 4 -3t2 -8t-4 -9q-43 -44 -184.5 -85t-264.5 -41
z" />
    <glyph glyph-name="orn.023" unicode="&#xe065;" horiz-adv-x="829" 
d="M403 -67l-23 21q8 75 8 150q-3 23 -18 13q-47 -37 -98 -37q-105 0 -165 59.5t-83 153.5q-5 28 0 32q8 13 50 24t86 11q33 0 68 -11t55 -28q-15 35 -15 78q0 81 47.5 153t84.5 72q39 0 80 -71t41 -151q0 -48 -13 -94q76 48 157 48q92 0 132 -51q8 -8 8 -19
q0 -62 -75.5 -131t-150.5 -69q-77 0 -143 30q-9 3 -11 0.5t-2 -11.5q-5 -114 6 -143l-2 -13zM385 593q-14 -11 -30 -30.5t-34 -66.5t-18 -101q0 -105 79 -172q6 364 3 370zM420 584l-1 -57q-1 -57 -1.5 -120l-1 -123t0.5 -67q69 53 69 173q0 69 -22.5 125.5t-43.5 68.5z
M562 121h1q21 0 44.5 5t54.5 18.5t60.5 43.5t49.5 73q-13 2 -62 -9.5t-125.5 -41t-138.5 -68.5q1 0 13.5 -4.5t23 -7.5t32.5 -6t47 -3zM770 294q-2 5 -10 11t-33 13t-62 7q-73 0 -142 -43t-91 -110q56 32 160 72.5t178 49.5zM281 112h1q45 0 70 23q-70 25 -157.5 70.5
t-140.5 93.5q-1 -21 13.5 -51t41.5 -61t73 -53t99 -22zM73 317q31 -25 136.5 -80t165.5 -78q0 8 -13 32.5t-44.5 59t-71.5 53.5q-90 43 -173 13z" />
    <glyph glyph-name="orn.024" unicode="&#xe066;" horiz-adv-x="548" 
d="M123 78h-10q-33 70 -48 119.5t-15 117.5q0 102 36 153q2 6 18 19q7 3 14 -7q30 -39 45 -101t15 -111q0 -52 -18 -132l6 2q2 5 16.5 52t28 83t39.5 87t56 86q52 60 105.5 85t85.5 25q16 0 20 -12l-17 -9q1 -30 -21.5 -82t-55.5 -96q-35 -48 -74 -89t-76 -74.5t-45 -42.5
q58 35 120 35q60 0 89 -32t29 -85q0 -21 -5 -26t-13 -1q-24 17 -73.5 30.5t-109.5 13.5q-88 0 -129 -33q-22 -22 -40 -64q-25 -59 -14 -84q-2 -2 -6.5 -7t-8.5 -9q-4 7 -15 20t-15 15q-4 8 -2 18q16 58 88 136zM102 454q-26 -62 -20 -159q4 -65 14 -107.5t36 -87.5
q7 67 3 160q-2 44 -12 109t-21 85zM479 536q-85 -19 -167.5 -132.5t-119.5 -262.5q55 84 140 201.5t147 193.5zM445 95q-37 59 -126 59q-37 0 -67 -15q-32 -15 -54 -36q58 17 126 10.5t112 -33.5q12 -9 13 0q1 6 -4 15z" />
    <glyph glyph-name="orn.025" unicode="&#xe067;" horiz-adv-x="868" 
d="M262 383h1q25 0 52 -18.5t34 -32.5q12 -14 20 -14q40 0 109 39q30 17 54.5 48.5t28.5 47.5q7 34 0 60q-10 28 -53 53t-93 34q-26 4 -28 15q-2 4 -2 5.5t2 3.5t7 5q17 10 25 30q3 9 13 9q3 0 18 -10q76 -61 125 -83q37 -14 84 -10q20 1 84 12q6 0 10.5 -10t4.5 -21
q0 -4 -4 -12.5t-7.5 -15t-3.5 -7.5t-3.5 -1.5t-8.5 0.5t-10 3q-9 9 -32 10q-8 0 -23 0.5t-22 1.5q-16 1 -28 -4q-7 -3 -4 -28l3 -18q0 -25 -16 -46q-19 -24 -32.5 -69.5t-13.5 -82.5q0 -50 16 -70q2 -6 8 2q41 40 83.5 59t105.5 9q15 -3 68 -3q9 0 9 -10q0 -8 -12 -16
q-5 -5 -19 -27t-21 -28q-12 -21 -73 -39q37 -10 57.5 -32.5t23 -47.5t0 -43t-7.5 -30q-4 -11 -14 -32.5t-15 -35.5q-4 -18 -12.5 -26.5t-15.5 -8.5t-7 41q0 13 -4.5 25t-9 19.5t-18.5 27l-23 32.5q1 -16 -1 -32t-6 -29t-11 -26.5t-13.5 -24t-16 -21l-16.5 -18t-16 -15
l-13.5 -11.5t-10.5 -8l-7 -5q-10 -10 -42 -10q-10 0 -10 20q0 8 -39 72q-16 27 -9 82q7 50 82 140q2 2 4 4.5t3 4t0 1.5q-41 76 -22 189q-17 -12 -50 -28.5t-63 -30t-33 -14.5q-8 -3 -10 -12q-2 -10 -51 -29q-21 -57 -22.5 -114.5t6 -86.5t14.5 -37q10 -17 5 -22
q-3 -4 -13.5 -9t-18.5 -5q-12 0 -61.5 27t-72.5 55t-26 75t4 58q-9 -1 -92 -26q-20 -5 -20 15q0 15 10 37q1 2 7 15.5t15.5 30.5t25.5 38q37 50 88.5 70t91.5 20zM647 36v1q0 24 -9.5 50t-18.5 34q-10 12 -24 17q-1 0 -6.5 -1t-8.5 -2q-24 -7 -42 -27q-45 -49 -52 -102
q-2 -21 3.5 -38.5t28.5 -57.5q5 60 28 127q6 22 19 41q7 -1 7 -12q-1 -7 -21 -98q-9 -43 -3 -86q99 65 99 154zM584 169q17 4 31 1q7 -4 53.5 -0.5t63.5 11.5q17 6 38.5 26.5t24.5 29.5q11 12 0 12q-40 11 -74 11q-30 0 -69 -22t-58 -46q-9 -12 -10 -23zM249 355h-1
q-61 0 -115.5 -50t-72.5 -101q-3 -8 -2 -11t7 -2t105 35q1 0 62.5 23t100.5 34q-16 9 -43.5 10t-46.5 -5q-35 -12 -67 -29q-40 -20 -59 -23q-7 0 -2 7q1 1 3 2q70 52 114 70q38 12 97 -8q-18 48 -80 48zM160 174v-3q-8 -65 18 -99q28 -37 68 -50q-34 43 -34 127
q0 9 6.5 17.5t14.5 11.5q-7 -101 44 -164l7 -3q-6 27 -8.5 44t0.5 64.5t19 99.5q-7 -2 -67 -22.5t-68 -22.5zM736 117l-18 -7q3 -5 18.5 -25.5t20.5 -35.5q8 -29 -5 -40q0 1 -3 11.5t-7 16.5q-24 44 -55 63l-12 -20q63 -73 72 -129l9 18t9.5 20l7 16.5t6 19.5t1.5 18
q0 40 -44 74zM705 231q30 6 52 3q14 -3 1 -8q-36 -12 -53 -17q-49 -15 -71 -19l-1 6q1 5 5 9q20 17 67 26z" />
    <glyph glyph-name="orn.026" unicode="&#xe068;" horiz-adv-x="868" 
d="M262 384h1q25 0 52 -19t35 -33q4 -8 6 -9t10 -1q10 0 42 9t63 25q40 20 61.5 48t26.5 49q9 31 0 59q-11 30 -54 55t-93 34q-26 5 -28 15q-2 4 -1.5 6t2 3.5t7.5 4.5q17 10 25 30q3 9 12 9q5 0 18 -10q82 -64 125 -83q35 -14 84 -10q13 1 33 3.5t34.5 5t16.5 2.5
q6 0 10.5 -10t4.5 -20q0 -5 -3.5 -13t-7.5 -14.5t-4 -7.5t-3.5 -1.5t-8.5 0.5t-9 3q-10 9 -33 10q-8 0 -23 0.5t-22 1.5q-16 1 -27 -3q-8 -5 -5 -28l3 -19q2 -25 -16 -45q-16 -28 -29.5 -78t-13.5 -90q0 -32 15 -42q6 -5 8 -4t9 8l19.5 12.5l21 13.5t20.5 12t24.5 10t26.5 6
t32 2.5t36 -3.5q26 -5 68 -5q10 0 10 -9q0 -8 -13 -16q-4 -4 -18 -26.5t-21 -28.5q-13 -22 -75 -40q38 -10 58.5 -32t23.5 -47t0.5 -43.5t-7.5 -29.5q-3 -6 -13.5 -29.5t-16.5 -38.5q-4 -19 -13 -27t-16 -8q-6 0 -6 41q0 13 -4.5 25t-9 19.5t-18.5 27l-23 32.5
q3 -38 -10.5 -73.5t-37.5 -60.5t-37.5 -36.5t-25.5 -19.5q-9 -10 -42 -10q-10 0 -10 19q0 6 -8 20t-19 31t-14 23q-10 15 -11 28.5t4 51.5q7 47 74 131q6 8 8.5 15t1.5 10v2l-4 15q-26 84 -12 167q-17 -12 -49 -28l-64 -30.5t-33 -14.5q-8 -2 -11 -13q-1 -2 -1 -3
q0 -12 -49 -33q-21 -60 -22 -115.5t7 -82t15 -33.5q8 -17 3 -22q-3 -3 -15 -8.5t-21 -5.5q-11 0 -59 27.5t-70 54.5q-16 20 -22 50t-5 49.5t4 34.5q-7 -4 -27 -9.5t-41 -10.5t-23 -6q-9 -3 -14.5 5t-5.5 17q0 7 10 29q1 2 3 8t4.5 11t8 14.5t15.5 24.5t24 34q33 45 83 64.5
t89 19.5zM573 85q0 13 -9 13q-14 -17 -24 -46q-21 -72 -24 -125q-2 -25 19 -45q13 -12 12 0v2q-8 50 6 95q14 55 20 106zM230 313q-38 -13 -109 -67q-5 -7 -1 -10q26 6 56 21q30 16 65 28q22 7 70 7q9 0 11 6.5t-6 9.5q-46 20 -86 5zM234 177q-10 -3 -19.5 -12.5t-9.5 -17.5
q-2 -77 31 -119q13 -18 34 -25q4 0 4 2l-4 8q-43 62 -36 164zM756 50q-4 10 -10.5 19.5l-14.5 20.5t-13 19q-9 13 -28 2q-14 -7 -6 -12q25 -16 55 -61q3 -5 10 -26q17 9 7 38zM703 235q-48 -9 -72 -33q-10 -8 -6 -18q0 -2 2 -1q31 7 76 25q26 8 59 21q6 3 7.5 4.5t0 2.5
t-8.5 3q-24 6 -58 -4z" />
    </font>
</defs>
</svg>
