<svg xmlns="http://www.w3.org/2000/svg" viewBox="0 0 512 512"><title>Ресурс 1</title><g id="Слой_2" data-name="Слой 2"><g id="Layer_1" data-name="Layer 1"><path d="M256,0C114.84,0,0,114.84,0,256S114.84,512,256,512,512,397.16,512,256,397.16,0,256,0Zm0,462.45C142.16,462.45,49.55,369.84,49.55,256S142.16,49.55,256,49.55,462.45,142.16,462.45,256,369.84,462.45,256,462.45Z"/><path d="M256,198.19a16.53,16.53,0,0,1,16.52,16.52h49.55a66.16,66.16,0,0,0-41.29-61.23V107.35H231.23v46.13A66.05,66.05,0,0,0,256,280.77a16.52,16.52,0,1,1-16.52,16.52H189.94a66.16,66.16,0,0,0,41.29,61.23v46.13h49.55V358.52A66.05,66.05,0,0,0,256,231.23a16.52,16.52,0,0,1,0-33Z"/></g></g></svg>