<svg xmlns="http://www.w3.org/2000/svg" viewBox="0 0 264 264"><title>Ресурс 1</title><g id="Слой_2" data-name="Слой 2"><g id="Слой_1-2" data-name="Слой 1"><path d="M132,264c72.78,0,132-59.21,132-132S204.78,0,132,0,0,59.21,0,132,59.21,264,132,264ZM45.94,197.17c10.46-4.11,23.63-7.39,38.43-9.64a219.74,219.74,0,0,0,8,33.12,133,133,0,0,0,5.41,13.78,108.45,108.45,0,0,1-51.8-37.26ZM24,132a107.42,107.42,0,0,1,9.53-44.34c13,5.55,29.38,9.85,47.84,12.63C80.47,110.54,80,121.17,80,132s.47,21.47,1.37,31.72c-18.47,2.77-34.86,7.07-47.84,12.63A107.36,107.36,0,0,1,24,132ZM132,24c2.59,0,10.11,6.59,16.9,26.94a193.76,193.76,0,0,1,6.85,28.14c-7.71.54-15.67.82-23.76.82s-16-.29-23.75-.82a193.35,193.35,0,0,1,6.86-28.14C121.89,30.59,129.41,24,132,24Zm0,79.9c9.14,0,18.11-.34,26.79-1C159.58,112.29,160,122,160,132s-.42,19.71-1.22,29.08c-8.68-.64-17.64-1-26.78-1s-18.1.34-26.78,1C104.42,151.71,104,142,104,132s.42-19.71,1.22-29.07c8.68.64,17.64,1,26.78,1ZM240,132a107.44,107.44,0,0,1-9.53,44.35c-13-5.56-29.37-9.85-47.84-12.63.9-10.25,1.37-20.88,1.37-31.72s-.47-21.47-1.37-31.71c18.47-2.78,34.86-7.07,47.84-12.63A107.38,107.38,0,0,1,240,132ZM132,240c-2.59,0-10.11-6.59-16.9-26.94a194.21,194.21,0,0,1-6.86-28.13c7.71-.54,15.67-.82,23.75-.82s16,.28,23.75.82a193.83,193.83,0,0,1-6.85,28.13C142.11,233.42,134.59,240,132,240Zm34.26-5.57a134,134,0,0,0,5.41-13.78,219.74,219.74,0,0,0,8-33.12c14.8,2.25,28,5.53,38.43,9.64a108.46,108.46,0,0,1-51.8,37.26Zm51.8-167.6c-10.46,4.11-23.63,7.39-38.43,9.64a219.74,219.74,0,0,0-8-33.12,133.32,133.32,0,0,0-5.41-13.78,108.47,108.47,0,0,1,51.8,37.26ZM97.74,29.57a132.87,132.87,0,0,0-5.41,13.78,219.85,219.85,0,0,0-8,33.12c-14.8-2.25-28-5.52-38.43-9.64a108.43,108.43,0,0,1,51.8-37.26Zm0,0"/></g></g></svg>