<svg xmlns="http://www.w3.org/2000/svg" viewBox="0 0 512 512"><title>Ресурс 1</title><g id="Слой_2" data-name="Слой 2"><g id="Layer_1" data-name="Layer 1"><path d="M448.6,330C423.32,303.35,393,284,361,273.41A156.54,156.54,0,0,0,412.9,156.9C412.9,70.39,342.52,0,256,0S99.1,70.39,99.1,156.9A156.55,156.55,0,0,0,151,273.41C119,284,88.68,303.36,63.4,330,22.52,373.11,0,428.94,0,487.23V512H512V487.23C512,428.94,489.48,373.11,448.6,330ZM256,49.55A107.35,107.35,0,1,1,148.65,156.9,107.48,107.48,0,0,1,256,49.55ZM51.29,462.45c12.3-86.57,87.4-148.65,155.16-148.65h99.1c67.76,0,142.86,62.08,155.16,148.65Z"/></g></g></svg>