<svg xmlns="http://www.w3.org/2000/svg" viewBox="0 0 512 512"><title>Ресурс 1</title><g id="Слой_2" data-name="Слой 2"><g id="Layer_1" data-name="Layer 1"><path d="M256,0C114.84,0,0,114.84,0,256S114.84,512,256,512,512,397.16,512,256,397.16,0,256,0Zm0,462.45C142.16,462.45,49.55,369.84,49.55,256S142.16,49.55,256,49.55,462.45,142.16,462.45,256,369.84,462.45,256,462.45Z"/><polygon points="280.77 140.39 231.23 140.39 231.23 231.23 140.39 231.23 140.39 280.77 231.23 280.77 231.23 371.61 280.77 371.61 280.77 280.77 371.61 280.77 371.61 231.23 280.77 231.23 280.77 140.39"/></g></g></svg>