<svg xmlns="http://www.w3.org/2000/svg" viewBox="0 0 512 453.55"><title>Ресурс 1</title><g id="Слой_2" data-name="Слой 2"><g id="Capa_1" data-name="Capa 1"><rect x="135.5" y="224.75" width="30.02" height="30"/><path d="M150.51,74.62A51.74,51.74,0,0,0,98.83,126.3h30A21.68,21.68,0,1,1,150.51,148h-15v46.73h30V175.76a51.68,51.68,0,0,0-15-101.14Z"/><path d="M301,60.05V0H0V329.37H50.46V393.5l89.89-64.14H240.4v60.05H371.65l89.89,64.13V389.42H512V60.05ZM130.75,299.36,80.46,335.24V299.36H30V30H271V299.37H130.75ZM482,359.41H431.54v35.88l-50.29-35.88H270.4v-30H301V90.05H482Z"/><polygon points="331.06 274.79 331.06 304.79 421.14 304.79 421.14 274.79 391.1 274.79 391.1 204.73 331.06 204.73 331.06 234.73 361.1 234.73 361.1 274.79 331.06 274.79"/><rect x="361.09" y="144.67" width="30.02" height="30"/></g></g></svg>