<svg xmlns="http://www.w3.org/2000/svg" viewBox="0 0 395.61 512"><defs><style>.cls-1{fill:#dbd4b8;}</style></defs><title>2</title><g id="Слой_2" data-name="Слой 2"><g id="Capa_1" data-name="Capa 1"><path class="cls-1" d="M393.25,168.6A20,20,0,0,0,375.6,158H318.79a57,57,0,0,0-112.21,0H149a44,44,0,1,0-73.7,0H28.4a20,20,0,0,0-16.6,31.16L146,388.72V502a10,10,0,0,0,14,9.17l92-40.06a10,10,0,0,0,6-9.17V388.72L392.2,189.16A20,20,0,0,0,393.25,168.6ZM262.69,131a37.06,37.06,0,0,1,35.62,27H227.07A37.06,37.06,0,0,1,262.69,131ZM88.18,134a24,24,0,1,1,24,24A24,24,0,0,1,88.18,134ZM239.7,380.09a10,10,0,0,0-1.7,5.58v69.72l-72,31.35V395.67h36.13a10,10,0,0,0,0-20h-40.8L60.68,226h202a10,10,0,0,0,0-20H47.23L28.4,178H375.6Z"/><path class="cls-1" d="M236.13,88a44,44,0,1,0-44-44A44,44,0,0,0,236.13,88Zm0-68a24,24,0,1,1-24,24A24,24,0,0,1,236.13,20Z"/><path class="cls-1" d="M343,125.17a10,10,0,0,0,10-10V58.33a10,10,0,0,0-20,0v56.83A10,10,0,0,0,343,125.17Z"/><path class="cls-1" d="M343,35.5a10,10,0,1,0-7.07-2.93A10.08,10.08,0,0,0,343,35.5Z"/><path class="cls-1" d="M146.18,73.75a10,10,0,0,0,10-10v-41a10,10,0,0,0-20,0v41A10,10,0,0,0,146.18,73.75Z"/><path class="cls-1" d="M10,85.17a10,10,0,0,0,10-10V10A10,10,0,0,0,0,10V75.17A10,10,0,0,0,10,85.17Z"/><path class="cls-1" d="M17.07,119.74A10,10,0,1,0,2.93,105.6a10,10,0,1,0,14.14,14.14Z"/><path class="cls-1" d="M300.08,208.93a10,10,0,1,0,7.07-2.93A10,10,0,0,0,300.08,208.93Z"/></g></g></svg>