<svg xmlns="http://www.w3.org/2000/svg" viewBox="0 0 512 369.29"><defs><style>.cls-1{fill:#dbd4b8;}</style></defs><title>6</title><g id="Слой_2" data-name="Слой 2"><g id="Layer_1" data-name="Layer 1"><path class="cls-1" d="M509.07,122.71,414.3,27.94a10,10,0,0,0-14.15,14.15l87.7,87.7-51.27,51.27a4,4,0,0,1-5.69,0L329.63,79.8a4,4,0,0,1,0-5.7L364,39.7a10,10,0,1,0-14.15-14.15L315.48,60a24.06,24.06,0,0,0-5.1,26.41L298.75,98H217.38L202.69,83.33a24.15,24.15,0,0,0,.86-6.39,23.88,23.88,0,0,0-7-17L163,26.46a10,10,0,0,0-14.15,14.15l33.48,33.48a4,4,0,0,1,0,5.69l-2.79,2.79L81.09,181l-.09.1a4,4,0,0,1-5.57-.11L24.15,129.76,113,40.88A10,10,0,0,0,98.88,26.74L2.93,122.69a10,10,0,0,0,0,14.15l58.35,58.35A24,24,0,0,0,86.6,200.7l32.84,32.84a34.17,34.17,0,0,0,30.19,50.22h.13A34.23,34.23,0,0,0,183.82,318v0a34.17,34.17,0,0,0,50.25,30.18L246.3,360.4a30.35,30.35,0,0,0,51.78-20.17,30.89,30.89,0,0,0,29.36-31.28v-.05a33.63,33.63,0,0,0,31.5-33.61,32.7,32.7,0,0,0,28.23-47.38l32.81-30a24,24,0,0,0,30.74-2.69l58.35-58.35A10,10,0,0,0,509.07,122.71ZM302.89,118a10,10,0,0,0,7.07-2.93l13.33-13.33L405.53,184l-31.36,28.67-60.94-60.13h0l-.09-.09a10,10,0,0,0-8.2-2.81l-43.54-.48a10,10,0,0,0-7.18,2.93l-36.47,36.47a12,12,0,0,1-16.91-16.91L254.47,118h48.42ZM135.45,249.57a14.18,14.18,0,1,1,14.18,14.18A14.2,14.2,0,0,1,135.45,249.57ZM184,297.95a14.24,14.24,0,1,1,10.57-4.75q-.61.58-1.19,1.19A14.11,14.11,0,0,1,184,297.95Zm19.88,20a14.11,14.11,0,0,1,3.62-9.43q.61-.58,1.19-1.19a14.17,14.17,0,0,1,19.54,20.49L228,328l-.14.15A14.17,14.17,0,0,1,203.83,318Zm163.11-66.43a12.68,12.68,0,0,1-17.93,0l-20.78-20.78a10,10,0,0,0-14.15,14.15l20.78,20.78h0l.06.06A13.57,13.57,0,0,1,316,285.24l-20-18.94a10,10,0,0,0-13.75,14.53L304,301.45a10.91,10.91,0,1,1-15.21,15.63L278.72,307a10,10,0,1,0-14.15,14.15l10.5,10.5a10.34,10.34,0,1,1-14.63,14.63L248.21,334a34.17,34.17,0,0,0-30.07-50.21v0a34.23,34.23,0,0,0-34.19-34.19h-.13a34.17,34.17,0,0,0-50.24-30.18l-31.27-31.26,88.44-88.44,15.4,15.4a10,10,0,0,0,7.07,2.93h12.95L186.69,157.5a32,32,0,0,0,45.21,45.2l33.49-33.49,36.67.4,64.82,64a12.68,12.68,0,0,1,.06,18Z"/><circle class="cls-1" cx="438.34" cy="134.38" r="9.98"/><circle class="cls-1" cx="72.64" cy="135.39" r="9.98"/><circle class="cls-1" cx="131.06" cy="10.78" r="9.98"/><circle class="cls-1" cx="380.76" cy="9.98" r="9.98"/></g></g></svg>