<svg xmlns="http://www.w3.org/2000/svg" viewBox="0 0 434.13 512"><defs><style>.cls-1{fill:#dbd4b8;}</style></defs><title>1</title><g id="Слой_2" data-name="Слой 2"><g id="Capa_1" data-name="Capa 1"><path class="cls-1" d="M324,432H30A30,30,0,0,1,0,402V216.33a10,10,0,1,1,20,0V402a10,10,0,0,0,10,10H324a10,10,0,0,0,10-10V30a10,10,0,0,0-10-10H30A10,10,0,0,0,20,30V132a10,10,0,1,1-20,0V30A30,30,0,0,1,30,0H324a30,30,0,0,1,30,30V402A30,30,0,0,1,324,432Z"/><path class="cls-1" d="M10,186.78a10,10,0,1,1,7.07-17.08A10,10,0,0,1,10,186.78Z"/><path class="cls-1" d="M50.06,472.06a10,10,0,1,1,7.07-2.93A10,10,0,0,1,50.06,472.06Z"/><path class="cls-1" d="M364.06,472.06h-274a10,10,0,1,1,0-20h274a10,10,0,0,0,10-10v-392a10,10,0,0,1,20,0v392A30,30,0,0,1,364.06,472.06Z"/><path class="cls-1" d="M404.13,512h-314a10,10,0,0,1,0-20h314a10,10,0,0,0,10-10V90a10,10,0,0,1,20,0V482A30,30,0,0,1,404.13,512Z"/><path class="cls-1" d="M162,190H66a10,10,0,0,1-10-10V84A10,10,0,0,1,66,74h96a10,10,0,0,1,10,10v96A10,10,0,0,1,162,190ZM76,170h76V94H76Z"/><path class="cls-1" d="M89.1,286.13h0A10,10,0,0,1,82,283.2L62.6,263.77a10,10,0,1,1,14.14-14.14L89.1,262l26.58-26.58a10,10,0,1,1,14.14,14.14L96.17,283.2A10,10,0,0,1,89.1,286.13Z"/><path class="cls-1" d="M293.67,269H177a10,10,0,0,1,0-20H293.67a10,10,0,1,1,0,20Z"/><path class="cls-1" d="M288,94H218a10,10,0,0,1,0-20h70a10,10,0,0,1,0,20Z"/><path class="cls-1" d="M288,142H218a10,10,0,0,1,0-20h70a10,10,0,0,1,0,20Z"/><path class="cls-1" d="M288,190H218a10,10,0,0,1,0-20h70a10,10,0,0,1,0,20Z"/><path class="cls-1" d="M89.1,362.49h0A10,10,0,0,1,82,359.57L62.6,340.13A10,10,0,0,1,76.74,326L89.1,338.35l26.58-26.58a10,10,0,0,1,14.14,14.14L96.17,359.56A10,10,0,0,1,89.1,362.49Z"/><path class="cls-1" d="M293.67,345H177a10,10,0,0,1,0-20H293.67a10,10,0,1,1,0,20Z"/></g></g></svg>